M48
; DRILL file {KiCad (6.0.1)} date Sat Feb  5 13:29:46 2022
; FORMAT={-:-/ absolute / metric / decimal}
; #@! TF.CreationDate,2022-02-05T13:29:46-05:00
; #@! TF.GenerationSoftware,Kicad,Pcbnew,(6.0.1)
; #@! TF.FileFunction,Plated,1,4,PTH
FMAT,2
METRIC
; #@! TA.AperFunction,Plated,PTH,ViaDrill
T1C0.400
; #@! TA.AperFunction,Plated,PTH,ComponentDrill
T2C0.762
; #@! TA.AperFunction,Plated,PTH,ComponentDrill
T3C0.800
; #@! TA.AperFunction,Plated,PTH,ComponentDrill
T4C1.000
; #@! TA.AperFunction,Plated,PTH,ComponentDrill
T5C1.100
; #@! TA.AperFunction,Plated,PTH,ComponentDrill
T6C1.200
; #@! TA.AperFunction,Plated,PTH,ComponentDrill
T7C2.200
; #@! TA.AperFunction,Plated,PTH,ComponentDrill
T8C4.300
%
G90
G05
T1
X37.465Y-67.945
X37.465Y-69.215
X37.465Y-71.755
X43.18Y-69.215
X43.18Y-73.025
X45.085Y-71.755
X46.355Y-70.485
X61.595Y-76.2
X62.865Y-94.615
X63.5Y-99.695
X63.5Y-104.14
X64.135Y-96.52
X68.58Y-99.695
X68.58Y-104.14
X71.12Y-88.9
X74.93Y-52.705
X88.9Y-43.18
X88.9Y-45.085
X88.9Y-46.99
X88.9Y-48.895
X88.9Y-50.8
X90.805Y-43.18
X90.805Y-45.085
X90.805Y-46.99
X90.805Y-48.895
X90.805Y-50.8
X92.71Y-43.18
X92.71Y-45.085
X92.71Y-48.895
X92.71Y-50.8
X95.25Y-43.18
X95.25Y-45.085
X95.25Y-46.99
X95.25Y-48.895
X95.25Y-50.8
X99.695Y-80.645
X114.3Y-80.645
X122.555Y-80.645
T2
X74.295Y-60.325
X74.295Y-62.865
X74.295Y-85.725
X74.295Y-88.265
X74.295Y-90.805
X74.295Y-93.345
X74.295Y-95.885
X76.835Y-60.325
X76.835Y-62.865
X76.835Y-85.725
X76.835Y-88.265
X76.835Y-90.805
X76.835Y-93.345
X76.835Y-95.885
X79.375Y-60.325
X79.375Y-62.865
X79.375Y-93.345
X79.375Y-95.885
X81.915Y-60.325
X81.915Y-62.865
X81.915Y-93.345
X81.915Y-95.885
X84.455Y-60.325
X84.455Y-62.865
X84.455Y-93.345
X84.455Y-95.885
X86.995Y-60.325
X86.995Y-62.865
X86.995Y-93.345
X86.995Y-95.885
X89.535Y-60.325
X89.535Y-62.865
X89.535Y-93.345
X89.535Y-95.885
X92.075Y-60.325
X92.075Y-62.865
X92.075Y-93.345
X92.075Y-95.885
X94.615Y-60.325
X94.615Y-62.865
X94.615Y-93.345
X94.615Y-95.885
X97.155Y-60.325
X97.155Y-62.865
X97.155Y-93.345
X97.155Y-95.885
X99.695Y-60.325
X99.695Y-62.865
X99.695Y-93.345
X99.695Y-95.885
X102.235Y-60.325
X102.235Y-62.865
X102.235Y-93.345
X102.235Y-95.885
X104.775Y-60.325
X104.775Y-62.865
X104.775Y-93.345
X104.775Y-95.885
X107.315Y-60.325
X107.315Y-62.865
X107.315Y-93.345
X107.315Y-95.885
X109.855Y-60.325
X109.855Y-62.865
X109.855Y-93.345
X109.855Y-95.885
X112.395Y-60.325
X112.395Y-62.865
X112.395Y-93.345
X112.395Y-95.885
X114.935Y-60.325
X114.935Y-62.865
X117.475Y-60.325
X117.475Y-62.865
X120.015Y-60.325
X120.015Y-62.865
X122.555Y-60.325
X122.555Y-62.865
X125.095Y-60.325
X125.095Y-62.865
T3
X40.7Y-42.815
X41.275Y-99.06
X41.275Y-106.68
X42.825Y-79.84
X42.825Y-87.46
X43.815Y-99.06
X43.815Y-106.68
X45.365Y-79.84
X45.365Y-87.46
X46.355Y-99.06
X46.355Y-106.68
X47.905Y-79.84
X47.905Y-87.46
X48.2Y-44.815
X48.26Y-50.79
X48.26Y-63.49
X48.895Y-99.06
X48.895Y-106.68
X50.445Y-79.84
X50.445Y-87.46
X50.8Y-50.79
X50.8Y-63.49
X53.34Y-50.79
X53.34Y-63.49
X55.88Y-50.79
X55.88Y-63.49
X58.42Y-50.79
X58.42Y-63.49
X60.96Y-50.79
X60.96Y-63.49
X63.475Y-68.58
X63.5Y-50.79
X63.5Y-63.49
X65.975Y-68.58
X66.04Y-50.79
X66.04Y-63.49
X94.625Y-99.685
X94.625Y-107.305
X97.165Y-99.685
X97.165Y-107.305
X99.705Y-99.685
X99.705Y-107.305
X102.245Y-99.685
X102.245Y-107.305
X107.305Y-99.705
X107.305Y-107.325
X109.845Y-99.705
X109.845Y-107.325
X112.385Y-99.705
X112.385Y-107.325
X114.925Y-99.705
X114.925Y-107.325
T4
X59.06Y-82.535
X59.06Y-85.075
X59.06Y-87.615
X61.6Y-82.535
X61.6Y-85.075
X61.6Y-87.615
X67.945Y-90.17
X70.485Y-60.945
X70.485Y-63.485
X70.485Y-66.025
X76.835Y-100.33
X79.375Y-100.33
X107.95Y-56.515
X110.49Y-56.515
X113.03Y-56.515
X115.57Y-56.515
X118.11Y-56.515
X120.65Y-56.515
T5
X56.515Y-100.33
X56.515Y-102.87
X56.515Y-105.41
X81.915Y-84.455
X81.915Y-88.265
X89.535Y-84.455
X89.535Y-88.265
T6
X30.02Y-59.6
X30.02Y-61.8
X30.02Y-64.0
X30.02Y-66.2
X30.02Y-68.4
X30.02Y-70.6
X30.02Y-72.8
X30.02Y-75.0
X30.02Y-77.2
X30.02Y-79.4
X30.02Y-81.6
X30.02Y-83.8
X30.02Y-86.0
X30.02Y-88.2
X30.02Y-90.4
X30.02Y-92.6
X30.02Y-95.4
X30.02Y-98.2
X33.02Y-59.6
X33.02Y-61.8
X33.02Y-64.0
X33.02Y-66.2
X33.02Y-68.4
X33.02Y-70.6
X33.02Y-72.8
X33.02Y-75.0
X33.02Y-77.2
X33.02Y-79.4
X33.02Y-81.6
X33.02Y-83.8
X33.02Y-86.0
X33.02Y-88.2
X33.02Y-90.4
X33.02Y-92.6
X33.02Y-95.4
X33.02Y-98.2
T7
X29.845Y-43.815
X29.845Y-111.125
T8
X121.92Y-45.72
X121.92Y-109.22
T0
M30
