G04 #@! TF.GenerationSoftware,KiCad,Pcbnew,(6.0.1)*
G04 #@! TF.CreationDate,2022-02-05T13:28:53-05:00*
G04 #@! TF.ProjectId,klxecu,6b6c7865-6375-42e6-9b69-6361645f7063,rev?*
G04 #@! TF.SameCoordinates,Original*
G04 #@! TF.FileFunction,Legend,Bot*
G04 #@! TF.FilePolarity,Positive*
%FSLAX46Y46*%
G04 Gerber Fmt 4.6, Leading zero omitted, Abs format (unit mm)*
G04 Created by KiCad (PCBNEW (6.0.1)) date 2022-02-05 13:28:53*
%MOMM*%
%LPD*%
G01*
G04 APERTURE LIST*
G04 Aperture macros list*
%AMRoundRect*
0 Rectangle with rounded corners*
0 $1 Rounding radius*
0 $2 $3 $4 $5 $6 $7 $8 $9 X,Y pos of 4 corners*
0 Add a 4 corners polygon primitive as box body*
4,1,4,$2,$3,$4,$5,$6,$7,$8,$9,$2,$3,0*
0 Add four circle primitives for the rounded corners*
1,1,$1+$1,$2,$3*
1,1,$1+$1,$4,$5*
1,1,$1+$1,$6,$7*
1,1,$1+$1,$8,$9*
0 Add four rect primitives between the rounded corners*
20,1,$1+$1,$2,$3,$4,$5,0*
20,1,$1+$1,$4,$5,$6,$7,0*
20,1,$1+$1,$6,$7,$8,$9,0*
20,1,$1+$1,$8,$9,$2,$3,0*%
G04 Aperture macros list end*
%ADD10C,0.150000*%
%ADD11C,0.120000*%
%ADD12R,1.700000X1.700000*%
%ADD13O,1.700000X1.700000*%
%ADD14C,1.800000*%
%ADD15R,1.600000X1.600000*%
%ADD16O,1.600000X1.600000*%
%ADD17C,1.524000*%
%ADD18R,2.000000X1.905000*%
%ADD19O,2.000000X1.905000*%
%ADD20C,8.600000*%
%ADD21R,2.200000X2.200000*%
%ADD22O,2.200000X2.200000*%
%ADD23C,1.600000*%
%ADD24C,3.800000*%
%ADD25C,1.700000*%
%ADD26C,4.400000*%
%ADD27RoundRect,0.250000X-0.337500X-0.475000X0.337500X-0.475000X0.337500X0.475000X-0.337500X0.475000X0*%
%ADD28RoundRect,0.250000X-0.450000X0.350000X-0.450000X-0.350000X0.450000X-0.350000X0.450000X0.350000X0*%
%ADD29RoundRect,0.250000X0.450000X-0.350000X0.450000X0.350000X-0.450000X0.350000X-0.450000X-0.350000X0*%
%ADD30RoundRect,0.250000X-0.475000X0.337500X-0.475000X-0.337500X0.475000X-0.337500X0.475000X0.337500X0*%
%ADD31RoundRect,0.250000X-0.350000X-0.450000X0.350000X-0.450000X0.350000X0.450000X-0.350000X0.450000X0*%
G04 APERTURE END LIST*
D10*
X74302857Y-83542142D02*
X74350476Y-83589761D01*
X74493333Y-83637380D01*
X74588571Y-83637380D01*
X74731428Y-83589761D01*
X74826666Y-83494523D01*
X74874285Y-83399285D01*
X74921904Y-83208809D01*
X74921904Y-83065952D01*
X74874285Y-82875476D01*
X74826666Y-82780238D01*
X74731428Y-82685000D01*
X74588571Y-82637380D01*
X74493333Y-82637380D01*
X74350476Y-82685000D01*
X74302857Y-82732619D01*
X73350476Y-83637380D02*
X73921904Y-83637380D01*
X73636190Y-83637380D02*
X73636190Y-82637380D01*
X73731428Y-82780238D01*
X73826666Y-82875476D01*
X73921904Y-82923095D01*
X72969523Y-82732619D02*
X72921904Y-82685000D01*
X72826666Y-82637380D01*
X72588571Y-82637380D01*
X72493333Y-82685000D01*
X72445714Y-82732619D01*
X72398095Y-82827857D01*
X72398095Y-82923095D01*
X72445714Y-83065952D01*
X73017142Y-83637380D01*
X72398095Y-83637380D01*
X107767380Y-80478333D02*
X107291190Y-80145000D01*
X107767380Y-79906904D02*
X106767380Y-79906904D01*
X106767380Y-80287857D01*
X106815000Y-80383095D01*
X106862619Y-80430714D01*
X106957857Y-80478333D01*
X107100714Y-80478333D01*
X107195952Y-80430714D01*
X107243571Y-80383095D01*
X107291190Y-80287857D01*
X107291190Y-79906904D01*
X107195952Y-81049761D02*
X107148333Y-80954523D01*
X107100714Y-80906904D01*
X107005476Y-80859285D01*
X106957857Y-80859285D01*
X106862619Y-80906904D01*
X106815000Y-80954523D01*
X106767380Y-81049761D01*
X106767380Y-81240238D01*
X106815000Y-81335476D01*
X106862619Y-81383095D01*
X106957857Y-81430714D01*
X107005476Y-81430714D01*
X107100714Y-81383095D01*
X107148333Y-81335476D01*
X107195952Y-81240238D01*
X107195952Y-81049761D01*
X107243571Y-80954523D01*
X107291190Y-80906904D01*
X107386428Y-80859285D01*
X107576904Y-80859285D01*
X107672142Y-80906904D01*
X107719761Y-80954523D01*
X107767380Y-81049761D01*
X107767380Y-81240238D01*
X107719761Y-81335476D01*
X107672142Y-81383095D01*
X107576904Y-81430714D01*
X107386428Y-81430714D01*
X107291190Y-81383095D01*
X107243571Y-81335476D01*
X107195952Y-81240238D01*
X79192380Y-76033333D02*
X78716190Y-75700000D01*
X79192380Y-75461904D02*
X78192380Y-75461904D01*
X78192380Y-75842857D01*
X78240000Y-75938095D01*
X78287619Y-75985714D01*
X78382857Y-76033333D01*
X78525714Y-76033333D01*
X78620952Y-75985714D01*
X78668571Y-75938095D01*
X78716190Y-75842857D01*
X78716190Y-75461904D01*
X79192380Y-76509523D02*
X79192380Y-76700000D01*
X79144761Y-76795238D01*
X79097142Y-76842857D01*
X78954285Y-76938095D01*
X78763809Y-76985714D01*
X78382857Y-76985714D01*
X78287619Y-76938095D01*
X78240000Y-76890476D01*
X78192380Y-76795238D01*
X78192380Y-76604761D01*
X78240000Y-76509523D01*
X78287619Y-76461904D01*
X78382857Y-76414285D01*
X78620952Y-76414285D01*
X78716190Y-76461904D01*
X78763809Y-76509523D01*
X78811428Y-76604761D01*
X78811428Y-76795238D01*
X78763809Y-76890476D01*
X78716190Y-76938095D01*
X78620952Y-76985714D01*
X110212142Y-84447142D02*
X110259761Y-84399523D01*
X110307380Y-84256666D01*
X110307380Y-84161428D01*
X110259761Y-84018571D01*
X110164523Y-83923333D01*
X110069285Y-83875714D01*
X109878809Y-83828095D01*
X109735952Y-83828095D01*
X109545476Y-83875714D01*
X109450238Y-83923333D01*
X109355000Y-84018571D01*
X109307380Y-84161428D01*
X109307380Y-84256666D01*
X109355000Y-84399523D01*
X109402619Y-84447142D01*
X110307380Y-85399523D02*
X110307380Y-84828095D01*
X110307380Y-85113809D02*
X109307380Y-85113809D01*
X109450238Y-85018571D01*
X109545476Y-84923333D01*
X109593095Y-84828095D01*
X110307380Y-86351904D02*
X110307380Y-85780476D01*
X110307380Y-86066190D02*
X109307380Y-86066190D01*
X109450238Y-85970952D01*
X109545476Y-85875714D01*
X109593095Y-85780476D01*
X45022142Y-102237142D02*
X45069761Y-102189523D01*
X45117380Y-102046666D01*
X45117380Y-101951428D01*
X45069761Y-101808571D01*
X44974523Y-101713333D01*
X44879285Y-101665714D01*
X44688809Y-101618095D01*
X44545952Y-101618095D01*
X44355476Y-101665714D01*
X44260238Y-101713333D01*
X44165000Y-101808571D01*
X44117380Y-101951428D01*
X44117380Y-102046666D01*
X44165000Y-102189523D01*
X44212619Y-102237142D01*
X44212619Y-102618095D02*
X44165000Y-102665714D01*
X44117380Y-102760952D01*
X44117380Y-102999047D01*
X44165000Y-103094285D01*
X44212619Y-103141904D01*
X44307857Y-103189523D01*
X44403095Y-103189523D01*
X44545952Y-103141904D01*
X45117380Y-102570476D01*
X45117380Y-103189523D01*
X44117380Y-103808571D02*
X44117380Y-103903809D01*
X44165000Y-103999047D01*
X44212619Y-104046666D01*
X44307857Y-104094285D01*
X44498333Y-104141904D01*
X44736428Y-104141904D01*
X44926904Y-104094285D01*
X45022142Y-104046666D01*
X45069761Y-103999047D01*
X45117380Y-103903809D01*
X45117380Y-103808571D01*
X45069761Y-103713333D01*
X45022142Y-103665714D01*
X44926904Y-103618095D01*
X44736428Y-103570476D01*
X44498333Y-103570476D01*
X44307857Y-103618095D01*
X44212619Y-103665714D01*
X44165000Y-103713333D01*
X44117380Y-103808571D01*
X100912142Y-88733333D02*
X100959761Y-88685714D01*
X101007380Y-88542857D01*
X101007380Y-88447619D01*
X100959761Y-88304761D01*
X100864523Y-88209523D01*
X100769285Y-88161904D01*
X100578809Y-88114285D01*
X100435952Y-88114285D01*
X100245476Y-88161904D01*
X100150238Y-88209523D01*
X100055000Y-88304761D01*
X100007380Y-88447619D01*
X100007380Y-88542857D01*
X100055000Y-88685714D01*
X100102619Y-88733333D01*
X100007380Y-89066666D02*
X100007380Y-89733333D01*
X101007380Y-89304761D01*
X72397857Y-81097380D02*
X72731190Y-80621190D01*
X72969285Y-81097380D02*
X72969285Y-80097380D01*
X72588333Y-80097380D01*
X72493095Y-80145000D01*
X72445476Y-80192619D01*
X72397857Y-80287857D01*
X72397857Y-80430714D01*
X72445476Y-80525952D01*
X72493095Y-80573571D01*
X72588333Y-80621190D01*
X72969285Y-80621190D01*
X71445476Y-81097380D02*
X72016904Y-81097380D01*
X71731190Y-81097380D02*
X71731190Y-80097380D01*
X71826428Y-80240238D01*
X71921666Y-80335476D01*
X72016904Y-80383095D01*
X70826428Y-80097380D02*
X70731190Y-80097380D01*
X70635952Y-80145000D01*
X70588333Y-80192619D01*
X70540714Y-80287857D01*
X70493095Y-80478333D01*
X70493095Y-80716428D01*
X70540714Y-80906904D01*
X70588333Y-81002142D01*
X70635952Y-81049761D01*
X70731190Y-81097380D01*
X70826428Y-81097380D01*
X70921666Y-81049761D01*
X70969285Y-81002142D01*
X71016904Y-80906904D01*
X71064523Y-80716428D01*
X71064523Y-80478333D01*
X71016904Y-80287857D01*
X70969285Y-80192619D01*
X70921666Y-80145000D01*
X70826428Y-80097380D01*
X107767380Y-77938333D02*
X107291190Y-77605000D01*
X107767380Y-77366904D02*
X106767380Y-77366904D01*
X106767380Y-77747857D01*
X106815000Y-77843095D01*
X106862619Y-77890714D01*
X106957857Y-77938333D01*
X107100714Y-77938333D01*
X107195952Y-77890714D01*
X107243571Y-77843095D01*
X107291190Y-77747857D01*
X107291190Y-77366904D01*
X107100714Y-78795476D02*
X107767380Y-78795476D01*
X106719761Y-78557380D02*
X107434047Y-78319285D01*
X107434047Y-78938333D01*
X72397857Y-78462142D02*
X72445476Y-78509761D01*
X72588333Y-78557380D01*
X72683571Y-78557380D01*
X72826428Y-78509761D01*
X72921666Y-78414523D01*
X72969285Y-78319285D01*
X73016904Y-78128809D01*
X73016904Y-77985952D01*
X72969285Y-77795476D01*
X72921666Y-77700238D01*
X72826428Y-77605000D01*
X72683571Y-77557380D01*
X72588333Y-77557380D01*
X72445476Y-77605000D01*
X72397857Y-77652619D01*
X71445476Y-78557380D02*
X72016904Y-78557380D01*
X71731190Y-78557380D02*
X71731190Y-77557380D01*
X71826428Y-77700238D01*
X71921666Y-77795476D01*
X72016904Y-77843095D01*
X70826428Y-77557380D02*
X70731190Y-77557380D01*
X70635952Y-77605000D01*
X70588333Y-77652619D01*
X70540714Y-77747857D01*
X70493095Y-77938333D01*
X70493095Y-78176428D01*
X70540714Y-78366904D01*
X70588333Y-78462142D01*
X70635952Y-78509761D01*
X70731190Y-78557380D01*
X70826428Y-78557380D01*
X70921666Y-78509761D01*
X70969285Y-78462142D01*
X71016904Y-78366904D01*
X71064523Y-78176428D01*
X71064523Y-77938333D01*
X71016904Y-77747857D01*
X70969285Y-77652619D01*
X70921666Y-77605000D01*
X70826428Y-77557380D01*
X105227380Y-85558333D02*
X104751190Y-85225000D01*
X105227380Y-84986904D02*
X104227380Y-84986904D01*
X104227380Y-85367857D01*
X104275000Y-85463095D01*
X104322619Y-85510714D01*
X104417857Y-85558333D01*
X104560714Y-85558333D01*
X104655952Y-85510714D01*
X104703571Y-85463095D01*
X104751190Y-85367857D01*
X104751190Y-84986904D01*
X104227380Y-86463095D02*
X104227380Y-85986904D01*
X104703571Y-85939285D01*
X104655952Y-85986904D01*
X104608333Y-86082142D01*
X104608333Y-86320238D01*
X104655952Y-86415476D01*
X104703571Y-86463095D01*
X104798809Y-86510714D01*
X105036904Y-86510714D01*
X105132142Y-86463095D01*
X105179761Y-86415476D01*
X105227380Y-86320238D01*
X105227380Y-86082142D01*
X105179761Y-85986904D01*
X105132142Y-85939285D01*
D11*
X77441248Y-82450000D02*
X77963752Y-82450000D01*
X77441248Y-83920000D02*
X77963752Y-83920000D01*
X106580000Y-88672936D02*
X106580000Y-89127064D01*
X108050000Y-88672936D02*
X108050000Y-89127064D01*
X79475000Y-79602064D02*
X79475000Y-79147936D01*
X78005000Y-79602064D02*
X78005000Y-79147936D01*
X109120000Y-88638748D02*
X109120000Y-89161252D01*
X110590000Y-88638748D02*
X110590000Y-89161252D01*
X45610000Y-102618748D02*
X45610000Y-103141252D01*
X47080000Y-102618748D02*
X47080000Y-103141252D01*
X101500000Y-88638748D02*
X101500000Y-89161252D01*
X102970000Y-88638748D02*
X102970000Y-89161252D01*
X75337936Y-81380000D02*
X75792064Y-81380000D01*
X75337936Y-79910000D02*
X75792064Y-79910000D01*
X108050000Y-84682064D02*
X108050000Y-84227936D01*
X106580000Y-84682064D02*
X106580000Y-84227936D01*
X75303748Y-78840000D02*
X75826252Y-78840000D01*
X75303748Y-77370000D02*
X75826252Y-77370000D01*
X104040000Y-89127064D02*
X104040000Y-88672936D01*
X105510000Y-89127064D02*
X105510000Y-88672936D01*
%LPC*%
D12*
X61600000Y-87615000D03*
D13*
X59060000Y-87615000D03*
X61600000Y-85075000D03*
X59060000Y-85075000D03*
X61600000Y-82535000D03*
X59060000Y-82535000D03*
D12*
X76835000Y-100330000D03*
D13*
X79375000Y-100330000D03*
D14*
X40700000Y-42815000D03*
X48200000Y-44815000D03*
D15*
X94625000Y-107305000D03*
D16*
X97165000Y-107305000D03*
X99705000Y-107305000D03*
X102245000Y-107305000D03*
X102245000Y-99685000D03*
X99705000Y-99685000D03*
X97165000Y-99685000D03*
X94625000Y-99685000D03*
D17*
X117475000Y-62865000D03*
X117475000Y-60325000D03*
X120015000Y-60325000D03*
X120015000Y-62865000D03*
X112395000Y-95885000D03*
X112395000Y-93345000D03*
X109855000Y-95885000D03*
X109855000Y-93345000D03*
X107315000Y-95885000D03*
X107315000Y-93345000D03*
X104775000Y-95885000D03*
X104775000Y-93345000D03*
X102235000Y-95885000D03*
X102235000Y-93345000D03*
X99695000Y-95885000D03*
X99695000Y-93345000D03*
X97155000Y-95885000D03*
X97155000Y-93345000D03*
X94615000Y-95885000D03*
X94615000Y-93345000D03*
X114935000Y-62865000D03*
X109855000Y-62865000D03*
X109855000Y-60325000D03*
X107315000Y-62865000D03*
X107315000Y-60325000D03*
X104775000Y-62865000D03*
X104775000Y-60325000D03*
X102235000Y-62865000D03*
X102235000Y-60325000D03*
X99695000Y-62865000D03*
X99695000Y-60325000D03*
X97155000Y-62865000D03*
X97155000Y-60325000D03*
X94615000Y-62865000D03*
X94615000Y-60325000D03*
X92075000Y-62865000D03*
X92075000Y-60325000D03*
X89535000Y-62865000D03*
X89535000Y-60325000D03*
X86995000Y-62865000D03*
X86995000Y-60325000D03*
X84455000Y-62865000D03*
X84455000Y-60325000D03*
X81915000Y-62865000D03*
X81915000Y-60325000D03*
X79375000Y-62865000D03*
X79375000Y-60325000D03*
X76835000Y-62865000D03*
X76835000Y-60325000D03*
X74295000Y-62865000D03*
X74295000Y-60325000D03*
X92075000Y-95885000D03*
X92075000Y-93345000D03*
X89535000Y-95885000D03*
X89535000Y-93345000D03*
X86995000Y-95885000D03*
X86995000Y-93345000D03*
X84455000Y-95885000D03*
X84455000Y-93345000D03*
X81915000Y-95885000D03*
X81915000Y-93345000D03*
X79375000Y-95885000D03*
X79375000Y-93345000D03*
X76835000Y-95885000D03*
X76835000Y-93345000D03*
X74295000Y-95885000D03*
X74295000Y-93345000D03*
X74295000Y-90805000D03*
X76835000Y-90805000D03*
X74295000Y-88265000D03*
X76835000Y-88265000D03*
X74295000Y-85725000D03*
X76835000Y-85725000D03*
X122555000Y-60325000D03*
X122555000Y-62865000D03*
X114935000Y-60325000D03*
X112395000Y-62865000D03*
X112395000Y-60325000D03*
X125095000Y-62865000D03*
X125095000Y-60325000D03*
D15*
X114925000Y-99705000D03*
D16*
X112385000Y-99705000D03*
X109845000Y-99705000D03*
X107305000Y-99705000D03*
X107305000Y-107325000D03*
X109845000Y-107325000D03*
X112385000Y-107325000D03*
X114925000Y-107325000D03*
D12*
X120650000Y-56515000D03*
D13*
X118110000Y-56515000D03*
X115570000Y-56515000D03*
X113030000Y-56515000D03*
X110490000Y-56515000D03*
X107950000Y-56515000D03*
D18*
X56515000Y-105410000D03*
D19*
X56515000Y-102870000D03*
X56515000Y-100330000D03*
D12*
X70485000Y-66025000D03*
D13*
X70485000Y-63485000D03*
X70485000Y-60945000D03*
D20*
X121920000Y-109220000D03*
D15*
X42825000Y-87459511D03*
D16*
X45365000Y-87459511D03*
X47905000Y-87459511D03*
X50445000Y-87459511D03*
X50445000Y-79839511D03*
X47905000Y-79839511D03*
X45365000Y-79839511D03*
X42825000Y-79839511D03*
D21*
X89535000Y-88265000D03*
D22*
X81915000Y-88265000D03*
D21*
X81915000Y-84455000D03*
D22*
X89535000Y-84455000D03*
D15*
X65975112Y-68580000D03*
D23*
X63475112Y-68580000D03*
D24*
X29720000Y-104400000D03*
X29720000Y-53400000D03*
D25*
X33020000Y-59600000D03*
X33020000Y-61800000D03*
X33020000Y-64000000D03*
X33020000Y-66200000D03*
X33020000Y-68400000D03*
X33020000Y-70600000D03*
X33020000Y-72800000D03*
X33020000Y-75000000D03*
X33020000Y-77200000D03*
X33020000Y-79400000D03*
X33020000Y-81600000D03*
X33020000Y-83800000D03*
X33020000Y-86000000D03*
X33020000Y-88200000D03*
X33020000Y-90400000D03*
X33020000Y-92600000D03*
X33020000Y-95400000D03*
X33020000Y-98200000D03*
X30020000Y-59600000D03*
X30020000Y-61800000D03*
X30020000Y-64000000D03*
X30020000Y-66200000D03*
X30020000Y-68400000D03*
X30020000Y-70600000D03*
X30020000Y-72800000D03*
X30020000Y-75000000D03*
X30020000Y-77200000D03*
X30020000Y-79400000D03*
X30020000Y-81600000D03*
X30020000Y-83800000D03*
X30020000Y-86000000D03*
X30020000Y-88200000D03*
X30020000Y-90400000D03*
X30020000Y-92600000D03*
X30020000Y-95400000D03*
X30020000Y-98200000D03*
D15*
X48260000Y-63490000D03*
D16*
X50800000Y-63490000D03*
X53340000Y-63490000D03*
X55880000Y-63490000D03*
X58420000Y-63490000D03*
X60960000Y-63490000D03*
X63500000Y-63490000D03*
X66040000Y-63490000D03*
X66040000Y-50790000D03*
X63500000Y-50790000D03*
X60960000Y-50790000D03*
X58420000Y-50790000D03*
X55880000Y-50790000D03*
X53340000Y-50790000D03*
X50800000Y-50790000D03*
X48260000Y-50790000D03*
D15*
X41275000Y-106680000D03*
D16*
X43815000Y-106680000D03*
X46355000Y-106680000D03*
X48895000Y-106680000D03*
X48895000Y-99060000D03*
X46355000Y-99060000D03*
X43815000Y-99060000D03*
X41275000Y-99060000D03*
D20*
X121920000Y-45720000D03*
D12*
X67945000Y-90170000D03*
D26*
X29845000Y-111125000D03*
X29845000Y-43815000D03*
D27*
X76665000Y-83185000D03*
X78740000Y-83185000D03*
D28*
X107315000Y-87900000D03*
X107315000Y-89900000D03*
D29*
X78740000Y-80375000D03*
X78740000Y-78375000D03*
D30*
X109855000Y-87862500D03*
X109855000Y-89937500D03*
X46345000Y-101842500D03*
X46345000Y-103917500D03*
X102235000Y-87862500D03*
X102235000Y-89937500D03*
D31*
X74565000Y-80645000D03*
X76565000Y-80645000D03*
D29*
X107315000Y-85455000D03*
X107315000Y-83455000D03*
D27*
X74527500Y-78105000D03*
X76602500Y-78105000D03*
D29*
X104775000Y-89900000D03*
X104775000Y-87900000D03*
M02*
