%TF.GenerationSoftware,KiCad,Pcbnew,(6.0.0)*%
%TF.CreationDate,2022-01-12T02:58:20-05:00*%
%TF.ProjectId,klxecu,6b6c7865-6375-42e6-9b69-6361645f7063,rev?*%
%TF.SameCoordinates,Original*%
%TF.FileFunction,Soldermask,Top*%
%TF.FilePolarity,Negative*%
%FSLAX46Y46*%
G04 Gerber Fmt 4.6, Leading zero omitted, Abs format (unit mm)*
G04 Created by KiCad (PCBNEW (6.0.0)) date 2022-01-12 02:58:20*
%MOMM*%
%LPD*%
G01*
G04 APERTURE LIST*
G04 Aperture macros list*
%AMRoundRect*
0 Rectangle with rounded corners*
0 $1 Rounding radius*
0 $2 $3 $4 $5 $6 $7 $8 $9 X,Y pos of 4 corners*
0 Add a 4 corners polygon primitive as box body*
4,1,4,$2,$3,$4,$5,$6,$7,$8,$9,$2,$3,0*
0 Add four circle primitives for the rounded corners*
1,1,$1+$1,$2,$3*
1,1,$1+$1,$4,$5*
1,1,$1+$1,$6,$7*
1,1,$1+$1,$8,$9*
0 Add four rect primitives between the rounded corners*
20,1,$1+$1,$2,$3,$4,$5,0*
20,1,$1+$1,$4,$5,$6,$7,0*
20,1,$1+$1,$6,$7,$8,$9,0*
20,1,$1+$1,$8,$9,$2,$3,0*%
G04 Aperture macros list end*
%ADD10R,1.905000X2.000000*%
%ADD11O,1.905000X2.000000*%
%ADD12R,1.600000X1.600000*%
%ADD13O,1.600000X1.600000*%
%ADD14RoundRect,0.250000X-0.475000X0.337500X-0.475000X-0.337500X0.475000X-0.337500X0.475000X0.337500X0*%
%ADD15C,1.600000*%
%ADD16RoundRect,0.250000X0.350000X0.450000X-0.350000X0.450000X-0.350000X-0.450000X0.350000X-0.450000X0*%
%ADD17RoundRect,0.250000X0.337500X0.475000X-0.337500X0.475000X-0.337500X-0.475000X0.337500X-0.475000X0*%
%ADD18RoundRect,0.250000X0.325000X0.450000X-0.325000X0.450000X-0.325000X-0.450000X0.325000X-0.450000X0*%
%ADD19RoundRect,0.250000X-0.350000X-0.450000X0.350000X-0.450000X0.350000X0.450000X-0.350000X0.450000X0*%
%ADD20RoundRect,0.250000X-0.450000X0.350000X-0.450000X-0.350000X0.450000X-0.350000X0.450000X0.350000X0*%
%ADD21R,1.700000X1.700000*%
%ADD22O,1.700000X1.700000*%
%ADD23RoundRect,0.250000X-0.337500X-0.475000X0.337500X-0.475000X0.337500X0.475000X-0.337500X0.475000X0*%
%ADD24RoundRect,0.250000X0.450000X-0.350000X0.450000X0.350000X-0.450000X0.350000X-0.450000X-0.350000X0*%
%ADD25R,2.200000X2.200000*%
%ADD26O,2.200000X2.200000*%
%ADD27RoundRect,0.250000X0.450000X-0.262500X0.450000X0.262500X-0.450000X0.262500X-0.450000X-0.262500X0*%
%ADD28R,0.300000X1.400000*%
%ADD29RoundRect,0.250000X-0.450000X0.325000X-0.450000X-0.325000X0.450000X-0.325000X0.450000X0.325000X0*%
%ADD30R,2.000000X1.905000*%
%ADD31O,2.000000X1.905000*%
%ADD32RoundRect,0.250000X0.475000X-0.337500X0.475000X0.337500X-0.475000X0.337500X-0.475000X-0.337500X0*%
%ADD33RoundRect,0.250000X-0.450000X0.262500X-0.450000X-0.262500X0.450000X-0.262500X0.450000X0.262500X0*%
%ADD34RoundRect,0.150000X-0.150000X0.825000X-0.150000X-0.825000X0.150000X-0.825000X0.150000X0.825000X0*%
G04 APERTURE END LIST*
D10*
%TO.C,Q3*%
X77869489Y-59581489D03*
D11*
X80409489Y-59581489D03*
X82949489Y-59581489D03*
%TD*%
D12*
%TO.C,A1*%
X47907489Y-56279489D03*
D13*
X47907489Y-58819489D03*
X47907489Y-61359489D03*
X47907489Y-63899489D03*
X47907489Y-66439489D03*
X47907489Y-68979489D03*
X47907489Y-71519489D03*
X47907489Y-74059489D03*
X60607489Y-74059489D03*
X60607489Y-71519489D03*
X60607489Y-68979489D03*
X60607489Y-66439489D03*
X60607489Y-63899489D03*
X60607489Y-61359489D03*
X60607489Y-58819489D03*
X60607489Y-56279489D03*
%TD*%
D14*
%TO.C,C5*%
X140589000Y-44276011D03*
X140589000Y-46351011D03*
%TD*%
D12*
%TO.C,C24*%
X56098000Y-35270000D03*
D15*
X56098000Y-32770000D03*
%TD*%
D16*
%TO.C,R15*%
X151479000Y-39598511D03*
X149479000Y-39598511D03*
%TD*%
D17*
%TO.C,C20*%
X97430500Y-61087000D03*
X95355500Y-61087000D03*
%TD*%
%TO.C,C17*%
X118496500Y-66903511D03*
X116421500Y-66903511D03*
%TD*%
D18*
%TO.C,LED1*%
X64525000Y-81026000D03*
X62475000Y-81026000D03*
%TD*%
D19*
%TO.C,R12*%
X138589000Y-34518511D03*
X140589000Y-34518511D03*
%TD*%
%TO.C,R9*%
X138954000Y-48721011D03*
X140954000Y-48721011D03*
%TD*%
D20*
%TO.C,R32*%
X93853000Y-73803000D03*
X93853000Y-75803000D03*
%TD*%
D16*
%TO.C,R26*%
X72011489Y-54501489D03*
X70011489Y-54501489D03*
%TD*%
D14*
%TO.C,C3*%
X152019000Y-50858511D03*
X152019000Y-52933511D03*
%TD*%
D21*
%TO.C,J3*%
X146234000Y-41503511D03*
D22*
X143694000Y-41503511D03*
X146234000Y-44043511D03*
X143694000Y-44043511D03*
X146234000Y-46583511D03*
X143694000Y-46583511D03*
X146234000Y-49123511D03*
X143694000Y-49123511D03*
X146234000Y-51663511D03*
X143694000Y-51663511D03*
X146234000Y-54203511D03*
X143694000Y-54203511D03*
X146234000Y-56743511D03*
X143694000Y-56743511D03*
X146234000Y-59283511D03*
X143694000Y-59283511D03*
X146234000Y-61823511D03*
X143694000Y-61823511D03*
X146234000Y-64363511D03*
X143694000Y-64363511D03*
X146234000Y-66903511D03*
X143694000Y-66903511D03*
X146234000Y-69443511D03*
X143694000Y-69443511D03*
X146234000Y-71983511D03*
X143694000Y-71983511D03*
X146234000Y-74523511D03*
X143694000Y-74523511D03*
X146234000Y-77063511D03*
X143694000Y-77063511D03*
X146234000Y-79603511D03*
X143694000Y-79603511D03*
%TD*%
D15*
%TO.C,C23*%
X51018000Y-35270000D03*
X51018000Y-32770000D03*
%TD*%
%TO.C,R33*%
X96393000Y-78642000D03*
D13*
X96393000Y-73562000D03*
%TD*%
D10*
%TO.C,Q2*%
X88138000Y-44958000D03*
D11*
X90678000Y-44958000D03*
X93218000Y-44958000D03*
%TD*%
D14*
%TO.C,C13*%
X149479000Y-44276011D03*
X149479000Y-46351011D03*
%TD*%
D23*
%TO.C,C8*%
X75815989Y-79139489D03*
X77890989Y-79139489D03*
%TD*%
D17*
%TO.C,C14*%
X140626500Y-39598511D03*
X138551500Y-39598511D03*
%TD*%
D24*
%TO.C,R3*%
X154559000Y-52896011D03*
X154559000Y-50896011D03*
%TD*%
D12*
%TO.C,C21*%
X51598000Y-25690000D03*
D15*
X51598000Y-28190000D03*
%TD*%
D12*
%TO.C,IC1*%
X149489000Y-57388511D03*
D13*
X149489000Y-59928511D03*
X149489000Y-62468511D03*
X149489000Y-65008511D03*
X157109000Y-65008511D03*
X157109000Y-62468511D03*
X157109000Y-59928511D03*
X157109000Y-57388511D03*
%TD*%
D19*
%TO.C,R21*%
X87818000Y-47498000D03*
X89818000Y-47498000D03*
%TD*%
D12*
%TO.C,U4*%
X98796000Y-63510000D03*
D13*
X96256000Y-63510000D03*
X93716000Y-63510000D03*
X91176000Y-63510000D03*
X91176000Y-71130000D03*
X93716000Y-71130000D03*
X96256000Y-71130000D03*
X98796000Y-71130000D03*
%TD*%
D24*
%TO.C,R25*%
X88265000Y-65135000D03*
X88265000Y-63135000D03*
%TD*%
D16*
%TO.C,R16*%
X118459000Y-64363511D03*
X116459000Y-64363511D03*
%TD*%
D25*
%TO.C,D3*%
X58638000Y-28920000D03*
D26*
X58638000Y-21300000D03*
%TD*%
D20*
%TO.C,R14*%
X142494000Y-36693511D03*
X142494000Y-38693511D03*
%TD*%
D19*
%TO.C,R31*%
X98724000Y-47442000D03*
X100724000Y-47442000D03*
%TD*%
D27*
%TO.C,R4*%
X118979000Y-52238511D03*
X118979000Y-50413511D03*
%TD*%
D25*
%TO.C,D4*%
X45938000Y-36540000D03*
D26*
X45938000Y-28920000D03*
%TD*%
D15*
%TO.C,C22*%
X45938000Y-22610000D03*
X45938000Y-25110000D03*
%TD*%
D17*
%TO.C,C12*%
X151516500Y-37058511D03*
X149441500Y-37058511D03*
%TD*%
D10*
%TO.C,Q5*%
X99060000Y-36576000D03*
D11*
X101600000Y-36576000D03*
X104140000Y-36576000D03*
%TD*%
D17*
%TO.C,C2*%
X118746500Y-54501011D03*
X116671500Y-54501011D03*
%TD*%
D28*
%TO.C,U1*%
X118459000Y-57488511D03*
X117959000Y-57488511D03*
X117459000Y-57488511D03*
X116959000Y-57488511D03*
X116459000Y-57488511D03*
X116459000Y-61888511D03*
X116959000Y-61888511D03*
X117459000Y-61888511D03*
X117959000Y-61888511D03*
X118459000Y-61888511D03*
%TD*%
D19*
%TO.C,R27*%
X65185489Y-54501489D03*
X67185489Y-54501489D03*
%TD*%
%TO.C,R7*%
X138589000Y-42138511D03*
X140589000Y-42138511D03*
%TD*%
D17*
%TO.C,C16*%
X118496500Y-69443511D03*
X116421500Y-69443511D03*
%TD*%
D10*
%TO.C,Q1*%
X51816000Y-49855000D03*
D11*
X49276000Y-49855000D03*
X46736000Y-49855000D03*
%TD*%
D16*
%TO.C,R18*%
X48514000Y-46736000D03*
X46514000Y-46736000D03*
%TD*%
D19*
%TO.C,R19*%
X91628000Y-47498000D03*
X93628000Y-47498000D03*
%TD*%
D21*
%TO.C,JP2*%
X50183489Y-78377489D03*
D22*
X47643489Y-78377489D03*
X45103489Y-78377489D03*
%TD*%
D19*
%TO.C,R17*%
X58436000Y-81026000D03*
X60436000Y-81026000D03*
%TD*%
D25*
%TO.C,D1*%
X53848000Y-78232000D03*
D26*
X64008000Y-78232000D03*
%TD*%
D16*
%TO.C,R13*%
X151479000Y-42138511D03*
X149479000Y-42138511D03*
%TD*%
D20*
%TO.C,R1*%
X116459000Y-40503511D03*
X116459000Y-42503511D03*
%TD*%
D19*
%TO.C,R22*%
X81597489Y-62121489D03*
X83597489Y-62121489D03*
%TD*%
D21*
%TO.C,JP1*%
X38354000Y-73167000D03*
D22*
X38354000Y-75707000D03*
X38354000Y-78247000D03*
%TD*%
D23*
%TO.C,C11*%
X75815989Y-76599489D03*
X77890989Y-76599489D03*
%TD*%
D29*
%TO.C,LED2*%
X91313000Y-73778000D03*
X91313000Y-75828000D03*
%TD*%
D30*
%TO.C,U6*%
X61758000Y-32730000D03*
D31*
X61758000Y-35270000D03*
X61758000Y-37810000D03*
%TD*%
D19*
%TO.C,R29*%
X102534000Y-47442000D03*
X104534000Y-47442000D03*
%TD*%
D32*
%TO.C,C15*%
X147574000Y-38731011D03*
X147574000Y-36656011D03*
%TD*%
D12*
%TO.C,C19*%
X43325489Y-73994602D03*
D15*
X43325489Y-71494602D03*
%TD*%
D21*
%TO.C,J1*%
X113284000Y-31343511D03*
D22*
X110744000Y-31343511D03*
X113284000Y-33883511D03*
X110744000Y-33883511D03*
X113284000Y-36423511D03*
X110744000Y-36423511D03*
X113284000Y-38963511D03*
X110744000Y-38963511D03*
X113284000Y-41503511D03*
X110744000Y-41503511D03*
X113284000Y-44043511D03*
X110744000Y-44043511D03*
X113284000Y-46583511D03*
X110744000Y-46583511D03*
X113284000Y-49123511D03*
X110744000Y-49123511D03*
X113284000Y-51663511D03*
X110744000Y-51663511D03*
X113284000Y-54203511D03*
X110744000Y-54203511D03*
X113284000Y-56743511D03*
X110744000Y-56743511D03*
X113284000Y-59283511D03*
X110744000Y-59283511D03*
X113284000Y-61823511D03*
X110744000Y-61823511D03*
X113284000Y-64363511D03*
X110744000Y-64363511D03*
X113284000Y-66903511D03*
X110744000Y-66903511D03*
X113284000Y-69443511D03*
X110744000Y-69443511D03*
X113284000Y-71983511D03*
X110744000Y-71983511D03*
X113284000Y-74523511D03*
X110744000Y-74523511D03*
X113284000Y-77063511D03*
X110744000Y-77063511D03*
X113284000Y-79603511D03*
X110744000Y-79603511D03*
%TD*%
D14*
%TO.C,C7*%
X140589000Y-50858511D03*
X140589000Y-52933511D03*
%TD*%
D17*
%TO.C,C18*%
X118496500Y-71983511D03*
X116421500Y-71983511D03*
%TD*%
D21*
%TO.C,J2*%
X30983000Y-36591000D03*
D22*
X30983000Y-39131000D03*
X30983000Y-41671000D03*
X30983000Y-44211000D03*
X30983000Y-46751000D03*
X30983000Y-49291000D03*
X30983000Y-51831000D03*
X30983000Y-54371000D03*
X30983000Y-56911000D03*
X30983000Y-59451000D03*
X30983000Y-61991000D03*
X30983000Y-64531000D03*
X30983000Y-67071000D03*
X30983000Y-69611000D03*
X30983000Y-72151000D03*
X30983000Y-74691000D03*
X30983000Y-77231000D03*
X30983000Y-79771000D03*
X33523000Y-36591000D03*
X33523000Y-39131000D03*
X33523000Y-41671000D03*
X33523000Y-44211000D03*
X33523000Y-46751000D03*
X33523000Y-49291000D03*
X33523000Y-51831000D03*
X33523000Y-54371000D03*
X33523000Y-56911000D03*
X33523000Y-59451000D03*
X33523000Y-61991000D03*
X33523000Y-64531000D03*
X33523000Y-67071000D03*
X33523000Y-69611000D03*
X33523000Y-72151000D03*
X33523000Y-74691000D03*
X33523000Y-77231000D03*
X33523000Y-79771000D03*
%TD*%
D16*
%TO.C,R2*%
X118709000Y-48151011D03*
X116709000Y-48151011D03*
%TD*%
D12*
%TO.C,U2*%
X80663489Y-66693489D03*
D13*
X78123489Y-66693489D03*
X75583489Y-66693489D03*
X73043489Y-66693489D03*
X70503489Y-66693489D03*
X67963489Y-66693489D03*
X65423489Y-66693489D03*
X65423489Y-74313489D03*
X67963489Y-74313489D03*
X70503489Y-74313489D03*
X73043489Y-74313489D03*
X75583489Y-74313489D03*
X78123489Y-74313489D03*
X80663489Y-74313489D03*
%TD*%
D16*
%TO.C,R8*%
X151479000Y-48721011D03*
X149479000Y-48721011D03*
%TD*%
D14*
%TO.C,C1*%
X138049000Y-44276011D03*
X138049000Y-46351011D03*
%TD*%
D33*
%TO.C,R5*%
X116439000Y-50413511D03*
X116439000Y-52238511D03*
%TD*%
D24*
%TO.C,R6*%
X135509000Y-52896011D03*
X135509000Y-50896011D03*
%TD*%
D16*
%TO.C,R20*%
X52324000Y-46736000D03*
X50324000Y-46736000D03*
%TD*%
D10*
%TO.C,Q4*%
X99060000Y-44958000D03*
D11*
X101600000Y-44958000D03*
X104140000Y-44958000D03*
%TD*%
D34*
%TO.C,U3*%
X72535489Y-57096489D03*
X71265489Y-57096489D03*
X69995489Y-57096489D03*
X68725489Y-57096489D03*
X67455489Y-57096489D03*
X66185489Y-57096489D03*
X64915489Y-57096489D03*
X64915489Y-62046489D03*
X66185489Y-62046489D03*
X67455489Y-62046489D03*
X68725489Y-62046489D03*
X69995489Y-62046489D03*
X71265489Y-62046489D03*
X72535489Y-62046489D03*
%TD*%
D14*
%TO.C,C4*%
X138049000Y-50858511D03*
X138049000Y-52933511D03*
%TD*%
D19*
%TO.C,R28*%
X102534000Y-39187000D03*
X104534000Y-39187000D03*
%TD*%
D24*
%TO.C,R10*%
X73043489Y-78869489D03*
X73043489Y-76869489D03*
%TD*%
D14*
%TO.C,C6*%
X149479000Y-50858511D03*
X149479000Y-52933511D03*
%TD*%
D17*
%TO.C,C10*%
X140626500Y-37058511D03*
X138551500Y-37058511D03*
%TD*%
D19*
%TO.C,R23*%
X77279489Y-62121489D03*
X79279489Y-62121489D03*
%TD*%
%TO.C,R30*%
X98724000Y-39187000D03*
X100724000Y-39187000D03*
%TD*%
D14*
%TO.C,C9*%
X152019000Y-44276011D03*
X152019000Y-46351011D03*
%TD*%
D24*
%TO.C,R24*%
X88265000Y-69215000D03*
X88265000Y-67215000D03*
%TD*%
D15*
%TO.C,U5*%
X63718000Y-22570000D03*
X62418000Y-27570000D03*
%TD*%
D24*
%TO.C,R11*%
X142494000Y-34248511D03*
X142494000Y-32248511D03*
%TD*%
M02*
