%TF.GenerationSoftware,KiCad,Pcbnew,(6.0.0)*%
%TF.CreationDate,2022-01-12T02:58:20-05:00*%
%TF.ProjectId,klxecu,6b6c7865-6375-42e6-9b69-6361645f7063,rev?*%
%TF.SameCoordinates,Original*%
%TF.FileFunction,Copper,L2,Bot*%
%TF.FilePolarity,Positive*%
%FSLAX46Y46*%
G04 Gerber Fmt 4.6, Leading zero omitted, Abs format (unit mm)*
G04 Created by KiCad (PCBNEW (6.0.0)) date 2022-01-12 02:58:20*
%MOMM*%
%LPD*%
G01*
G04 APERTURE LIST*
%TA.AperFunction,ComponentPad*%
%ADD10R,1.905000X2.000000*%
%TD*%
%TA.AperFunction,ComponentPad*%
%ADD11O,1.905000X2.000000*%
%TD*%
%TA.AperFunction,ComponentPad*%
%ADD12R,1.600000X1.600000*%
%TD*%
%TA.AperFunction,ComponentPad*%
%ADD13O,1.600000X1.600000*%
%TD*%
%TA.AperFunction,ComponentPad*%
%ADD14C,1.600000*%
%TD*%
%TA.AperFunction,ComponentPad*%
%ADD15R,1.700000X1.700000*%
%TD*%
%TA.AperFunction,ComponentPad*%
%ADD16O,1.700000X1.700000*%
%TD*%
%TA.AperFunction,ComponentPad*%
%ADD17R,2.200000X2.200000*%
%TD*%
%TA.AperFunction,ComponentPad*%
%ADD18O,2.200000X2.200000*%
%TD*%
%TA.AperFunction,ComponentPad*%
%ADD19R,2.000000X1.905000*%
%TD*%
%TA.AperFunction,ComponentPad*%
%ADD20O,2.000000X1.905000*%
%TD*%
%TA.AperFunction,ViaPad*%
%ADD21C,0.800000*%
%TD*%
%TA.AperFunction,Conductor*%
%ADD22C,0.250000*%
%TD*%
%TA.AperFunction,Conductor*%
%ADD23C,1.500000*%
%TD*%
%TA.AperFunction,Conductor*%
%ADD24C,0.375000*%
%TD*%
%TA.AperFunction,Conductor*%
%ADD25C,0.200000*%
%TD*%
%TA.AperFunction,Conductor*%
%ADD26C,1.000000*%
%TD*%
G04 APERTURE END LIST*
D10*
%TO.P,Q3,1,G*%
%TO.N,Net-(Q3-Pad1)*%
X77869489Y-59581489D03*
D11*
%TO.P,Q3,2,D*%
%TO.N,CHECK ENGINE*%
X80409489Y-59581489D03*
%TO.P,Q3,3,S*%
%TO.N,GND*%
X82949489Y-59581489D03*
%TD*%
D12*
%TO.P,A1,1,GND*%
%TO.N,GND*%
X47907489Y-56279489D03*
D13*
%TO.P,A1,2,VDD*%
%TO.N,+5V*%
X47907489Y-58819489D03*
%TO.P,A1,3,1B*%
%TO.N,SUB A -*%
X47907489Y-61359489D03*
%TO.P,A1,4,1A*%
%TO.N,SUB A +*%
X47907489Y-63899489D03*
%TO.P,A1,5,2A*%
%TO.N,SUB B +*%
X47907489Y-66439489D03*
%TO.P,A1,6,2B*%
%TO.N,SUB B -*%
X47907489Y-68979489D03*
%TO.P,A1,7,GND*%
%TO.N,GND*%
X47907489Y-71519489D03*
%TO.P,A1,8,VMOT*%
%TO.N,Net-(C19-Pad1)*%
X47907489Y-74059489D03*
%TO.P,A1,9,~{ENABLE}*%
%TO.N,unconnected-(A1-Pad9)*%
X60607489Y-74059489D03*
%TO.P,A1,10,MS1*%
%TO.N,unconnected-(A1-Pad10)*%
X60607489Y-71519489D03*
%TO.P,A1,11,MS2*%
%TO.N,unconnected-(A1-Pad11)*%
X60607489Y-68979489D03*
%TO.P,A1,12,MS3*%
%TO.N,unconnected-(A1-Pad12)*%
X60607489Y-66439489D03*
%TO.P,A1,13,~{RESET}*%
%TO.N,Net-(A1-Pad13)*%
X60607489Y-63899489D03*
%TO.P,A1,14,~{SLEEP}*%
X60607489Y-61359489D03*
%TO.P,A1,15,STEP*%
%TO.N,Net-(A1-Pad15)*%
X60607489Y-58819489D03*
%TO.P,A1,16,DIR*%
%TO.N,Net-(A1-Pad16)*%
X60607489Y-56279489D03*
%TD*%
D12*
%TO.P,C24,1*%
%TO.N,+5V*%
X56098000Y-35270000D03*
D14*
%TO.P,C24,2*%
%TO.N,GND*%
X56098000Y-32770000D03*
%TD*%
D15*
%TO.P,J3,1,Pin_1*%
%TO.N,ARDUINO-A0*%
X146234000Y-41503511D03*
D16*
%TO.P,J3,2,Pin_2*%
%TO.N,ARDUINO-A1*%
X143694000Y-41503511D03*
%TO.P,J3,3,Pin_3*%
%TO.N,ARDUINO-A2*%
X146234000Y-44043511D03*
%TO.P,J3,4,Pin_4*%
%TO.N,ARDUINO-A3*%
X143694000Y-44043511D03*
%TO.P,J3,5,Pin_5*%
%TO.N,ARDUINO-A4*%
X146234000Y-46583511D03*
%TO.P,J3,6,Pin_6*%
%TO.N,ARDUINO-A5*%
X143694000Y-46583511D03*
%TO.P,J3,7,Pin_7*%
%TO.N,unconnected-(J3-Pad7)*%
X146234000Y-49123511D03*
%TO.P,J3,8,Pin_8*%
%TO.N,unconnected-(J3-Pad8)*%
X143694000Y-49123511D03*
%TO.P,J3,9,Pin_9*%
%TO.N,unconnected-(J3-Pad9)*%
X146234000Y-51663511D03*
%TO.P,J3,10,Pin_10*%
%TO.N,unconnected-(J3-Pad10)*%
X143694000Y-51663511D03*
%TO.P,J3,11,Pin_11*%
%TO.N,unconnected-(J3-Pad11)*%
X146234000Y-54203511D03*
%TO.P,J3,12,Pin_12*%
%TO.N,unconnected-(J3-Pad12)*%
X143694000Y-54203511D03*
%TO.P,J3,13,Pin_13*%
%TO.N,unconnected-(J3-Pad13)*%
X146234000Y-56743511D03*
%TO.P,J3,14,Pin_14*%
%TO.N,unconnected-(J3-Pad14)*%
X143694000Y-56743511D03*
%TO.P,J3,15,Pin_15*%
%TO.N,unconnected-(J3-Pad15)*%
X146234000Y-59283511D03*
%TO.P,J3,16,Pin_16*%
%TO.N,unconnected-(J3-Pad16)*%
X143694000Y-59283511D03*
%TO.P,J3,17,Pin_17*%
%TO.N,unconnected-(J3-Pad17)*%
X146234000Y-61823511D03*
%TO.P,J3,18,Pin_18*%
%TO.N,unconnected-(J3-Pad18)*%
X143694000Y-61823511D03*
%TO.P,J3,19,Pin_19*%
%TO.N,unconnected-(J3-Pad19)*%
X146234000Y-64363511D03*
%TO.P,J3,20,Pin_20*%
%TO.N,unconnected-(J3-Pad20)*%
X143694000Y-64363511D03*
%TO.P,J3,21,Pin_21*%
%TO.N,unconnected-(J3-Pad21)*%
X146234000Y-66903511D03*
%TO.P,J3,22,Pin_22*%
%TO.N,unconnected-(J3-Pad22)*%
X143694000Y-66903511D03*
%TO.P,J3,23,Pin_23*%
%TO.N,unconnected-(J3-Pad23)*%
X146234000Y-69443511D03*
%TO.P,J3,24,Pin_24*%
%TO.N,unconnected-(J3-Pad24)*%
X143694000Y-69443511D03*
%TO.P,J3,25,Pin_25*%
%TO.N,unconnected-(J3-Pad25)*%
X146234000Y-71983511D03*
%TO.P,J3,26,Pin_26*%
%TO.N,unconnected-(J3-Pad26)*%
X143694000Y-71983511D03*
%TO.P,J3,27,Pin_27*%
%TO.N,unconnected-(J3-Pad27)*%
X146234000Y-74523511D03*
%TO.P,J3,28,Pin_28*%
%TO.N,unconnected-(J3-Pad28)*%
X143694000Y-74523511D03*
%TO.P,J3,29,Pin_29*%
%TO.N,unconnected-(J3-Pad29)*%
X146234000Y-77063511D03*
%TO.P,J3,30,Pin_30*%
%TO.N,unconnected-(J3-Pad30)*%
X143694000Y-77063511D03*
%TO.P,J3,31,Pin_31*%
%TO.N,unconnected-(J3-Pad31)*%
X146234000Y-79603511D03*
%TO.P,J3,32,Pin_32*%
%TO.N,unconnected-(J3-Pad32)*%
X143694000Y-79603511D03*
%TD*%
D14*
%TO.P,C23,1*%
%TO.N,+5V*%
X51018000Y-35270000D03*
%TO.P,C23,2*%
%TO.N,GND*%
X51018000Y-32770000D03*
%TD*%
%TO.P,R33,1*%
%TO.N,IGN*%
X96393000Y-78642000D03*
D13*
%TO.P,R33,2*%
%TO.N,Net-(R32-Pad1)*%
X96393000Y-73562000D03*
%TD*%
D10*
%TO.P,Q2,1,G*%
%TO.N,Net-(Q2-Pad1)*%
X88138000Y-44958000D03*
D11*
%TO.P,Q2,2,D*%
%TO.N,FP RELAY*%
X90678000Y-44958000D03*
%TO.P,Q2,3,S*%
%TO.N,GND*%
X93218000Y-44958000D03*
%TD*%
D12*
%TO.P,C21,1*%
%TO.N,+12V*%
X51598000Y-25690000D03*
D14*
%TO.P,C21,2*%
%TO.N,GND*%
X51598000Y-28190000D03*
%TD*%
D12*
%TO.P,IC1,1,P1*%
%TO.N,ARDUINO-A3*%
X149489000Y-57388511D03*
D13*
%TO.P,IC1,2,P2*%
%TO.N,ARDUINO-A4*%
X149489000Y-59928511D03*
%TO.P,IC1,3,P3*%
%TO.N,ARDUINO-A5*%
X149489000Y-62468511D03*
%TO.P,IC1,4,P4*%
%TO.N,GND*%
X149489000Y-65008511D03*
%TO.P,IC1,5,P5*%
%TO.N,ARDUINO-A0*%
X157109000Y-65008511D03*
%TO.P,IC1,6,P6*%
%TO.N,ARDUINO-A1*%
X157109000Y-62468511D03*
%TO.P,IC1,7,P7*%
%TO.N,ARDUINO-A2*%
X157109000Y-59928511D03*
%TO.P,IC1,8,P8*%
%TO.N,+5V*%
X157109000Y-57388511D03*
%TD*%
D12*
%TO.P,U4,1,VDD*%
%TO.N,+5V*%
X98796000Y-63510000D03*
D13*
%TO.P,U4,2,INPUT*%
%TO.N,Net-(R24-Pad2)*%
X96256000Y-63510000D03*
%TO.P,U4,3,NC*%
%TO.N,unconnected-(U4-Pad3)*%
X93716000Y-63510000D03*
%TO.P,U4,4,GND*%
%TO.N,GND*%
X91176000Y-63510000D03*
%TO.P,U4,5,GND*%
X91176000Y-71130000D03*
%TO.P,U4,6,OUTPUT*%
%TO.N,Net-(R32-Pad1)*%
X93716000Y-71130000D03*
%TO.P,U4,7,OUTPUT*%
X96256000Y-71130000D03*
%TO.P,U4,8,VDD*%
%TO.N,+5V*%
X98796000Y-71130000D03*
%TD*%
D17*
%TO.P,D3,1,K*%
%TO.N,Net-(D3-Pad1)*%
X58638000Y-28920000D03*
D18*
%TO.P,D3,2,A*%
%TO.N,+12V*%
X58638000Y-21300000D03*
%TD*%
D17*
%TO.P,D4,1,K*%
%TO.N,+5V*%
X45938000Y-36540000D03*
D18*
%TO.P,D4,2,A*%
%TO.N,GND*%
X45938000Y-28920000D03*
%TD*%
D14*
%TO.P,C22,1*%
%TO.N,+12V*%
X45938000Y-22610000D03*
%TO.P,C22,2*%
%TO.N,GND*%
X45938000Y-25110000D03*
%TD*%
D10*
%TO.P,Q5,1,G*%
%TO.N,Net-(Q5-Pad1)*%
X99060000Y-36576000D03*
D11*
%TO.P,Q5,2,D*%
%TO.N,FAN RELAY*%
X101600000Y-36576000D03*
%TO.P,Q5,3,S*%
%TO.N,GND*%
X104140000Y-36576000D03*
%TD*%
D10*
%TO.P,Q1,1,G*%
%TO.N,Net-(Q1-Pad1)*%
X51816000Y-49855000D03*
D11*
%TO.P,Q1,2,D*%
%TO.N,INJECTOR*%
X49276000Y-49855000D03*
%TO.P,Q1,3,S*%
%TO.N,GND*%
X46736000Y-49855000D03*
%TD*%
D15*
%TO.P,JP2,1,A*%
%TO.N,+5V*%
X50183489Y-78377489D03*
D16*
%TO.P,JP2,2,C*%
%TO.N,Net-(C19-Pad1)*%
X47643489Y-78377489D03*
%TO.P,JP2,3,B*%
%TO.N,+12V*%
X45103489Y-78377489D03*
%TD*%
D17*
%TO.P,D1,1,K*%
%TO.N,INJECTOR*%
X53848000Y-78232000D03*
D18*
%TO.P,D1,2,A*%
%TO.N,Net-(D1-Pad2)*%
X64008000Y-78232000D03*
%TD*%
D15*
%TO.P,JP1,1,A*%
%TO.N,GND*%
X38354000Y-73167000D03*
D16*
%TO.P,JP1,2,C*%
%TO.N,O2S HEAT +*%
X38354000Y-75707000D03*
%TO.P,JP1,3,B*%
%TO.N,+12V*%
X38354000Y-78247000D03*
%TD*%
D19*
%TO.P,U6,1,VI*%
%TO.N,Net-(D3-Pad1)*%
X61758000Y-32730000D03*
D20*
%TO.P,U6,2,GND*%
%TO.N,GND*%
X61758000Y-35270000D03*
%TO.P,U6,3,VO*%
%TO.N,+5V*%
X61758000Y-37810000D03*
%TD*%
D12*
%TO.P,C19,1*%
%TO.N,Net-(C19-Pad1)*%
X43325489Y-73994602D03*
D14*
%TO.P,C19,2*%
%TO.N,GND*%
X43325489Y-71494602D03*
%TD*%
D15*
%TO.P,J1,1,Pin_1*%
%TO.N,unconnected-(J1-Pad1)*%
X113284000Y-31343511D03*
D16*
%TO.P,J1,2,Pin_2*%
%TO.N,unconnected-(J1-Pad2)*%
X110744000Y-31343511D03*
%TO.P,J1,3,Pin_3*%
%TO.N,GND*%
X113284000Y-33883511D03*
%TO.P,J1,4,Pin_4*%
X110744000Y-33883511D03*
%TO.P,J1,5,Pin_5*%
%TO.N,+5V*%
X113284000Y-36423511D03*
%TO.P,J1,6,Pin_6*%
X110744000Y-36423511D03*
%TO.P,J1,7,Pin_7*%
%TO.N,unconnected-(J1-Pad7)*%
X113284000Y-38963511D03*
%TO.P,J1,8,Pin_8*%
%TO.N,ARDUINO-RST*%
X110744000Y-38963511D03*
%TO.P,J1,9,Pin_9*%
%TO.N,unconnected-(J1-Pad9)*%
X113284000Y-41503511D03*
%TO.P,J1,10,Pin_10*%
%TO.N,unconnected-(J1-Pad10)*%
X110744000Y-41503511D03*
%TO.P,J1,11,Pin_11*%
%TO.N,unconnected-(J1-Pad11)*%
X113284000Y-44043511D03*
%TO.P,J1,12,Pin_12*%
%TO.N,ARDUINO-D3*%
X110744000Y-44043511D03*
%TO.P,J1,13,Pin_13*%
%TO.N,ARDUINO-D4*%
X113284000Y-46583511D03*
%TO.P,J1,14,Pin_14*%
%TO.N,ARDUINO-D5*%
X110744000Y-46583511D03*
%TO.P,J1,15,Pin_15*%
%TO.N,ARDUINO-D6*%
X113284000Y-49123511D03*
%TO.P,J1,16,Pin_16*%
%TO.N,ARDUINO-D7*%
X110744000Y-49123511D03*
%TO.P,J1,17,Pin_17*%
%TO.N,ARDUINO-D8*%
X113284000Y-51663511D03*
%TO.P,J1,18,Pin_18*%
%TO.N,unconnected-(J1-Pad18)*%
X110744000Y-51663511D03*
%TO.P,J1,19,Pin_19*%
%TO.N,unconnected-(J1-Pad19)*%
X113284000Y-54203511D03*
%TO.P,J1,20,Pin_20*%
%TO.N,unconnected-(J1-Pad20)*%
X110744000Y-54203511D03*
%TO.P,J1,21,Pin_21*%
%TO.N,unconnected-(J1-Pad21)*%
X113284000Y-56743511D03*
%TO.P,J1,22,Pin_22*%
%TO.N,unconnected-(J1-Pad22)*%
X110744000Y-56743511D03*
%TO.P,J1,23,Pin_23*%
%TO.N,unconnected-(J1-Pad23)*%
X113284000Y-59283511D03*
%TO.P,J1,24,Pin_24*%
%TO.N,unconnected-(J1-Pad24)*%
X110744000Y-59283511D03*
%TO.P,J1,25,Pin_25*%
%TO.N,unconnected-(J1-Pad25)*%
X113284000Y-61823511D03*
%TO.P,J1,26,Pin_26*%
%TO.N,unconnected-(J1-Pad26)*%
X110744000Y-61823511D03*
%TO.P,J1,27,Pin_27*%
%TO.N,unconnected-(J1-Pad27)*%
X113284000Y-64363511D03*
%TO.P,J1,28,Pin_28*%
%TO.N,ARDUINO-D19*%
X110744000Y-64363511D03*
%TO.P,J1,29,Pin_29*%
%TO.N,unconnected-(J1-Pad29)*%
X113284000Y-66903511D03*
%TO.P,J1,30,Pin_30*%
%TO.N,unconnected-(J1-Pad30)*%
X110744000Y-66903511D03*
%TO.P,J1,31,Pin_31*%
%TO.N,unconnected-(J1-Pad31)*%
X113284000Y-69443511D03*
%TO.P,J1,32,Pin_32*%
%TO.N,ARDUINO-D23*%
X110744000Y-69443511D03*
%TO.P,J1,33,Pin_33*%
%TO.N,unconnected-(J1-Pad33)*%
X113284000Y-71983511D03*
%TO.P,J1,34,Pin_34*%
%TO.N,unconnected-(J1-Pad34)*%
X110744000Y-71983511D03*
%TO.P,J1,35,Pin_35*%
%TO.N,unconnected-(J1-Pad35)*%
X113284000Y-74523511D03*
%TO.P,J1,36,Pin_36*%
%TO.N,unconnected-(J1-Pad36)*%
X110744000Y-74523511D03*
%TO.P,J1,37,Pin_37*%
%TO.N,unconnected-(J1-Pad37)*%
X113284000Y-77063511D03*
%TO.P,J1,38,Pin_38*%
%TO.N,unconnected-(J1-Pad38)*%
X110744000Y-77063511D03*
%TO.P,J1,39,Pin_39*%
%TO.N,unconnected-(J1-Pad39)*%
X113284000Y-79603511D03*
%TO.P,J1,40,Pin_40*%
%TO.N,unconnected-(J1-Pad40)*%
X110744000Y-79603511D03*
%TD*%
D15*
%TO.P,J2,1,Pin_1*%
%TO.N,+BATT*%
X30983000Y-36591000D03*
D16*
%TO.P,J2,2,Pin_2*%
%TO.N,NEUTRAL SW*%
X30983000Y-39131000D03*
%TO.P,J2,3,Pin_3*%
%TO.N,CHECK ENGINE*%
X30983000Y-41671000D03*
%TO.P,J2,4,Pin_4*%
%TO.N,CLT*%
X30983000Y-44211000D03*
%TO.P,J2,5,Pin_5*%
%TO.N,ARDUINO-D3*%
X30983000Y-46751000D03*
%TO.P,J2,6,Pin_6*%
%TO.N,GND*%
X30983000Y-49291000D03*
%TO.P,J2,7,Pin_7*%
%TO.N,IAT*%
X30983000Y-51831000D03*
%TO.P,J2,8,Pin_8*%
%TO.N,SPEED*%
X30983000Y-54371000D03*
%TO.P,J2,9,Pin_9*%
%TO.N,SUB TPS*%
X30983000Y-56911000D03*
%TO.P,J2,10,Pin_10*%
%TO.N,TEMP WARN*%
X30983000Y-59451000D03*
%TO.P,J2,11,Pin_11*%
%TO.N,KICKSTAND SW*%
X30983000Y-61991000D03*
%TO.P,J2,12,Pin_12*%
%TO.N,AIR VALVE*%
X30983000Y-64531000D03*
%TO.P,J2,13,Pin_13*%
%TO.N,SUB A -*%
X30983000Y-67071000D03*
%TO.P,J2,14,Pin_14*%
%TO.N,SUB B -*%
X30983000Y-69611000D03*
%TO.P,J2,15,Pin_15*%
%TO.N,FAN RELAY*%
X30983000Y-72151000D03*
%TO.P,J2,16,Pin_16*%
%TO.N,KILL SW*%
X30983000Y-74691000D03*
%TO.P,J2,17,Pin_17*%
%TO.N,GND*%
X30983000Y-77231000D03*
%TO.P,J2,18,Pin_18*%
X30983000Y-79771000D03*
%TO.P,J2,19,Pin_19*%
%TO.N,+12V*%
X33523000Y-36591000D03*
%TO.P,J2,20,Pin_20*%
%TO.N,Vehicle Down*%
X33523000Y-39131000D03*
%TO.P,J2,21,Pin_21*%
%TO.N,CKP +*%
X33523000Y-41671000D03*
%TO.P,J2,22,Pin_22*%
%TO.N,unconnected-(J2-Pad22)*%
X33523000Y-44211000D03*
%TO.P,J2,23,Pin_23*%
%TO.N,TPS*%
X33523000Y-46751000D03*
%TO.P,J2,24,Pin_24*%
%TO.N,MAP*%
X33523000Y-49291000D03*
%TO.P,J2,25,Pin_25*%
%TO.N,O2S +*%
X33523000Y-51831000D03*
%TO.P,J2,26,Pin_26*%
%TO.N,GND*%
X33523000Y-54371000D03*
%TO.P,J2,27,Pin_27*%
%TO.N,CKP -*%
X33523000Y-56911000D03*
%TO.P,J2,28,Pin_28*%
%TO.N,GND*%
X33523000Y-59451000D03*
%TO.P,J2,29,Pin_29*%
%TO.N,FP RELAY*%
X33523000Y-61991000D03*
%TO.P,J2,30,Pin_30*%
%TO.N,CLUTCH SW*%
X33523000Y-64531000D03*
%TO.P,J2,31,Pin_31*%
%TO.N,+5V*%
X33523000Y-67071000D03*
%TO.P,J2,32,Pin_32*%
%TO.N,SUB B +*%
X33523000Y-69611000D03*
%TO.P,J2,33,Pin_33*%
%TO.N,SUB A +*%
X33523000Y-72151000D03*
%TO.P,J2,34,Pin_34*%
%TO.N,INJECTOR*%
X33523000Y-74691000D03*
%TO.P,J2,35,Pin_35*%
%TO.N,O2S HEAT +*%
X33523000Y-77231000D03*
%TO.P,J2,36,Pin_36*%
%TO.N,IGN*%
X33523000Y-79771000D03*
%TD*%
D12*
%TO.P,U2,1,VCC*%
%TO.N,+5V*%
X80663489Y-66693489D03*
D13*
%TO.P,U2,2,XTAL1/PB0*%
%TO.N,ATTINY-D10*%
X78123489Y-66693489D03*
%TO.P,U2,3,XTAL2/PB1*%
%TO.N,ARDUINO-RST*%
X75583489Y-66693489D03*
%TO.P,U2,4,~{RESET}/PB3*%
%TO.N,+5V*%
X73043489Y-66693489D03*
%TO.P,U2,5,PB2*%
%TO.N,ARDUINO-D6*%
X70503489Y-66693489D03*
%TO.P,U2,6,PA7*%
%TO.N,unconnected-(U2-Pad6)*%
X67963489Y-66693489D03*
%TO.P,U2,7,PA6*%
%TO.N,Net-(A1-Pad16)*%
X65423489Y-66693489D03*
%TO.P,U2,8,PA5*%
%TO.N,Net-(A1-Pad15)*%
X65423489Y-74313489D03*
%TO.P,U2,9,PA4*%
%TO.N,ATTINY-A4*%
X67963489Y-74313489D03*
%TO.P,U2,10,PA3*%
%TO.N,ATTINY-A3*%
X70503489Y-74313489D03*
%TO.P,U2,11,PA2*%
%TO.N,ATTINY-A2*%
X73043489Y-74313489D03*
%TO.P,U2,12,PA1*%
%TO.N,ATTINY-A1*%
X75583489Y-74313489D03*
%TO.P,U2,13,AREF/PA0*%
%TO.N,unconnected-(U2-Pad13)*%
X78123489Y-74313489D03*
%TO.P,U2,14,GND*%
%TO.N,GND*%
X80663489Y-74313489D03*
%TD*%
D10*
%TO.P,Q4,1,G*%
%TO.N,Net-(Q4-Pad1)*%
X99060000Y-44958000D03*
D11*
%TO.P,Q4,2,D*%
%TO.N,TEMP WARN*%
X101600000Y-44958000D03*
%TO.P,Q4,3,S*%
%TO.N,GND*%
X104140000Y-44958000D03*
%TD*%
D14*
%TO.P,U5,1*%
%TO.N,+12V*%
X63718000Y-22570000D03*
%TO.P,U5,2*%
%TO.N,GND*%
X62418000Y-27570000D03*
%TD*%
D21*
%TO.N,GND*%
X41910000Y-44196000D03*
X104648000Y-52070000D03*
X56134000Y-70612000D03*
X116421500Y-81444500D03*
X123952000Y-50292000D03*
X82550000Y-83820000D03*
X75184000Y-83820000D03*
X123952000Y-70866000D03*
X118872000Y-59436000D03*
X104648000Y-48768000D03*
X90424000Y-55880000D03*
X37592000Y-35560000D03*
X41148000Y-83820000D03*
X37592000Y-44704000D03*
%TO.N,+5V*%
X99314000Y-56896000D03*
X67310000Y-27432000D03*
X94996000Y-21590000D03*
%TO.N,FP RELAY*%
X44450000Y-51562000D03*
X59182000Y-48768000D03*
X65024000Y-48768000D03*
%TO.N,FAN RELAY*%
X103378000Y-57150000D03*
X103378000Y-63500000D03*
%TO.N,ARDUINO-D8*%
X82804000Y-44704000D03*
X75946000Y-40640000D03*
%TO.N,+BATT*%
X142240000Y-25654000D03*
X142240000Y-29718000D03*
%TO.N,CHECK ENGINE*%
X24892000Y-81788000D03*
%TO.N,ARDUINO-D3*%
X28956000Y-30734000D03*
X108204000Y-39624000D03*
%TO.N,SUB TPS*%
X72898000Y-81720500D03*
%TO.N,TEMP WARN*%
X27178000Y-33274000D03*
%TO.N,KICKSTAND SW*%
X52324000Y-57404000D03*
X57912000Y-53848000D03*
X44704000Y-57150000D03*
X41402000Y-57150000D03*
X57912000Y-53848000D03*
%TO.N,Vehicle Down*%
X42672000Y-39370000D03*
X58420000Y-46228000D03*
%TO.N,CKP +*%
X118872000Y-46228000D03*
X110744000Y-25400000D03*
%TO.N,CKP -*%
X118110000Y-45212000D03*
X35560000Y-40640000D03*
X106680000Y-24384000D03*
%TO.N,SUB A +*%
X41830500Y-64770000D03*
X44704000Y-63500000D03*
%TD*%
D22*
%TO.N,GND*%
X149489000Y-65008511D02*
X149489000Y-68951000D01*
D23*
X47907489Y-53749489D02*
X47752000Y-53594000D01*
X50437489Y-69487489D02*
X48405489Y-71519489D01*
X123952000Y-73914000D02*
X116421500Y-81444500D01*
X42926000Y-53594000D02*
X41910000Y-52578000D01*
X33523000Y-59451000D02*
X36307000Y-59451000D01*
X47907489Y-56279489D02*
X49675489Y-56279489D01*
X35799000Y-54371000D02*
X33523000Y-54371000D01*
X75184000Y-83820000D02*
X82550000Y-83820000D01*
X53231489Y-67709489D02*
X50437489Y-67709489D01*
X30983000Y-80411610D02*
X35153390Y-84582000D01*
D22*
X123952000Y-70866000D02*
X130188000Y-70866000D01*
D23*
X41148000Y-84074000D02*
X41148000Y-83820000D01*
X37592000Y-58166000D02*
X37592000Y-52578000D01*
X41910000Y-52578000D02*
X41910000Y-44196000D01*
X30983000Y-77231000D02*
X30983000Y-80411610D01*
X42043398Y-71494602D02*
X40371000Y-73167000D01*
D22*
X147631000Y-70809000D02*
X130245000Y-70809000D01*
D23*
X36307000Y-59451000D02*
X37592000Y-58166000D01*
X47907489Y-56279489D02*
X47907489Y-53749489D01*
X50437489Y-67709489D02*
X50437489Y-69487489D01*
X37592000Y-44704000D02*
X37592000Y-35560000D01*
X47752000Y-53594000D02*
X42926000Y-53594000D01*
X123952000Y-50292000D02*
X123952000Y-73914000D01*
X40640000Y-84582000D02*
X41148000Y-84074000D01*
X82949489Y-59581489D02*
X86722511Y-59581489D01*
X46736000Y-52578000D02*
X46736000Y-49855000D01*
D24*
X32285989Y-50593989D02*
X36274011Y-50593989D01*
D23*
X86722511Y-59581489D02*
X90424000Y-55880000D01*
X37592000Y-49276000D02*
X37592000Y-44704000D01*
X37592000Y-52578000D02*
X35799000Y-54371000D01*
X50437489Y-57041489D02*
X50437489Y-67709489D01*
D22*
X130245000Y-70809000D02*
X118872000Y-59436000D01*
D23*
X35153390Y-84582000D02*
X40640000Y-84582000D01*
X89906000Y-71130000D02*
X86722511Y-74313489D01*
X40371000Y-73167000D02*
X38354000Y-73167000D01*
D22*
X130188000Y-70866000D02*
X130245000Y-70809000D01*
D23*
X91176000Y-71130000D02*
X89906000Y-71130000D01*
D24*
X30983000Y-49291000D02*
X32285989Y-50593989D01*
D22*
X104648000Y-52070000D02*
X104648000Y-48768000D01*
D23*
X37592000Y-52578000D02*
X37592000Y-49276000D01*
X48405489Y-71519489D02*
X47907489Y-71519489D01*
X56134000Y-70612000D02*
X53231489Y-67709489D01*
X91176000Y-63510000D02*
X91176000Y-71130000D01*
D22*
X148082000Y-70358000D02*
X147631000Y-70809000D01*
D23*
X43325489Y-71494602D02*
X42043398Y-71494602D01*
X47907489Y-53749489D02*
X46736000Y-52578000D01*
D22*
X149489000Y-68951000D02*
X148082000Y-70358000D01*
D24*
X36274011Y-50593989D02*
X37592000Y-49276000D01*
D23*
X49675489Y-56279489D02*
X50437489Y-57041489D01*
X86722511Y-74313489D02*
X80663489Y-74313489D01*
D22*
%TO.N,ARDUINO-A3*%
X145059489Y-45409000D02*
X145059489Y-54690010D01*
X145842990Y-55473511D02*
X146939000Y-55473511D01*
X146939000Y-55473511D02*
X148854000Y-57388511D01*
X145059489Y-54690010D02*
X145842990Y-55473511D01*
X143694000Y-44043511D02*
X145059489Y-45409000D01*
X148854000Y-57388511D02*
X149489000Y-57388511D01*
%TO.N,ARDUINO-A5*%
X149489000Y-62468511D02*
X148959489Y-62998022D01*
X142519489Y-47758022D02*
X143694000Y-46583511D01*
X148959489Y-62998022D02*
X143033511Y-62998022D01*
X142519489Y-62484000D02*
X142519489Y-47758022D01*
X143033511Y-62998022D02*
X142519489Y-62484000D01*
%TO.N,ARDUINO-A2*%
X158369000Y-63093511D02*
X158369000Y-61188511D01*
X152019000Y-60553511D02*
X155194000Y-63728511D01*
X158369000Y-61188511D02*
X157109000Y-59928511D01*
X155194000Y-63728511D02*
X157734000Y-63728511D01*
X147574000Y-45383511D02*
X147574000Y-54203511D01*
X148844000Y-55473511D02*
X150114000Y-55473511D01*
X157734000Y-63728511D02*
X158369000Y-63093511D01*
X147574000Y-54203511D02*
X148844000Y-55473511D01*
X150114000Y-55473511D02*
X152019000Y-57378511D01*
X146234000Y-44043511D02*
X147574000Y-45383511D01*
X152019000Y-57378511D02*
X152019000Y-60553511D01*
%TO.N,ARDUINO-A1*%
X155839000Y-62468511D02*
X157109000Y-62468511D01*
X153289000Y-59918511D02*
X155839000Y-62468511D01*
X150749000Y-54838511D02*
X153289000Y-57378511D01*
X148844718Y-54838511D02*
X150749000Y-54838511D01*
X148209000Y-54202793D02*
X148844718Y-54838511D01*
X148209000Y-44357501D02*
X148209000Y-54202793D01*
X153289000Y-57378511D02*
X153289000Y-59918511D01*
X143694000Y-41503511D02*
X145059489Y-42869000D01*
X146720499Y-42869000D02*
X148209000Y-44357501D01*
X145059489Y-42869000D02*
X146720499Y-42869000D01*
D23*
%TO.N,+5V*%
X73152000Y-52070000D02*
X94488000Y-52070000D01*
X67310000Y-34663000D02*
X67310000Y-27432000D01*
X39624000Y-38354000D02*
X41438000Y-36540000D01*
X94488000Y-52070000D02*
X99314000Y-56896000D01*
X75184000Y-64262000D02*
X78994000Y-64262000D01*
X78994000Y-64262000D02*
X80663489Y-65931489D01*
X61758000Y-51344000D02*
X62484000Y-52070000D01*
X39624000Y-61468000D02*
X39624000Y-38354000D01*
X41438000Y-36540000D02*
X45938000Y-36540000D01*
X73152000Y-52070000D02*
X74168000Y-53086000D01*
X62484000Y-52070000D02*
X73152000Y-52070000D01*
X61758000Y-37810000D02*
X64163000Y-37810000D01*
X39624000Y-63754000D02*
X39624000Y-61468000D01*
X74168000Y-53086000D02*
X74168000Y-63246000D01*
X95905595Y-21590000D02*
X94996000Y-21590000D01*
X33523000Y-67071000D02*
X36307000Y-67071000D01*
X110744000Y-36423511D02*
X110739106Y-36423511D01*
X39624000Y-61468000D02*
X42272511Y-58819489D01*
X42272511Y-58819489D02*
X47907489Y-58819489D01*
X110739106Y-36423511D02*
X95905595Y-21590000D01*
X74168000Y-63246000D02*
X75184000Y-64262000D01*
X80663489Y-65931489D02*
X80663489Y-66693489D01*
X61758000Y-37810000D02*
X61758000Y-51344000D01*
X36307000Y-67071000D02*
X39624000Y-63754000D01*
X64163000Y-37810000D02*
X67310000Y-34663000D01*
%TO.N,FP RELAY*%
X57912000Y-48768000D02*
X59182000Y-48768000D01*
X90678000Y-48260000D02*
X90678000Y-44958000D01*
X44450000Y-51562000D02*
X44450000Y-47498000D01*
X44450000Y-47498000D02*
X45466000Y-46482000D01*
X45466000Y-46482000D02*
X55626000Y-46482000D01*
X55626000Y-46482000D02*
X57912000Y-48768000D01*
X90170000Y-48768000D02*
X90678000Y-48260000D01*
X65024000Y-48768000D02*
X90170000Y-48768000D01*
D22*
%TO.N,ARDUINO-D6*%
X70503489Y-71519489D02*
X70866000Y-71882000D01*
X88392000Y-69088000D02*
X88392000Y-62484000D01*
X106934000Y-57325499D02*
X106934000Y-51308000D01*
X70503489Y-66693489D02*
X70503489Y-71519489D01*
X91186000Y-59690000D02*
X104569499Y-59690000D01*
X85598000Y-71882000D02*
X88392000Y-69088000D01*
X70866000Y-71882000D02*
X85598000Y-71882000D01*
X111918511Y-50489000D02*
X113284000Y-49123511D01*
X107753000Y-50489000D02*
X111918511Y-50489000D01*
X88392000Y-62484000D02*
X91186000Y-59690000D01*
X106934000Y-51308000D02*
X107753000Y-50489000D01*
X104569499Y-59690000D02*
X106934000Y-57325499D01*
D23*
%TO.N,FAN RELAY*%
X95758000Y-48260000D02*
X101854000Y-54356000D01*
X97282000Y-83312000D02*
X87122000Y-83312000D01*
X30226000Y-86868000D02*
X27686000Y-84328000D01*
X27686000Y-84328000D02*
X27686000Y-73406000D01*
X96774000Y-42164000D02*
X95758000Y-43180000D01*
X101854000Y-54356000D02*
X102616000Y-54356000D01*
X87122000Y-83312000D02*
X83566000Y-86868000D01*
X83566000Y-86868000D02*
X30226000Y-86868000D01*
X95758000Y-43180000D02*
X95758000Y-48260000D01*
X101600000Y-36576000D02*
X101600000Y-39076000D01*
X98512000Y-42164000D02*
X96774000Y-42164000D01*
X103378000Y-63500000D02*
X103378000Y-77216000D01*
X102616000Y-54356000D02*
X103378000Y-55118000D01*
X103378000Y-55118000D02*
X103378000Y-57150000D01*
X101600000Y-39076000D02*
X98512000Y-42164000D01*
X103378000Y-77216000D02*
X97282000Y-83312000D01*
X27686000Y-73406000D02*
X28941000Y-72151000D01*
X28941000Y-72151000D02*
X30983000Y-72151000D01*
D22*
%TO.N,ARDUINO-RST*%
X75583489Y-70249489D02*
X76454000Y-71120000D01*
X87884000Y-62230000D02*
X91186000Y-58928000D01*
X85598000Y-71120000D02*
X87884000Y-68834000D01*
X91186000Y-58928000D02*
X104394000Y-58928000D01*
X75583489Y-66693489D02*
X75583489Y-70249489D01*
X76454000Y-71120000D02*
X85598000Y-71120000D01*
X106426000Y-56896000D02*
X106426000Y-43281511D01*
X104394000Y-58928000D02*
X106426000Y-56896000D01*
X106426000Y-43281511D02*
X110744000Y-38963511D01*
X87884000Y-68834000D02*
X87884000Y-62230000D01*
%TO.N,ARDUINO-D8*%
X78740000Y-40640000D02*
X75946000Y-40640000D01*
X82804000Y-44704000D02*
X78740000Y-40640000D01*
%TO.N,+BATT*%
X142240000Y-25654000D02*
X142240000Y-29718000D01*
D23*
%TO.N,CHECK ENGINE*%
X24892000Y-81788000D02*
X24892000Y-72390000D01*
X27432000Y-43180000D02*
X28941000Y-41671000D01*
X24892000Y-72390000D02*
X27432000Y-69850000D01*
X28941000Y-41671000D02*
X30983000Y-41671000D01*
X27432000Y-69850000D02*
X27432000Y-43180000D01*
D22*
%TO.N,ARDUINO-D3*%
X80264000Y-19050000D02*
X40640000Y-19050000D01*
X102362000Y-30480000D02*
X91694000Y-30480000D01*
X108204000Y-39624000D02*
X108204000Y-36322000D01*
X108204000Y-36322000D02*
X102362000Y-30480000D01*
X91694000Y-30480000D02*
X80264000Y-19050000D01*
X40640000Y-19050000D02*
X28956000Y-30734000D01*
%TO.N,SUB TPS*%
X32348489Y-71855479D02*
X31359010Y-70866000D01*
X32258000Y-76844990D02*
X31359010Y-75946000D01*
X29718000Y-75087010D02*
X29718000Y-73914000D01*
X29718000Y-73914000D02*
X30115511Y-73516489D01*
X32004000Y-56896000D02*
X30998000Y-56896000D01*
X29718000Y-61594990D02*
X30606990Y-60706000D01*
X29718000Y-70007010D02*
X29718000Y-61594990D01*
X31359010Y-70866000D02*
X30576990Y-70866000D01*
X30998000Y-56896000D02*
X30983000Y-56911000D01*
X30115511Y-73516489D02*
X31893511Y-73516489D01*
X30576990Y-75946000D02*
X29718000Y-75087010D01*
X72898000Y-81720500D02*
X33811490Y-81720500D01*
X32258000Y-60452000D02*
X32258000Y-57150000D01*
X33811490Y-81720500D02*
X32258000Y-80167010D01*
X32258000Y-80167010D02*
X32258000Y-76844990D01*
X32348489Y-73061511D02*
X32348489Y-71855479D01*
X30576990Y-70866000D02*
X29718000Y-70007010D01*
X32004000Y-60706000D02*
X32258000Y-60452000D01*
X32258000Y-57150000D02*
X32004000Y-56896000D01*
X31359010Y-75946000D02*
X30576990Y-75946000D01*
X30606990Y-60706000D02*
X32004000Y-60706000D01*
X31893511Y-73516489D02*
X32348489Y-73061511D01*
D23*
%TO.N,TEMP WARN*%
X106042020Y-35740658D02*
X106042020Y-38229980D01*
X49276000Y-22606000D02*
X53594000Y-22606000D01*
X90211522Y-32258000D02*
X90424000Y-32258000D01*
X62992000Y-25146000D02*
X83099522Y-25146000D01*
X27178000Y-33274000D02*
X27940000Y-32512000D01*
X106042020Y-38229980D02*
X101600000Y-42672000D01*
X48768000Y-30988000D02*
X48768000Y-23114000D01*
X47244000Y-32512000D02*
X48768000Y-30988000D01*
X83099522Y-25146000D02*
X90211522Y-32258000D01*
X101600000Y-42672000D02*
X101600000Y-44958000D01*
X62165511Y-24319511D02*
X62992000Y-25146000D01*
X55307511Y-24319511D02*
X62165511Y-24319511D01*
X48768000Y-23114000D02*
X49276000Y-22606000D01*
X104927842Y-34626480D02*
X106042020Y-35740658D01*
X92792480Y-34626480D02*
X104927842Y-34626480D01*
X53594000Y-22606000D02*
X55307511Y-24319511D01*
X90424000Y-32258000D02*
X92792480Y-34626480D01*
X27940000Y-32512000D02*
X47244000Y-32512000D01*
D22*
%TO.N,KICKSTAND SW*%
X54356000Y-57404000D02*
X57912000Y-53848000D01*
X52324000Y-57404000D02*
X54356000Y-57404000D01*
X41402000Y-57150000D02*
X44704000Y-57150000D01*
D25*
%TO.N,SUB A -*%
X45466000Y-67564000D02*
X46228000Y-66802000D01*
X30983000Y-67071000D02*
X32238000Y-68326000D01*
X32238000Y-68326000D02*
X40386000Y-68326000D01*
X46228000Y-66802000D02*
X46228000Y-63038978D01*
X41148000Y-67564000D02*
X45466000Y-67564000D01*
X40386000Y-68326000D02*
X41148000Y-67564000D01*
X46228000Y-63038978D02*
X47907489Y-61359489D01*
%TO.N,SUB B -*%
X32132511Y-70760511D02*
X40237489Y-70760511D01*
X42018511Y-68979489D02*
X47907489Y-68979489D01*
X40237489Y-70760511D02*
X42018511Y-68979489D01*
X30983000Y-69611000D02*
X32132511Y-70760511D01*
D22*
%TO.N,Vehicle Down*%
X53848000Y-40132000D02*
X53086000Y-39370000D01*
X58420000Y-46228000D02*
X57658000Y-46228000D01*
X53848000Y-42418000D02*
X53848000Y-40132000D01*
X57658000Y-46228000D02*
X53848000Y-42418000D01*
X53086000Y-39370000D02*
X42672000Y-39370000D01*
D25*
%TO.N,CKP +*%
X110744000Y-25400000D02*
X112014000Y-25400000D01*
X115824000Y-29210000D02*
X118872000Y-32258000D01*
X112014000Y-25400000D02*
X115824000Y-29210000D01*
X118872000Y-32258000D02*
X118872000Y-46228000D01*
%TO.N,CKP -*%
X35560000Y-40640000D02*
X35441489Y-40521489D01*
X30506856Y-43061489D02*
X29718000Y-43850345D01*
X29718000Y-54731655D02*
X30747834Y-55761489D01*
X29718000Y-43850345D02*
X29718000Y-54731655D01*
X32373489Y-41194856D02*
X32373489Y-41906166D01*
X31218166Y-43061489D02*
X30506856Y-43061489D01*
X35441489Y-40521489D02*
X33046856Y-40521489D01*
X106680000Y-24384000D02*
X108966000Y-26670000D01*
X30747834Y-55761489D02*
X32373489Y-55761489D01*
X33046856Y-40521489D02*
X32373489Y-41194856D01*
X118110000Y-32512000D02*
X118110000Y-45212000D01*
X32373489Y-55761489D02*
X33523000Y-56911000D01*
X108966000Y-26670000D02*
X112268000Y-26670000D01*
X32373489Y-41906166D02*
X31218166Y-43061489D01*
X35814000Y-40386000D02*
X35560000Y-40640000D01*
X112268000Y-26670000D02*
X118110000Y-32512000D01*
%TO.N,SUB B +*%
X46736000Y-68072000D02*
X46736000Y-67610978D01*
X33523000Y-69611000D02*
X39863000Y-69611000D01*
X39863000Y-69611000D02*
X41148000Y-68326000D01*
X46736000Y-67610978D02*
X47907489Y-66439489D01*
X41148000Y-68326000D02*
X46482000Y-68326000D01*
X46482000Y-68326000D02*
X46736000Y-68072000D01*
%TO.N,SUB A +*%
X41830500Y-64087500D02*
X42164000Y-63754000D01*
X41830500Y-64770000D02*
X41830500Y-64087500D01*
X42418000Y-63500000D02*
X44704000Y-63500000D01*
X42164000Y-63754000D02*
X42418000Y-63500000D01*
D26*
%TO.N,IGN*%
X95147000Y-80621000D02*
X96393000Y-79375000D01*
X96393000Y-79375000D02*
X96393000Y-78642000D01*
X34373000Y-80621000D02*
X95147000Y-80621000D01*
X33523000Y-79771000D02*
X34373000Y-80621000D01*
D22*
%TO.N,Net-(A1-Pad16)*%
X65423489Y-61095489D02*
X65423489Y-66693489D01*
X60607489Y-56279489D02*
X65423489Y-61095489D01*
%TD*%
M02*
