%FSLAX45Y45*%
G04 Gerber Fmt 4.5, Leading zero omitted, Abs format (unit mm)*
G04 Created by KiCad (PCBNEW (6.0.0)) date 2022-01-14 02:18:14*
%MOMM*%
%LPD*%
G01*
G04 APERTURE LIST*
%TA.AperFunction,Profile*%
%ADD10C,0.100000*%
%TD*%
%ADD11C,0.200000*%
G04 APERTURE END LIST*
D10*
X14478000Y-9652000D02*
X14224000Y-9652000D01*
X14732000Y-9398000D02*
X14478000Y-9652000D01*
X14732000Y-9144000D02*
X14732000Y-9398000D01*
X14224000Y-2286000D02*
X14478000Y-2286000D01*
X14732000Y-2540000D02*
X14732000Y-2794000D01*
X14478000Y-2286000D02*
X14732000Y-2540000D01*
X1778000Y-2540000D02*
X1778000Y-2794000D01*
X2032000Y-2286000D02*
X1778000Y-2540000D01*
X2286000Y-2286000D02*
X2032000Y-2286000D01*
X2032000Y-9652000D02*
X2286000Y-9652000D01*
X1778000Y-9398000D02*
X2032000Y-9652000D01*
X1778000Y-9144000D02*
X1778000Y-9398000D01*
X2286000Y-9652000D02*
X14224000Y-9652000D01*
X2286000Y-2286000D02*
X14224000Y-2286000D01*
X1778000Y-9144000D02*
X1778000Y-2794000D01*
X14732000Y-2794000D02*
X14732000Y-9144000D01*
D11*
X2030619Y-9967476D02*
X2030619Y-9767476D01*
X2078238Y-9767476D01*
X2106810Y-9777000D01*
X2125857Y-9796048D01*
X2135381Y-9815095D01*
X2144905Y-9853190D01*
X2144905Y-9881762D01*
X2135381Y-9919857D01*
X2125857Y-9938905D01*
X2106810Y-9957952D01*
X2078238Y-9967476D01*
X2030619Y-9967476D01*
X2230619Y-9967476D02*
X2230619Y-9834143D01*
X2230619Y-9872238D02*
X2240143Y-9853190D01*
X2249667Y-9843667D01*
X2268714Y-9834143D01*
X2287762Y-9834143D01*
X2354429Y-9967476D02*
X2354429Y-9834143D01*
X2354429Y-9767476D02*
X2344905Y-9777000D01*
X2354429Y-9786524D01*
X2363952Y-9777000D01*
X2354429Y-9767476D01*
X2354429Y-9786524D01*
X2478238Y-9967476D02*
X2459190Y-9957952D01*
X2449667Y-9938905D01*
X2449667Y-9767476D01*
X2583000Y-9967476D02*
X2563952Y-9957952D01*
X2554429Y-9938905D01*
X2554429Y-9767476D01*
X2811571Y-9967476D02*
X2811571Y-9767476D01*
X2878238Y-9910333D01*
X2944905Y-9767476D01*
X2944905Y-9967476D01*
X3125857Y-9967476D02*
X3125857Y-9862714D01*
X3116333Y-9843667D01*
X3097286Y-9834143D01*
X3059190Y-9834143D01*
X3040143Y-9843667D01*
X3125857Y-9957952D02*
X3106809Y-9967476D01*
X3059190Y-9967476D01*
X3040143Y-9957952D01*
X3030619Y-9938905D01*
X3030619Y-9919857D01*
X3040143Y-9900810D01*
X3059190Y-9891286D01*
X3106809Y-9891286D01*
X3125857Y-9881762D01*
X3221095Y-9834143D02*
X3221095Y-10034143D01*
X3221095Y-9843667D02*
X3240143Y-9834143D01*
X3278238Y-9834143D01*
X3297286Y-9843667D01*
X3306809Y-9853190D01*
X3316333Y-9872238D01*
X3316333Y-9929381D01*
X3306809Y-9948429D01*
X3297286Y-9957952D01*
X3278238Y-9967476D01*
X3240143Y-9967476D01*
X3221095Y-9957952D01*
X3402048Y-9948429D02*
X3411571Y-9957952D01*
X3402048Y-9967476D01*
X3392524Y-9957952D01*
X3402048Y-9948429D01*
X3402048Y-9967476D01*
X3402048Y-9843667D02*
X3411571Y-9853190D01*
X3402048Y-9862714D01*
X3392524Y-9853190D01*
X3402048Y-9843667D01*
X3402048Y-9862714D01*
M02*
