M48
; DRILL file {KiCad (6.0.1)} date Fri Feb  4 01:53:54 2022
; FORMAT={-:-/ absolute / inch / decimal}
; #@! TF.CreationDate,2022-02-04T01:53:54-05:00
; #@! TF.GenerationSoftware,Kicad,Pcbnew,(6.0.1)
; #@! TF.FileFunction,Plated,1,4,PTH
FMAT,2
INCH
; #@! TA.AperFunction,Plated,PTH,ViaDrill
T1C0.0157
; #@! TA.AperFunction,Plated,PTH,ComponentDrill
T2C0.0300
; #@! TA.AperFunction,Plated,PTH,ComponentDrill
T3C0.0315
; #@! TA.AperFunction,Plated,PTH,ComponentDrill
T4C0.0394
; #@! TA.AperFunction,Plated,PTH,ComponentDrill
T5C0.0433
; #@! TA.AperFunction,Plated,PTH,ComponentDrill
T6C0.0472
; #@! TA.AperFunction,Plated,PTH,ComponentDrill
T7C0.0866
; #@! TA.AperFunction,Plated,PTH,ComponentDrill
T8C0.1693
%
G90
G05
T1
X1.475Y-2.675
X1.475Y-2.725
X1.7Y-2.725
X1.7Y-2.875
X1.825Y-2.775
X2.425Y-3.0
X2.475Y-3.7
X2.5Y-3.925
X2.5Y-4.1
X2.55Y-3.425
X2.7Y-3.925
X2.7Y-4.1
X2.725Y-3.85
X2.725Y-4.025
X2.95Y-2.075
X3.5Y-1.7
X3.5Y-1.775
X3.5Y-1.85
X3.5Y-1.925
X3.5Y-2.0
X3.575Y-1.7
X3.575Y-1.775
X3.575Y-1.85
X3.575Y-1.925
X3.575Y-2.0
X3.65Y-1.7
X3.65Y-1.775
X3.65Y-1.925
X3.65Y-2.0
X3.75Y-1.7
X3.75Y-1.775
X3.75Y-1.85
X3.75Y-1.925
X3.75Y-2.0
X3.925Y-3.175
X4.5Y-3.175
X4.825Y-3.175
T2
X2.925Y-2.375
X2.925Y-2.475
X2.925Y-3.375
X2.925Y-3.475
X2.925Y-3.575
X2.925Y-3.675
X2.925Y-3.775
X3.025Y-2.375
X3.025Y-2.475
X3.025Y-3.375
X3.025Y-3.475
X3.025Y-3.575
X3.025Y-3.675
X3.025Y-3.775
X3.125Y-2.375
X3.125Y-2.475
X3.125Y-3.675
X3.125Y-3.775
X3.225Y-2.375
X3.225Y-2.475
X3.225Y-3.675
X3.225Y-3.775
X3.325Y-2.375
X3.325Y-2.475
X3.325Y-3.675
X3.325Y-3.775
X3.425Y-2.375
X3.425Y-2.475
X3.425Y-3.675
X3.425Y-3.775
X3.525Y-2.375
X3.525Y-2.475
X3.525Y-3.675
X3.525Y-3.775
X3.625Y-2.375
X3.625Y-2.475
X3.625Y-3.675
X3.625Y-3.775
X3.725Y-2.375
X3.725Y-2.475
X3.725Y-3.675
X3.725Y-3.775
X3.825Y-2.375
X3.825Y-2.475
X3.825Y-3.675
X3.825Y-3.775
X3.925Y-2.375
X3.925Y-2.475
X3.925Y-3.675
X3.925Y-3.775
X4.025Y-2.375
X4.025Y-2.475
X4.025Y-3.675
X4.025Y-3.775
X4.125Y-2.375
X4.125Y-2.475
X4.125Y-3.675
X4.125Y-3.775
X4.225Y-2.375
X4.225Y-2.475
X4.225Y-3.675
X4.225Y-3.775
X4.325Y-2.375
X4.325Y-2.475
X4.325Y-3.675
X4.325Y-3.775
X4.425Y-2.375
X4.425Y-2.475
X4.425Y-3.675
X4.425Y-3.775
X4.525Y-2.375
X4.525Y-2.475
X4.625Y-2.375
X4.625Y-2.475
X4.725Y-2.375
X4.725Y-2.475
X4.825Y-2.375
X4.825Y-2.475
X4.925Y-2.375
X4.925Y-2.475
T3
X1.6024Y-1.6856
X1.625Y-3.9
X1.625Y-4.2
X1.686Y-3.1433
X1.686Y-3.4433
X1.725Y-3.9
X1.725Y-4.2
X1.786Y-3.1433
X1.786Y-3.4433
X1.825Y-3.9
X1.825Y-4.2
X1.886Y-3.1433
X1.886Y-3.4433
X1.8976Y-1.7644
X1.9Y-1.9996
X1.9Y-2.4996
X1.925Y-3.9
X1.925Y-4.2
X1.986Y-3.1433
X1.986Y-3.4433
X2.0Y-1.9996
X2.0Y-2.4996
X2.1Y-1.9996
X2.1Y-2.4996
X2.2Y-1.9996
X2.2Y-2.4996
X2.3Y-1.9996
X2.3Y-2.4996
X2.4Y-1.9996
X2.4Y-2.4996
X2.499Y-2.7
X2.5Y-1.9996
X2.5Y-2.4996
X2.5974Y-2.7
X2.6Y-1.9996
X2.6Y-2.4996
X3.7254Y-3.9246
X3.7254Y-4.2246
X3.8254Y-3.9246
X3.8254Y-4.2246
X3.9254Y-3.9246
X3.9254Y-4.2246
X4.0254Y-3.9246
X4.0254Y-4.2246
X4.2246Y-3.9254
X4.2246Y-4.2254
X4.3246Y-3.9254
X4.3246Y-4.2254
X4.4246Y-3.9254
X4.4246Y-4.2254
X4.5246Y-3.9254
X4.5246Y-4.2254
T4
X2.325Y-3.4082
X2.325Y-3.5082
X2.675Y-3.55
X2.775Y-2.3994
X2.775Y-2.4994
X2.775Y-2.5994
X4.25Y-2.225
X4.35Y-2.225
X4.45Y-2.225
X4.55Y-2.225
X4.65Y-2.225
X4.75Y-2.225
T5
X2.225Y-3.95
X2.225Y-4.05
X2.225Y-4.15
X3.225Y-3.325
X3.225Y-3.475
X3.525Y-3.325
X3.525Y-3.475
T6
X1.1819Y-2.3465
X1.1819Y-2.4331
X1.1819Y-2.5197
X1.1819Y-2.6063
X1.1819Y-2.6929
X1.1819Y-2.7795
X1.1819Y-2.8661
X1.1819Y-2.9528
X1.1819Y-3.0394
X1.1819Y-3.126
X1.1819Y-3.2126
X1.1819Y-3.2992
X1.1819Y-3.3858
X1.1819Y-3.4724
X1.1819Y-3.5591
X1.1819Y-3.6457
X1.1819Y-3.7559
X1.1819Y-3.8661
X1.3Y-2.3465
X1.3Y-2.4331
X1.3Y-2.5197
X1.3Y-2.6063
X1.3Y-2.6929
X1.3Y-2.7795
X1.3Y-2.8661
X1.3Y-2.9528
X1.3Y-3.0394
X1.3Y-3.126
X1.3Y-3.2126
X1.3Y-3.2992
X1.3Y-3.3858
X1.3Y-3.4724
X1.3Y-3.5591
X1.3Y-3.6457
X1.3Y-3.7559
X1.3Y-3.8661
T7
X1.175Y-1.725
X1.175Y-4.375
T8
X4.8Y-1.8
X4.8Y-4.3
T0
M30
