G04 #@! TF.GenerationSoftware,KiCad,Pcbnew,(6.0.1)*
G04 #@! TF.CreationDate,2022-02-04T01:53:46-05:00*
G04 #@! TF.ProjectId,klxecu,6b6c7865-6375-42e6-9b69-6361645f7063,rev?*
G04 #@! TF.SameCoordinates,Original*
G04 #@! TF.FileFunction,Soldermask,Top*
G04 #@! TF.FilePolarity,Negative*
%FSLAX46Y46*%
G04 Gerber Fmt 4.6, Leading zero omitted, Abs format (unit mm)*
G04 Created by KiCad (PCBNEW (6.0.1)) date 2022-02-04 01:53:46*
%MOMM*%
%LPD*%
G01*
G04 APERTURE LIST*
G04 Aperture macros list*
%AMRoundRect*
0 Rectangle with rounded corners*
0 $1 Rounding radius*
0 $2 $3 $4 $5 $6 $7 $8 $9 X,Y pos of 4 corners*
0 Add a 4 corners polygon primitive as box body*
4,1,4,$2,$3,$4,$5,$6,$7,$8,$9,$2,$3,0*
0 Add four circle primitives for the rounded corners*
1,1,$1+$1,$2,$3*
1,1,$1+$1,$4,$5*
1,1,$1+$1,$6,$7*
1,1,$1+$1,$8,$9*
0 Add four rect primitives between the rounded corners*
20,1,$1+$1,$2,$3,$4,$5,0*
20,1,$1+$1,$4,$5,$6,$7,0*
20,1,$1+$1,$6,$7,$8,$9,0*
20,1,$1+$1,$8,$9,$2,$3,0*%
G04 Aperture macros list end*
%ADD10C,4.400000*%
%ADD11C,8.600000*%
%ADD12C,1.700000*%
%ADD13C,3.800000*%
%ADD14O,1.600000X1.600000*%
%ADD15R,1.600000X1.600000*%
%ADD16C,1.524000*%
%ADD17R,4.600000X1.100000*%
%ADD18R,9.400000X10.800000*%
%ADD19C,1.800000*%
%ADD20RoundRect,0.250000X0.262500X0.450000X-0.262500X0.450000X-0.262500X-0.450000X0.262500X-0.450000X0*%
%ADD21RoundRect,0.250000X0.450000X-0.262500X0.450000X0.262500X-0.450000X0.262500X-0.450000X-0.262500X0*%
%ADD22RoundRect,0.250000X-0.350000X-0.450000X0.350000X-0.450000X0.350000X0.450000X-0.350000X0.450000X0*%
%ADD23RoundRect,0.250000X0.350000X0.450000X-0.350000X0.450000X-0.350000X-0.450000X0.350000X-0.450000X0*%
%ADD24RoundRect,0.250000X-0.450000X0.350000X-0.450000X-0.350000X0.450000X-0.350000X0.450000X0.350000X0*%
%ADD25RoundRect,0.250000X-0.450000X0.262500X-0.450000X-0.262500X0.450000X-0.262500X0.450000X0.262500X0*%
%ADD26RoundRect,0.150000X0.587500X0.150000X-0.587500X0.150000X-0.587500X-0.150000X0.587500X-0.150000X0*%
%ADD27O,2.000000X1.905000*%
%ADD28R,2.000000X1.905000*%
%ADD29O,1.700000X1.700000*%
%ADD30R,1.700000X1.700000*%
%ADD31O,2.200000X2.200000*%
%ADD32R,2.200000X2.200000*%
%ADD33R,2.300000X2.500000*%
%ADD34R,2.500000X1.800000*%
%ADD35C,1.600000*%
%ADD36RoundRect,0.250000X-0.250000X-0.475000X0.250000X-0.475000X0.250000X0.475000X-0.250000X0.475000X0*%
%ADD37RoundRect,0.250000X0.475000X-0.337500X0.475000X0.337500X-0.475000X0.337500X-0.475000X-0.337500X0*%
%ADD38RoundRect,0.250000X-0.475000X0.337500X-0.475000X-0.337500X0.475000X-0.337500X0.475000X0.337500X0*%
%ADD39RoundRect,0.250000X-0.337500X-0.475000X0.337500X-0.475000X0.337500X0.475000X-0.337500X0.475000X0*%
%ADD40RoundRect,0.250000X0.925000X-0.412500X0.925000X0.412500X-0.925000X0.412500X-0.925000X-0.412500X0*%
%ADD41RoundRect,0.250000X0.475000X-0.250000X0.475000X0.250000X-0.475000X0.250000X-0.475000X-0.250000X0*%
%ADD42RoundRect,0.250000X0.250000X0.475000X-0.250000X0.475000X-0.250000X-0.475000X0.250000X-0.475000X0*%
%ADD43RoundRect,0.250000X-0.787500X-1.025000X0.787500X-1.025000X0.787500X1.025000X-0.787500X1.025000X0*%
G04 APERTURE END LIST*
D10*
X29845000Y-111125000D03*
X29845000Y-43815000D03*
D11*
X121920000Y-109220000D03*
X121920000Y-45720000D03*
D12*
X30020000Y-98200000D03*
X30020000Y-95400000D03*
X30020000Y-92600000D03*
X30020000Y-90400000D03*
X30020000Y-88200000D03*
X30020000Y-86000000D03*
X30020000Y-83800000D03*
X30020000Y-81600000D03*
X30020000Y-79400000D03*
X30020000Y-77200000D03*
X30020000Y-75000000D03*
X30020000Y-72800000D03*
X30020000Y-70600000D03*
X30020000Y-68400000D03*
X30020000Y-66200000D03*
X30020000Y-64000000D03*
X30020000Y-61800000D03*
X30020000Y-59600000D03*
X33020000Y-98200000D03*
X33020000Y-95400000D03*
X33020000Y-92600000D03*
X33020000Y-90400000D03*
X33020000Y-88200000D03*
X33020000Y-86000000D03*
X33020000Y-83800000D03*
X33020000Y-81600000D03*
X33020000Y-79400000D03*
X33020000Y-77200000D03*
X33020000Y-75000000D03*
X33020000Y-72800000D03*
X33020000Y-70600000D03*
X33020000Y-68400000D03*
X33020000Y-66200000D03*
X33020000Y-64000000D03*
X33020000Y-61800000D03*
X33020000Y-59600000D03*
D13*
X29720000Y-104400000D03*
X29720000Y-53400000D03*
D14*
X41275000Y-99060000D03*
X43815000Y-99060000D03*
X46355000Y-99060000D03*
X48895000Y-99060000D03*
X48895000Y-106680000D03*
X46355000Y-106680000D03*
X43815000Y-106680000D03*
D15*
X41275000Y-106680000D03*
D16*
X117475000Y-60325000D03*
X117475000Y-62865000D03*
X120015000Y-60325000D03*
X120015000Y-62865000D03*
X112395000Y-95885000D03*
X112395000Y-93345000D03*
X109855000Y-95885000D03*
X109855000Y-93345000D03*
X107315000Y-95885000D03*
X107315000Y-93345000D03*
X104775000Y-95885000D03*
X104775000Y-93345000D03*
X102235000Y-95885000D03*
X102235000Y-93345000D03*
X99695000Y-95885000D03*
X99695000Y-93345000D03*
X97155000Y-95885000D03*
X97155000Y-93345000D03*
X94615000Y-95885000D03*
X94615000Y-93345000D03*
X114935000Y-62865000D03*
X109855000Y-62865000D03*
X109855000Y-60325000D03*
X107315000Y-62865000D03*
X107315000Y-60325000D03*
X104775000Y-62865000D03*
X104775000Y-60325000D03*
X102235000Y-62865000D03*
X102235000Y-60325000D03*
X99695000Y-62865000D03*
X99695000Y-60325000D03*
X97155000Y-62865000D03*
X97155000Y-60325000D03*
X94615000Y-62865000D03*
X94615000Y-60325000D03*
X92075000Y-62865000D03*
X92075000Y-60325000D03*
X89535000Y-62865000D03*
X89535000Y-60325000D03*
X86995000Y-62865000D03*
X86995000Y-60325000D03*
X84455000Y-62865000D03*
X84455000Y-60325000D03*
X81915000Y-62865000D03*
X81915000Y-60325000D03*
X79375000Y-62865000D03*
X79375000Y-60325000D03*
X76835000Y-62865000D03*
X76835000Y-60325000D03*
X74295000Y-62865000D03*
X74295000Y-60325000D03*
X92075000Y-95885000D03*
X92075000Y-93345000D03*
X89535000Y-95885000D03*
X89535000Y-93345000D03*
X86995000Y-95885000D03*
X86995000Y-93345000D03*
X84455000Y-95885000D03*
X84455000Y-93345000D03*
X81915000Y-95885000D03*
X81915000Y-93345000D03*
X79375000Y-95885000D03*
X79375000Y-93345000D03*
X76835000Y-95885000D03*
X76835000Y-93345000D03*
X74295000Y-95885000D03*
X74295000Y-93345000D03*
X74295000Y-90805000D03*
X76835000Y-90805000D03*
X74295000Y-88265000D03*
X76835000Y-88265000D03*
X74295000Y-85725000D03*
X76835000Y-85725000D03*
X122555000Y-62865000D03*
X122555000Y-60325000D03*
X114935000Y-60325000D03*
X112395000Y-62865000D03*
X112395000Y-60325000D03*
X125095000Y-60325000D03*
X125095000Y-62865000D03*
D17*
X82925000Y-49530000D03*
X82925000Y-46990000D03*
D18*
X92075000Y-46990000D03*
D17*
X82925000Y-44450000D03*
D19*
X48200000Y-44815000D03*
X40700000Y-42815000D03*
D20*
X68222500Y-86995000D03*
X66397500Y-86995000D03*
D21*
X38100000Y-102592500D03*
X38100000Y-104417500D03*
D22*
X46085000Y-109220000D03*
X44085000Y-109220000D03*
D23*
X47895000Y-109220000D03*
X49895000Y-109220000D03*
D21*
X59380000Y-103862500D03*
X59380000Y-105687500D03*
X59380000Y-100052500D03*
X59380000Y-101877500D03*
D22*
X87090000Y-65405000D03*
X85090000Y-65405000D03*
D24*
X122555000Y-89265000D03*
X122555000Y-87265000D03*
X107950000Y-89900000D03*
X107950000Y-87900000D03*
X122555000Y-85185000D03*
X122555000Y-83185000D03*
D22*
X100235000Y-90170000D03*
X102235000Y-90170000D03*
D24*
X114300000Y-89265000D03*
X114300000Y-87265000D03*
X114300000Y-85185000D03*
X114300000Y-83185000D03*
D21*
X104775000Y-55602500D03*
X104775000Y-57427500D03*
D25*
X123825000Y-57427500D03*
X123825000Y-55602500D03*
D26*
X67007500Y-93980000D03*
X68882500Y-93030000D03*
X68882500Y-94930000D03*
X70182500Y-104140000D03*
X72057500Y-103190000D03*
X72057500Y-105090000D03*
X65102500Y-99695000D03*
X66977500Y-98745000D03*
X66977500Y-100645000D03*
D27*
X56515000Y-100330000D03*
X56515000Y-102870000D03*
D28*
X56515000Y-105410000D03*
D26*
X72057500Y-100645000D03*
X72057500Y-98745000D03*
X70182500Y-99695000D03*
X65102500Y-104140000D03*
X66977500Y-103190000D03*
X66977500Y-105090000D03*
D29*
X70485000Y-60945000D03*
X70485000Y-63485000D03*
D30*
X70485000Y-66025000D03*
X67945000Y-90170000D03*
D14*
X42825000Y-79839511D03*
X45365000Y-79839511D03*
X47905000Y-79839511D03*
X50445000Y-79839511D03*
X50445000Y-87459511D03*
X47905000Y-87459511D03*
X45365000Y-87459511D03*
D15*
X42825000Y-87459511D03*
D14*
X94625000Y-99685000D03*
X97165000Y-99685000D03*
X99705000Y-99685000D03*
X102245000Y-99685000D03*
X102245000Y-107305000D03*
X99705000Y-107305000D03*
X97165000Y-107305000D03*
D15*
X94625000Y-107305000D03*
D29*
X107950000Y-56515000D03*
X110490000Y-56515000D03*
X113030000Y-56515000D03*
X115570000Y-56515000D03*
X118110000Y-56515000D03*
D30*
X120650000Y-56515000D03*
D29*
X59055000Y-86569511D03*
D30*
X59055000Y-89109511D03*
D14*
X114925000Y-107325000D03*
X112385000Y-107325000D03*
X109845000Y-107325000D03*
X107305000Y-107325000D03*
X107305000Y-99705000D03*
X109845000Y-99705000D03*
X112385000Y-99705000D03*
D15*
X114925000Y-99705000D03*
D31*
X89535000Y-84455000D03*
D32*
X81915000Y-84455000D03*
D31*
X81915000Y-88265000D03*
D32*
X89535000Y-88265000D03*
D33*
X100330000Y-46745000D03*
X100330000Y-51045000D03*
D34*
X71025000Y-43815000D03*
X75025000Y-43815000D03*
D35*
X63475112Y-68580000D03*
D15*
X65975112Y-68580000D03*
D36*
X89220000Y-65405000D03*
X91120000Y-65405000D03*
D37*
X125095000Y-87227500D03*
X125095000Y-89302500D03*
X110490000Y-87862500D03*
X110490000Y-89937500D03*
D38*
X125095000Y-85222500D03*
X125095000Y-83147500D03*
D39*
X110257500Y-85725000D03*
X108182500Y-85725000D03*
D37*
X104775000Y-87862500D03*
X104775000Y-89937500D03*
X116840000Y-87227500D03*
X116840000Y-89302500D03*
D39*
X100330000Y-87630000D03*
X102405000Y-87630000D03*
D38*
X116840000Y-85222500D03*
X116840000Y-83147500D03*
D40*
X74930000Y-47357500D03*
X74930000Y-50432500D03*
D41*
X78740000Y-47310000D03*
X78740000Y-49210000D03*
D42*
X63185000Y-45085000D03*
X65085000Y-45085000D03*
D43*
X60897500Y-43815000D03*
X54672500Y-43815000D03*
D14*
X48260000Y-50790000D03*
X50800000Y-50790000D03*
X53340000Y-50790000D03*
X55880000Y-50790000D03*
X58420000Y-50790000D03*
X60960000Y-50790000D03*
X63500000Y-50790000D03*
X66040000Y-50790000D03*
X66040000Y-63490000D03*
X63500000Y-63490000D03*
X60960000Y-63490000D03*
X58420000Y-63490000D03*
X55880000Y-63490000D03*
X53340000Y-63490000D03*
X50800000Y-63490000D03*
D15*
X48260000Y-63490000D03*
M02*
