%FSLAX45Y45*%
G04 Gerber Fmt 4.5, Leading zero omitted, Abs format (unit mm)*
G04 Created by KiCad (PCBNEW (6.0.1)) date 2022-02-06 00:08:50*
%MOMM*%
%LPD*%
G01*
G04 APERTURE LIST*
%TA.AperFunction,Profile*%
%ADD10C,0.100000*%
%TD*%
%ADD11C,0.200000*%
%ADD12C,0.040000*%
%ADD13C,0.070000*%
%ADD14C,0.076200*%
%ADD15C,0.080000*%
%ADD16C,0.100000*%
%ADD17C,0.110000*%
%ADD18C,0.120000*%
%ADD19C,0.220000*%
G04 APERTURE END LIST*
D10*
X2540000Y-3302000D02*
X10566400Y-3302000D01*
X10566400Y-3302000D02*
X10566400Y-11938000D01*
X10566400Y-11938000D02*
X2540000Y-11938000D01*
X2540000Y-11938000D02*
X2540000Y-3302000D01*
D11*
D12*
X3542450Y-6584000D02*
X3582450Y-6624000D01*
X3582450Y-6584000D02*
X3542450Y-6624000D01*
X3542450Y-6838000D02*
X3582450Y-6878000D01*
X3582450Y-6838000D02*
X3542450Y-6878000D01*
X3542450Y-7092000D02*
X3582450Y-7132000D01*
X3582450Y-7092000D02*
X3542450Y-7132000D01*
X3663000Y-7409500D02*
X3703000Y-7449500D01*
X3703000Y-7409500D02*
X3663000Y-7449500D01*
X4044000Y-7092000D02*
X4084000Y-7132000D01*
X4084000Y-7092000D02*
X4044000Y-7132000D01*
X4298000Y-6520500D02*
X4338000Y-6560500D01*
X4338000Y-6520500D02*
X4298000Y-6560500D01*
X4361500Y-6266500D02*
X4401500Y-6306500D01*
X4401500Y-6266500D02*
X4361500Y-6306500D01*
X4679000Y-8362000D02*
X4719000Y-8402000D01*
X4719000Y-8362000D02*
X4679000Y-8402000D01*
X5060000Y-6076000D02*
X5100000Y-6116000D01*
X5100000Y-6076000D02*
X5060000Y-6116000D01*
X5187000Y-8362000D02*
X5227000Y-8402000D01*
X5227000Y-8362000D02*
X5187000Y-8402000D01*
X5377500Y-7536500D02*
X5417500Y-7576500D01*
X5417500Y-7536500D02*
X5377500Y-7576500D01*
X5441000Y-7219000D02*
X5481000Y-7259000D01*
X5481000Y-7219000D02*
X5441000Y-7259000D01*
X5695000Y-8362000D02*
X5735000Y-8402000D01*
X5735000Y-8362000D02*
X5695000Y-8402000D01*
X6774500Y-5060000D02*
X6814500Y-5100000D01*
X6814500Y-5060000D02*
X6774500Y-5100000D01*
X6838000Y-8425500D02*
X6878000Y-8465500D01*
X6878000Y-8425500D02*
X6838000Y-8465500D01*
X6965000Y-6076000D02*
X7005000Y-6116000D01*
X7005000Y-6076000D02*
X6965000Y-6116000D01*
X7092000Y-6711000D02*
X7132000Y-6751000D01*
X7132000Y-6711000D02*
X7092000Y-6751000D01*
X7219000Y-7282500D02*
X7259000Y-7322500D01*
X7259000Y-7282500D02*
X7219000Y-7322500D01*
X8427300Y-4617300D02*
X8467300Y-4657300D01*
X8467300Y-4617300D02*
X8427300Y-4657300D01*
X8998200Y-3726500D02*
X9038200Y-3766500D01*
X9038200Y-3726500D02*
X8998200Y-3766500D01*
X8998200Y-4552000D02*
X9038200Y-4592000D01*
X9038200Y-4552000D02*
X8998200Y-4592000D01*
X9327200Y-4147500D02*
X9367200Y-4187500D01*
X9367200Y-4147500D02*
X9327200Y-4187500D01*
X9633200Y-3726500D02*
X9673200Y-3766500D01*
X9673200Y-3726500D02*
X9633200Y-3766500D01*
X9633200Y-4552000D02*
X9673200Y-4592000D01*
X9673200Y-4552000D02*
X9633200Y-4592000D01*
D13*
X3845000Y-10160000D02*
G75*
G03*
X3845000Y-10160000I-35000J0D01*
G01*
X3845000Y-10414000D02*
G75*
G03*
X3845000Y-10414000I-35000J0D01*
G01*
X3845000Y-10668000D02*
G75*
G03*
X3845000Y-10668000I-35000J0D01*
G01*
X4099000Y-10160000D02*
G75*
G03*
X4099000Y-10160000I-35000J0D01*
G01*
X4099000Y-10414000D02*
G75*
G03*
X4099000Y-10414000I-35000J0D01*
G01*
X4099000Y-10668000D02*
G75*
G03*
X4099000Y-10668000I-35000J0D01*
G01*
X4350364Y-10920195D02*
G75*
G03*
X4350364Y-10920195I-35000J0D01*
G01*
X4353000Y-10160000D02*
G75*
G03*
X4353000Y-10160000I-35000J0D01*
G01*
X4353000Y-10414000D02*
G75*
G03*
X4353000Y-10414000I-35000J0D01*
G01*
X4353000Y-10668000D02*
G75*
G03*
X4353000Y-10668000I-35000J0D01*
G01*
X4353000Y-11176000D02*
G75*
G03*
X4353000Y-11176000I-35000J0D01*
G01*
X4606097Y-10920195D02*
G75*
G03*
X4606097Y-10920195I-35000J0D01*
G01*
X4606097Y-11175929D02*
G75*
G03*
X4606097Y-11175929I-35000J0D01*
G01*
X4607000Y-10160000D02*
G75*
G03*
X4607000Y-10160000I-35000J0D01*
G01*
X4607000Y-10414000D02*
G75*
G03*
X4607000Y-10414000I-35000J0D01*
G01*
X4607000Y-10668000D02*
G75*
G03*
X4607000Y-10668000I-35000J0D01*
G01*
X4859195Y-10920195D02*
G75*
G03*
X4859195Y-10920195I-35000J0D01*
G01*
X4861000Y-10160000D02*
G75*
G03*
X4861000Y-10160000I-35000J0D01*
G01*
X4861000Y-10414000D02*
G75*
G03*
X4861000Y-10414000I-35000J0D01*
G01*
X4861000Y-10668000D02*
G75*
G03*
X4861000Y-10668000I-35000J0D01*
G01*
X4861000Y-11176000D02*
G75*
G03*
X4861000Y-11176000I-35000J0D01*
G01*
X5115000Y-10160000D02*
G75*
G03*
X5115000Y-10160000I-35000J0D01*
G01*
X5115000Y-10414000D02*
G75*
G03*
X5115000Y-10414000I-35000J0D01*
G01*
X5115000Y-10668000D02*
G75*
G03*
X5115000Y-10668000I-35000J0D01*
G01*
X5115000Y-10922000D02*
G75*
G03*
X5115000Y-10922000I-35000J0D01*
G01*
X5115000Y-11176000D02*
G75*
G03*
X5115000Y-11176000I-35000J0D01*
G01*
X5368026Y-10667097D02*
G75*
G03*
X5368026Y-10667097I-35000J0D01*
G01*
X5368026Y-11175929D02*
G75*
G03*
X5368026Y-11175929I-35000J0D01*
G01*
X5369000Y-10160000D02*
G75*
G03*
X5369000Y-10160000I-35000J0D01*
G01*
X5369000Y-10414000D02*
G75*
G03*
X5369000Y-10414000I-35000J0D01*
G01*
X5369000Y-10922000D02*
G75*
G03*
X5369000Y-10922000I-35000J0D01*
G01*
X5623000Y-10160000D02*
G75*
G03*
X5623000Y-10160000I-35000J0D01*
G01*
X5623000Y-10414000D02*
G75*
G03*
X5623000Y-10414000I-35000J0D01*
G01*
X5623000Y-10668000D02*
G75*
G03*
X5623000Y-10668000I-35000J0D01*
G01*
X5623000Y-10922000D02*
G75*
G03*
X5623000Y-10922000I-35000J0D01*
G01*
X5623000Y-11176000D02*
G75*
G03*
X5623000Y-11176000I-35000J0D01*
G01*
X5876857Y-10414000D02*
G75*
G03*
X5876857Y-10414000I-35000J0D01*
G01*
X5877000Y-10668000D02*
G75*
G03*
X5877000Y-10668000I-35000J0D01*
G01*
X5877000Y-10922000D02*
G75*
G03*
X5877000Y-10922000I-35000J0D01*
G01*
X5877000Y-11176000D02*
G75*
G03*
X5877000Y-11176000I-35000J0D01*
G01*
X6131000Y-10668000D02*
G75*
G03*
X6131000Y-10668000I-35000J0D01*
G01*
X6131000Y-10922000D02*
G75*
G03*
X6131000Y-10922000I-35000J0D01*
G01*
X6131000Y-11176000D02*
G75*
G03*
X6131000Y-11176000I-35000J0D01*
G01*
X6383242Y-10922000D02*
G75*
G03*
X6383242Y-10922000I-35000J0D01*
G01*
X6385000Y-10668000D02*
G75*
G03*
X6385000Y-10668000I-35000J0D01*
G01*
X6385000Y-11176000D02*
G75*
G03*
X6385000Y-11176000I-35000J0D01*
G01*
X6638097Y-11175097D02*
G75*
G03*
X6638097Y-11175097I-35000J0D01*
G01*
X6639000Y-10668000D02*
G75*
G03*
X6639000Y-10668000I-35000J0D01*
G01*
X6639000Y-10922000D02*
G75*
G03*
X6639000Y-10922000I-35000J0D01*
G01*
X6892952Y-10667145D02*
G75*
G03*
X6892952Y-10667145I-35000J0D01*
G01*
X6892952Y-10922000D02*
G75*
G03*
X6892952Y-10922000I-35000J0D01*
G01*
X7147000Y-10668000D02*
G75*
G03*
X7147000Y-10668000I-35000J0D01*
G01*
X7147000Y-10922000D02*
G75*
G03*
X7147000Y-10922000I-35000J0D01*
G01*
D14*
X6210951Y-6387449D02*
X6210951Y-6463649D01*
X6172851Y-6425549D02*
X6249051Y-6425549D01*
X6210951Y-6641449D02*
X6210951Y-6717649D01*
X6172851Y-6679549D02*
X6249051Y-6679549D01*
X6210951Y-6895449D02*
X6210951Y-6971649D01*
X6172851Y-6933549D02*
X6249051Y-6933549D01*
X6210951Y-7149449D02*
X6210951Y-7225649D01*
X6172851Y-7187549D02*
X6249051Y-7187549D01*
X6210951Y-7403449D02*
X6210951Y-7479649D01*
X6172851Y-7441549D02*
X6249051Y-7441549D01*
X6210951Y-7657449D02*
X6210951Y-7733649D01*
X6172851Y-7695549D02*
X6249051Y-7695549D01*
X6210951Y-7911449D02*
X6210951Y-7987649D01*
X6172851Y-7949549D02*
X6249051Y-7949549D01*
X6210951Y-8165449D02*
X6210951Y-8241649D01*
X6172851Y-8203549D02*
X6249051Y-8203549D01*
X6210951Y-8419449D02*
X6210951Y-8495649D01*
X6172851Y-8457549D02*
X6249051Y-8457549D01*
X6210951Y-8673449D02*
X6210951Y-8749649D01*
X6172851Y-8711549D02*
X6249051Y-8711549D01*
X6210951Y-8927449D02*
X6210951Y-9003649D01*
X6172851Y-8965549D02*
X6249051Y-8965549D01*
X6210951Y-9181449D02*
X6210951Y-9257649D01*
X6172851Y-9219549D02*
X6249051Y-9219549D01*
X6210951Y-9435449D02*
X6210951Y-9511649D01*
X6172851Y-9473549D02*
X6249051Y-9473549D01*
X6210951Y-9689449D02*
X6210951Y-9765649D01*
X6172851Y-9727549D02*
X6249051Y-9727549D01*
X6210951Y-9943449D02*
X6210951Y-10019649D01*
X6172851Y-9981549D02*
X6249051Y-9981549D01*
X6210951Y-10197449D02*
X6210951Y-10273649D01*
X6172851Y-10235549D02*
X6249051Y-10235549D01*
X6464951Y-6387449D02*
X6464951Y-6463649D01*
X6426851Y-6425549D02*
X6503051Y-6425549D01*
X6464951Y-6641449D02*
X6464951Y-6717649D01*
X6426851Y-6679549D02*
X6503051Y-6679549D01*
X6464951Y-6895449D02*
X6464951Y-6971649D01*
X6426851Y-6933549D02*
X6503051Y-6933549D01*
X6464951Y-7149449D02*
X6464951Y-7225649D01*
X6426851Y-7187549D02*
X6503051Y-7187549D01*
X6464951Y-7403449D02*
X6464951Y-7479649D01*
X6426851Y-7441549D02*
X6503051Y-7441549D01*
X6464951Y-7657449D02*
X6464951Y-7733649D01*
X6426851Y-7695549D02*
X6503051Y-7695549D01*
X6464951Y-7911449D02*
X6464951Y-7987649D01*
X6426851Y-7949549D02*
X6503051Y-7949549D01*
X6464951Y-8165449D02*
X6464951Y-8241649D01*
X6426851Y-8203549D02*
X6503051Y-8203549D01*
X6464951Y-8419449D02*
X6464951Y-8495649D01*
X6426851Y-8457549D02*
X6503051Y-8457549D01*
X6464951Y-8673449D02*
X6464951Y-8749649D01*
X6426851Y-8711549D02*
X6503051Y-8711549D01*
X6464951Y-8927449D02*
X6464951Y-9003649D01*
X6426851Y-8965549D02*
X6503051Y-8965549D01*
X6464951Y-9181449D02*
X6464951Y-9257649D01*
X6426851Y-9219549D02*
X6503051Y-9219549D01*
X6464951Y-9435449D02*
X6464951Y-9511649D01*
X6426851Y-9473549D02*
X6503051Y-9473549D01*
X6464951Y-9689449D02*
X6464951Y-9765649D01*
X6426851Y-9727549D02*
X6503051Y-9727549D01*
X6464951Y-9943449D02*
X6464951Y-10019649D01*
X6426851Y-9981549D02*
X6503051Y-9981549D01*
X6464951Y-10197449D02*
X6464951Y-10273649D01*
X6426851Y-10235549D02*
X6503051Y-10235549D01*
X6718951Y-9943449D02*
X6718951Y-10019649D01*
X6680851Y-9981549D02*
X6757051Y-9981549D01*
X6718951Y-10197449D02*
X6718951Y-10273649D01*
X6680851Y-10235549D02*
X6757051Y-10235549D01*
X6972951Y-9943449D02*
X6972951Y-10019649D01*
X6934851Y-9981549D02*
X7011051Y-9981549D01*
X6972951Y-10197449D02*
X6972951Y-10273649D01*
X6934851Y-10235549D02*
X7011051Y-10235549D01*
X7226951Y-9943449D02*
X7226951Y-10019649D01*
X7188851Y-9981549D02*
X7265051Y-9981549D01*
X7226951Y-10197449D02*
X7226951Y-10273649D01*
X7188851Y-10235549D02*
X7265051Y-10235549D01*
X9512951Y-5117449D02*
X9512951Y-5193649D01*
X9474851Y-5155549D02*
X9551051Y-5155549D01*
X9512951Y-5371449D02*
X9512951Y-5447649D01*
X9474851Y-5409549D02*
X9551051Y-5409549D01*
X9512951Y-5625449D02*
X9512951Y-5701649D01*
X9474851Y-5663549D02*
X9551051Y-5663549D01*
X9512951Y-5879449D02*
X9512951Y-5955649D01*
X9474851Y-5917549D02*
X9551051Y-5917549D01*
X9512951Y-6133449D02*
X9512951Y-6209649D01*
X9474851Y-6171549D02*
X9551051Y-6171549D01*
X9512951Y-6387449D02*
X9512951Y-6463649D01*
X9474851Y-6425549D02*
X9551051Y-6425549D01*
X9512951Y-6641449D02*
X9512951Y-6717649D01*
X9474851Y-6679549D02*
X9551051Y-6679549D01*
X9512951Y-6895449D02*
X9512951Y-6971649D01*
X9474851Y-6933549D02*
X9551051Y-6933549D01*
X9512951Y-7149449D02*
X9512951Y-7225649D01*
X9474851Y-7187549D02*
X9551051Y-7187549D01*
X9512951Y-7403449D02*
X9512951Y-7479649D01*
X9474851Y-7441549D02*
X9551051Y-7441549D01*
X9512951Y-7657449D02*
X9512951Y-7733649D01*
X9474851Y-7695549D02*
X9551051Y-7695549D01*
X9512951Y-7911449D02*
X9512951Y-7987649D01*
X9474851Y-7949549D02*
X9551051Y-7949549D01*
X9512951Y-8165449D02*
X9512951Y-8241649D01*
X9474851Y-8203549D02*
X9551051Y-8203549D01*
X9512951Y-8419449D02*
X9512951Y-8495649D01*
X9474851Y-8457549D02*
X9551051Y-8457549D01*
X9512951Y-8673449D02*
X9512951Y-8749649D01*
X9474851Y-8711549D02*
X9551051Y-8711549D01*
X9512951Y-8927449D02*
X9512951Y-9003649D01*
X9474851Y-8965549D02*
X9551051Y-8965549D01*
X9512951Y-9181449D02*
X9512951Y-9257649D01*
X9474851Y-9219549D02*
X9551051Y-9219549D01*
X9512951Y-9435449D02*
X9512951Y-9511649D01*
X9474851Y-9473549D02*
X9551051Y-9473549D01*
X9512951Y-9689449D02*
X9512951Y-9765649D01*
X9474851Y-9727549D02*
X9551051Y-9727549D01*
X9512951Y-9943449D02*
X9512951Y-10019649D01*
X9474851Y-9981549D02*
X9551051Y-9981549D01*
X9512951Y-10197449D02*
X9512951Y-10273649D01*
X9474851Y-10235549D02*
X9551051Y-10235549D01*
X9766951Y-5117449D02*
X9766951Y-5193649D01*
X9728851Y-5155549D02*
X9805051Y-5155549D01*
X9766951Y-5371449D02*
X9766951Y-5447649D01*
X9728851Y-5409549D02*
X9805051Y-5409549D01*
X9766951Y-5625449D02*
X9766951Y-5701649D01*
X9728851Y-5663549D02*
X9805051Y-5663549D01*
X9766951Y-5879449D02*
X9766951Y-5955649D01*
X9728851Y-5917549D02*
X9805051Y-5917549D01*
X9766951Y-6133449D02*
X9766951Y-6209649D01*
X9728851Y-6171549D02*
X9805051Y-6171549D01*
X9766951Y-6387449D02*
X9766951Y-6463649D01*
X9728851Y-6425549D02*
X9805051Y-6425549D01*
X9766951Y-6641449D02*
X9766951Y-6717649D01*
X9728851Y-6679549D02*
X9805051Y-6679549D01*
X9766951Y-6895449D02*
X9766951Y-6971649D01*
X9728851Y-6933549D02*
X9805051Y-6933549D01*
X9766951Y-7149449D02*
X9766951Y-7225649D01*
X9728851Y-7187549D02*
X9805051Y-7187549D01*
X9766951Y-7403449D02*
X9766951Y-7479649D01*
X9728851Y-7441549D02*
X9805051Y-7441549D01*
X9766951Y-7657449D02*
X9766951Y-7733649D01*
X9728851Y-7695549D02*
X9805051Y-7695549D01*
X9766951Y-7911449D02*
X9766951Y-7987649D01*
X9728851Y-7949549D02*
X9805051Y-7949549D01*
X9766951Y-8165449D02*
X9766951Y-8241649D01*
X9728851Y-8203549D02*
X9805051Y-8203549D01*
X9766951Y-8419449D02*
X9766951Y-8495649D01*
X9728851Y-8457549D02*
X9805051Y-8457549D01*
X9766951Y-8673449D02*
X9766951Y-8749649D01*
X9728851Y-8711549D02*
X9805051Y-8711549D01*
X9766951Y-8927449D02*
X9766951Y-9003649D01*
X9728851Y-8965549D02*
X9805051Y-8965549D01*
X9766951Y-9181449D02*
X9766951Y-9257649D01*
X9728851Y-9219549D02*
X9805051Y-9219549D01*
X9766951Y-9435449D02*
X9766951Y-9511649D01*
X9728851Y-9473549D02*
X9805051Y-9473549D01*
X9766951Y-9689449D02*
X9766951Y-9765649D01*
X9728851Y-9727549D02*
X9805051Y-9727549D01*
X9766951Y-9943449D02*
X9766951Y-10019649D01*
X9728851Y-9981549D02*
X9805051Y-9981549D01*
X9766951Y-10197449D02*
X9766951Y-10273649D01*
X9728851Y-10235549D02*
X9805051Y-10235549D01*
D15*
X4131687Y-5552785D02*
X4131687Y-5496216D01*
X4075118Y-5496216D01*
X4075118Y-5552785D01*
X4131687Y-5552785D01*
X4131687Y-6822784D02*
X4131687Y-6766215D01*
X4075118Y-6766215D01*
X4075118Y-6822784D01*
X4131687Y-6822784D01*
X4162273Y-5044785D02*
X4162273Y-4988216D01*
X4105704Y-4988216D01*
X4105704Y-5044785D01*
X4162273Y-5044785D01*
X4385687Y-5552785D02*
X4385687Y-5496216D01*
X4329118Y-5496216D01*
X4329118Y-5552785D01*
X4385687Y-5552785D01*
X4385687Y-6822784D02*
X4385687Y-6766215D01*
X4329118Y-6766215D01*
X4329118Y-6822784D01*
X4385687Y-6822784D01*
X4412273Y-5044785D02*
X4412273Y-4988216D01*
X4355704Y-4988216D01*
X4355704Y-5044785D01*
X4412273Y-5044785D01*
X4415785Y-4373285D02*
X4415785Y-4316716D01*
X4359216Y-4316716D01*
X4359216Y-4373285D01*
X4415785Y-4373285D01*
X4639687Y-5552785D02*
X4639687Y-5496216D01*
X4583118Y-5496216D01*
X4583118Y-5552785D01*
X4639687Y-5552785D01*
X4639687Y-6822784D02*
X4639687Y-6766215D01*
X4583118Y-6766215D01*
X4583118Y-6822784D01*
X4639687Y-6822784D01*
X4893687Y-5552785D02*
X4893687Y-5496216D01*
X4837118Y-5496216D01*
X4837118Y-5552785D01*
X4893687Y-5552785D01*
X4893687Y-6822784D02*
X4893687Y-6766215D01*
X4837118Y-6766215D01*
X4837118Y-6822784D01*
X4893687Y-6822784D01*
X5147687Y-5552785D02*
X5147687Y-5496216D01*
X5091118Y-5496216D01*
X5091118Y-5552785D01*
X5147687Y-5552785D01*
X5147687Y-6822784D02*
X5147687Y-6766215D01*
X5091118Y-6766215D01*
X5091118Y-6822784D01*
X5147687Y-6822784D01*
X5165785Y-4573285D02*
X5165785Y-4516716D01*
X5109216Y-4516716D01*
X5109216Y-4573285D01*
X5165785Y-4573285D01*
X5401687Y-5552785D02*
X5401687Y-5496216D01*
X5345118Y-5496216D01*
X5345118Y-5552785D01*
X5401687Y-5552785D01*
X5401687Y-6822784D02*
X5401687Y-6766215D01*
X5345118Y-6766215D01*
X5345118Y-6822784D01*
X5401687Y-6822784D01*
X5655687Y-5552785D02*
X5655687Y-5496216D01*
X5599118Y-5496216D01*
X5599118Y-5552785D01*
X5655687Y-5552785D01*
X5655687Y-6822784D02*
X5655687Y-6766215D01*
X5599118Y-6766215D01*
X5599118Y-6822784D01*
X5655687Y-6822784D01*
X5909687Y-5552785D02*
X5909687Y-5496216D01*
X5853118Y-5496216D01*
X5853118Y-5552785D01*
X5909687Y-5552785D01*
X5909687Y-6822784D02*
X5909687Y-6766215D01*
X5853118Y-6766215D01*
X5853118Y-6822784D01*
X5909687Y-6822784D01*
X7224236Y-8154333D02*
X7224236Y-8097764D01*
X7167667Y-8097764D01*
X7167667Y-8154333D01*
X7224236Y-8154333D01*
X7224236Y-8916333D02*
X7224236Y-8859764D01*
X7167667Y-8859764D01*
X7167667Y-8916333D01*
X7224236Y-8916333D01*
X7478236Y-8154333D02*
X7478236Y-8097764D01*
X7421667Y-8097764D01*
X7421667Y-8154333D01*
X7478236Y-8154333D01*
X7478236Y-8916333D02*
X7478236Y-8859764D01*
X7421667Y-8859764D01*
X7421667Y-8916333D01*
X7478236Y-8916333D01*
X7732236Y-8154333D02*
X7732236Y-8097764D01*
X7675667Y-8097764D01*
X7675667Y-8154333D01*
X7732236Y-8154333D01*
X7732236Y-8916333D02*
X7732236Y-8859764D01*
X7675667Y-8859764D01*
X7675667Y-8916333D01*
X7732236Y-8916333D01*
X7986236Y-8154333D02*
X7986236Y-8097764D01*
X7929667Y-8097764D01*
X7929667Y-8154333D01*
X7986236Y-8154333D01*
X7986236Y-8916333D02*
X7986236Y-8859764D01*
X7929667Y-8859764D01*
X7929667Y-8916333D01*
X7986236Y-8916333D01*
X8030284Y-10588535D02*
X8030284Y-10531966D01*
X7973715Y-10531966D01*
X7973715Y-10588535D01*
X8030284Y-10588535D01*
X8030284Y-11350534D02*
X8030284Y-11293965D01*
X7973715Y-11293965D01*
X7973715Y-11350534D01*
X8030284Y-11350534D01*
X8284284Y-10588535D02*
X8284284Y-10531966D01*
X8227715Y-10531966D01*
X8227715Y-10588535D01*
X8284284Y-10588535D01*
X8284284Y-11350534D02*
X8284284Y-11293965D01*
X8227715Y-11293965D01*
X8227715Y-11350534D01*
X8284284Y-11350534D01*
X8347784Y-5361285D02*
X8347784Y-5304716D01*
X8291215Y-5304716D01*
X8291215Y-5361285D01*
X8347784Y-5361285D01*
X8347784Y-6123284D02*
X8347784Y-6066715D01*
X8291215Y-6066715D01*
X8291215Y-6123284D01*
X8347784Y-6123284D01*
X8347784Y-6474034D02*
X8347784Y-6417465D01*
X8291215Y-6417465D01*
X8291215Y-6474034D01*
X8347784Y-6474034D01*
X8347784Y-7236034D02*
X8347784Y-7179465D01*
X8291215Y-7179465D01*
X8291215Y-7236034D01*
X8347784Y-7236034D01*
X8538285Y-10588535D02*
X8538285Y-10531966D01*
X8481716Y-10531966D01*
X8481716Y-10588535D01*
X8538285Y-10588535D01*
X8538285Y-11350534D02*
X8538285Y-11293965D01*
X8481716Y-11293965D01*
X8481716Y-11350534D01*
X8538285Y-11350534D01*
X8601785Y-5361285D02*
X8601785Y-5304716D01*
X8545216Y-5304716D01*
X8545216Y-5361285D01*
X8601785Y-5361285D01*
X8601785Y-6123284D02*
X8601785Y-6066715D01*
X8545216Y-6066715D01*
X8545216Y-6123284D01*
X8601785Y-6123284D01*
X8601785Y-6474034D02*
X8601785Y-6417465D01*
X8545216Y-6417465D01*
X8545216Y-6474034D01*
X8601785Y-6474034D01*
X8601785Y-7236034D02*
X8601785Y-7179465D01*
X8545216Y-7179465D01*
X8545216Y-7236034D01*
X8601785Y-7236034D01*
X8792285Y-10588535D02*
X8792285Y-10531966D01*
X8735716Y-10531966D01*
X8735716Y-10588535D01*
X8792285Y-10588535D01*
X8792285Y-11350534D02*
X8792285Y-11293965D01*
X8735716Y-11293965D01*
X8735716Y-11350534D01*
X8792285Y-11350534D01*
X8855785Y-5361285D02*
X8855785Y-5304716D01*
X8799216Y-5304716D01*
X8799216Y-5361285D01*
X8855785Y-5361285D01*
X8855785Y-6123284D02*
X8855785Y-6066715D01*
X8799216Y-6066715D01*
X8799216Y-6123284D01*
X8855785Y-6123284D01*
X8855785Y-6474034D02*
X8855785Y-6417465D01*
X8799216Y-6417465D01*
X8799216Y-6474034D01*
X8855785Y-6474034D01*
X8855785Y-7236034D02*
X8855785Y-7179465D01*
X8799216Y-7179465D01*
X8799216Y-7236034D01*
X8855785Y-7236034D01*
X9109785Y-5361285D02*
X9109785Y-5304716D01*
X9053216Y-5304716D01*
X9053216Y-5361285D01*
X9109785Y-5361285D01*
X9109785Y-6123284D02*
X9109785Y-6066715D01*
X9053216Y-6066715D01*
X9053216Y-6123284D01*
X9109785Y-6123284D01*
X9109785Y-6474034D02*
X9109785Y-6417465D01*
X9053216Y-6417465D01*
X9053216Y-6474034D01*
X9109785Y-6474034D01*
X9109785Y-7236034D02*
X9109785Y-7179465D01*
X9053216Y-7179465D01*
X9053216Y-7236034D01*
X9109785Y-7236034D01*
D16*
X3937000Y-8305000D02*
X3987000Y-8255000D01*
X3937000Y-8205000D01*
X3887000Y-8255000D01*
X3937000Y-8305000D01*
X3937000Y-11099000D02*
X3987000Y-11049000D01*
X3937000Y-10999000D01*
X3887000Y-11049000D01*
X3937000Y-11099000D01*
X4826000Y-7543000D02*
X4876000Y-7493000D01*
X4826000Y-7443000D01*
X4776000Y-7493000D01*
X4826000Y-7543000D01*
X4826000Y-7797000D02*
X4876000Y-7747000D01*
X4826000Y-7697000D01*
X4776000Y-7747000D01*
X4826000Y-7797000D01*
X5078500Y-5231600D02*
X5128500Y-5181600D01*
X5078500Y-5131600D01*
X5028500Y-5181600D01*
X5078500Y-5231600D01*
X5332500Y-5231600D02*
X5382500Y-5181600D01*
X5332500Y-5131600D01*
X5282500Y-5181600D01*
X5332500Y-5231600D01*
X5586500Y-5231600D02*
X5636500Y-5181600D01*
X5586500Y-5131600D01*
X5536500Y-5181600D01*
X5586500Y-5231600D01*
X7493000Y-10654500D02*
X7543000Y-10604500D01*
X7493000Y-10554500D01*
X7443000Y-10604500D01*
X7493000Y-10654500D01*
X7493000Y-11353000D02*
X7543000Y-11303000D01*
X7493000Y-11253000D01*
X7443000Y-11303000D01*
X7493000Y-11353000D01*
X8814451Y-9065500D02*
X8864451Y-9015500D01*
X8814451Y-8965500D01*
X8764451Y-9015500D01*
X8814451Y-9065500D01*
X8814451Y-9319500D02*
X8864451Y-9269500D01*
X8814451Y-9219500D01*
X8764451Y-9269500D01*
X8814451Y-9319500D01*
X8814451Y-9573500D02*
X8864451Y-9523500D01*
X8814451Y-9473500D01*
X8764451Y-9523500D01*
X8814451Y-9573500D01*
X9068451Y-9065500D02*
X9118451Y-9015500D01*
X9068451Y-8965500D01*
X9018451Y-9015500D01*
X9068451Y-9065500D01*
X9068451Y-9319500D02*
X9118451Y-9269500D01*
X9068451Y-9219500D01*
X9018451Y-9269500D01*
X9068451Y-9319500D01*
X9068451Y-9573500D02*
X9118451Y-9523500D01*
X9068451Y-9473500D01*
X9018451Y-9523500D01*
X9068451Y-9573500D01*
X9461000Y-10611250D02*
X9511000Y-10561250D01*
X9461000Y-10511250D01*
X9411000Y-10561250D01*
X9461000Y-10611250D01*
X9461000Y-10992250D02*
X9511000Y-10942250D01*
X9461000Y-10892250D01*
X9411000Y-10942250D01*
X9461000Y-10992250D01*
X9461000Y-11373250D02*
X9511000Y-11323250D01*
X9461000Y-11273250D01*
X9411000Y-11323250D01*
X9461000Y-11373250D01*
X9715000Y-10611250D02*
X9765000Y-10561250D01*
X9715000Y-10511250D01*
X9665000Y-10561250D01*
X9715000Y-10611250D01*
X9715000Y-10992250D02*
X9765000Y-10942250D01*
X9715000Y-10892250D01*
X9665000Y-10942250D01*
X9715000Y-10992250D01*
X9715000Y-11373250D02*
X9765000Y-11323250D01*
X9715000Y-11273250D01*
X9665000Y-11323250D01*
X9715000Y-11373250D01*
X10084451Y-5205549D02*
X10134451Y-5155549D01*
X10084451Y-5105549D01*
X10034451Y-5155549D01*
X10084451Y-5205549D01*
X10084451Y-5459549D02*
X10134451Y-5409549D01*
X10084451Y-5359549D01*
X10034451Y-5409549D01*
X10084451Y-5459549D01*
X10084451Y-5713549D02*
X10134451Y-5663549D01*
X10084451Y-5613549D01*
X10034451Y-5663549D01*
X10084451Y-5713549D01*
X10084451Y-5967549D02*
X10134451Y-5917549D01*
X10084451Y-5867549D01*
X10034451Y-5917549D01*
X10084451Y-5967549D01*
X10084451Y-6221549D02*
X10134451Y-6171549D01*
X10084451Y-6121549D01*
X10034451Y-6171549D01*
X10084451Y-6221549D01*
X10084451Y-6475549D02*
X10134451Y-6425549D01*
X10084451Y-6375549D01*
X10034451Y-6425549D01*
X10084451Y-6475549D01*
D17*
X3784500Y-9025500D02*
X3894500Y-9135500D01*
X3894500Y-9025500D02*
X3784500Y-9135500D01*
X3894500Y-9080500D02*
G75*
G03*
X3894500Y-9080500I-55000J0D01*
G01*
X3784500Y-9279500D02*
X3894500Y-9389500D01*
X3894500Y-9279500D02*
X3784500Y-9389500D01*
X3894500Y-9334500D02*
G75*
G03*
X3894500Y-9334500I-55000J0D01*
G01*
X3784500Y-9533500D02*
X3894500Y-9643500D01*
X3894500Y-9533500D02*
X3784500Y-9643500D01*
X3894500Y-9588500D02*
G75*
G03*
X3894500Y-9588500I-55000J0D01*
G01*
X7032902Y-9597000D02*
X7142902Y-9707000D01*
X7142902Y-9597000D02*
X7032902Y-9707000D01*
X7142902Y-9652000D02*
G75*
G03*
X7142902Y-9652000I-55000J0D01*
G01*
X7477402Y-10041500D02*
X7587402Y-10151500D01*
X7587402Y-10041500D02*
X7477402Y-10151500D01*
X7587402Y-10096500D02*
G75*
G03*
X7587402Y-10096500I-55000J0D01*
G01*
X7794902Y-9597000D02*
X7904902Y-9707000D01*
X7904902Y-9597000D02*
X7794902Y-9707000D01*
X7904902Y-9652000D02*
G75*
G03*
X7904902Y-9652000I-55000J0D01*
G01*
X8239402Y-10041500D02*
X8349402Y-10151500D01*
X8349402Y-10041500D02*
X8239402Y-10151500D01*
X8349402Y-10096500D02*
G75*
G03*
X8349402Y-10096500I-55000J0D01*
G01*
D18*
X2942000Y-5900000D02*
X3062000Y-6020000D01*
X3062000Y-5900000D02*
X2942000Y-6020000D01*
X3002000Y-5900000D02*
X3002000Y-6020000D01*
X2942000Y-5960000D02*
X3062000Y-5960000D01*
X2942000Y-6120000D02*
X3062000Y-6240000D01*
X3062000Y-6120000D02*
X2942000Y-6240000D01*
X3002000Y-6120000D02*
X3002000Y-6240000D01*
X2942000Y-6180000D02*
X3062000Y-6180000D01*
X2942000Y-6340000D02*
X3062000Y-6460000D01*
X3062000Y-6340000D02*
X2942000Y-6460000D01*
X3002000Y-6340000D02*
X3002000Y-6460000D01*
X2942000Y-6400000D02*
X3062000Y-6400000D01*
X2942000Y-6560000D02*
X3062000Y-6680000D01*
X3062000Y-6560000D02*
X2942000Y-6680000D01*
X3002000Y-6560000D02*
X3002000Y-6680000D01*
X2942000Y-6620000D02*
X3062000Y-6620000D01*
X2942000Y-6780000D02*
X3062000Y-6900000D01*
X3062000Y-6780000D02*
X2942000Y-6900000D01*
X3002000Y-6780000D02*
X3002000Y-6900000D01*
X2942000Y-6840000D02*
X3062000Y-6840000D01*
X2942000Y-7000000D02*
X3062000Y-7120000D01*
X3062000Y-7000000D02*
X2942000Y-7120000D01*
X3002000Y-7000000D02*
X3002000Y-7120000D01*
X2942000Y-7060000D02*
X3062000Y-7060000D01*
X2942000Y-7220000D02*
X3062000Y-7340000D01*
X3062000Y-7220000D02*
X2942000Y-7340000D01*
X3002000Y-7220000D02*
X3002000Y-7340000D01*
X2942000Y-7280000D02*
X3062000Y-7280000D01*
X2942000Y-7440000D02*
X3062000Y-7560000D01*
X3062000Y-7440000D02*
X2942000Y-7560000D01*
X3002000Y-7440000D02*
X3002000Y-7560000D01*
X2942000Y-7500000D02*
X3062000Y-7500000D01*
X2942000Y-7660000D02*
X3062000Y-7780000D01*
X3062000Y-7660000D02*
X2942000Y-7780000D01*
X3002000Y-7660000D02*
X3002000Y-7780000D01*
X2942000Y-7720000D02*
X3062000Y-7720000D01*
X2942000Y-7880000D02*
X3062000Y-8000000D01*
X3062000Y-7880000D02*
X2942000Y-8000000D01*
X3002000Y-7880000D02*
X3002000Y-8000000D01*
X2942000Y-7940000D02*
X3062000Y-7940000D01*
X2942000Y-8100000D02*
X3062000Y-8220000D01*
X3062000Y-8100000D02*
X2942000Y-8220000D01*
X3002000Y-8100000D02*
X3002000Y-8220000D01*
X2942000Y-8160000D02*
X3062000Y-8160000D01*
X2942000Y-8320000D02*
X3062000Y-8440000D01*
X3062000Y-8320000D02*
X2942000Y-8440000D01*
X3002000Y-8320000D02*
X3002000Y-8440000D01*
X2942000Y-8380000D02*
X3062000Y-8380000D01*
X2942000Y-8540000D02*
X3062000Y-8660000D01*
X3062000Y-8540000D02*
X2942000Y-8660000D01*
X3002000Y-8540000D02*
X3002000Y-8660000D01*
X2942000Y-8600000D02*
X3062000Y-8600000D01*
X2942000Y-8760000D02*
X3062000Y-8880000D01*
X3062000Y-8760000D02*
X2942000Y-8880000D01*
X3002000Y-8760000D02*
X3002000Y-8880000D01*
X2942000Y-8820000D02*
X3062000Y-8820000D01*
X2942000Y-8980000D02*
X3062000Y-9100000D01*
X3062000Y-8980000D02*
X2942000Y-9100000D01*
X3002000Y-8980000D02*
X3002000Y-9100000D01*
X2942000Y-9040000D02*
X3062000Y-9040000D01*
X2942000Y-9200000D02*
X3062000Y-9320000D01*
X3062000Y-9200000D02*
X2942000Y-9320000D01*
X3002000Y-9200000D02*
X3002000Y-9320000D01*
X2942000Y-9260000D02*
X3062000Y-9260000D01*
X2942000Y-9480000D02*
X3062000Y-9600000D01*
X3062000Y-9480000D02*
X2942000Y-9600000D01*
X3002000Y-9480000D02*
X3002000Y-9600000D01*
X2942000Y-9540000D02*
X3062000Y-9540000D01*
X2942000Y-9760000D02*
X3062000Y-9880000D01*
X3062000Y-9760000D02*
X2942000Y-9880000D01*
X3002000Y-9760000D02*
X3002000Y-9880000D01*
X2942000Y-9820000D02*
X3062000Y-9820000D01*
X3242000Y-5900000D02*
X3362000Y-6020000D01*
X3362000Y-5900000D02*
X3242000Y-6020000D01*
X3302000Y-5900000D02*
X3302000Y-6020000D01*
X3242000Y-5960000D02*
X3362000Y-5960000D01*
X3242000Y-6120000D02*
X3362000Y-6240000D01*
X3362000Y-6120000D02*
X3242000Y-6240000D01*
X3302000Y-6120000D02*
X3302000Y-6240000D01*
X3242000Y-6180000D02*
X3362000Y-6180000D01*
X3242000Y-6340000D02*
X3362000Y-6460000D01*
X3362000Y-6340000D02*
X3242000Y-6460000D01*
X3302000Y-6340000D02*
X3302000Y-6460000D01*
X3242000Y-6400000D02*
X3362000Y-6400000D01*
X3242000Y-6560000D02*
X3362000Y-6680000D01*
X3362000Y-6560000D02*
X3242000Y-6680000D01*
X3302000Y-6560000D02*
X3302000Y-6680000D01*
X3242000Y-6620000D02*
X3362000Y-6620000D01*
X3242000Y-6780000D02*
X3362000Y-6900000D01*
X3362000Y-6780000D02*
X3242000Y-6900000D01*
X3302000Y-6780000D02*
X3302000Y-6900000D01*
X3242000Y-6840000D02*
X3362000Y-6840000D01*
X3242000Y-7000000D02*
X3362000Y-7120000D01*
X3362000Y-7000000D02*
X3242000Y-7120000D01*
X3302000Y-7000000D02*
X3302000Y-7120000D01*
X3242000Y-7060000D02*
X3362000Y-7060000D01*
X3242000Y-7220000D02*
X3362000Y-7340000D01*
X3362000Y-7220000D02*
X3242000Y-7340000D01*
X3302000Y-7220000D02*
X3302000Y-7340000D01*
X3242000Y-7280000D02*
X3362000Y-7280000D01*
X3242000Y-7440000D02*
X3362000Y-7560000D01*
X3362000Y-7440000D02*
X3242000Y-7560000D01*
X3302000Y-7440000D02*
X3302000Y-7560000D01*
X3242000Y-7500000D02*
X3362000Y-7500000D01*
X3242000Y-7660000D02*
X3362000Y-7780000D01*
X3362000Y-7660000D02*
X3242000Y-7780000D01*
X3302000Y-7660000D02*
X3302000Y-7780000D01*
X3242000Y-7720000D02*
X3362000Y-7720000D01*
X3242000Y-7880000D02*
X3362000Y-8000000D01*
X3362000Y-7880000D02*
X3242000Y-8000000D01*
X3302000Y-7880000D02*
X3302000Y-8000000D01*
X3242000Y-7940000D02*
X3362000Y-7940000D01*
X3242000Y-8100000D02*
X3362000Y-8220000D01*
X3362000Y-8100000D02*
X3242000Y-8220000D01*
X3302000Y-8100000D02*
X3302000Y-8220000D01*
X3242000Y-8160000D02*
X3362000Y-8160000D01*
X3242000Y-8320000D02*
X3362000Y-8440000D01*
X3362000Y-8320000D02*
X3242000Y-8440000D01*
X3302000Y-8320000D02*
X3302000Y-8440000D01*
X3242000Y-8380000D02*
X3362000Y-8380000D01*
X3242000Y-8540000D02*
X3362000Y-8660000D01*
X3362000Y-8540000D02*
X3242000Y-8660000D01*
X3302000Y-8540000D02*
X3302000Y-8660000D01*
X3242000Y-8600000D02*
X3362000Y-8600000D01*
X3242000Y-8760000D02*
X3362000Y-8880000D01*
X3362000Y-8760000D02*
X3242000Y-8880000D01*
X3302000Y-8760000D02*
X3302000Y-8880000D01*
X3242000Y-8820000D02*
X3362000Y-8820000D01*
X3242000Y-8980000D02*
X3362000Y-9100000D01*
X3362000Y-8980000D02*
X3242000Y-9100000D01*
X3302000Y-8980000D02*
X3302000Y-9100000D01*
X3242000Y-9040000D02*
X3362000Y-9040000D01*
X3242000Y-9200000D02*
X3362000Y-9320000D01*
X3362000Y-9200000D02*
X3242000Y-9320000D01*
X3302000Y-9200000D02*
X3302000Y-9320000D01*
X3242000Y-9260000D02*
X3362000Y-9260000D01*
X3242000Y-9480000D02*
X3362000Y-9600000D01*
X3362000Y-9480000D02*
X3242000Y-9600000D01*
X3302000Y-9480000D02*
X3302000Y-9600000D01*
X3242000Y-9540000D02*
X3362000Y-9540000D01*
X3242000Y-9760000D02*
X3362000Y-9880000D01*
X3362000Y-9760000D02*
X3242000Y-9880000D01*
X3302000Y-9760000D02*
X3302000Y-9880000D01*
X3242000Y-9820000D02*
X3362000Y-9820000D01*
D19*
X2874500Y-4271500D02*
X3094500Y-4491500D01*
X3094500Y-4271500D02*
X2874500Y-4491500D01*
X3062282Y-4459283D02*
X3062282Y-4303718D01*
X2906717Y-4303718D01*
X2906717Y-4459283D01*
X3062282Y-4459283D01*
X2874500Y-11370800D02*
X3094500Y-11590800D01*
X3094500Y-11370800D02*
X2874500Y-11590800D01*
X3062282Y-11558582D02*
X3062282Y-11403017D01*
X2906717Y-11403017D01*
X2906717Y-11558582D01*
X3062282Y-11558582D01*
X10050000Y-3547600D02*
X10270000Y-3767600D01*
X10270000Y-3547600D02*
X10050000Y-3767600D01*
X10237783Y-3735382D02*
X10237783Y-3579817D01*
X10082218Y-3579817D01*
X10082218Y-3735382D01*
X10237783Y-3735382D01*
X10100800Y-11523200D02*
X10320800Y-11743200D01*
X10320800Y-11523200D02*
X10100800Y-11743200D01*
X10288583Y-11710982D02*
X10288583Y-11555417D01*
X10133018Y-11555417D01*
X10133018Y-11710982D01*
X10288583Y-11710982D01*
D11*
X2792619Y-12253476D02*
X2792619Y-12053476D01*
X2840238Y-12053476D01*
X2868809Y-12063000D01*
X2887857Y-12082048D01*
X2897381Y-12101095D01*
X2906905Y-12139190D01*
X2906905Y-12167762D01*
X2897381Y-12205857D01*
X2887857Y-12224905D01*
X2868809Y-12243952D01*
X2840238Y-12253476D01*
X2792619Y-12253476D01*
X2992619Y-12253476D02*
X2992619Y-12120143D01*
X2992619Y-12158238D02*
X3002143Y-12139190D01*
X3011667Y-12129667D01*
X3030714Y-12120143D01*
X3049762Y-12120143D01*
X3116428Y-12253476D02*
X3116428Y-12120143D01*
X3116428Y-12053476D02*
X3106905Y-12063000D01*
X3116428Y-12072524D01*
X3125952Y-12063000D01*
X3116428Y-12053476D01*
X3116428Y-12072524D01*
X3240238Y-12253476D02*
X3221190Y-12243952D01*
X3211667Y-12224905D01*
X3211667Y-12053476D01*
X3345000Y-12253476D02*
X3325952Y-12243952D01*
X3316428Y-12224905D01*
X3316428Y-12053476D01*
X3573571Y-12253476D02*
X3573571Y-12053476D01*
X3640238Y-12196333D01*
X3706905Y-12053476D01*
X3706905Y-12253476D01*
X3887857Y-12253476D02*
X3887857Y-12148714D01*
X3878333Y-12129667D01*
X3859286Y-12120143D01*
X3821190Y-12120143D01*
X3802143Y-12129667D01*
X3887857Y-12243952D02*
X3868809Y-12253476D01*
X3821190Y-12253476D01*
X3802143Y-12243952D01*
X3792619Y-12224905D01*
X3792619Y-12205857D01*
X3802143Y-12186809D01*
X3821190Y-12177286D01*
X3868809Y-12177286D01*
X3887857Y-12167762D01*
X3983095Y-12120143D02*
X3983095Y-12320143D01*
X3983095Y-12129667D02*
X4002143Y-12120143D01*
X4040238Y-12120143D01*
X4059286Y-12129667D01*
X4068809Y-12139190D01*
X4078333Y-12158238D01*
X4078333Y-12215381D01*
X4068809Y-12234428D01*
X4059286Y-12243952D01*
X4040238Y-12253476D01*
X4002143Y-12253476D01*
X3983095Y-12243952D01*
X4164048Y-12234428D02*
X4173571Y-12243952D01*
X4164048Y-12253476D01*
X4154524Y-12243952D01*
X4164048Y-12234428D01*
X4164048Y-12253476D01*
X4164048Y-12129667D02*
X4173571Y-12139190D01*
X4164048Y-12148714D01*
X4154524Y-12139190D01*
X4164048Y-12129667D01*
X4164048Y-12148714D01*
D12*
X2495000Y-12563000D02*
X2535000Y-12603000D01*
X2535000Y-12563000D02*
X2495000Y-12603000D01*
D11*
X2830714Y-12473476D02*
X2849762Y-12473476D01*
X2868809Y-12483000D01*
X2878333Y-12492524D01*
X2887857Y-12511571D01*
X2897381Y-12549667D01*
X2897381Y-12597286D01*
X2887857Y-12635381D01*
X2878333Y-12654428D01*
X2868809Y-12663952D01*
X2849762Y-12673476D01*
X2830714Y-12673476D01*
X2811667Y-12663952D01*
X2802143Y-12654428D01*
X2792619Y-12635381D01*
X2783095Y-12597286D01*
X2783095Y-12549667D01*
X2792619Y-12511571D01*
X2802143Y-12492524D01*
X2811667Y-12483000D01*
X2830714Y-12473476D01*
X2983095Y-12654428D02*
X2992619Y-12663952D01*
X2983095Y-12673476D01*
X2973571Y-12663952D01*
X2983095Y-12654428D01*
X2983095Y-12673476D01*
X3164048Y-12540143D02*
X3164048Y-12673476D01*
X3116428Y-12463952D02*
X3068809Y-12606809D01*
X3192619Y-12606809D01*
X3306905Y-12473476D02*
X3325952Y-12473476D01*
X3345000Y-12483000D01*
X3354524Y-12492524D01*
X3364048Y-12511571D01*
X3373571Y-12549667D01*
X3373571Y-12597286D01*
X3364048Y-12635381D01*
X3354524Y-12654428D01*
X3345000Y-12663952D01*
X3325952Y-12673476D01*
X3306905Y-12673476D01*
X3287857Y-12663952D01*
X3278333Y-12654428D01*
X3268809Y-12635381D01*
X3259286Y-12597286D01*
X3259286Y-12549667D01*
X3268809Y-12511571D01*
X3278333Y-12492524D01*
X3287857Y-12483000D01*
X3306905Y-12473476D01*
X3497381Y-12473476D02*
X3516428Y-12473476D01*
X3535476Y-12483000D01*
X3545000Y-12492524D01*
X3554524Y-12511571D01*
X3564048Y-12549667D01*
X3564048Y-12597286D01*
X3554524Y-12635381D01*
X3545000Y-12654428D01*
X3535476Y-12663952D01*
X3516428Y-12673476D01*
X3497381Y-12673476D01*
X3478333Y-12663952D01*
X3468809Y-12654428D01*
X3459286Y-12635381D01*
X3449762Y-12597286D01*
X3449762Y-12549667D01*
X3459286Y-12511571D01*
X3468809Y-12492524D01*
X3478333Y-12483000D01*
X3497381Y-12473476D01*
X3649762Y-12673476D02*
X3649762Y-12540143D01*
X3649762Y-12559190D02*
X3659286Y-12549667D01*
X3678333Y-12540143D01*
X3706905Y-12540143D01*
X3725952Y-12549667D01*
X3735476Y-12568714D01*
X3735476Y-12673476D01*
X3735476Y-12568714D02*
X3745000Y-12549667D01*
X3764048Y-12540143D01*
X3792619Y-12540143D01*
X3811667Y-12549667D01*
X3821190Y-12568714D01*
X3821190Y-12673476D01*
X3916428Y-12673476D02*
X3916428Y-12540143D01*
X3916428Y-12559190D02*
X3925952Y-12549667D01*
X3945000Y-12540143D01*
X3973571Y-12540143D01*
X3992619Y-12549667D01*
X4002143Y-12568714D01*
X4002143Y-12673476D01*
X4002143Y-12568714D02*
X4011667Y-12549667D01*
X4030714Y-12540143D01*
X4059286Y-12540143D01*
X4078333Y-12549667D01*
X4087857Y-12568714D01*
X4087857Y-12673476D01*
X4478333Y-12463952D02*
X4306905Y-12721095D01*
X4735476Y-12473476D02*
X4754524Y-12473476D01*
X4773571Y-12483000D01*
X4783095Y-12492524D01*
X4792619Y-12511571D01*
X4802143Y-12549667D01*
X4802143Y-12597286D01*
X4792619Y-12635381D01*
X4783095Y-12654428D01*
X4773571Y-12663952D01*
X4754524Y-12673476D01*
X4735476Y-12673476D01*
X4716429Y-12663952D01*
X4706905Y-12654428D01*
X4697381Y-12635381D01*
X4687857Y-12597286D01*
X4687857Y-12549667D01*
X4697381Y-12511571D01*
X4706905Y-12492524D01*
X4716429Y-12483000D01*
X4735476Y-12473476D01*
X4887857Y-12654428D02*
X4897381Y-12663952D01*
X4887857Y-12673476D01*
X4878333Y-12663952D01*
X4887857Y-12654428D01*
X4887857Y-12673476D01*
X5021190Y-12473476D02*
X5040238Y-12473476D01*
X5059286Y-12483000D01*
X5068810Y-12492524D01*
X5078333Y-12511571D01*
X5087857Y-12549667D01*
X5087857Y-12597286D01*
X5078333Y-12635381D01*
X5068810Y-12654428D01*
X5059286Y-12663952D01*
X5040238Y-12673476D01*
X5021190Y-12673476D01*
X5002143Y-12663952D01*
X4992619Y-12654428D01*
X4983095Y-12635381D01*
X4973571Y-12597286D01*
X4973571Y-12549667D01*
X4983095Y-12511571D01*
X4992619Y-12492524D01*
X5002143Y-12483000D01*
X5021190Y-12473476D01*
X5278333Y-12673476D02*
X5164048Y-12673476D01*
X5221190Y-12673476D02*
X5221190Y-12473476D01*
X5202143Y-12502048D01*
X5183095Y-12521095D01*
X5164048Y-12530619D01*
X5459286Y-12473476D02*
X5364048Y-12473476D01*
X5354524Y-12568714D01*
X5364048Y-12559190D01*
X5383095Y-12549667D01*
X5430714Y-12549667D01*
X5449762Y-12559190D01*
X5459286Y-12568714D01*
X5468810Y-12587762D01*
X5468810Y-12635381D01*
X5459286Y-12654428D01*
X5449762Y-12663952D01*
X5430714Y-12673476D01*
X5383095Y-12673476D01*
X5364048Y-12663952D01*
X5354524Y-12654428D01*
X5535476Y-12473476D02*
X5668809Y-12473476D01*
X5583095Y-12673476D01*
X5735476Y-12473476D02*
X5735476Y-12511571D01*
X5811667Y-12473476D02*
X5811667Y-12511571D01*
X6106905Y-12749667D02*
X6097381Y-12740143D01*
X6078333Y-12711571D01*
X6068809Y-12692524D01*
X6059286Y-12663952D01*
X6049762Y-12616333D01*
X6049762Y-12578238D01*
X6059286Y-12530619D01*
X6068809Y-12502048D01*
X6078333Y-12483000D01*
X6097381Y-12454428D01*
X6106905Y-12444905D01*
X6173571Y-12492524D02*
X6183095Y-12483000D01*
X6202143Y-12473476D01*
X6249762Y-12473476D01*
X6268809Y-12483000D01*
X6278333Y-12492524D01*
X6287857Y-12511571D01*
X6287857Y-12530619D01*
X6278333Y-12559190D01*
X6164048Y-12673476D01*
X6287857Y-12673476D01*
X6459286Y-12540143D02*
X6459286Y-12673476D01*
X6411667Y-12463952D02*
X6364048Y-12606809D01*
X6487857Y-12606809D01*
X6716428Y-12673476D02*
X6716428Y-12473476D01*
X6802143Y-12673476D02*
X6802143Y-12568714D01*
X6792619Y-12549667D01*
X6773571Y-12540143D01*
X6745000Y-12540143D01*
X6725952Y-12549667D01*
X6716428Y-12559190D01*
X6925952Y-12673476D02*
X6906905Y-12663952D01*
X6897381Y-12654428D01*
X6887857Y-12635381D01*
X6887857Y-12578238D01*
X6897381Y-12559190D01*
X6906905Y-12549667D01*
X6925952Y-12540143D01*
X6954524Y-12540143D01*
X6973571Y-12549667D01*
X6983095Y-12559190D01*
X6992619Y-12578238D01*
X6992619Y-12635381D01*
X6983095Y-12654428D01*
X6973571Y-12663952D01*
X6954524Y-12673476D01*
X6925952Y-12673476D01*
X7106905Y-12673476D02*
X7087857Y-12663952D01*
X7078333Y-12644905D01*
X7078333Y-12473476D01*
X7259286Y-12663952D02*
X7240238Y-12673476D01*
X7202143Y-12673476D01*
X7183095Y-12663952D01*
X7173571Y-12644905D01*
X7173571Y-12568714D01*
X7183095Y-12549667D01*
X7202143Y-12540143D01*
X7240238Y-12540143D01*
X7259286Y-12549667D01*
X7268809Y-12568714D01*
X7268809Y-12587762D01*
X7173571Y-12606809D01*
X7345000Y-12663952D02*
X7364048Y-12673476D01*
X7402143Y-12673476D01*
X7421190Y-12663952D01*
X7430714Y-12644905D01*
X7430714Y-12635381D01*
X7421190Y-12616333D01*
X7402143Y-12606809D01*
X7373571Y-12606809D01*
X7354524Y-12597286D01*
X7345000Y-12578238D01*
X7345000Y-12568714D01*
X7354524Y-12549667D01*
X7373571Y-12540143D01*
X7402143Y-12540143D01*
X7421190Y-12549667D01*
X7497381Y-12749667D02*
X7506905Y-12740143D01*
X7525952Y-12711571D01*
X7535476Y-12692524D01*
X7545000Y-12663952D01*
X7554524Y-12616333D01*
X7554524Y-12578238D01*
X7545000Y-12530619D01*
X7535476Y-12502048D01*
X7525952Y-12483000D01*
X7506905Y-12454428D01*
X7497381Y-12444905D01*
D13*
X2535000Y-12847000D02*
G75*
G03*
X2535000Y-12847000I-35000J0D01*
G01*
D11*
X2830714Y-12737476D02*
X2849762Y-12737476D01*
X2868809Y-12747000D01*
X2878333Y-12756524D01*
X2887857Y-12775571D01*
X2897381Y-12813667D01*
X2897381Y-12861286D01*
X2887857Y-12899381D01*
X2878333Y-12918428D01*
X2868809Y-12927952D01*
X2849762Y-12937476D01*
X2830714Y-12937476D01*
X2811667Y-12927952D01*
X2802143Y-12918428D01*
X2792619Y-12899381D01*
X2783095Y-12861286D01*
X2783095Y-12813667D01*
X2792619Y-12775571D01*
X2802143Y-12756524D01*
X2811667Y-12747000D01*
X2830714Y-12737476D01*
X2983095Y-12918428D02*
X2992619Y-12927952D01*
X2983095Y-12937476D01*
X2973571Y-12927952D01*
X2983095Y-12918428D01*
X2983095Y-12937476D01*
X3059286Y-12737476D02*
X3192619Y-12737476D01*
X3106905Y-12937476D01*
X3306905Y-12737476D02*
X3325952Y-12737476D01*
X3345000Y-12747000D01*
X3354524Y-12756524D01*
X3364048Y-12775571D01*
X3373571Y-12813667D01*
X3373571Y-12861286D01*
X3364048Y-12899381D01*
X3354524Y-12918428D01*
X3345000Y-12927952D01*
X3325952Y-12937476D01*
X3306905Y-12937476D01*
X3287857Y-12927952D01*
X3278333Y-12918428D01*
X3268809Y-12899381D01*
X3259286Y-12861286D01*
X3259286Y-12813667D01*
X3268809Y-12775571D01*
X3278333Y-12756524D01*
X3287857Y-12747000D01*
X3306905Y-12737476D01*
X3497381Y-12737476D02*
X3516428Y-12737476D01*
X3535476Y-12747000D01*
X3545000Y-12756524D01*
X3554524Y-12775571D01*
X3564048Y-12813667D01*
X3564048Y-12861286D01*
X3554524Y-12899381D01*
X3545000Y-12918428D01*
X3535476Y-12927952D01*
X3516428Y-12937476D01*
X3497381Y-12937476D01*
X3478333Y-12927952D01*
X3468809Y-12918428D01*
X3459286Y-12899381D01*
X3449762Y-12861286D01*
X3449762Y-12813667D01*
X3459286Y-12775571D01*
X3468809Y-12756524D01*
X3478333Y-12747000D01*
X3497381Y-12737476D01*
X3649762Y-12937476D02*
X3649762Y-12804143D01*
X3649762Y-12823190D02*
X3659286Y-12813667D01*
X3678333Y-12804143D01*
X3706905Y-12804143D01*
X3725952Y-12813667D01*
X3735476Y-12832714D01*
X3735476Y-12937476D01*
X3735476Y-12832714D02*
X3745000Y-12813667D01*
X3764048Y-12804143D01*
X3792619Y-12804143D01*
X3811667Y-12813667D01*
X3821190Y-12832714D01*
X3821190Y-12937476D01*
X3916428Y-12937476D02*
X3916428Y-12804143D01*
X3916428Y-12823190D02*
X3925952Y-12813667D01*
X3945000Y-12804143D01*
X3973571Y-12804143D01*
X3992619Y-12813667D01*
X4002143Y-12832714D01*
X4002143Y-12937476D01*
X4002143Y-12832714D02*
X4011667Y-12813667D01*
X4030714Y-12804143D01*
X4059286Y-12804143D01*
X4078333Y-12813667D01*
X4087857Y-12832714D01*
X4087857Y-12937476D01*
X4478333Y-12727952D02*
X4306905Y-12985095D01*
X4735476Y-12737476D02*
X4754524Y-12737476D01*
X4773571Y-12747000D01*
X4783095Y-12756524D01*
X4792619Y-12775571D01*
X4802143Y-12813667D01*
X4802143Y-12861286D01*
X4792619Y-12899381D01*
X4783095Y-12918428D01*
X4773571Y-12927952D01*
X4754524Y-12937476D01*
X4735476Y-12937476D01*
X4716429Y-12927952D01*
X4706905Y-12918428D01*
X4697381Y-12899381D01*
X4687857Y-12861286D01*
X4687857Y-12813667D01*
X4697381Y-12775571D01*
X4706905Y-12756524D01*
X4716429Y-12747000D01*
X4735476Y-12737476D01*
X4887857Y-12918428D02*
X4897381Y-12927952D01*
X4887857Y-12937476D01*
X4878333Y-12927952D01*
X4887857Y-12918428D01*
X4887857Y-12937476D01*
X5021190Y-12737476D02*
X5040238Y-12737476D01*
X5059286Y-12747000D01*
X5068810Y-12756524D01*
X5078333Y-12775571D01*
X5087857Y-12813667D01*
X5087857Y-12861286D01*
X5078333Y-12899381D01*
X5068810Y-12918428D01*
X5059286Y-12927952D01*
X5040238Y-12937476D01*
X5021190Y-12937476D01*
X5002143Y-12927952D01*
X4992619Y-12918428D01*
X4983095Y-12899381D01*
X4973571Y-12861286D01*
X4973571Y-12813667D01*
X4983095Y-12775571D01*
X4992619Y-12756524D01*
X5002143Y-12747000D01*
X5021190Y-12737476D01*
X5164048Y-12756524D02*
X5173571Y-12747000D01*
X5192619Y-12737476D01*
X5240238Y-12737476D01*
X5259286Y-12747000D01*
X5268810Y-12756524D01*
X5278333Y-12775571D01*
X5278333Y-12794619D01*
X5268810Y-12823190D01*
X5154524Y-12937476D01*
X5278333Y-12937476D01*
X5345000Y-12737476D02*
X5478333Y-12737476D01*
X5392619Y-12937476D01*
X5640238Y-12737476D02*
X5602143Y-12737476D01*
X5583095Y-12747000D01*
X5573571Y-12756524D01*
X5554524Y-12785095D01*
X5545000Y-12823190D01*
X5545000Y-12899381D01*
X5554524Y-12918428D01*
X5564048Y-12927952D01*
X5583095Y-12937476D01*
X5621190Y-12937476D01*
X5640238Y-12927952D01*
X5649762Y-12918428D01*
X5659286Y-12899381D01*
X5659286Y-12851762D01*
X5649762Y-12832714D01*
X5640238Y-12823190D01*
X5621190Y-12813667D01*
X5583095Y-12813667D01*
X5564048Y-12823190D01*
X5554524Y-12832714D01*
X5545000Y-12851762D01*
X5735476Y-12737476D02*
X5735476Y-12775571D01*
X5811667Y-12737476D02*
X5811667Y-12775571D01*
X6106905Y-13013667D02*
X6097381Y-13004143D01*
X6078333Y-12975571D01*
X6068809Y-12956524D01*
X6059286Y-12927952D01*
X6049762Y-12880333D01*
X6049762Y-12842238D01*
X6059286Y-12794619D01*
X6068809Y-12766048D01*
X6078333Y-12747000D01*
X6097381Y-12718428D01*
X6106905Y-12708905D01*
X6278333Y-12737476D02*
X6183095Y-12737476D01*
X6173571Y-12832714D01*
X6183095Y-12823190D01*
X6202143Y-12813667D01*
X6249762Y-12813667D01*
X6268809Y-12823190D01*
X6278333Y-12832714D01*
X6287857Y-12851762D01*
X6287857Y-12899381D01*
X6278333Y-12918428D01*
X6268809Y-12927952D01*
X6249762Y-12937476D01*
X6202143Y-12937476D01*
X6183095Y-12927952D01*
X6173571Y-12918428D01*
X6354524Y-12737476D02*
X6478333Y-12737476D01*
X6411667Y-12813667D01*
X6440238Y-12813667D01*
X6459286Y-12823190D01*
X6468809Y-12832714D01*
X6478333Y-12851762D01*
X6478333Y-12899381D01*
X6468809Y-12918428D01*
X6459286Y-12927952D01*
X6440238Y-12937476D01*
X6383095Y-12937476D01*
X6364048Y-12927952D01*
X6354524Y-12918428D01*
X6716428Y-12937476D02*
X6716428Y-12737476D01*
X6802143Y-12937476D02*
X6802143Y-12832714D01*
X6792619Y-12813667D01*
X6773571Y-12804143D01*
X6745000Y-12804143D01*
X6725952Y-12813667D01*
X6716428Y-12823190D01*
X6925952Y-12937476D02*
X6906905Y-12927952D01*
X6897381Y-12918428D01*
X6887857Y-12899381D01*
X6887857Y-12842238D01*
X6897381Y-12823190D01*
X6906905Y-12813667D01*
X6925952Y-12804143D01*
X6954524Y-12804143D01*
X6973571Y-12813667D01*
X6983095Y-12823190D01*
X6992619Y-12842238D01*
X6992619Y-12899381D01*
X6983095Y-12918428D01*
X6973571Y-12927952D01*
X6954524Y-12937476D01*
X6925952Y-12937476D01*
X7106905Y-12937476D02*
X7087857Y-12927952D01*
X7078333Y-12908905D01*
X7078333Y-12737476D01*
X7259286Y-12927952D02*
X7240238Y-12937476D01*
X7202143Y-12937476D01*
X7183095Y-12927952D01*
X7173571Y-12908905D01*
X7173571Y-12832714D01*
X7183095Y-12813667D01*
X7202143Y-12804143D01*
X7240238Y-12804143D01*
X7259286Y-12813667D01*
X7268809Y-12832714D01*
X7268809Y-12851762D01*
X7173571Y-12870809D01*
X7345000Y-12927952D02*
X7364048Y-12937476D01*
X7402143Y-12937476D01*
X7421190Y-12927952D01*
X7430714Y-12908905D01*
X7430714Y-12899381D01*
X7421190Y-12880333D01*
X7402143Y-12870809D01*
X7373571Y-12870809D01*
X7354524Y-12861286D01*
X7345000Y-12842238D01*
X7345000Y-12832714D01*
X7354524Y-12813667D01*
X7373571Y-12804143D01*
X7402143Y-12804143D01*
X7421190Y-12813667D01*
X7497381Y-13013667D02*
X7506905Y-13004143D01*
X7525952Y-12975571D01*
X7535476Y-12956524D01*
X7545000Y-12927952D01*
X7554524Y-12880333D01*
X7554524Y-12842238D01*
X7545000Y-12794619D01*
X7535476Y-12766048D01*
X7525952Y-12747000D01*
X7506905Y-12718428D01*
X7497381Y-12708905D01*
D14*
X2496900Y-13072900D02*
X2496900Y-13149100D01*
X2458800Y-13111000D02*
X2535000Y-13111000D01*
D11*
X2830714Y-13001476D02*
X2849762Y-13001476D01*
X2868809Y-13011000D01*
X2878333Y-13020524D01*
X2887857Y-13039571D01*
X2897381Y-13077667D01*
X2897381Y-13125286D01*
X2887857Y-13163381D01*
X2878333Y-13182428D01*
X2868809Y-13191952D01*
X2849762Y-13201476D01*
X2830714Y-13201476D01*
X2811667Y-13191952D01*
X2802143Y-13182428D01*
X2792619Y-13163381D01*
X2783095Y-13125286D01*
X2783095Y-13077667D01*
X2792619Y-13039571D01*
X2802143Y-13020524D01*
X2811667Y-13011000D01*
X2830714Y-13001476D01*
X2983095Y-13182428D02*
X2992619Y-13191952D01*
X2983095Y-13201476D01*
X2973571Y-13191952D01*
X2983095Y-13182428D01*
X2983095Y-13201476D01*
X3059286Y-13001476D02*
X3192619Y-13001476D01*
X3106905Y-13201476D01*
X3354524Y-13001476D02*
X3316428Y-13001476D01*
X3297381Y-13011000D01*
X3287857Y-13020524D01*
X3268809Y-13049095D01*
X3259286Y-13087190D01*
X3259286Y-13163381D01*
X3268809Y-13182428D01*
X3278333Y-13191952D01*
X3297381Y-13201476D01*
X3335476Y-13201476D01*
X3354524Y-13191952D01*
X3364048Y-13182428D01*
X3373571Y-13163381D01*
X3373571Y-13115762D01*
X3364048Y-13096714D01*
X3354524Y-13087190D01*
X3335476Y-13077667D01*
X3297381Y-13077667D01*
X3278333Y-13087190D01*
X3268809Y-13096714D01*
X3259286Y-13115762D01*
X3449762Y-13020524D02*
X3459286Y-13011000D01*
X3478333Y-13001476D01*
X3525952Y-13001476D01*
X3545000Y-13011000D01*
X3554524Y-13020524D01*
X3564048Y-13039571D01*
X3564048Y-13058619D01*
X3554524Y-13087190D01*
X3440238Y-13201476D01*
X3564048Y-13201476D01*
X3649762Y-13201476D02*
X3649762Y-13068143D01*
X3649762Y-13087190D02*
X3659286Y-13077667D01*
X3678333Y-13068143D01*
X3706905Y-13068143D01*
X3725952Y-13077667D01*
X3735476Y-13096714D01*
X3735476Y-13201476D01*
X3735476Y-13096714D02*
X3745000Y-13077667D01*
X3764048Y-13068143D01*
X3792619Y-13068143D01*
X3811667Y-13077667D01*
X3821190Y-13096714D01*
X3821190Y-13201476D01*
X3916428Y-13201476D02*
X3916428Y-13068143D01*
X3916428Y-13087190D02*
X3925952Y-13077667D01*
X3945000Y-13068143D01*
X3973571Y-13068143D01*
X3992619Y-13077667D01*
X4002143Y-13096714D01*
X4002143Y-13201476D01*
X4002143Y-13096714D02*
X4011667Y-13077667D01*
X4030714Y-13068143D01*
X4059286Y-13068143D01*
X4078333Y-13077667D01*
X4087857Y-13096714D01*
X4087857Y-13201476D01*
X4478333Y-12991952D02*
X4306905Y-13249095D01*
X4735476Y-13001476D02*
X4754524Y-13001476D01*
X4773571Y-13011000D01*
X4783095Y-13020524D01*
X4792619Y-13039571D01*
X4802143Y-13077667D01*
X4802143Y-13125286D01*
X4792619Y-13163381D01*
X4783095Y-13182428D01*
X4773571Y-13191952D01*
X4754524Y-13201476D01*
X4735476Y-13201476D01*
X4716429Y-13191952D01*
X4706905Y-13182428D01*
X4697381Y-13163381D01*
X4687857Y-13125286D01*
X4687857Y-13077667D01*
X4697381Y-13039571D01*
X4706905Y-13020524D01*
X4716429Y-13011000D01*
X4735476Y-13001476D01*
X4887857Y-13182428D02*
X4897381Y-13191952D01*
X4887857Y-13201476D01*
X4878333Y-13191952D01*
X4887857Y-13182428D01*
X4887857Y-13201476D01*
X5021190Y-13001476D02*
X5040238Y-13001476D01*
X5059286Y-13011000D01*
X5068810Y-13020524D01*
X5078333Y-13039571D01*
X5087857Y-13077667D01*
X5087857Y-13125286D01*
X5078333Y-13163381D01*
X5068810Y-13182428D01*
X5059286Y-13191952D01*
X5040238Y-13201476D01*
X5021190Y-13201476D01*
X5002143Y-13191952D01*
X4992619Y-13182428D01*
X4983095Y-13163381D01*
X4973571Y-13125286D01*
X4973571Y-13077667D01*
X4983095Y-13039571D01*
X4992619Y-13020524D01*
X5002143Y-13011000D01*
X5021190Y-13001476D01*
X5154524Y-13001476D02*
X5278333Y-13001476D01*
X5211667Y-13077667D01*
X5240238Y-13077667D01*
X5259286Y-13087190D01*
X5268810Y-13096714D01*
X5278333Y-13115762D01*
X5278333Y-13163381D01*
X5268810Y-13182428D01*
X5259286Y-13191952D01*
X5240238Y-13201476D01*
X5183095Y-13201476D01*
X5164048Y-13191952D01*
X5154524Y-13182428D01*
X5402143Y-13001476D02*
X5421190Y-13001476D01*
X5440238Y-13011000D01*
X5449762Y-13020524D01*
X5459286Y-13039571D01*
X5468810Y-13077667D01*
X5468810Y-13125286D01*
X5459286Y-13163381D01*
X5449762Y-13182428D01*
X5440238Y-13191952D01*
X5421190Y-13201476D01*
X5402143Y-13201476D01*
X5383095Y-13191952D01*
X5373571Y-13182428D01*
X5364048Y-13163381D01*
X5354524Y-13125286D01*
X5354524Y-13077667D01*
X5364048Y-13039571D01*
X5373571Y-13020524D01*
X5383095Y-13011000D01*
X5402143Y-13001476D01*
X5592619Y-13001476D02*
X5611667Y-13001476D01*
X5630714Y-13011000D01*
X5640238Y-13020524D01*
X5649762Y-13039571D01*
X5659286Y-13077667D01*
X5659286Y-13125286D01*
X5649762Y-13163381D01*
X5640238Y-13182428D01*
X5630714Y-13191952D01*
X5611667Y-13201476D01*
X5592619Y-13201476D01*
X5573571Y-13191952D01*
X5564048Y-13182428D01*
X5554524Y-13163381D01*
X5545000Y-13125286D01*
X5545000Y-13077667D01*
X5554524Y-13039571D01*
X5564048Y-13020524D01*
X5573571Y-13011000D01*
X5592619Y-13001476D01*
X5735476Y-13001476D02*
X5735476Y-13039571D01*
X5811667Y-13001476D02*
X5811667Y-13039571D01*
X6106905Y-13277667D02*
X6097381Y-13268143D01*
X6078333Y-13239571D01*
X6068809Y-13220524D01*
X6059286Y-13191952D01*
X6049762Y-13144333D01*
X6049762Y-13106238D01*
X6059286Y-13058619D01*
X6068809Y-13030048D01*
X6078333Y-13011000D01*
X6097381Y-12982428D01*
X6106905Y-12972905D01*
X6211667Y-13087190D02*
X6192619Y-13077667D01*
X6183095Y-13068143D01*
X6173571Y-13049095D01*
X6173571Y-13039571D01*
X6183095Y-13020524D01*
X6192619Y-13011000D01*
X6211667Y-13001476D01*
X6249762Y-13001476D01*
X6268809Y-13011000D01*
X6278333Y-13020524D01*
X6287857Y-13039571D01*
X6287857Y-13049095D01*
X6278333Y-13068143D01*
X6268809Y-13077667D01*
X6249762Y-13087190D01*
X6211667Y-13087190D01*
X6192619Y-13096714D01*
X6183095Y-13106238D01*
X6173571Y-13125286D01*
X6173571Y-13163381D01*
X6183095Y-13182428D01*
X6192619Y-13191952D01*
X6211667Y-13201476D01*
X6249762Y-13201476D01*
X6268809Y-13191952D01*
X6278333Y-13182428D01*
X6287857Y-13163381D01*
X6287857Y-13125286D01*
X6278333Y-13106238D01*
X6268809Y-13096714D01*
X6249762Y-13087190D01*
X6411667Y-13001476D02*
X6430714Y-13001476D01*
X6449762Y-13011000D01*
X6459286Y-13020524D01*
X6468809Y-13039571D01*
X6478333Y-13077667D01*
X6478333Y-13125286D01*
X6468809Y-13163381D01*
X6459286Y-13182428D01*
X6449762Y-13191952D01*
X6430714Y-13201476D01*
X6411667Y-13201476D01*
X6392619Y-13191952D01*
X6383095Y-13182428D01*
X6373571Y-13163381D01*
X6364048Y-13125286D01*
X6364048Y-13077667D01*
X6373571Y-13039571D01*
X6383095Y-13020524D01*
X6392619Y-13011000D01*
X6411667Y-13001476D01*
X6716428Y-13201476D02*
X6716428Y-13001476D01*
X6802143Y-13201476D02*
X6802143Y-13096714D01*
X6792619Y-13077667D01*
X6773571Y-13068143D01*
X6745000Y-13068143D01*
X6725952Y-13077667D01*
X6716428Y-13087190D01*
X6925952Y-13201476D02*
X6906905Y-13191952D01*
X6897381Y-13182428D01*
X6887857Y-13163381D01*
X6887857Y-13106238D01*
X6897381Y-13087190D01*
X6906905Y-13077667D01*
X6925952Y-13068143D01*
X6954524Y-13068143D01*
X6973571Y-13077667D01*
X6983095Y-13087190D01*
X6992619Y-13106238D01*
X6992619Y-13163381D01*
X6983095Y-13182428D01*
X6973571Y-13191952D01*
X6954524Y-13201476D01*
X6925952Y-13201476D01*
X7106905Y-13201476D02*
X7087857Y-13191952D01*
X7078333Y-13172905D01*
X7078333Y-13001476D01*
X7259286Y-13191952D02*
X7240238Y-13201476D01*
X7202143Y-13201476D01*
X7183095Y-13191952D01*
X7173571Y-13172905D01*
X7173571Y-13096714D01*
X7183095Y-13077667D01*
X7202143Y-13068143D01*
X7240238Y-13068143D01*
X7259286Y-13077667D01*
X7268809Y-13096714D01*
X7268809Y-13115762D01*
X7173571Y-13134809D01*
X7345000Y-13191952D02*
X7364048Y-13201476D01*
X7402143Y-13201476D01*
X7421190Y-13191952D01*
X7430714Y-13172905D01*
X7430714Y-13163381D01*
X7421190Y-13144333D01*
X7402143Y-13134809D01*
X7373571Y-13134809D01*
X7354524Y-13125286D01*
X7345000Y-13106238D01*
X7345000Y-13096714D01*
X7354524Y-13077667D01*
X7373571Y-13068143D01*
X7402143Y-13068143D01*
X7421190Y-13077667D01*
X7497381Y-13277667D02*
X7506905Y-13268143D01*
X7525952Y-13239571D01*
X7535476Y-13220524D01*
X7545000Y-13191952D01*
X7554524Y-13144333D01*
X7554524Y-13106238D01*
X7545000Y-13058619D01*
X7535476Y-13030048D01*
X7525952Y-13011000D01*
X7506905Y-12982428D01*
X7497381Y-12972905D01*
D15*
X2523285Y-13403284D02*
X2523285Y-13346715D01*
X2466716Y-13346715D01*
X2466716Y-13403284D01*
X2523285Y-13403284D01*
D11*
X2830714Y-13265476D02*
X2849762Y-13265476D01*
X2868809Y-13275000D01*
X2878333Y-13284524D01*
X2887857Y-13303571D01*
X2897381Y-13341667D01*
X2897381Y-13389286D01*
X2887857Y-13427381D01*
X2878333Y-13446428D01*
X2868809Y-13455952D01*
X2849762Y-13465476D01*
X2830714Y-13465476D01*
X2811667Y-13455952D01*
X2802143Y-13446428D01*
X2792619Y-13427381D01*
X2783095Y-13389286D01*
X2783095Y-13341667D01*
X2792619Y-13303571D01*
X2802143Y-13284524D01*
X2811667Y-13275000D01*
X2830714Y-13265476D01*
X2983095Y-13446428D02*
X2992619Y-13455952D01*
X2983095Y-13465476D01*
X2973571Y-13455952D01*
X2983095Y-13446428D01*
X2983095Y-13465476D01*
X3106905Y-13351190D02*
X3087857Y-13341667D01*
X3078333Y-13332143D01*
X3068809Y-13313095D01*
X3068809Y-13303571D01*
X3078333Y-13284524D01*
X3087857Y-13275000D01*
X3106905Y-13265476D01*
X3145000Y-13265476D01*
X3164048Y-13275000D01*
X3173571Y-13284524D01*
X3183095Y-13303571D01*
X3183095Y-13313095D01*
X3173571Y-13332143D01*
X3164048Y-13341667D01*
X3145000Y-13351190D01*
X3106905Y-13351190D01*
X3087857Y-13360714D01*
X3078333Y-13370238D01*
X3068809Y-13389286D01*
X3068809Y-13427381D01*
X3078333Y-13446428D01*
X3087857Y-13455952D01*
X3106905Y-13465476D01*
X3145000Y-13465476D01*
X3164048Y-13455952D01*
X3173571Y-13446428D01*
X3183095Y-13427381D01*
X3183095Y-13389286D01*
X3173571Y-13370238D01*
X3164048Y-13360714D01*
X3145000Y-13351190D01*
X3306905Y-13265476D02*
X3325952Y-13265476D01*
X3345000Y-13275000D01*
X3354524Y-13284524D01*
X3364048Y-13303571D01*
X3373571Y-13341667D01*
X3373571Y-13389286D01*
X3364048Y-13427381D01*
X3354524Y-13446428D01*
X3345000Y-13455952D01*
X3325952Y-13465476D01*
X3306905Y-13465476D01*
X3287857Y-13455952D01*
X3278333Y-13446428D01*
X3268809Y-13427381D01*
X3259286Y-13389286D01*
X3259286Y-13341667D01*
X3268809Y-13303571D01*
X3278333Y-13284524D01*
X3287857Y-13275000D01*
X3306905Y-13265476D01*
X3497381Y-13265476D02*
X3516428Y-13265476D01*
X3535476Y-13275000D01*
X3545000Y-13284524D01*
X3554524Y-13303571D01*
X3564048Y-13341667D01*
X3564048Y-13389286D01*
X3554524Y-13427381D01*
X3545000Y-13446428D01*
X3535476Y-13455952D01*
X3516428Y-13465476D01*
X3497381Y-13465476D01*
X3478333Y-13455952D01*
X3468809Y-13446428D01*
X3459286Y-13427381D01*
X3449762Y-13389286D01*
X3449762Y-13341667D01*
X3459286Y-13303571D01*
X3468809Y-13284524D01*
X3478333Y-13275000D01*
X3497381Y-13265476D01*
X3649762Y-13465476D02*
X3649762Y-13332143D01*
X3649762Y-13351190D02*
X3659286Y-13341667D01*
X3678333Y-13332143D01*
X3706905Y-13332143D01*
X3725952Y-13341667D01*
X3735476Y-13360714D01*
X3735476Y-13465476D01*
X3735476Y-13360714D02*
X3745000Y-13341667D01*
X3764048Y-13332143D01*
X3792619Y-13332143D01*
X3811667Y-13341667D01*
X3821190Y-13360714D01*
X3821190Y-13465476D01*
X3916428Y-13465476D02*
X3916428Y-13332143D01*
X3916428Y-13351190D02*
X3925952Y-13341667D01*
X3945000Y-13332143D01*
X3973571Y-13332143D01*
X3992619Y-13341667D01*
X4002143Y-13360714D01*
X4002143Y-13465476D01*
X4002143Y-13360714D02*
X4011667Y-13341667D01*
X4030714Y-13332143D01*
X4059286Y-13332143D01*
X4078333Y-13341667D01*
X4087857Y-13360714D01*
X4087857Y-13465476D01*
X4478333Y-13255952D02*
X4306905Y-13513095D01*
X4735476Y-13265476D02*
X4754524Y-13265476D01*
X4773571Y-13275000D01*
X4783095Y-13284524D01*
X4792619Y-13303571D01*
X4802143Y-13341667D01*
X4802143Y-13389286D01*
X4792619Y-13427381D01*
X4783095Y-13446428D01*
X4773571Y-13455952D01*
X4754524Y-13465476D01*
X4735476Y-13465476D01*
X4716429Y-13455952D01*
X4706905Y-13446428D01*
X4697381Y-13427381D01*
X4687857Y-13389286D01*
X4687857Y-13341667D01*
X4697381Y-13303571D01*
X4706905Y-13284524D01*
X4716429Y-13275000D01*
X4735476Y-13265476D01*
X4887857Y-13446428D02*
X4897381Y-13455952D01*
X4887857Y-13465476D01*
X4878333Y-13455952D01*
X4887857Y-13446428D01*
X4887857Y-13465476D01*
X5021190Y-13265476D02*
X5040238Y-13265476D01*
X5059286Y-13275000D01*
X5068810Y-13284524D01*
X5078333Y-13303571D01*
X5087857Y-13341667D01*
X5087857Y-13389286D01*
X5078333Y-13427381D01*
X5068810Y-13446428D01*
X5059286Y-13455952D01*
X5040238Y-13465476D01*
X5021190Y-13465476D01*
X5002143Y-13455952D01*
X4992619Y-13446428D01*
X4983095Y-13427381D01*
X4973571Y-13389286D01*
X4973571Y-13341667D01*
X4983095Y-13303571D01*
X4992619Y-13284524D01*
X5002143Y-13275000D01*
X5021190Y-13265476D01*
X5154524Y-13265476D02*
X5278333Y-13265476D01*
X5211667Y-13341667D01*
X5240238Y-13341667D01*
X5259286Y-13351190D01*
X5268810Y-13360714D01*
X5278333Y-13379762D01*
X5278333Y-13427381D01*
X5268810Y-13446428D01*
X5259286Y-13455952D01*
X5240238Y-13465476D01*
X5183095Y-13465476D01*
X5164048Y-13455952D01*
X5154524Y-13446428D01*
X5468810Y-13465476D02*
X5354524Y-13465476D01*
X5411667Y-13465476D02*
X5411667Y-13265476D01*
X5392619Y-13294048D01*
X5373571Y-13313095D01*
X5354524Y-13322619D01*
X5649762Y-13265476D02*
X5554524Y-13265476D01*
X5545000Y-13360714D01*
X5554524Y-13351190D01*
X5573571Y-13341667D01*
X5621190Y-13341667D01*
X5640238Y-13351190D01*
X5649762Y-13360714D01*
X5659286Y-13379762D01*
X5659286Y-13427381D01*
X5649762Y-13446428D01*
X5640238Y-13455952D01*
X5621190Y-13465476D01*
X5573571Y-13465476D01*
X5554524Y-13455952D01*
X5545000Y-13446428D01*
X5735476Y-13265476D02*
X5735476Y-13303571D01*
X5811667Y-13265476D02*
X5811667Y-13303571D01*
X6106905Y-13541667D02*
X6097381Y-13532143D01*
X6078333Y-13503571D01*
X6068809Y-13484524D01*
X6059286Y-13455952D01*
X6049762Y-13408333D01*
X6049762Y-13370238D01*
X6059286Y-13322619D01*
X6068809Y-13294048D01*
X6078333Y-13275000D01*
X6097381Y-13246428D01*
X6106905Y-13236905D01*
X6278333Y-13265476D02*
X6183095Y-13265476D01*
X6173571Y-13360714D01*
X6183095Y-13351190D01*
X6202143Y-13341667D01*
X6249762Y-13341667D01*
X6268809Y-13351190D01*
X6278333Y-13360714D01*
X6287857Y-13379762D01*
X6287857Y-13427381D01*
X6278333Y-13446428D01*
X6268809Y-13455952D01*
X6249762Y-13465476D01*
X6202143Y-13465476D01*
X6183095Y-13455952D01*
X6173571Y-13446428D01*
X6364048Y-13284524D02*
X6373571Y-13275000D01*
X6392619Y-13265476D01*
X6440238Y-13265476D01*
X6459286Y-13275000D01*
X6468809Y-13284524D01*
X6478333Y-13303571D01*
X6478333Y-13322619D01*
X6468809Y-13351190D01*
X6354524Y-13465476D01*
X6478333Y-13465476D01*
X6716428Y-13465476D02*
X6716428Y-13265476D01*
X6802143Y-13465476D02*
X6802143Y-13360714D01*
X6792619Y-13341667D01*
X6773571Y-13332143D01*
X6745000Y-13332143D01*
X6725952Y-13341667D01*
X6716428Y-13351190D01*
X6925952Y-13465476D02*
X6906905Y-13455952D01*
X6897381Y-13446428D01*
X6887857Y-13427381D01*
X6887857Y-13370238D01*
X6897381Y-13351190D01*
X6906905Y-13341667D01*
X6925952Y-13332143D01*
X6954524Y-13332143D01*
X6973571Y-13341667D01*
X6983095Y-13351190D01*
X6992619Y-13370238D01*
X6992619Y-13427381D01*
X6983095Y-13446428D01*
X6973571Y-13455952D01*
X6954524Y-13465476D01*
X6925952Y-13465476D01*
X7106905Y-13465476D02*
X7087857Y-13455952D01*
X7078333Y-13436905D01*
X7078333Y-13265476D01*
X7259286Y-13455952D02*
X7240238Y-13465476D01*
X7202143Y-13465476D01*
X7183095Y-13455952D01*
X7173571Y-13436905D01*
X7173571Y-13360714D01*
X7183095Y-13341667D01*
X7202143Y-13332143D01*
X7240238Y-13332143D01*
X7259286Y-13341667D01*
X7268809Y-13360714D01*
X7268809Y-13379762D01*
X7173571Y-13398809D01*
X7345000Y-13455952D02*
X7364048Y-13465476D01*
X7402143Y-13465476D01*
X7421190Y-13455952D01*
X7430714Y-13436905D01*
X7430714Y-13427381D01*
X7421190Y-13408333D01*
X7402143Y-13398809D01*
X7373571Y-13398809D01*
X7354524Y-13389286D01*
X7345000Y-13370238D01*
X7345000Y-13360714D01*
X7354524Y-13341667D01*
X7373571Y-13332143D01*
X7402143Y-13332143D01*
X7421190Y-13341667D01*
X7497381Y-13541667D02*
X7506905Y-13532143D01*
X7525952Y-13503571D01*
X7535476Y-13484524D01*
X7545000Y-13455952D01*
X7554524Y-13408333D01*
X7554524Y-13370238D01*
X7545000Y-13322619D01*
X7535476Y-13294048D01*
X7525952Y-13275000D01*
X7506905Y-13246428D01*
X7497381Y-13236905D01*
D16*
X2485000Y-13689000D02*
X2535000Y-13639000D01*
X2485000Y-13589000D01*
X2435000Y-13639000D01*
X2485000Y-13689000D01*
D11*
X2897381Y-13729476D02*
X2783095Y-13729476D01*
X2840238Y-13729476D02*
X2840238Y-13529476D01*
X2821190Y-13558048D01*
X2802143Y-13577095D01*
X2783095Y-13586619D01*
X2983095Y-13710428D02*
X2992619Y-13719952D01*
X2983095Y-13729476D01*
X2973571Y-13719952D01*
X2983095Y-13710428D01*
X2983095Y-13729476D01*
X3116428Y-13529476D02*
X3135476Y-13529476D01*
X3154524Y-13539000D01*
X3164048Y-13548524D01*
X3173571Y-13567571D01*
X3183095Y-13605667D01*
X3183095Y-13653286D01*
X3173571Y-13691381D01*
X3164048Y-13710428D01*
X3154524Y-13719952D01*
X3135476Y-13729476D01*
X3116428Y-13729476D01*
X3097381Y-13719952D01*
X3087857Y-13710428D01*
X3078333Y-13691381D01*
X3068809Y-13653286D01*
X3068809Y-13605667D01*
X3078333Y-13567571D01*
X3087857Y-13548524D01*
X3097381Y-13539000D01*
X3116428Y-13529476D01*
X3306905Y-13529476D02*
X3325952Y-13529476D01*
X3345000Y-13539000D01*
X3354524Y-13548524D01*
X3364048Y-13567571D01*
X3373571Y-13605667D01*
X3373571Y-13653286D01*
X3364048Y-13691381D01*
X3354524Y-13710428D01*
X3345000Y-13719952D01*
X3325952Y-13729476D01*
X3306905Y-13729476D01*
X3287857Y-13719952D01*
X3278333Y-13710428D01*
X3268809Y-13691381D01*
X3259286Y-13653286D01*
X3259286Y-13605667D01*
X3268809Y-13567571D01*
X3278333Y-13548524D01*
X3287857Y-13539000D01*
X3306905Y-13529476D01*
X3497381Y-13529476D02*
X3516428Y-13529476D01*
X3535476Y-13539000D01*
X3545000Y-13548524D01*
X3554524Y-13567571D01*
X3564048Y-13605667D01*
X3564048Y-13653286D01*
X3554524Y-13691381D01*
X3545000Y-13710428D01*
X3535476Y-13719952D01*
X3516428Y-13729476D01*
X3497381Y-13729476D01*
X3478333Y-13719952D01*
X3468809Y-13710428D01*
X3459286Y-13691381D01*
X3449762Y-13653286D01*
X3449762Y-13605667D01*
X3459286Y-13567571D01*
X3468809Y-13548524D01*
X3478333Y-13539000D01*
X3497381Y-13529476D01*
X3649762Y-13729476D02*
X3649762Y-13596143D01*
X3649762Y-13615190D02*
X3659286Y-13605667D01*
X3678333Y-13596143D01*
X3706905Y-13596143D01*
X3725952Y-13605667D01*
X3735476Y-13624714D01*
X3735476Y-13729476D01*
X3735476Y-13624714D02*
X3745000Y-13605667D01*
X3764048Y-13596143D01*
X3792619Y-13596143D01*
X3811667Y-13605667D01*
X3821190Y-13624714D01*
X3821190Y-13729476D01*
X3916428Y-13729476D02*
X3916428Y-13596143D01*
X3916428Y-13615190D02*
X3925952Y-13605667D01*
X3945000Y-13596143D01*
X3973571Y-13596143D01*
X3992619Y-13605667D01*
X4002143Y-13624714D01*
X4002143Y-13729476D01*
X4002143Y-13624714D02*
X4011667Y-13605667D01*
X4030714Y-13596143D01*
X4059286Y-13596143D01*
X4078333Y-13605667D01*
X4087857Y-13624714D01*
X4087857Y-13729476D01*
X4478333Y-13519952D02*
X4306905Y-13777095D01*
X4735476Y-13529476D02*
X4754524Y-13529476D01*
X4773571Y-13539000D01*
X4783095Y-13548524D01*
X4792619Y-13567571D01*
X4802143Y-13605667D01*
X4802143Y-13653286D01*
X4792619Y-13691381D01*
X4783095Y-13710428D01*
X4773571Y-13719952D01*
X4754524Y-13729476D01*
X4735476Y-13729476D01*
X4716429Y-13719952D01*
X4706905Y-13710428D01*
X4697381Y-13691381D01*
X4687857Y-13653286D01*
X4687857Y-13605667D01*
X4697381Y-13567571D01*
X4706905Y-13548524D01*
X4716429Y-13539000D01*
X4735476Y-13529476D01*
X4887857Y-13710428D02*
X4897381Y-13719952D01*
X4887857Y-13729476D01*
X4878333Y-13719952D01*
X4887857Y-13710428D01*
X4887857Y-13729476D01*
X5021190Y-13529476D02*
X5040238Y-13529476D01*
X5059286Y-13539000D01*
X5068810Y-13548524D01*
X5078333Y-13567571D01*
X5087857Y-13605667D01*
X5087857Y-13653286D01*
X5078333Y-13691381D01*
X5068810Y-13710428D01*
X5059286Y-13719952D01*
X5040238Y-13729476D01*
X5021190Y-13729476D01*
X5002143Y-13719952D01*
X4992619Y-13710428D01*
X4983095Y-13691381D01*
X4973571Y-13653286D01*
X4973571Y-13605667D01*
X4983095Y-13567571D01*
X4992619Y-13548524D01*
X5002143Y-13539000D01*
X5021190Y-13529476D01*
X5154524Y-13529476D02*
X5278333Y-13529476D01*
X5211667Y-13605667D01*
X5240238Y-13605667D01*
X5259286Y-13615190D01*
X5268810Y-13624714D01*
X5278333Y-13643762D01*
X5278333Y-13691381D01*
X5268810Y-13710428D01*
X5259286Y-13719952D01*
X5240238Y-13729476D01*
X5183095Y-13729476D01*
X5164048Y-13719952D01*
X5154524Y-13710428D01*
X5373571Y-13729476D02*
X5411667Y-13729476D01*
X5430714Y-13719952D01*
X5440238Y-13710428D01*
X5459286Y-13681857D01*
X5468810Y-13643762D01*
X5468810Y-13567571D01*
X5459286Y-13548524D01*
X5449762Y-13539000D01*
X5430714Y-13529476D01*
X5392619Y-13529476D01*
X5373571Y-13539000D01*
X5364048Y-13548524D01*
X5354524Y-13567571D01*
X5354524Y-13615190D01*
X5364048Y-13634238D01*
X5373571Y-13643762D01*
X5392619Y-13653286D01*
X5430714Y-13653286D01*
X5449762Y-13643762D01*
X5459286Y-13634238D01*
X5468810Y-13615190D01*
X5640238Y-13596143D02*
X5640238Y-13729476D01*
X5592619Y-13519952D02*
X5545000Y-13662809D01*
X5668809Y-13662809D01*
X5735476Y-13529476D02*
X5735476Y-13567571D01*
X5811667Y-13529476D02*
X5811667Y-13567571D01*
X6106905Y-13805667D02*
X6097381Y-13796143D01*
X6078333Y-13767571D01*
X6068809Y-13748524D01*
X6059286Y-13719952D01*
X6049762Y-13672333D01*
X6049762Y-13634238D01*
X6059286Y-13586619D01*
X6068809Y-13558048D01*
X6078333Y-13539000D01*
X6097381Y-13510428D01*
X6106905Y-13500905D01*
X6173571Y-13548524D02*
X6183095Y-13539000D01*
X6202143Y-13529476D01*
X6249762Y-13529476D01*
X6268809Y-13539000D01*
X6278333Y-13548524D01*
X6287857Y-13567571D01*
X6287857Y-13586619D01*
X6278333Y-13615190D01*
X6164048Y-13729476D01*
X6287857Y-13729476D01*
X6354524Y-13529476D02*
X6487857Y-13529476D01*
X6402143Y-13729476D01*
X6716428Y-13729476D02*
X6716428Y-13529476D01*
X6802143Y-13729476D02*
X6802143Y-13624714D01*
X6792619Y-13605667D01*
X6773571Y-13596143D01*
X6745000Y-13596143D01*
X6725952Y-13605667D01*
X6716428Y-13615190D01*
X6925952Y-13729476D02*
X6906905Y-13719952D01*
X6897381Y-13710428D01*
X6887857Y-13691381D01*
X6887857Y-13634238D01*
X6897381Y-13615190D01*
X6906905Y-13605667D01*
X6925952Y-13596143D01*
X6954524Y-13596143D01*
X6973571Y-13605667D01*
X6983095Y-13615190D01*
X6992619Y-13634238D01*
X6992619Y-13691381D01*
X6983095Y-13710428D01*
X6973571Y-13719952D01*
X6954524Y-13729476D01*
X6925952Y-13729476D01*
X7106905Y-13729476D02*
X7087857Y-13719952D01*
X7078333Y-13700905D01*
X7078333Y-13529476D01*
X7259286Y-13719952D02*
X7240238Y-13729476D01*
X7202143Y-13729476D01*
X7183095Y-13719952D01*
X7173571Y-13700905D01*
X7173571Y-13624714D01*
X7183095Y-13605667D01*
X7202143Y-13596143D01*
X7240238Y-13596143D01*
X7259286Y-13605667D01*
X7268809Y-13624714D01*
X7268809Y-13643762D01*
X7173571Y-13662809D01*
X7345000Y-13719952D02*
X7364048Y-13729476D01*
X7402143Y-13729476D01*
X7421190Y-13719952D01*
X7430714Y-13700905D01*
X7430714Y-13691381D01*
X7421190Y-13672333D01*
X7402143Y-13662809D01*
X7373571Y-13662809D01*
X7354524Y-13653286D01*
X7345000Y-13634238D01*
X7345000Y-13624714D01*
X7354524Y-13605667D01*
X7373571Y-13596143D01*
X7402143Y-13596143D01*
X7421190Y-13605667D01*
X7497381Y-13805667D02*
X7506905Y-13796143D01*
X7525952Y-13767571D01*
X7535476Y-13748524D01*
X7545000Y-13719952D01*
X7554524Y-13672333D01*
X7554524Y-13634238D01*
X7545000Y-13586619D01*
X7535476Y-13558048D01*
X7525952Y-13539000D01*
X7506905Y-13510428D01*
X7497381Y-13500905D01*
D17*
X2425000Y-13848000D02*
X2535000Y-13958000D01*
X2535000Y-13848000D02*
X2425000Y-13958000D01*
X2535000Y-13903000D02*
G75*
G03*
X2535000Y-13903000I-55000J0D01*
G01*
D11*
X2897381Y-13993476D02*
X2783095Y-13993476D01*
X2840238Y-13993476D02*
X2840238Y-13793476D01*
X2821190Y-13822048D01*
X2802143Y-13841095D01*
X2783095Y-13850619D01*
X2983095Y-13974428D02*
X2992619Y-13983952D01*
X2983095Y-13993476D01*
X2973571Y-13983952D01*
X2983095Y-13974428D01*
X2983095Y-13993476D01*
X3183095Y-13993476D02*
X3068809Y-13993476D01*
X3125952Y-13993476D02*
X3125952Y-13793476D01*
X3106905Y-13822048D01*
X3087857Y-13841095D01*
X3068809Y-13850619D01*
X3306905Y-13793476D02*
X3325952Y-13793476D01*
X3345000Y-13803000D01*
X3354524Y-13812524D01*
X3364048Y-13831571D01*
X3373571Y-13869667D01*
X3373571Y-13917286D01*
X3364048Y-13955381D01*
X3354524Y-13974428D01*
X3345000Y-13983952D01*
X3325952Y-13993476D01*
X3306905Y-13993476D01*
X3287857Y-13983952D01*
X3278333Y-13974428D01*
X3268809Y-13955381D01*
X3259286Y-13917286D01*
X3259286Y-13869667D01*
X3268809Y-13831571D01*
X3278333Y-13812524D01*
X3287857Y-13803000D01*
X3306905Y-13793476D01*
X3497381Y-13793476D02*
X3516428Y-13793476D01*
X3535476Y-13803000D01*
X3545000Y-13812524D01*
X3554524Y-13831571D01*
X3564048Y-13869667D01*
X3564048Y-13917286D01*
X3554524Y-13955381D01*
X3545000Y-13974428D01*
X3535476Y-13983952D01*
X3516428Y-13993476D01*
X3497381Y-13993476D01*
X3478333Y-13983952D01*
X3468809Y-13974428D01*
X3459286Y-13955381D01*
X3449762Y-13917286D01*
X3449762Y-13869667D01*
X3459286Y-13831571D01*
X3468809Y-13812524D01*
X3478333Y-13803000D01*
X3497381Y-13793476D01*
X3649762Y-13993476D02*
X3649762Y-13860143D01*
X3649762Y-13879190D02*
X3659286Y-13869667D01*
X3678333Y-13860143D01*
X3706905Y-13860143D01*
X3725952Y-13869667D01*
X3735476Y-13888714D01*
X3735476Y-13993476D01*
X3735476Y-13888714D02*
X3745000Y-13869667D01*
X3764048Y-13860143D01*
X3792619Y-13860143D01*
X3811667Y-13869667D01*
X3821190Y-13888714D01*
X3821190Y-13993476D01*
X3916428Y-13993476D02*
X3916428Y-13860143D01*
X3916428Y-13879190D02*
X3925952Y-13869667D01*
X3945000Y-13860143D01*
X3973571Y-13860143D01*
X3992619Y-13869667D01*
X4002143Y-13888714D01*
X4002143Y-13993476D01*
X4002143Y-13888714D02*
X4011667Y-13869667D01*
X4030714Y-13860143D01*
X4059286Y-13860143D01*
X4078333Y-13869667D01*
X4087857Y-13888714D01*
X4087857Y-13993476D01*
X4478333Y-13783952D02*
X4306905Y-14041095D01*
X4735476Y-13793476D02*
X4754524Y-13793476D01*
X4773571Y-13803000D01*
X4783095Y-13812524D01*
X4792619Y-13831571D01*
X4802143Y-13869667D01*
X4802143Y-13917286D01*
X4792619Y-13955381D01*
X4783095Y-13974428D01*
X4773571Y-13983952D01*
X4754524Y-13993476D01*
X4735476Y-13993476D01*
X4716429Y-13983952D01*
X4706905Y-13974428D01*
X4697381Y-13955381D01*
X4687857Y-13917286D01*
X4687857Y-13869667D01*
X4697381Y-13831571D01*
X4706905Y-13812524D01*
X4716429Y-13803000D01*
X4735476Y-13793476D01*
X4887857Y-13974428D02*
X4897381Y-13983952D01*
X4887857Y-13993476D01*
X4878333Y-13983952D01*
X4887857Y-13974428D01*
X4887857Y-13993476D01*
X5021190Y-13793476D02*
X5040238Y-13793476D01*
X5059286Y-13803000D01*
X5068810Y-13812524D01*
X5078333Y-13831571D01*
X5087857Y-13869667D01*
X5087857Y-13917286D01*
X5078333Y-13955381D01*
X5068810Y-13974428D01*
X5059286Y-13983952D01*
X5040238Y-13993476D01*
X5021190Y-13993476D01*
X5002143Y-13983952D01*
X4992619Y-13974428D01*
X4983095Y-13955381D01*
X4973571Y-13917286D01*
X4973571Y-13869667D01*
X4983095Y-13831571D01*
X4992619Y-13812524D01*
X5002143Y-13803000D01*
X5021190Y-13793476D01*
X5259286Y-13860143D02*
X5259286Y-13993476D01*
X5211667Y-13783952D02*
X5164048Y-13926809D01*
X5287857Y-13926809D01*
X5345000Y-13793476D02*
X5468810Y-13793476D01*
X5402143Y-13869667D01*
X5430714Y-13869667D01*
X5449762Y-13879190D01*
X5459286Y-13888714D01*
X5468810Y-13907762D01*
X5468810Y-13955381D01*
X5459286Y-13974428D01*
X5449762Y-13983952D01*
X5430714Y-13993476D01*
X5373571Y-13993476D01*
X5354524Y-13983952D01*
X5345000Y-13974428D01*
X5535476Y-13793476D02*
X5659286Y-13793476D01*
X5592619Y-13869667D01*
X5621190Y-13869667D01*
X5640238Y-13879190D01*
X5649762Y-13888714D01*
X5659286Y-13907762D01*
X5659286Y-13955381D01*
X5649762Y-13974428D01*
X5640238Y-13983952D01*
X5621190Y-13993476D01*
X5564048Y-13993476D01*
X5545000Y-13983952D01*
X5535476Y-13974428D01*
X5735476Y-13793476D02*
X5735476Y-13831571D01*
X5811667Y-13793476D02*
X5811667Y-13831571D01*
X6106905Y-14069667D02*
X6097381Y-14060143D01*
X6078333Y-14031571D01*
X6068809Y-14012524D01*
X6059286Y-13983952D01*
X6049762Y-13936333D01*
X6049762Y-13898238D01*
X6059286Y-13850619D01*
X6068809Y-13822048D01*
X6078333Y-13803000D01*
X6097381Y-13774428D01*
X6106905Y-13764905D01*
X6164048Y-13793476D02*
X6297381Y-13793476D01*
X6211667Y-13993476D01*
X6525952Y-13993476D02*
X6525952Y-13793476D01*
X6611667Y-13993476D02*
X6611667Y-13888714D01*
X6602143Y-13869667D01*
X6583095Y-13860143D01*
X6554524Y-13860143D01*
X6535476Y-13869667D01*
X6525952Y-13879190D01*
X6735476Y-13993476D02*
X6716428Y-13983952D01*
X6706905Y-13974428D01*
X6697381Y-13955381D01*
X6697381Y-13898238D01*
X6706905Y-13879190D01*
X6716428Y-13869667D01*
X6735476Y-13860143D01*
X6764048Y-13860143D01*
X6783095Y-13869667D01*
X6792619Y-13879190D01*
X6802143Y-13898238D01*
X6802143Y-13955381D01*
X6792619Y-13974428D01*
X6783095Y-13983952D01*
X6764048Y-13993476D01*
X6735476Y-13993476D01*
X6916428Y-13993476D02*
X6897381Y-13983952D01*
X6887857Y-13964905D01*
X6887857Y-13793476D01*
X7068809Y-13983952D02*
X7049762Y-13993476D01*
X7011667Y-13993476D01*
X6992619Y-13983952D01*
X6983095Y-13964905D01*
X6983095Y-13888714D01*
X6992619Y-13869667D01*
X7011667Y-13860143D01*
X7049762Y-13860143D01*
X7068809Y-13869667D01*
X7078333Y-13888714D01*
X7078333Y-13907762D01*
X6983095Y-13926809D01*
X7154524Y-13983952D02*
X7173571Y-13993476D01*
X7211667Y-13993476D01*
X7230714Y-13983952D01*
X7240238Y-13964905D01*
X7240238Y-13955381D01*
X7230714Y-13936333D01*
X7211667Y-13926809D01*
X7183095Y-13926809D01*
X7164048Y-13917286D01*
X7154524Y-13898238D01*
X7154524Y-13888714D01*
X7164048Y-13869667D01*
X7183095Y-13860143D01*
X7211667Y-13860143D01*
X7230714Y-13869667D01*
X7306905Y-14069667D02*
X7316428Y-14060143D01*
X7335476Y-14031571D01*
X7345000Y-14012524D01*
X7354524Y-13983952D01*
X7364048Y-13936333D01*
X7364048Y-13898238D01*
X7354524Y-13850619D01*
X7345000Y-13822048D01*
X7335476Y-13803000D01*
X7316428Y-13774428D01*
X7306905Y-13764905D01*
D18*
X2415000Y-14107000D02*
X2535000Y-14227000D01*
X2535000Y-14107000D02*
X2415000Y-14227000D01*
X2475000Y-14107000D02*
X2475000Y-14227000D01*
X2415000Y-14167000D02*
X2535000Y-14167000D01*
D11*
X2897381Y-14257476D02*
X2783095Y-14257476D01*
X2840238Y-14257476D02*
X2840238Y-14057476D01*
X2821190Y-14086048D01*
X2802143Y-14105095D01*
X2783095Y-14114619D01*
X2983095Y-14238428D02*
X2992619Y-14247952D01*
X2983095Y-14257476D01*
X2973571Y-14247952D01*
X2983095Y-14238428D01*
X2983095Y-14257476D01*
X3068809Y-14076524D02*
X3078333Y-14067000D01*
X3097381Y-14057476D01*
X3145000Y-14057476D01*
X3164048Y-14067000D01*
X3173571Y-14076524D01*
X3183095Y-14095571D01*
X3183095Y-14114619D01*
X3173571Y-14143190D01*
X3059286Y-14257476D01*
X3183095Y-14257476D01*
X3306905Y-14057476D02*
X3325952Y-14057476D01*
X3345000Y-14067000D01*
X3354524Y-14076524D01*
X3364048Y-14095571D01*
X3373571Y-14133667D01*
X3373571Y-14181286D01*
X3364048Y-14219381D01*
X3354524Y-14238428D01*
X3345000Y-14247952D01*
X3325952Y-14257476D01*
X3306905Y-14257476D01*
X3287857Y-14247952D01*
X3278333Y-14238428D01*
X3268809Y-14219381D01*
X3259286Y-14181286D01*
X3259286Y-14133667D01*
X3268809Y-14095571D01*
X3278333Y-14076524D01*
X3287857Y-14067000D01*
X3306905Y-14057476D01*
X3497381Y-14057476D02*
X3516428Y-14057476D01*
X3535476Y-14067000D01*
X3545000Y-14076524D01*
X3554524Y-14095571D01*
X3564048Y-14133667D01*
X3564048Y-14181286D01*
X3554524Y-14219381D01*
X3545000Y-14238428D01*
X3535476Y-14247952D01*
X3516428Y-14257476D01*
X3497381Y-14257476D01*
X3478333Y-14247952D01*
X3468809Y-14238428D01*
X3459286Y-14219381D01*
X3449762Y-14181286D01*
X3449762Y-14133667D01*
X3459286Y-14095571D01*
X3468809Y-14076524D01*
X3478333Y-14067000D01*
X3497381Y-14057476D01*
X3649762Y-14257476D02*
X3649762Y-14124143D01*
X3649762Y-14143190D02*
X3659286Y-14133667D01*
X3678333Y-14124143D01*
X3706905Y-14124143D01*
X3725952Y-14133667D01*
X3735476Y-14152714D01*
X3735476Y-14257476D01*
X3735476Y-14152714D02*
X3745000Y-14133667D01*
X3764048Y-14124143D01*
X3792619Y-14124143D01*
X3811667Y-14133667D01*
X3821190Y-14152714D01*
X3821190Y-14257476D01*
X3916428Y-14257476D02*
X3916428Y-14124143D01*
X3916428Y-14143190D02*
X3925952Y-14133667D01*
X3945000Y-14124143D01*
X3973571Y-14124143D01*
X3992619Y-14133667D01*
X4002143Y-14152714D01*
X4002143Y-14257476D01*
X4002143Y-14152714D02*
X4011667Y-14133667D01*
X4030714Y-14124143D01*
X4059286Y-14124143D01*
X4078333Y-14133667D01*
X4087857Y-14152714D01*
X4087857Y-14257476D01*
X4478333Y-14047952D02*
X4306905Y-14305095D01*
X4735476Y-14057476D02*
X4754524Y-14057476D01*
X4773571Y-14067000D01*
X4783095Y-14076524D01*
X4792619Y-14095571D01*
X4802143Y-14133667D01*
X4802143Y-14181286D01*
X4792619Y-14219381D01*
X4783095Y-14238428D01*
X4773571Y-14247952D01*
X4754524Y-14257476D01*
X4735476Y-14257476D01*
X4716429Y-14247952D01*
X4706905Y-14238428D01*
X4697381Y-14219381D01*
X4687857Y-14181286D01*
X4687857Y-14133667D01*
X4697381Y-14095571D01*
X4706905Y-14076524D01*
X4716429Y-14067000D01*
X4735476Y-14057476D01*
X4887857Y-14238428D02*
X4897381Y-14247952D01*
X4887857Y-14257476D01*
X4878333Y-14247952D01*
X4887857Y-14238428D01*
X4887857Y-14257476D01*
X5021190Y-14057476D02*
X5040238Y-14057476D01*
X5059286Y-14067000D01*
X5068810Y-14076524D01*
X5078333Y-14095571D01*
X5087857Y-14133667D01*
X5087857Y-14181286D01*
X5078333Y-14219381D01*
X5068810Y-14238428D01*
X5059286Y-14247952D01*
X5040238Y-14257476D01*
X5021190Y-14257476D01*
X5002143Y-14247952D01*
X4992619Y-14238428D01*
X4983095Y-14219381D01*
X4973571Y-14181286D01*
X4973571Y-14133667D01*
X4983095Y-14095571D01*
X4992619Y-14076524D01*
X5002143Y-14067000D01*
X5021190Y-14057476D01*
X5259286Y-14124143D02*
X5259286Y-14257476D01*
X5211667Y-14047952D02*
X5164048Y-14190809D01*
X5287857Y-14190809D01*
X5345000Y-14057476D02*
X5478333Y-14057476D01*
X5392619Y-14257476D01*
X5545000Y-14076524D02*
X5554524Y-14067000D01*
X5573571Y-14057476D01*
X5621190Y-14057476D01*
X5640238Y-14067000D01*
X5649762Y-14076524D01*
X5659286Y-14095571D01*
X5659286Y-14114619D01*
X5649762Y-14143190D01*
X5535476Y-14257476D01*
X5659286Y-14257476D01*
X5735476Y-14057476D02*
X5735476Y-14095571D01*
X5811667Y-14057476D02*
X5811667Y-14095571D01*
X6106905Y-14333667D02*
X6097381Y-14324143D01*
X6078333Y-14295571D01*
X6068809Y-14276524D01*
X6059286Y-14247952D01*
X6049762Y-14200333D01*
X6049762Y-14162238D01*
X6059286Y-14114619D01*
X6068809Y-14086048D01*
X6078333Y-14067000D01*
X6097381Y-14038428D01*
X6106905Y-14028905D01*
X6164048Y-14057476D02*
X6287857Y-14057476D01*
X6221190Y-14133667D01*
X6249762Y-14133667D01*
X6268809Y-14143190D01*
X6278333Y-14152714D01*
X6287857Y-14171762D01*
X6287857Y-14219381D01*
X6278333Y-14238428D01*
X6268809Y-14247952D01*
X6249762Y-14257476D01*
X6192619Y-14257476D01*
X6173571Y-14247952D01*
X6164048Y-14238428D01*
X6459286Y-14057476D02*
X6421190Y-14057476D01*
X6402143Y-14067000D01*
X6392619Y-14076524D01*
X6373571Y-14105095D01*
X6364048Y-14143190D01*
X6364048Y-14219381D01*
X6373571Y-14238428D01*
X6383095Y-14247952D01*
X6402143Y-14257476D01*
X6440238Y-14257476D01*
X6459286Y-14247952D01*
X6468809Y-14238428D01*
X6478333Y-14219381D01*
X6478333Y-14171762D01*
X6468809Y-14152714D01*
X6459286Y-14143190D01*
X6440238Y-14133667D01*
X6402143Y-14133667D01*
X6383095Y-14143190D01*
X6373571Y-14152714D01*
X6364048Y-14171762D01*
X6716428Y-14257476D02*
X6716428Y-14057476D01*
X6802143Y-14257476D02*
X6802143Y-14152714D01*
X6792619Y-14133667D01*
X6773571Y-14124143D01*
X6745000Y-14124143D01*
X6725952Y-14133667D01*
X6716428Y-14143190D01*
X6925952Y-14257476D02*
X6906905Y-14247952D01*
X6897381Y-14238428D01*
X6887857Y-14219381D01*
X6887857Y-14162238D01*
X6897381Y-14143190D01*
X6906905Y-14133667D01*
X6925952Y-14124143D01*
X6954524Y-14124143D01*
X6973571Y-14133667D01*
X6983095Y-14143190D01*
X6992619Y-14162238D01*
X6992619Y-14219381D01*
X6983095Y-14238428D01*
X6973571Y-14247952D01*
X6954524Y-14257476D01*
X6925952Y-14257476D01*
X7106905Y-14257476D02*
X7087857Y-14247952D01*
X7078333Y-14228905D01*
X7078333Y-14057476D01*
X7259286Y-14247952D02*
X7240238Y-14257476D01*
X7202143Y-14257476D01*
X7183095Y-14247952D01*
X7173571Y-14228905D01*
X7173571Y-14152714D01*
X7183095Y-14133667D01*
X7202143Y-14124143D01*
X7240238Y-14124143D01*
X7259286Y-14133667D01*
X7268809Y-14152714D01*
X7268809Y-14171762D01*
X7173571Y-14190809D01*
X7345000Y-14247952D02*
X7364048Y-14257476D01*
X7402143Y-14257476D01*
X7421190Y-14247952D01*
X7430714Y-14228905D01*
X7430714Y-14219381D01*
X7421190Y-14200333D01*
X7402143Y-14190809D01*
X7373571Y-14190809D01*
X7354524Y-14181286D01*
X7345000Y-14162238D01*
X7345000Y-14152714D01*
X7354524Y-14133667D01*
X7373571Y-14124143D01*
X7402143Y-14124143D01*
X7421190Y-14133667D01*
X7497381Y-14333667D02*
X7506905Y-14324143D01*
X7525952Y-14295571D01*
X7535476Y-14276524D01*
X7545000Y-14247952D01*
X7554524Y-14200333D01*
X7554524Y-14162238D01*
X7545000Y-14114619D01*
X7535476Y-14086048D01*
X7525952Y-14067000D01*
X7506905Y-14038428D01*
X7497381Y-14028905D01*
X2335000Y-14331000D02*
X2535000Y-14531000D01*
X2535000Y-14331000D02*
X2335000Y-14531000D01*
X2505711Y-14501711D02*
X2505711Y-14360289D01*
X2364289Y-14360289D01*
X2364289Y-14501711D01*
X2505711Y-14501711D01*
X2783095Y-14340524D02*
X2792619Y-14331000D01*
X2811667Y-14321476D01*
X2859286Y-14321476D01*
X2878333Y-14331000D01*
X2887857Y-14340524D01*
X2897381Y-14359571D01*
X2897381Y-14378619D01*
X2887857Y-14407190D01*
X2773571Y-14521476D01*
X2897381Y-14521476D01*
X2983095Y-14502428D02*
X2992619Y-14511952D01*
X2983095Y-14521476D01*
X2973571Y-14511952D01*
X2983095Y-14502428D01*
X2983095Y-14521476D01*
X3068809Y-14340524D02*
X3078333Y-14331000D01*
X3097381Y-14321476D01*
X3145000Y-14321476D01*
X3164048Y-14331000D01*
X3173571Y-14340524D01*
X3183095Y-14359571D01*
X3183095Y-14378619D01*
X3173571Y-14407190D01*
X3059286Y-14521476D01*
X3183095Y-14521476D01*
X3306905Y-14321476D02*
X3325952Y-14321476D01*
X3345000Y-14331000D01*
X3354524Y-14340524D01*
X3364048Y-14359571D01*
X3373571Y-14397667D01*
X3373571Y-14445286D01*
X3364048Y-14483381D01*
X3354524Y-14502428D01*
X3345000Y-14511952D01*
X3325952Y-14521476D01*
X3306905Y-14521476D01*
X3287857Y-14511952D01*
X3278333Y-14502428D01*
X3268809Y-14483381D01*
X3259286Y-14445286D01*
X3259286Y-14397667D01*
X3268809Y-14359571D01*
X3278333Y-14340524D01*
X3287857Y-14331000D01*
X3306905Y-14321476D01*
X3497381Y-14321476D02*
X3516428Y-14321476D01*
X3535476Y-14331000D01*
X3545000Y-14340524D01*
X3554524Y-14359571D01*
X3564048Y-14397667D01*
X3564048Y-14445286D01*
X3554524Y-14483381D01*
X3545000Y-14502428D01*
X3535476Y-14511952D01*
X3516428Y-14521476D01*
X3497381Y-14521476D01*
X3478333Y-14511952D01*
X3468809Y-14502428D01*
X3459286Y-14483381D01*
X3449762Y-14445286D01*
X3449762Y-14397667D01*
X3459286Y-14359571D01*
X3468809Y-14340524D01*
X3478333Y-14331000D01*
X3497381Y-14321476D01*
X3649762Y-14521476D02*
X3649762Y-14388143D01*
X3649762Y-14407190D02*
X3659286Y-14397667D01*
X3678333Y-14388143D01*
X3706905Y-14388143D01*
X3725952Y-14397667D01*
X3735476Y-14416714D01*
X3735476Y-14521476D01*
X3735476Y-14416714D02*
X3745000Y-14397667D01*
X3764048Y-14388143D01*
X3792619Y-14388143D01*
X3811667Y-14397667D01*
X3821190Y-14416714D01*
X3821190Y-14521476D01*
X3916428Y-14521476D02*
X3916428Y-14388143D01*
X3916428Y-14407190D02*
X3925952Y-14397667D01*
X3945000Y-14388143D01*
X3973571Y-14388143D01*
X3992619Y-14397667D01*
X4002143Y-14416714D01*
X4002143Y-14521476D01*
X4002143Y-14416714D02*
X4011667Y-14397667D01*
X4030714Y-14388143D01*
X4059286Y-14388143D01*
X4078333Y-14397667D01*
X4087857Y-14416714D01*
X4087857Y-14521476D01*
X4478333Y-14311952D02*
X4306905Y-14569095D01*
X4735476Y-14321476D02*
X4754524Y-14321476D01*
X4773571Y-14331000D01*
X4783095Y-14340524D01*
X4792619Y-14359571D01*
X4802143Y-14397667D01*
X4802143Y-14445286D01*
X4792619Y-14483381D01*
X4783095Y-14502428D01*
X4773571Y-14511952D01*
X4754524Y-14521476D01*
X4735476Y-14521476D01*
X4716429Y-14511952D01*
X4706905Y-14502428D01*
X4697381Y-14483381D01*
X4687857Y-14445286D01*
X4687857Y-14397667D01*
X4697381Y-14359571D01*
X4706905Y-14340524D01*
X4716429Y-14331000D01*
X4735476Y-14321476D01*
X4887857Y-14502428D02*
X4897381Y-14511952D01*
X4887857Y-14521476D01*
X4878333Y-14511952D01*
X4887857Y-14502428D01*
X4887857Y-14521476D01*
X5021190Y-14321476D02*
X5040238Y-14321476D01*
X5059286Y-14331000D01*
X5068810Y-14340524D01*
X5078333Y-14359571D01*
X5087857Y-14397667D01*
X5087857Y-14445286D01*
X5078333Y-14483381D01*
X5068810Y-14502428D01*
X5059286Y-14511952D01*
X5040238Y-14521476D01*
X5021190Y-14521476D01*
X5002143Y-14511952D01*
X4992619Y-14502428D01*
X4983095Y-14483381D01*
X4973571Y-14445286D01*
X4973571Y-14397667D01*
X4983095Y-14359571D01*
X4992619Y-14340524D01*
X5002143Y-14331000D01*
X5021190Y-14321476D01*
X5202143Y-14407190D02*
X5183095Y-14397667D01*
X5173571Y-14388143D01*
X5164048Y-14369095D01*
X5164048Y-14359571D01*
X5173571Y-14340524D01*
X5183095Y-14331000D01*
X5202143Y-14321476D01*
X5240238Y-14321476D01*
X5259286Y-14331000D01*
X5268810Y-14340524D01*
X5278333Y-14359571D01*
X5278333Y-14369095D01*
X5268810Y-14388143D01*
X5259286Y-14397667D01*
X5240238Y-14407190D01*
X5202143Y-14407190D01*
X5183095Y-14416714D01*
X5173571Y-14426238D01*
X5164048Y-14445286D01*
X5164048Y-14483381D01*
X5173571Y-14502428D01*
X5183095Y-14511952D01*
X5202143Y-14521476D01*
X5240238Y-14521476D01*
X5259286Y-14511952D01*
X5268810Y-14502428D01*
X5278333Y-14483381D01*
X5278333Y-14445286D01*
X5268810Y-14426238D01*
X5259286Y-14416714D01*
X5240238Y-14407190D01*
X5449762Y-14321476D02*
X5411667Y-14321476D01*
X5392619Y-14331000D01*
X5383095Y-14340524D01*
X5364048Y-14369095D01*
X5354524Y-14407190D01*
X5354524Y-14483381D01*
X5364048Y-14502428D01*
X5373571Y-14511952D01*
X5392619Y-14521476D01*
X5430714Y-14521476D01*
X5449762Y-14511952D01*
X5459286Y-14502428D01*
X5468810Y-14483381D01*
X5468810Y-14435762D01*
X5459286Y-14416714D01*
X5449762Y-14407190D01*
X5430714Y-14397667D01*
X5392619Y-14397667D01*
X5373571Y-14407190D01*
X5364048Y-14416714D01*
X5354524Y-14435762D01*
X5640238Y-14321476D02*
X5602143Y-14321476D01*
X5583095Y-14331000D01*
X5573571Y-14340524D01*
X5554524Y-14369095D01*
X5545000Y-14407190D01*
X5545000Y-14483381D01*
X5554524Y-14502428D01*
X5564048Y-14511952D01*
X5583095Y-14521476D01*
X5621190Y-14521476D01*
X5640238Y-14511952D01*
X5649762Y-14502428D01*
X5659286Y-14483381D01*
X5659286Y-14435762D01*
X5649762Y-14416714D01*
X5640238Y-14407190D01*
X5621190Y-14397667D01*
X5583095Y-14397667D01*
X5564048Y-14407190D01*
X5554524Y-14416714D01*
X5545000Y-14435762D01*
X5735476Y-14321476D02*
X5735476Y-14359571D01*
X5811667Y-14321476D02*
X5811667Y-14359571D01*
X6106905Y-14597667D02*
X6097381Y-14588143D01*
X6078333Y-14559571D01*
X6068809Y-14540524D01*
X6059286Y-14511952D01*
X6049762Y-14464333D01*
X6049762Y-14426238D01*
X6059286Y-14378619D01*
X6068809Y-14350048D01*
X6078333Y-14331000D01*
X6097381Y-14302428D01*
X6106905Y-14292905D01*
X6268809Y-14388143D02*
X6268809Y-14521476D01*
X6221190Y-14311952D02*
X6173571Y-14454809D01*
X6297381Y-14454809D01*
X6525952Y-14521476D02*
X6525952Y-14321476D01*
X6611667Y-14521476D02*
X6611667Y-14416714D01*
X6602143Y-14397667D01*
X6583095Y-14388143D01*
X6554524Y-14388143D01*
X6535476Y-14397667D01*
X6525952Y-14407190D01*
X6735476Y-14521476D02*
X6716428Y-14511952D01*
X6706905Y-14502428D01*
X6697381Y-14483381D01*
X6697381Y-14426238D01*
X6706905Y-14407190D01*
X6716428Y-14397667D01*
X6735476Y-14388143D01*
X6764048Y-14388143D01*
X6783095Y-14397667D01*
X6792619Y-14407190D01*
X6802143Y-14426238D01*
X6802143Y-14483381D01*
X6792619Y-14502428D01*
X6783095Y-14511952D01*
X6764048Y-14521476D01*
X6735476Y-14521476D01*
X6916428Y-14521476D02*
X6897381Y-14511952D01*
X6887857Y-14492905D01*
X6887857Y-14321476D01*
X7068809Y-14511952D02*
X7049762Y-14521476D01*
X7011667Y-14521476D01*
X6992619Y-14511952D01*
X6983095Y-14492905D01*
X6983095Y-14416714D01*
X6992619Y-14397667D01*
X7011667Y-14388143D01*
X7049762Y-14388143D01*
X7068809Y-14397667D01*
X7078333Y-14416714D01*
X7078333Y-14435762D01*
X6983095Y-14454809D01*
X7154524Y-14511952D02*
X7173571Y-14521476D01*
X7211667Y-14521476D01*
X7230714Y-14511952D01*
X7240238Y-14492905D01*
X7240238Y-14483381D01*
X7230714Y-14464333D01*
X7211667Y-14454809D01*
X7183095Y-14454809D01*
X7164048Y-14445286D01*
X7154524Y-14426238D01*
X7154524Y-14416714D01*
X7164048Y-14397667D01*
X7183095Y-14388143D01*
X7211667Y-14388143D01*
X7230714Y-14397667D01*
X7306905Y-14597667D02*
X7316428Y-14588143D01*
X7335476Y-14559571D01*
X7345000Y-14540524D01*
X7354524Y-14511952D01*
X7364048Y-14464333D01*
X7364048Y-14426238D01*
X7354524Y-14378619D01*
X7345000Y-14350048D01*
X7335476Y-14331000D01*
X7316428Y-14302428D01*
X7306905Y-14292905D01*
M02*
