M48
; DRILL file {KiCad (6.0.1)} date Sun Feb  6 00:08:49 2022
; FORMAT={-:-/ absolute / metric / decimal}
; #@! TF.CreationDate,2022-02-06T00:08:49-05:00
; #@! TF.GenerationSoftware,Kicad,Pcbnew,(6.0.1)
; #@! TF.FileFunction,Plated,1,4,PTH
FMAT,2
METRIC
; #@! TA.AperFunction,Plated,PTH,ViaDrill
T1C0.400
; #@! TA.AperFunction,Plated,PTH,ComponentDrill
T2C0.700
; #@! TA.AperFunction,Plated,PTH,ComponentDrill
T3C0.762
; #@! TA.AperFunction,Plated,PTH,ComponentDrill
T4C0.800
; #@! TA.AperFunction,Plated,PTH,ComponentDrill
T5C1.000
; #@! TA.AperFunction,Plated,PTH,ComponentDrill
T6C1.100
; #@! TA.AperFunction,Plated,PTH,ComponentDrill
T7C1.200
; #@! TA.AperFunction,Plated,PTH,ComponentDrill
T8C2.200
%
G90
G05
T1
X35.624Y-66.04
X35.624Y-68.58
X35.624Y-71.12
X36.83Y-74.295
X40.64Y-71.12
X43.18Y-65.405
X43.815Y-62.865
X46.99Y-83.82
X50.8Y-60.96
X52.07Y-83.82
X53.975Y-75.565
X54.61Y-72.39
X57.15Y-83.82
X67.945Y-50.8
X68.58Y-84.455
X69.85Y-60.96
X71.12Y-67.31
X72.39Y-73.025
X84.473Y-46.373
X90.182Y-37.465
X90.182Y-45.72
X93.472Y-41.675
X96.532Y-37.465
X96.532Y-45.72
T2
X38.1Y-101.6
X38.1Y-104.14
X38.1Y-106.68
X40.64Y-101.6
X40.64Y-104.14
X40.64Y-106.68
X43.154Y-109.202
X43.18Y-101.6
X43.18Y-104.14
X43.18Y-106.68
X43.18Y-111.76
X45.711Y-109.202
X45.711Y-111.759
X45.72Y-101.6
X45.72Y-104.14
X45.72Y-106.68
X48.242Y-109.202
X48.26Y-101.6
X48.26Y-104.14
X48.26Y-106.68
X48.26Y-111.76
X50.8Y-101.6
X50.8Y-104.14
X50.8Y-106.68
X50.8Y-109.22
X50.8Y-111.76
X53.33Y-106.671
X53.33Y-111.759
X53.34Y-101.6
X53.34Y-104.14
X53.34Y-109.22
X55.88Y-101.6
X55.88Y-104.14
X55.88Y-106.68
X55.88Y-109.22
X55.88Y-111.76
X58.419Y-104.14
X58.42Y-106.68
X58.42Y-109.22
X58.42Y-111.76
X60.96Y-106.68
X60.96Y-109.22
X60.96Y-111.76
X63.482Y-109.22
X63.5Y-106.68
X63.5Y-111.76
X66.031Y-111.751
X66.04Y-106.68
X66.04Y-109.22
X68.58Y-106.671
X68.58Y-109.22
X71.12Y-106.68
X71.12Y-109.22
T3
X62.11Y-64.255
X62.11Y-66.795
X62.11Y-69.335
X62.11Y-71.875
X62.11Y-74.415
X62.11Y-76.955
X62.11Y-79.495
X62.11Y-82.035
X62.11Y-84.575
X62.11Y-87.115
X62.11Y-89.655
X62.11Y-92.195
X62.11Y-94.735
X62.11Y-97.275
X62.11Y-99.815
X62.11Y-102.355
X64.65Y-64.255
X64.65Y-66.795
X64.65Y-69.335
X64.65Y-71.875
X64.65Y-74.415
X64.65Y-76.955
X64.65Y-79.495
X64.65Y-82.035
X64.65Y-84.575
X64.65Y-87.115
X64.65Y-89.655
X64.65Y-92.195
X64.65Y-94.735
X64.65Y-97.275
X64.65Y-99.815
X64.65Y-102.355
X67.19Y-99.815
X67.19Y-102.355
X69.73Y-99.815
X69.73Y-102.355
X72.27Y-99.815
X72.27Y-102.355
X95.13Y-51.555
X95.13Y-54.095
X95.13Y-56.635
X95.13Y-59.175
X95.13Y-61.715
X95.13Y-64.255
X95.13Y-66.795
X95.13Y-69.335
X95.13Y-71.875
X95.13Y-74.415
X95.13Y-76.955
X95.13Y-79.495
X95.13Y-82.035
X95.13Y-84.575
X95.13Y-87.115
X95.13Y-89.655
X95.13Y-92.195
X95.13Y-94.735
X95.13Y-97.275
X95.13Y-99.815
X95.13Y-102.355
X97.67Y-51.555
X97.67Y-54.095
X97.67Y-56.635
X97.67Y-59.175
X97.67Y-61.715
X97.67Y-64.255
X97.67Y-66.795
X97.67Y-69.335
X97.67Y-71.875
X97.67Y-74.415
X97.67Y-76.955
X97.67Y-79.495
X97.67Y-82.035
X97.67Y-84.575
X97.67Y-87.115
X97.67Y-89.655
X97.67Y-92.195
X97.67Y-94.735
X97.67Y-97.275
X97.67Y-99.815
X97.67Y-102.355
T4
X41.034Y-55.245
X41.034Y-67.945
X41.34Y-50.165
X43.574Y-55.245
X43.574Y-67.945
X43.84Y-50.165
X43.875Y-43.45
X46.114Y-55.245
X46.114Y-67.945
X48.654Y-55.245
X48.654Y-67.945
X51.194Y-55.245
X51.194Y-67.945
X51.375Y-45.45
X53.734Y-55.245
X53.734Y-67.945
X56.274Y-55.245
X56.274Y-67.945
X58.814Y-55.245
X58.814Y-67.945
X71.96Y-81.26
X71.96Y-88.88
X74.5Y-81.26
X74.5Y-88.88
X77.04Y-81.26
X77.04Y-88.88
X79.58Y-81.26
X79.58Y-88.88
X80.02Y-105.602
X80.02Y-113.222
X82.56Y-105.602
X82.56Y-113.222
X83.195Y-53.33
X83.195Y-60.95
X83.195Y-64.457
X83.195Y-72.078
X85.1Y-105.602
X85.1Y-113.222
X85.735Y-53.33
X85.735Y-60.95
X85.735Y-64.457
X85.735Y-72.078
X87.64Y-105.602
X87.64Y-113.222
X88.275Y-53.33
X88.275Y-60.95
X88.275Y-64.457
X88.275Y-72.078
X90.815Y-53.33
X90.815Y-60.95
X90.815Y-64.457
X90.815Y-72.078
T5
X39.37Y-82.55
X39.37Y-110.49
X48.26Y-74.93
X48.26Y-77.47
X50.785Y-51.816
X53.325Y-51.816
X55.865Y-51.816
X74.93Y-106.045
X74.93Y-113.03
X88.145Y-90.155
X88.145Y-92.695
X88.145Y-95.235
X90.685Y-90.155
X90.685Y-92.695
X90.685Y-95.235
X94.61Y-105.612
X94.61Y-109.422
X94.61Y-113.233
X97.15Y-105.612
X97.15Y-109.422
X97.15Y-113.233
X100.845Y-51.555
X100.845Y-54.095
X100.845Y-56.635
X100.845Y-59.175
X100.845Y-61.715
X100.845Y-64.255
T6
X38.395Y-90.805
X38.395Y-93.345
X38.395Y-95.885
X70.879Y-96.52
X75.324Y-100.965
X78.499Y-96.52
X82.944Y-100.965
T7
X30.02Y-59.6
X30.02Y-61.8
X30.02Y-64.0
X30.02Y-66.2
X30.02Y-68.4
X30.02Y-70.6
X30.02Y-72.8
X30.02Y-75.0
X30.02Y-77.2
X30.02Y-79.4
X30.02Y-81.6
X30.02Y-83.8
X30.02Y-86.0
X30.02Y-88.2
X30.02Y-90.4
X30.02Y-92.6
X30.02Y-95.4
X30.02Y-98.2
X33.02Y-59.6
X33.02Y-61.8
X33.02Y-64.0
X33.02Y-66.2
X33.02Y-68.4
X33.02Y-70.6
X33.02Y-72.8
X33.02Y-75.0
X33.02Y-77.2
X33.02Y-79.4
X33.02Y-81.6
X33.02Y-83.8
X33.02Y-86.0
X33.02Y-88.2
X33.02Y-90.4
X33.02Y-92.6
X33.02Y-95.4
X33.02Y-98.2
T8
X29.845Y-43.815
X29.845Y-114.808
X101.6Y-36.576
X102.108Y-116.332
T0
M30
