G04 #@! TF.GenerationSoftware,KiCad,Pcbnew,(6.0.1)*
G04 #@! TF.CreationDate,2022-02-06T00:08:44-05:00*
G04 #@! TF.ProjectId,klxecu,6b6c7865-6375-42e6-9b69-6361645f7063,rev?*
G04 #@! TF.SameCoordinates,Original*
G04 #@! TF.FileFunction,Paste,Top*
G04 #@! TF.FilePolarity,Positive*
%FSLAX46Y46*%
G04 Gerber Fmt 4.6, Leading zero omitted, Abs format (unit mm)*
G04 Created by KiCad (PCBNEW (6.0.1)) date 2022-02-06 00:08:44*
%MOMM*%
%LPD*%
G01*
G04 APERTURE LIST*
G04 Aperture macros list*
%AMRoundRect*
0 Rectangle with rounded corners*
0 $1 Rounding radius*
0 $2 $3 $4 $5 $6 $7 $8 $9 X,Y pos of 4 corners*
0 Add a 4 corners polygon primitive as box body*
4,1,4,$2,$3,$4,$5,$6,$7,$8,$9,$2,$3,0*
0 Add four circle primitives for the rounded corners*
1,1,$1+$1,$2,$3*
1,1,$1+$1,$4,$5*
1,1,$1+$1,$6,$7*
1,1,$1+$1,$8,$9*
0 Add four rect primitives between the rounded corners*
20,1,$1+$1,$2,$3,$4,$5,0*
20,1,$1+$1,$4,$5,$6,$7,0*
20,1,$1+$1,$6,$7,$8,$9,0*
20,1,$1+$1,$8,$9,$2,$3,0*%
G04 Aperture macros list end*
%ADD10RoundRect,0.250000X-0.337500X-0.475000X0.337500X-0.475000X0.337500X0.475000X-0.337500X0.475000X0*%
%ADD11R,4.550000X5.250000*%
%ADD12R,4.600000X1.100000*%
%ADD13RoundRect,0.250000X-0.262500X-0.450000X0.262500X-0.450000X0.262500X0.450000X-0.262500X0.450000X0*%
%ADD14RoundRect,0.250000X-0.450000X0.350000X-0.450000X-0.350000X0.450000X-0.350000X0.450000X0.350000X0*%
%ADD15RoundRect,0.250000X-0.350000X-0.450000X0.350000X-0.450000X0.350000X0.450000X-0.350000X0.450000X0*%
%ADD16RoundRect,0.250000X0.350000X0.450000X-0.350000X0.450000X-0.350000X-0.450000X0.350000X-0.450000X0*%
%ADD17RoundRect,0.250000X0.450000X-0.262500X0.450000X0.262500X-0.450000X0.262500X-0.450000X-0.262500X0*%
%ADD18RoundRect,0.150000X0.587500X0.150000X-0.587500X0.150000X-0.587500X-0.150000X0.587500X-0.150000X0*%
%ADD19R,2.500000X2.300000*%
%ADD20R,2.500000X1.800000*%
%ADD21RoundRect,0.250000X0.250000X0.475000X-0.250000X0.475000X-0.250000X-0.475000X0.250000X-0.475000X0*%
%ADD22RoundRect,0.250000X0.337500X0.475000X-0.337500X0.475000X-0.337500X-0.475000X0.337500X-0.475000X0*%
%ADD23RoundRect,0.250000X-0.475000X0.337500X-0.475000X-0.337500X0.475000X-0.337500X0.475000X0.337500X0*%
%ADD24RoundRect,0.250000X0.412500X0.925000X-0.412500X0.925000X-0.412500X-0.925000X0.412500X-0.925000X0*%
%ADD25RoundRect,0.250000X-0.250000X-0.475000X0.250000X-0.475000X0.250000X0.475000X-0.250000X0.475000X0*%
%ADD26RoundRect,0.250000X0.787500X1.025000X-0.787500X1.025000X-0.787500X-1.025000X0.787500X-1.025000X0*%
G04 APERTURE END LIST*
D10*
X64735000Y-55245000D03*
X66810000Y-55245000D03*
D11*
X91047000Y-44450000D03*
X95897000Y-44450000D03*
X95897000Y-38900000D03*
X91047000Y-38900000D03*
D12*
X84322000Y-39135000D03*
X84322000Y-41675000D03*
X84322000Y-44215000D03*
D13*
X68302500Y-113665000D03*
X70127500Y-113665000D03*
D14*
X90805000Y-109787500D03*
X90805000Y-107787500D03*
D15*
X89805000Y-99060000D03*
X91805000Y-99060000D03*
X79375000Y-52705000D03*
X77375000Y-52705000D03*
X56150000Y-72390000D03*
X58150000Y-72390000D03*
X52340000Y-61192500D03*
X54340000Y-61192500D03*
X75295000Y-52705000D03*
X73295000Y-52705000D03*
X70852500Y-52705000D03*
X68852500Y-52705000D03*
X66772500Y-52705000D03*
X64772500Y-52705000D03*
X77187500Y-63555000D03*
X79187500Y-63555000D03*
X46625000Y-61192500D03*
X48625000Y-61192500D03*
X79375000Y-57785000D03*
X77375000Y-57785000D03*
X73107500Y-63555000D03*
X75107500Y-63555000D03*
D16*
X75107500Y-68580000D03*
X73107500Y-68580000D03*
D15*
X73332500Y-57785000D03*
X75332500Y-57785000D03*
D17*
X100965000Y-73302500D03*
X100965000Y-71477500D03*
X100965000Y-69492500D03*
X100965000Y-67667500D03*
D18*
X40277500Y-78420000D03*
X40277500Y-76520000D03*
X38402500Y-77470000D03*
X44117500Y-83500000D03*
X44117500Y-81600000D03*
X42242500Y-82550000D03*
X52402500Y-82550000D03*
X54277500Y-81600000D03*
X54277500Y-83500000D03*
X43482500Y-77470000D03*
X45357500Y-76520000D03*
X45357500Y-78420000D03*
X49197500Y-83500000D03*
X49197500Y-81600000D03*
X47322500Y-82550000D03*
X57482500Y-82550000D03*
X59357500Y-81600000D03*
X59357500Y-83500000D03*
D19*
X79248000Y-46355000D03*
X74948000Y-46355000D03*
D20*
X73692000Y-39370000D03*
X77692000Y-39370000D03*
D21*
X91755000Y-101600000D03*
X89855000Y-101600000D03*
D22*
X79412500Y-55245000D03*
X77337500Y-55245000D03*
D23*
X58420000Y-74527500D03*
X58420000Y-76602500D03*
X54610000Y-63097500D03*
X54610000Y-65172500D03*
D10*
X73257500Y-55245000D03*
X75332500Y-55245000D03*
D23*
X55880000Y-74527500D03*
X55880000Y-76602500D03*
X52070000Y-63097500D03*
X52070000Y-65172500D03*
D22*
X68815000Y-55245000D03*
X70890000Y-55245000D03*
D10*
X77150000Y-66095000D03*
X79225000Y-66095000D03*
D23*
X48895000Y-63097500D03*
X48895000Y-65172500D03*
D22*
X79412500Y-60325000D03*
X77337500Y-60325000D03*
X75145000Y-66095000D03*
X73070000Y-66095000D03*
D23*
X46355000Y-63097500D03*
X46355000Y-65172500D03*
D10*
X75370000Y-60325000D03*
X73295000Y-60325000D03*
D24*
X71641500Y-45720000D03*
X68566500Y-45720000D03*
D21*
X73340000Y-49784000D03*
X71440000Y-49784000D03*
D25*
X67630000Y-41910000D03*
X69530000Y-41910000D03*
D26*
X65342500Y-45720000D03*
X59117500Y-45720000D03*
M02*
