G04 #@! TF.GenerationSoftware,KiCad,Pcbnew,(6.0.1)*
G04 #@! TF.CreationDate,2022-02-06T00:08:44-05:00*
G04 #@! TF.ProjectId,klxecu,6b6c7865-6375-42e6-9b69-6361645f7063,rev?*
G04 #@! TF.SameCoordinates,Original*
G04 #@! TF.FileFunction,Soldermask,Top*
G04 #@! TF.FilePolarity,Negative*
%FSLAX46Y46*%
G04 Gerber Fmt 4.6, Leading zero omitted, Abs format (unit mm)*
G04 Created by KiCad (PCBNEW (6.0.1)) date 2022-02-06 00:08:44*
%MOMM*%
%LPD*%
G01*
G04 APERTURE LIST*
G04 Aperture macros list*
%AMRoundRect*
0 Rectangle with rounded corners*
0 $1 Rounding radius*
0 $2 $3 $4 $5 $6 $7 $8 $9 X,Y pos of 4 corners*
0 Add a 4 corners polygon primitive as box body*
4,1,4,$2,$3,$4,$5,$6,$7,$8,$9,$2,$3,0*
0 Add four circle primitives for the rounded corners*
1,1,$1+$1,$2,$3*
1,1,$1+$1,$4,$5*
1,1,$1+$1,$6,$7*
1,1,$1+$1,$8,$9*
0 Add four rect primitives between the rounded corners*
20,1,$1+$1,$2,$3,$4,$5,0*
20,1,$1+$1,$4,$5,$6,$7,0*
20,1,$1+$1,$6,$7,$8,$9,0*
20,1,$1+$1,$8,$9,$2,$3,0*%
G04 Aperture macros list end*
%ADD10C,4.400000*%
%ADD11C,1.500000*%
%ADD12R,1.700000X1.700000*%
%ADD13O,1.700000X1.700000*%
%ADD14O,3.500000X3.500000*%
%ADD15R,2.000000X1.905000*%
%ADD16O,2.000000X1.905000*%
%ADD17RoundRect,0.250000X-0.337500X-0.475000X0.337500X-0.475000X0.337500X0.475000X-0.337500X0.475000X0*%
%ADD18R,1.600000X1.600000*%
%ADD19O,1.600000X1.600000*%
%ADD20C,1.524000*%
%ADD21R,4.600000X1.100000*%
%ADD22R,9.400000X10.800000*%
%ADD23C,1.800000*%
%ADD24RoundRect,0.250000X-0.262500X-0.450000X0.262500X-0.450000X0.262500X0.450000X-0.262500X0.450000X0*%
%ADD25RoundRect,0.250000X-0.450000X0.350000X-0.450000X-0.350000X0.450000X-0.350000X0.450000X0.350000X0*%
%ADD26RoundRect,0.250000X-0.350000X-0.450000X0.350000X-0.450000X0.350000X0.450000X-0.350000X0.450000X0*%
%ADD27RoundRect,0.250000X0.350000X0.450000X-0.350000X0.450000X-0.350000X-0.450000X0.350000X-0.450000X0*%
%ADD28RoundRect,0.250000X0.450000X-0.262500X0.450000X0.262500X-0.450000X0.262500X-0.450000X-0.262500X0*%
%ADD29RoundRect,0.150000X0.587500X0.150000X-0.587500X0.150000X-0.587500X-0.150000X0.587500X-0.150000X0*%
%ADD30R,1.000000X1.500000*%
%ADD31O,2.200000X2.200000*%
%ADD32R,2.200000X2.200000*%
%ADD33R,2.500000X2.300000*%
%ADD34R,2.500000X1.800000*%
%ADD35C,1.600000*%
%ADD36RoundRect,0.250000X0.250000X0.475000X-0.250000X0.475000X-0.250000X-0.475000X0.250000X-0.475000X0*%
%ADD37RoundRect,0.250000X0.337500X0.475000X-0.337500X0.475000X-0.337500X-0.475000X0.337500X-0.475000X0*%
%ADD38RoundRect,0.250000X-0.475000X0.337500X-0.475000X-0.337500X0.475000X-0.337500X0.475000X0.337500X0*%
%ADD39RoundRect,0.250000X0.412500X0.925000X-0.412500X0.925000X-0.412500X-0.925000X0.412500X-0.925000X0*%
%ADD40RoundRect,0.250000X-0.250000X-0.475000X0.250000X-0.475000X0.250000X0.475000X-0.250000X0.475000X0*%
%ADD41RoundRect,0.250000X0.787500X1.025000X-0.787500X1.025000X-0.787500X-1.025000X0.787500X-1.025000X0*%
%ADD42C,3.800000*%
%ADD43C,1.700000*%
G04 APERTURE END LIST*
D10*
X101600000Y-36576000D03*
X102108000Y-116332000D03*
D11*
X50800000Y-101600000D03*
X48260000Y-101600000D03*
X45720000Y-101600000D03*
X38100000Y-101600000D03*
X40640000Y-101600000D03*
X71120000Y-109220000D03*
X71120000Y-106680000D03*
X68579523Y-109220000D03*
X68579523Y-106671449D03*
X66030973Y-111750973D03*
X66040000Y-109220000D03*
X66040000Y-106680000D03*
X63500000Y-111760000D03*
X63482423Y-109219999D03*
X63500000Y-106680000D03*
X60960000Y-111760000D03*
X60960000Y-109220000D03*
X60960000Y-106680000D03*
X58420000Y-111760000D03*
X58420000Y-109220000D03*
X55880000Y-111760000D03*
X55880000Y-109220000D03*
X53330259Y-111759285D03*
X53340000Y-109220000D03*
X50800000Y-111760000D03*
X50800000Y-109220000D03*
X48260000Y-111760000D03*
X48241947Y-109201947D03*
X45710973Y-109201947D03*
X45710973Y-111759285D03*
X43180000Y-111760000D03*
X43153635Y-109201947D03*
X58418571Y-104139999D03*
X58420000Y-106680000D03*
X55880000Y-106680000D03*
X53330259Y-106670973D03*
X50800000Y-106680000D03*
X48260000Y-106680000D03*
X45720000Y-106680000D03*
X43180000Y-106680000D03*
X40640000Y-106680000D03*
X38100000Y-106680000D03*
X38100000Y-104140000D03*
X40640000Y-104140000D03*
X43180000Y-104140000D03*
X45720000Y-104140000D03*
X48260000Y-104140000D03*
X50800000Y-104140000D03*
X53340000Y-104140000D03*
X55880000Y-104140000D03*
X55880000Y-101600000D03*
X53340000Y-101600000D03*
X43180000Y-101600000D03*
D12*
X39370000Y-110490000D03*
X74930000Y-113030000D03*
X74930000Y-106045000D03*
X94610000Y-109422500D03*
D13*
X97150000Y-109422500D03*
D12*
X94610000Y-113232500D03*
D13*
X97150000Y-113232500D03*
X97150000Y-105612500D03*
D12*
X94610000Y-105612500D03*
D14*
X55055000Y-93345000D03*
D15*
X38395000Y-90805000D03*
D16*
X38395000Y-93345000D03*
X38395000Y-95885000D03*
D17*
X64735000Y-55245000D03*
X66810000Y-55245000D03*
D18*
X58814022Y-55245000D03*
D19*
X56274022Y-55245000D03*
X53734022Y-55245000D03*
X51194022Y-55245000D03*
X48654022Y-55245000D03*
X46114022Y-55245000D03*
X43574022Y-55245000D03*
X41034022Y-55245000D03*
X41034022Y-67945000D03*
X43574022Y-67945000D03*
X46114022Y-67945000D03*
X48654022Y-67945000D03*
X51194022Y-67945000D03*
X53734022Y-67945000D03*
X56274022Y-67945000D03*
X58814022Y-67945000D03*
D18*
X80020000Y-113222500D03*
D19*
X82560000Y-113222500D03*
X85100000Y-113222500D03*
X87640000Y-113222500D03*
X87640000Y-105602500D03*
X85100000Y-105602500D03*
X82560000Y-105602500D03*
X80020000Y-105602500D03*
D20*
X95129511Y-51555489D03*
X97669511Y-51555489D03*
X97669511Y-64255489D03*
X95129511Y-64255489D03*
X97669511Y-61715489D03*
X97669511Y-54095489D03*
X95129511Y-54095489D03*
X72269511Y-99815489D03*
X72269511Y-102355489D03*
X69729511Y-99815489D03*
X69729511Y-102355489D03*
X67189511Y-99815489D03*
X67189511Y-102355489D03*
X64649511Y-102355489D03*
X62109511Y-102355489D03*
X64649511Y-99815489D03*
X62109511Y-99815489D03*
X64649511Y-97275489D03*
X62109511Y-97275489D03*
X64649511Y-94735489D03*
X62109511Y-94735489D03*
X64649511Y-92195489D03*
X62109511Y-92195489D03*
X64649511Y-89655489D03*
X62109511Y-89655489D03*
X64649511Y-87115489D03*
X62109511Y-87115489D03*
X64649511Y-84575489D03*
X62109511Y-84575489D03*
X97669511Y-102355489D03*
X95129511Y-102355489D03*
X97669511Y-99815489D03*
X95129511Y-99815489D03*
X97669511Y-97275489D03*
X95129511Y-97275489D03*
X97669511Y-94735489D03*
X95129511Y-94735489D03*
X97669511Y-92195489D03*
X95129511Y-92195489D03*
X97669511Y-89655489D03*
X95129511Y-89655489D03*
X97669511Y-87115489D03*
X95129511Y-87115489D03*
X97669511Y-84575489D03*
X95129511Y-84575489D03*
X97669511Y-82035489D03*
X95129511Y-82035489D03*
X97669511Y-79495489D03*
X95129511Y-79495489D03*
X97669511Y-76955489D03*
X95129511Y-76955489D03*
X97669511Y-74415489D03*
X95129511Y-74415489D03*
X97669511Y-71875489D03*
X95129511Y-71875489D03*
X97669511Y-69335489D03*
X95129511Y-69335489D03*
X97669511Y-66795489D03*
X95129511Y-66795489D03*
X95129511Y-61715489D03*
X64649511Y-82035489D03*
X62109511Y-82035489D03*
X64649511Y-79495489D03*
X62109511Y-79495489D03*
X64649511Y-76955489D03*
X62109511Y-76955489D03*
X64649511Y-74415489D03*
X62109511Y-74415489D03*
X64649511Y-71875489D03*
X62109511Y-71875489D03*
X64649511Y-69335489D03*
X62109511Y-69335489D03*
X64649511Y-66795489D03*
X62109511Y-66795489D03*
X64649511Y-64255489D03*
X62109511Y-64255489D03*
X95129511Y-56635489D03*
X97669511Y-56635489D03*
X95129511Y-59175489D03*
X97669511Y-59175489D03*
D21*
X84322000Y-39135000D03*
D22*
X93472000Y-41675000D03*
D21*
X84322000Y-41675000D03*
X84322000Y-44215000D03*
D23*
X51375000Y-45450000D03*
X43875000Y-43450000D03*
D24*
X68302500Y-113665000D03*
X70127500Y-113665000D03*
D25*
X90805000Y-109787500D03*
X90805000Y-107787500D03*
D26*
X89805000Y-99060000D03*
X91805000Y-99060000D03*
X79375000Y-52705000D03*
X77375000Y-52705000D03*
X56150000Y-72390000D03*
X58150000Y-72390000D03*
X52340000Y-61192500D03*
X54340000Y-61192500D03*
X75295000Y-52705000D03*
X73295000Y-52705000D03*
X70852500Y-52705000D03*
X68852500Y-52705000D03*
X66772500Y-52705000D03*
X64772500Y-52705000D03*
X77187500Y-63555000D03*
X79187500Y-63555000D03*
X46625000Y-61192500D03*
X48625000Y-61192500D03*
X79375000Y-57785000D03*
X77375000Y-57785000D03*
X73107500Y-63555000D03*
X75107500Y-63555000D03*
D27*
X75107500Y-68580000D03*
X73107500Y-68580000D03*
D26*
X73332500Y-57785000D03*
X75332500Y-57785000D03*
D28*
X100965000Y-73302500D03*
X100965000Y-71477500D03*
X100965000Y-69492500D03*
X100965000Y-67667500D03*
D29*
X40277500Y-78420000D03*
X40277500Y-76520000D03*
X38402500Y-77470000D03*
X44117500Y-83500000D03*
X44117500Y-81600000D03*
X42242500Y-82550000D03*
X52402500Y-82550000D03*
X54277500Y-81600000D03*
X54277500Y-83500000D03*
X43482500Y-77470000D03*
X45357500Y-76520000D03*
X45357500Y-78420000D03*
X49197500Y-83500000D03*
X49197500Y-81600000D03*
X47322500Y-82550000D03*
X57482500Y-82550000D03*
X59357500Y-81600000D03*
X59357500Y-83500000D03*
D30*
X84440000Y-50292000D03*
X85740000Y-50292000D03*
D12*
X48260000Y-74930000D03*
D13*
X48260000Y-77470000D03*
X50785000Y-51816000D03*
X53325000Y-51816000D03*
D12*
X55865000Y-51816000D03*
X39370000Y-82550000D03*
D19*
X71959511Y-81260489D03*
X74499511Y-81260489D03*
X77039511Y-81260489D03*
X79579511Y-81260489D03*
X79579511Y-88880489D03*
X77039511Y-88880489D03*
X74499511Y-88880489D03*
D18*
X71959511Y-88880489D03*
D19*
X83195000Y-53330000D03*
X85735000Y-53330000D03*
X88275000Y-53330000D03*
X90815000Y-53330000D03*
X90815000Y-60950000D03*
X88275000Y-60950000D03*
X85735000Y-60950000D03*
D18*
X83195000Y-60950000D03*
D12*
X100844511Y-51555489D03*
D13*
X100844511Y-54095489D03*
X100844511Y-56635489D03*
X100844511Y-59175489D03*
X100844511Y-61715489D03*
X100844511Y-64255489D03*
D12*
X90684511Y-95235000D03*
D13*
X88144511Y-95235000D03*
X90684511Y-92695000D03*
X88144511Y-92695000D03*
X90684511Y-90155000D03*
X88144511Y-90155000D03*
D18*
X83195000Y-72077500D03*
D19*
X85735000Y-72077500D03*
X88275000Y-72077500D03*
X90815000Y-72077500D03*
X90815000Y-64457500D03*
X88275000Y-64457500D03*
X85735000Y-64457500D03*
X83195000Y-64457500D03*
D31*
X82944022Y-100965000D03*
D32*
X75324022Y-100965000D03*
X78499022Y-96520000D03*
D31*
X70879022Y-96520000D03*
D33*
X79248000Y-46355000D03*
X74948000Y-46355000D03*
D34*
X73692000Y-39370000D03*
X77692000Y-39370000D03*
D35*
X43839887Y-50165000D03*
D18*
X41339887Y-50165000D03*
D36*
X91755000Y-101600000D03*
X89855000Y-101600000D03*
D37*
X79412500Y-55245000D03*
X77337500Y-55245000D03*
D38*
X58420000Y-74527500D03*
X58420000Y-76602500D03*
X54610000Y-63097500D03*
X54610000Y-65172500D03*
D17*
X73257500Y-55245000D03*
X75332500Y-55245000D03*
D38*
X55880000Y-74527500D03*
X55880000Y-76602500D03*
X52070000Y-63097500D03*
X52070000Y-65172500D03*
D37*
X68815000Y-55245000D03*
X70890000Y-55245000D03*
D17*
X77150000Y-66095000D03*
X79225000Y-66095000D03*
D38*
X48895000Y-63097500D03*
X48895000Y-65172500D03*
D37*
X79412500Y-60325000D03*
X77337500Y-60325000D03*
X75145000Y-66095000D03*
X73070000Y-66095000D03*
D38*
X46355000Y-63097500D03*
X46355000Y-65172500D03*
D17*
X75370000Y-60325000D03*
X73295000Y-60325000D03*
D39*
X71641500Y-45720000D03*
X68566500Y-45720000D03*
D36*
X73340000Y-49784000D03*
X71440000Y-49784000D03*
D40*
X67630000Y-41910000D03*
X69530000Y-41910000D03*
D41*
X65342500Y-45720000D03*
X59117500Y-45720000D03*
D42*
X29720000Y-104400000D03*
X29720000Y-53400000D03*
D43*
X33020000Y-59600000D03*
X33020000Y-61800000D03*
X33020000Y-64000000D03*
X33020000Y-66200000D03*
X33020000Y-68400000D03*
X33020000Y-70600000D03*
X33020000Y-72800000D03*
X33020000Y-75000000D03*
X33020000Y-77200000D03*
X33020000Y-79400000D03*
X33020000Y-81600000D03*
X33020000Y-83800000D03*
X33020000Y-86000000D03*
X33020000Y-88200000D03*
X33020000Y-90400000D03*
X33020000Y-92600000D03*
X33020000Y-95400000D03*
X33020000Y-98200000D03*
X30020000Y-59600000D03*
X30020000Y-61800000D03*
X30020000Y-64000000D03*
X30020000Y-66200000D03*
X30020000Y-68400000D03*
X30020000Y-70600000D03*
X30020000Y-72800000D03*
X30020000Y-75000000D03*
X30020000Y-77200000D03*
X30020000Y-79400000D03*
X30020000Y-81600000D03*
X30020000Y-83800000D03*
X30020000Y-86000000D03*
X30020000Y-88200000D03*
X30020000Y-90400000D03*
X30020000Y-92600000D03*
X30020000Y-95400000D03*
X30020000Y-98200000D03*
D10*
X29845000Y-43815000D03*
X29845000Y-114808000D03*
M02*
