G04 #@! TF.GenerationSoftware,KiCad,Pcbnew,(6.0.1)*
G04 #@! TF.CreationDate,2022-02-06T00:08:44-05:00*
G04 #@! TF.ProjectId,klxecu,6b6c7865-6375-42e6-9b69-6361645f7063,rev?*
G04 #@! TF.SameCoordinates,Original*
G04 #@! TF.FileFunction,Legend,Top*
G04 #@! TF.FilePolarity,Positive*
%FSLAX46Y46*%
G04 Gerber Fmt 4.6, Leading zero omitted, Abs format (unit mm)*
G04 Created by KiCad (PCBNEW (6.0.1)) date 2022-02-06 00:08:44*
%MOMM*%
%LPD*%
G01*
G04 APERTURE LIST*
G04 Aperture macros list*
%AMRoundRect*
0 Rectangle with rounded corners*
0 $1 Rounding radius*
0 $2 $3 $4 $5 $6 $7 $8 $9 X,Y pos of 4 corners*
0 Add a 4 corners polygon primitive as box body*
4,1,4,$2,$3,$4,$5,$6,$7,$8,$9,$2,$3,0*
0 Add four circle primitives for the rounded corners*
1,1,$1+$1,$2,$3*
1,1,$1+$1,$4,$5*
1,1,$1+$1,$6,$7*
1,1,$1+$1,$8,$9*
0 Add four rect primitives between the rounded corners*
20,1,$1+$1,$2,$3,$4,$5,0*
20,1,$1+$1,$4,$5,$6,$7,0*
20,1,$1+$1,$6,$7,$8,$9,0*
20,1,$1+$1,$8,$9,$2,$3,0*%
G04 Aperture macros list end*
%ADD10C,0.150000*%
%ADD11C,0.120000*%
%ADD12C,4.400000*%
%ADD13C,1.500000*%
%ADD14R,1.700000X1.700000*%
%ADD15O,1.700000X1.700000*%
%ADD16O,3.500000X3.500000*%
%ADD17R,2.000000X1.905000*%
%ADD18O,2.000000X1.905000*%
%ADD19RoundRect,0.250000X-0.337500X-0.475000X0.337500X-0.475000X0.337500X0.475000X-0.337500X0.475000X0*%
%ADD20R,1.600000X1.600000*%
%ADD21O,1.600000X1.600000*%
%ADD22C,1.524000*%
%ADD23R,4.600000X1.100000*%
%ADD24R,9.400000X10.800000*%
%ADD25C,1.800000*%
%ADD26RoundRect,0.250000X-0.262500X-0.450000X0.262500X-0.450000X0.262500X0.450000X-0.262500X0.450000X0*%
%ADD27RoundRect,0.250000X-0.450000X0.350000X-0.450000X-0.350000X0.450000X-0.350000X0.450000X0.350000X0*%
%ADD28RoundRect,0.250000X-0.350000X-0.450000X0.350000X-0.450000X0.350000X0.450000X-0.350000X0.450000X0*%
%ADD29RoundRect,0.250000X0.350000X0.450000X-0.350000X0.450000X-0.350000X-0.450000X0.350000X-0.450000X0*%
%ADD30RoundRect,0.250000X0.450000X-0.262500X0.450000X0.262500X-0.450000X0.262500X-0.450000X-0.262500X0*%
%ADD31RoundRect,0.150000X0.587500X0.150000X-0.587500X0.150000X-0.587500X-0.150000X0.587500X-0.150000X0*%
%ADD32R,1.000000X1.500000*%
%ADD33O,2.200000X2.200000*%
%ADD34R,2.200000X2.200000*%
%ADD35R,2.500000X2.300000*%
%ADD36R,2.500000X1.800000*%
%ADD37C,1.600000*%
%ADD38RoundRect,0.250000X0.250000X0.475000X-0.250000X0.475000X-0.250000X-0.475000X0.250000X-0.475000X0*%
%ADD39RoundRect,0.250000X0.337500X0.475000X-0.337500X0.475000X-0.337500X-0.475000X0.337500X-0.475000X0*%
%ADD40RoundRect,0.250000X-0.475000X0.337500X-0.475000X-0.337500X0.475000X-0.337500X0.475000X0.337500X0*%
%ADD41RoundRect,0.250000X0.412500X0.925000X-0.412500X0.925000X-0.412500X-0.925000X0.412500X-0.925000X0*%
%ADD42RoundRect,0.250000X-0.250000X-0.475000X0.250000X-0.475000X0.250000X0.475000X-0.250000X0.475000X0*%
%ADD43RoundRect,0.250000X0.787500X1.025000X-0.787500X1.025000X-0.787500X-1.025000X0.787500X-1.025000X0*%
%ADD44C,3.800000*%
%ADD45C,1.700000*%
G04 APERTURE END LIST*
D10*
X59602619Y-51879523D02*
X59602619Y-51403333D01*
X59126428Y-51355714D01*
X59174047Y-51403333D01*
X59221666Y-51498571D01*
X59221666Y-51736666D01*
X59174047Y-51831904D01*
X59126428Y-51879523D01*
X59031190Y-51927142D01*
X58793095Y-51927142D01*
X58697857Y-51879523D01*
X58650238Y-51831904D01*
X58602619Y-51736666D01*
X58602619Y-51498571D01*
X58650238Y-51403333D01*
X58697857Y-51355714D01*
X59602619Y-52212857D02*
X58602619Y-52546190D01*
X59602619Y-52879523D01*
X48077380Y-52689047D02*
X48077380Y-53260476D01*
X48077380Y-52974761D02*
X47077380Y-52974761D01*
X47220238Y-53070000D01*
X47315476Y-53165238D01*
X47363095Y-53260476D01*
X47172619Y-52308095D02*
X47125000Y-52260476D01*
X47077380Y-52165238D01*
X47077380Y-51927142D01*
X47125000Y-51831904D01*
X47172619Y-51784285D01*
X47267857Y-51736666D01*
X47363095Y-51736666D01*
X47505952Y-51784285D01*
X48077380Y-52355714D01*
X48077380Y-51736666D01*
X47077380Y-51450952D02*
X48077380Y-51117619D01*
X47077380Y-50784285D01*
X48459047Y-48982380D02*
X48792380Y-49982380D01*
X49125714Y-48982380D01*
X49459047Y-49982380D02*
X49459047Y-48982380D01*
X49697142Y-48982380D01*
X49840000Y-49030000D01*
X49935238Y-49125238D01*
X49982857Y-49220476D01*
X50030476Y-49410952D01*
X50030476Y-49553809D01*
X49982857Y-49744285D01*
X49935238Y-49839523D01*
X49840000Y-49934761D01*
X49697142Y-49982380D01*
X49459047Y-49982380D01*
X50459047Y-49982380D02*
X50459047Y-49315714D01*
X50459047Y-49506190D02*
X50506666Y-49410952D01*
X50554285Y-49363333D01*
X50649523Y-49315714D01*
X50744761Y-49315714D01*
X51078095Y-49982380D02*
X51078095Y-49315714D01*
X51078095Y-48982380D02*
X51030476Y-49030000D01*
X51078095Y-49077619D01*
X51125714Y-49030000D01*
X51078095Y-48982380D01*
X51078095Y-49077619D01*
X51459047Y-49315714D02*
X51697142Y-49982380D01*
X51935238Y-49315714D01*
X52697142Y-49934761D02*
X52601904Y-49982380D01*
X52411428Y-49982380D01*
X52316190Y-49934761D01*
X52268571Y-49839523D01*
X52268571Y-49458571D01*
X52316190Y-49363333D01*
X52411428Y-49315714D01*
X52601904Y-49315714D01*
X52697142Y-49363333D01*
X52744761Y-49458571D01*
X52744761Y-49553809D01*
X52268571Y-49649047D01*
X53887619Y-49934761D02*
X54030476Y-49982380D01*
X54268571Y-49982380D01*
X54363809Y-49934761D01*
X54411428Y-49887142D01*
X54459047Y-49791904D01*
X54459047Y-49696666D01*
X54411428Y-49601428D01*
X54363809Y-49553809D01*
X54268571Y-49506190D01*
X54078095Y-49458571D01*
X53982857Y-49410952D01*
X53935238Y-49363333D01*
X53887619Y-49268095D01*
X53887619Y-49172857D01*
X53935238Y-49077619D01*
X53982857Y-49030000D01*
X54078095Y-48982380D01*
X54316190Y-48982380D01*
X54459047Y-49030000D01*
X55268571Y-49934761D02*
X55173333Y-49982380D01*
X54982857Y-49982380D01*
X54887619Y-49934761D01*
X54840000Y-49839523D01*
X54840000Y-49458571D01*
X54887619Y-49363333D01*
X54982857Y-49315714D01*
X55173333Y-49315714D01*
X55268571Y-49363333D01*
X55316190Y-49458571D01*
X55316190Y-49553809D01*
X54840000Y-49649047D01*
X55887619Y-49982380D02*
X55792380Y-49934761D01*
X55744761Y-49839523D01*
X55744761Y-48982380D01*
X56649523Y-49934761D02*
X56554285Y-49982380D01*
X56363809Y-49982380D01*
X56268571Y-49934761D01*
X56220952Y-49839523D01*
X56220952Y-49458571D01*
X56268571Y-49363333D01*
X56363809Y-49315714D01*
X56554285Y-49315714D01*
X56649523Y-49363333D01*
X56697142Y-49458571D01*
X56697142Y-49553809D01*
X56220952Y-49649047D01*
X57554285Y-49934761D02*
X57459047Y-49982380D01*
X57268571Y-49982380D01*
X57173333Y-49934761D01*
X57125714Y-49887142D01*
X57078095Y-49791904D01*
X57078095Y-49506190D01*
X57125714Y-49410952D01*
X57173333Y-49363333D01*
X57268571Y-49315714D01*
X57459047Y-49315714D01*
X57554285Y-49363333D01*
X57840000Y-49315714D02*
X58220952Y-49315714D01*
X57982857Y-48982380D02*
X57982857Y-49839523D01*
X58030476Y-49934761D01*
X58125714Y-49982380D01*
X58220952Y-49982380D01*
X45316000Y-58570761D02*
X45458857Y-58618380D01*
X45696952Y-58618380D01*
X45792190Y-58570761D01*
X45839809Y-58523142D01*
X45887428Y-58427904D01*
X45887428Y-58332666D01*
X45839809Y-58237428D01*
X45792190Y-58189809D01*
X45696952Y-58142190D01*
X45506476Y-58094571D01*
X45411238Y-58046952D01*
X45363619Y-57999333D01*
X45316000Y-57904095D01*
X45316000Y-57808857D01*
X45363619Y-57713619D01*
X45411238Y-57666000D01*
X45506476Y-57618380D01*
X45744571Y-57618380D01*
X45887428Y-57666000D01*
X46744571Y-57951714D02*
X46744571Y-58618380D01*
X46316000Y-57951714D02*
X46316000Y-58475523D01*
X46363619Y-58570761D01*
X46458857Y-58618380D01*
X46601714Y-58618380D01*
X46696952Y-58570761D01*
X46744571Y-58523142D01*
X47220761Y-58618380D02*
X47220761Y-57618380D01*
X47220761Y-57999333D02*
X47316000Y-57951714D01*
X47506476Y-57951714D01*
X47601714Y-57999333D01*
X47649333Y-58046952D01*
X47696952Y-58142190D01*
X47696952Y-58427904D01*
X47649333Y-58523142D01*
X47601714Y-58570761D01*
X47506476Y-58618380D01*
X47316000Y-58618380D01*
X47220761Y-58570761D01*
X47982666Y-57951714D02*
X48363619Y-57951714D01*
X48125523Y-57618380D02*
X48125523Y-58475523D01*
X48173142Y-58570761D01*
X48268380Y-58618380D01*
X48363619Y-58618380D01*
X48696952Y-58618380D02*
X48696952Y-57618380D01*
X49125523Y-58618380D02*
X49125523Y-58094571D01*
X49077904Y-57999333D01*
X48982666Y-57951714D01*
X48839809Y-57951714D01*
X48744571Y-57999333D01*
X48696952Y-58046952D01*
X49601714Y-58618380D02*
X49601714Y-57951714D01*
X49601714Y-58142190D02*
X49649333Y-58046952D01*
X49696952Y-57999333D01*
X49792190Y-57951714D01*
X49887428Y-57951714D01*
X50363619Y-58618380D02*
X50268380Y-58570761D01*
X50220761Y-58523142D01*
X50173142Y-58427904D01*
X50173142Y-58142190D01*
X50220761Y-58046952D01*
X50268380Y-57999333D01*
X50363619Y-57951714D01*
X50506476Y-57951714D01*
X50601714Y-57999333D01*
X50649333Y-58046952D01*
X50696952Y-58142190D01*
X50696952Y-58427904D01*
X50649333Y-58523142D01*
X50601714Y-58570761D01*
X50506476Y-58618380D01*
X50363619Y-58618380D01*
X50982666Y-57951714D02*
X51363619Y-57951714D01*
X51125523Y-57618380D02*
X51125523Y-58475523D01*
X51173142Y-58570761D01*
X51268380Y-58618380D01*
X51363619Y-58618380D01*
X51554095Y-57951714D02*
X51935047Y-57951714D01*
X51696952Y-57618380D02*
X51696952Y-58475523D01*
X51744571Y-58570761D01*
X51839809Y-58618380D01*
X51935047Y-58618380D01*
X52411238Y-58618380D02*
X52315999Y-58570761D01*
X52268380Y-58475523D01*
X52268380Y-57618380D01*
X53173142Y-58570761D02*
X53077904Y-58618380D01*
X52887428Y-58618380D01*
X52792190Y-58570761D01*
X52744571Y-58475523D01*
X52744571Y-58094571D01*
X52792190Y-57999333D01*
X52887428Y-57951714D01*
X53077904Y-57951714D01*
X53173142Y-57999333D01*
X53220761Y-58094571D01*
X53220761Y-58189809D01*
X52744571Y-58285047D01*
X54411238Y-58618380D02*
X54411238Y-57618380D01*
X54649333Y-57618380D01*
X54792190Y-57666000D01*
X54887428Y-57761238D01*
X54935047Y-57856476D01*
X54982666Y-58046952D01*
X54982666Y-58189809D01*
X54935047Y-58380285D01*
X54887428Y-58475523D01*
X54792190Y-58570761D01*
X54649333Y-58618380D01*
X54411238Y-58618380D01*
X55411238Y-58618380D02*
X55411238Y-57951714D01*
X55411238Y-58142190D02*
X55458857Y-58046952D01*
X55506476Y-57999333D01*
X55601714Y-57951714D01*
X55696952Y-57951714D01*
X56030285Y-58618380D02*
X56030285Y-57951714D01*
X56030285Y-57618380D02*
X55982666Y-57666000D01*
X56030285Y-57713619D01*
X56077904Y-57666000D01*
X56030285Y-57618380D01*
X56030285Y-57713619D01*
X56411238Y-57951714D02*
X56649333Y-58618380D01*
X56887428Y-57951714D01*
X57649333Y-58570761D02*
X57554095Y-58618380D01*
X57363619Y-58618380D01*
X57268380Y-58570761D01*
X57220761Y-58475523D01*
X57220761Y-58094571D01*
X57268380Y-57999333D01*
X57363619Y-57951714D01*
X57554095Y-57951714D01*
X57649333Y-57999333D01*
X57696952Y-58094571D01*
X57696952Y-58189809D01*
X57220761Y-58285047D01*
X58125523Y-58618380D02*
X58125523Y-57951714D01*
X58125523Y-58142190D02*
X58173142Y-58046952D01*
X58220761Y-57999333D01*
X58315999Y-57951714D01*
X58411238Y-57951714D01*
X44681238Y-114101619D02*
X44871714Y-113958761D01*
X45062190Y-114101619D01*
X46728857Y-114911142D02*
X46681238Y-114958761D01*
X46538380Y-115006380D01*
X46443142Y-115006380D01*
X46300285Y-114958761D01*
X46205047Y-114863523D01*
X46157428Y-114768285D01*
X46109809Y-114577809D01*
X46109809Y-114434952D01*
X46157428Y-114244476D01*
X46205047Y-114149238D01*
X46300285Y-114054000D01*
X46443142Y-114006380D01*
X46538380Y-114006380D01*
X46681238Y-114054000D01*
X46728857Y-114101619D01*
X47157428Y-115006380D02*
X47157428Y-114006380D01*
X47395523Y-114006380D01*
X47538380Y-114054000D01*
X47633619Y-114149238D01*
X47681238Y-114244476D01*
X47728857Y-114434952D01*
X47728857Y-114577809D01*
X47681238Y-114768285D01*
X47633619Y-114863523D01*
X47538380Y-114958761D01*
X47395523Y-115006380D01*
X47157428Y-115006380D01*
X48157428Y-115006380D02*
X48157428Y-114006380D01*
X49395523Y-115006380D02*
X49395523Y-114006380D01*
X49776476Y-114006380D01*
X49871714Y-114054000D01*
X49919333Y-114101619D01*
X49966952Y-114196857D01*
X49966952Y-114339714D01*
X49919333Y-114434952D01*
X49871714Y-114482571D01*
X49776476Y-114530190D01*
X49395523Y-114530190D01*
X50395523Y-115006380D02*
X50395523Y-114339714D01*
X50395523Y-114530190D02*
X50443142Y-114434952D01*
X50490761Y-114387333D01*
X50586000Y-114339714D01*
X50681238Y-114339714D01*
X51157428Y-115006380D02*
X51062190Y-114958761D01*
X51014571Y-114911142D01*
X50966952Y-114815904D01*
X50966952Y-114530190D01*
X51014571Y-114434952D01*
X51062190Y-114387333D01*
X51157428Y-114339714D01*
X51300285Y-114339714D01*
X51395523Y-114387333D01*
X51443142Y-114434952D01*
X51490761Y-114530190D01*
X51490761Y-114815904D01*
X51443142Y-114911142D01*
X51395523Y-114958761D01*
X51300285Y-115006380D01*
X51157428Y-115006380D01*
X51776476Y-114339714D02*
X52157428Y-114339714D01*
X51919333Y-114006380D02*
X51919333Y-114863523D01*
X51966952Y-114958761D01*
X52062190Y-115006380D01*
X52157428Y-115006380D01*
X52633619Y-115006380D02*
X52538380Y-114958761D01*
X52490761Y-114911142D01*
X52443142Y-114815904D01*
X52443142Y-114530190D01*
X52490761Y-114434952D01*
X52538380Y-114387333D01*
X52633619Y-114339714D01*
X52776476Y-114339714D01*
X52871714Y-114387333D01*
X52919333Y-114434952D01*
X52966952Y-114530190D01*
X52966952Y-114815904D01*
X52919333Y-114911142D01*
X52871714Y-114958761D01*
X52776476Y-115006380D01*
X52633619Y-115006380D01*
X53252666Y-114339714D02*
X53633619Y-114339714D01*
X53395523Y-114006380D02*
X53395523Y-114863523D01*
X53443142Y-114958761D01*
X53538380Y-115006380D01*
X53633619Y-115006380D01*
X53871714Y-114339714D02*
X54109809Y-115006380D01*
X54347904Y-114339714D02*
X54109809Y-115006380D01*
X54014571Y-115244476D01*
X53966952Y-115292095D01*
X53871714Y-115339714D01*
X54728857Y-114339714D02*
X54728857Y-115339714D01*
X54728857Y-114387333D02*
X54824095Y-114339714D01*
X55014571Y-114339714D01*
X55109809Y-114387333D01*
X55157428Y-114434952D01*
X55205047Y-114530190D01*
X55205047Y-114815904D01*
X55157428Y-114911142D01*
X55109809Y-114958761D01*
X55014571Y-115006380D01*
X54824095Y-115006380D01*
X54728857Y-114958761D01*
X56014571Y-114958761D02*
X55919333Y-115006380D01*
X55728857Y-115006380D01*
X55633619Y-114958761D01*
X55586000Y-114863523D01*
X55586000Y-114482571D01*
X55633619Y-114387333D01*
X55728857Y-114339714D01*
X55919333Y-114339714D01*
X56014571Y-114387333D01*
X56062190Y-114482571D01*
X56062190Y-114577809D01*
X55586000Y-114673047D01*
X57205047Y-114720666D02*
X57681238Y-114720666D01*
X57109809Y-115006380D02*
X57443142Y-114006380D01*
X57776476Y-115006380D01*
X58109809Y-115006380D02*
X58109809Y-114339714D01*
X58109809Y-114530190D02*
X58157428Y-114434952D01*
X58205047Y-114387333D01*
X58300285Y-114339714D01*
X58395523Y-114339714D01*
X59109809Y-114958761D02*
X59014571Y-115006380D01*
X58824095Y-115006380D01*
X58728857Y-114958761D01*
X58681238Y-114863523D01*
X58681238Y-114482571D01*
X58728857Y-114387333D01*
X58824095Y-114339714D01*
X59014571Y-114339714D01*
X59109809Y-114387333D01*
X59157428Y-114482571D01*
X59157428Y-114577809D01*
X58681238Y-114673047D01*
X60014571Y-115006380D02*
X60014571Y-114482571D01*
X59966952Y-114387333D01*
X59871714Y-114339714D01*
X59681238Y-114339714D01*
X59586000Y-114387333D01*
X60014571Y-114958761D02*
X59919333Y-115006380D01*
X59681238Y-115006380D01*
X59586000Y-114958761D01*
X59538380Y-114863523D01*
X59538380Y-114768285D01*
X59586000Y-114673047D01*
X59681238Y-114625428D01*
X59919333Y-114625428D01*
X60014571Y-114577809D01*
X61109809Y-114101619D02*
X61300285Y-113958761D01*
X61490761Y-114101619D01*
X83050190Y-109121380D02*
X83050190Y-108121380D01*
X84050190Y-108169000D02*
X83954952Y-108121380D01*
X83812095Y-108121380D01*
X83669238Y-108169000D01*
X83574000Y-108264238D01*
X83526380Y-108359476D01*
X83478761Y-108549952D01*
X83478761Y-108692809D01*
X83526380Y-108883285D01*
X83574000Y-108978523D01*
X83669238Y-109073761D01*
X83812095Y-109121380D01*
X83907333Y-109121380D01*
X84050190Y-109073761D01*
X84097809Y-109026142D01*
X84097809Y-108692809D01*
X83907333Y-108692809D01*
X84526380Y-109121380D02*
X84526380Y-108121380D01*
X85097809Y-109121380D01*
X85097809Y-108121380D01*
X82145428Y-110731380D02*
X82145428Y-109731380D01*
X82383523Y-109731380D01*
X82526380Y-109779000D01*
X82621619Y-109874238D01*
X82669238Y-109969476D01*
X82716857Y-110159952D01*
X82716857Y-110302809D01*
X82669238Y-110493285D01*
X82621619Y-110588523D01*
X82526380Y-110683761D01*
X82383523Y-110731380D01*
X82145428Y-110731380D01*
X83145428Y-110731380D02*
X83145428Y-110064714D01*
X83145428Y-110255190D02*
X83193047Y-110159952D01*
X83240666Y-110112333D01*
X83335904Y-110064714D01*
X83431142Y-110064714D01*
X83764476Y-110731380D02*
X83764476Y-110064714D01*
X83764476Y-109731380D02*
X83716857Y-109779000D01*
X83764476Y-109826619D01*
X83812095Y-109779000D01*
X83764476Y-109731380D01*
X83764476Y-109826619D01*
X84145428Y-110064714D02*
X84383523Y-110731380D01*
X84621619Y-110064714D01*
X85383523Y-110683761D02*
X85288285Y-110731380D01*
X85097809Y-110731380D01*
X85002571Y-110683761D01*
X84954952Y-110588523D01*
X84954952Y-110207571D01*
X85002571Y-110112333D01*
X85097809Y-110064714D01*
X85288285Y-110064714D01*
X85383523Y-110112333D01*
X85431142Y-110207571D01*
X85431142Y-110302809D01*
X84954952Y-110398047D01*
X85859714Y-110731380D02*
X85859714Y-110064714D01*
X85859714Y-110255190D02*
X85907333Y-110159952D01*
X85954952Y-110112333D01*
X86050190Y-110064714D01*
X86145428Y-110064714D01*
X84494952Y-56495761D02*
X84637809Y-56543380D01*
X84875904Y-56543380D01*
X84971142Y-56495761D01*
X85018761Y-56448142D01*
X85066380Y-56352904D01*
X85066380Y-56257666D01*
X85018761Y-56162428D01*
X84971142Y-56114809D01*
X84875904Y-56067190D01*
X84685428Y-56019571D01*
X84590190Y-55971952D01*
X84542571Y-55924333D01*
X84494952Y-55829095D01*
X84494952Y-55733857D01*
X84542571Y-55638619D01*
X84590190Y-55591000D01*
X84685428Y-55543380D01*
X84923523Y-55543380D01*
X85066380Y-55591000D01*
X85923523Y-56543380D02*
X85923523Y-56019571D01*
X85875904Y-55924333D01*
X85780666Y-55876714D01*
X85590190Y-55876714D01*
X85494952Y-55924333D01*
X85923523Y-56495761D02*
X85828285Y-56543380D01*
X85590190Y-56543380D01*
X85494952Y-56495761D01*
X85447333Y-56400523D01*
X85447333Y-56305285D01*
X85494952Y-56210047D01*
X85590190Y-56162428D01*
X85828285Y-56162428D01*
X85923523Y-56114809D01*
X86256857Y-55876714D02*
X86637809Y-55876714D01*
X86399714Y-56543380D02*
X86399714Y-55686238D01*
X86447333Y-55591000D01*
X86542571Y-55543380D01*
X86637809Y-55543380D01*
X87352095Y-56495761D02*
X87256857Y-56543380D01*
X87066380Y-56543380D01*
X86971142Y-56495761D01*
X86923523Y-56400523D01*
X86923523Y-56019571D01*
X86971142Y-55924333D01*
X87066380Y-55876714D01*
X87256857Y-55876714D01*
X87352095Y-55924333D01*
X87399714Y-56019571D01*
X87399714Y-56114809D01*
X86923523Y-56210047D01*
X87685428Y-55876714D02*
X88066380Y-55876714D01*
X87828285Y-55543380D02*
X87828285Y-56400523D01*
X87875904Y-56495761D01*
X87971142Y-56543380D01*
X88066380Y-56543380D01*
X88304476Y-55876714D02*
X88542571Y-56543380D01*
X88780666Y-55876714D02*
X88542571Y-56543380D01*
X88447333Y-56781476D01*
X88399714Y-56829095D01*
X88304476Y-56876714D01*
X83566380Y-58105761D02*
X83709238Y-58153380D01*
X83947333Y-58153380D01*
X84042571Y-58105761D01*
X84090190Y-58058142D01*
X84137809Y-57962904D01*
X84137809Y-57867666D01*
X84090190Y-57772428D01*
X84042571Y-57724809D01*
X83947333Y-57677190D01*
X83756857Y-57629571D01*
X83661619Y-57581952D01*
X83614000Y-57534333D01*
X83566380Y-57439095D01*
X83566380Y-57343857D01*
X83614000Y-57248619D01*
X83661619Y-57201000D01*
X83756857Y-57153380D01*
X83994952Y-57153380D01*
X84137809Y-57201000D01*
X84471142Y-57486714D02*
X84661619Y-58153380D01*
X84852095Y-57677190D01*
X85042571Y-58153380D01*
X85233047Y-57486714D01*
X85614000Y-58153380D02*
X85614000Y-57486714D01*
X85614000Y-57153380D02*
X85566380Y-57201000D01*
X85614000Y-57248619D01*
X85661619Y-57201000D01*
X85614000Y-57153380D01*
X85614000Y-57248619D01*
X85947333Y-57486714D02*
X86328285Y-57486714D01*
X86090190Y-57153380D02*
X86090190Y-58010523D01*
X86137809Y-58105761D01*
X86233047Y-58153380D01*
X86328285Y-58153380D01*
X87090190Y-58105761D02*
X86994952Y-58153380D01*
X86804476Y-58153380D01*
X86709238Y-58105761D01*
X86661619Y-58058142D01*
X86614000Y-57962904D01*
X86614000Y-57677190D01*
X86661619Y-57581952D01*
X86709238Y-57534333D01*
X86804476Y-57486714D01*
X86994952Y-57486714D01*
X87090190Y-57534333D01*
X87518761Y-58153380D02*
X87518761Y-57153380D01*
X87947333Y-58153380D02*
X87947333Y-57629571D01*
X87899714Y-57534333D01*
X87804476Y-57486714D01*
X87661619Y-57486714D01*
X87566380Y-57534333D01*
X87518761Y-57581952D01*
X88804476Y-58105761D02*
X88709238Y-58153380D01*
X88518761Y-58153380D01*
X88423523Y-58105761D01*
X88375904Y-58010523D01*
X88375904Y-57629571D01*
X88423523Y-57534333D01*
X88518761Y-57486714D01*
X88709238Y-57486714D01*
X88804476Y-57534333D01*
X88852095Y-57629571D01*
X88852095Y-57724809D01*
X88375904Y-57820047D01*
X89233047Y-58105761D02*
X89328285Y-58153380D01*
X89518761Y-58153380D01*
X89614000Y-58105761D01*
X89661619Y-58010523D01*
X89661619Y-57962904D01*
X89614000Y-57867666D01*
X89518761Y-57820047D01*
X89375904Y-57820047D01*
X89280666Y-57772428D01*
X89233047Y-57677190D01*
X89233047Y-57629571D01*
X89280666Y-57534333D01*
X89375904Y-57486714D01*
X89518761Y-57486714D01*
X89614000Y-57534333D01*
X85629904Y-67687666D02*
X86106095Y-67687666D01*
X85534666Y-67973380D02*
X85868000Y-66973380D01*
X86201333Y-67973380D01*
X86534666Y-67973380D02*
X86534666Y-66973380D01*
X86772761Y-66973380D01*
X86915619Y-67021000D01*
X87010857Y-67116238D01*
X87058476Y-67211476D01*
X87106095Y-67401952D01*
X87106095Y-67544809D01*
X87058476Y-67735285D01*
X87010857Y-67830523D01*
X86915619Y-67925761D01*
X86772761Y-67973380D01*
X86534666Y-67973380D01*
X88106095Y-67878142D02*
X88058476Y-67925761D01*
X87915619Y-67973380D01*
X87820380Y-67973380D01*
X87677523Y-67925761D01*
X87582285Y-67830523D01*
X87534666Y-67735285D01*
X87487047Y-67544809D01*
X87487047Y-67401952D01*
X87534666Y-67211476D01*
X87582285Y-67116238D01*
X87677523Y-67021000D01*
X87820380Y-66973380D01*
X87915619Y-66973380D01*
X88058476Y-67021000D01*
X88106095Y-67068619D01*
X85344190Y-69488142D02*
X85296571Y-69535761D01*
X85153714Y-69583380D01*
X85058476Y-69583380D01*
X84915619Y-69535761D01*
X84820380Y-69440523D01*
X84772761Y-69345285D01*
X84725142Y-69154809D01*
X84725142Y-69011952D01*
X84772761Y-68821476D01*
X84820380Y-68726238D01*
X84915619Y-68631000D01*
X85058476Y-68583380D01*
X85153714Y-68583380D01*
X85296571Y-68631000D01*
X85344190Y-68678619D01*
X85915619Y-69583380D02*
X85820380Y-69535761D01*
X85772761Y-69440523D01*
X85772761Y-68583380D01*
X86725142Y-69583380D02*
X86725142Y-69059571D01*
X86677523Y-68964333D01*
X86582285Y-68916714D01*
X86391809Y-68916714D01*
X86296571Y-68964333D01*
X86725142Y-69535761D02*
X86629904Y-69583380D01*
X86391809Y-69583380D01*
X86296571Y-69535761D01*
X86248952Y-69440523D01*
X86248952Y-69345285D01*
X86296571Y-69250047D01*
X86391809Y-69202428D01*
X86629904Y-69202428D01*
X86725142Y-69154809D01*
X87201333Y-69583380D02*
X87201333Y-68916714D01*
X87201333Y-69011952D02*
X87248952Y-68964333D01*
X87344190Y-68916714D01*
X87487047Y-68916714D01*
X87582285Y-68964333D01*
X87629904Y-69059571D01*
X87629904Y-69583380D01*
X87629904Y-69059571D02*
X87677523Y-68964333D01*
X87772761Y-68916714D01*
X87915619Y-68916714D01*
X88010857Y-68964333D01*
X88058476Y-69059571D01*
X88058476Y-69583380D01*
X88534666Y-68916714D02*
X88534666Y-69916714D01*
X88534666Y-68964333D02*
X88629904Y-68916714D01*
X88820380Y-68916714D01*
X88915619Y-68964333D01*
X88963238Y-69011952D01*
X89010857Y-69107190D01*
X89010857Y-69392904D01*
X88963238Y-69488142D01*
X88915619Y-69535761D01*
X88820380Y-69583380D01*
X88629904Y-69583380D01*
X88534666Y-69535761D01*
X37631904Y-84542380D02*
X38203333Y-84542380D01*
X37917619Y-85542380D02*
X37917619Y-84542380D01*
X38489047Y-85256666D02*
X38965238Y-85256666D01*
X38393809Y-85542380D02*
X38727142Y-84542380D01*
X39060476Y-85542380D01*
X39965238Y-85447142D02*
X39917619Y-85494761D01*
X39774761Y-85542380D01*
X39679523Y-85542380D01*
X39536666Y-85494761D01*
X39441428Y-85399523D01*
X39393809Y-85304285D01*
X39346190Y-85113809D01*
X39346190Y-84970952D01*
X39393809Y-84780476D01*
X39441428Y-84685238D01*
X39536666Y-84590000D01*
X39679523Y-84542380D01*
X39774761Y-84542380D01*
X39917619Y-84590000D01*
X39965238Y-84637619D01*
X40393809Y-85542380D02*
X40393809Y-84542380D01*
X40393809Y-85018571D02*
X40965238Y-85018571D01*
X40965238Y-85542380D02*
X40965238Y-84542380D01*
X44378952Y-70735666D02*
X44855142Y-70735666D01*
X44283714Y-71021380D02*
X44617047Y-70021380D01*
X44950380Y-71021380D01*
X45283714Y-71021380D02*
X45283714Y-70354714D01*
X45283714Y-70021380D02*
X45236095Y-70069000D01*
X45283714Y-70116619D01*
X45331333Y-70069000D01*
X45283714Y-70021380D01*
X45283714Y-70116619D01*
X45759904Y-71021380D02*
X45759904Y-70354714D01*
X45759904Y-70545190D02*
X45807523Y-70449952D01*
X45855142Y-70402333D01*
X45950380Y-70354714D01*
X46045619Y-70354714D01*
X46998000Y-70021380D02*
X47331333Y-71021380D01*
X47664666Y-70021380D01*
X48426571Y-71021380D02*
X48426571Y-70497571D01*
X48378952Y-70402333D01*
X48283714Y-70354714D01*
X48093238Y-70354714D01*
X47998000Y-70402333D01*
X48426571Y-70973761D02*
X48331333Y-71021380D01*
X48093238Y-71021380D01*
X47998000Y-70973761D01*
X47950380Y-70878523D01*
X47950380Y-70783285D01*
X47998000Y-70688047D01*
X48093238Y-70640428D01*
X48331333Y-70640428D01*
X48426571Y-70592809D01*
X49045619Y-71021380D02*
X48950380Y-70973761D01*
X48902761Y-70878523D01*
X48902761Y-70021380D01*
X49331333Y-70354714D02*
X49569428Y-71021380D01*
X49807523Y-70354714D01*
X50569428Y-70973761D02*
X50474190Y-71021380D01*
X50283714Y-71021380D01*
X50188476Y-70973761D01*
X50140857Y-70878523D01*
X50140857Y-70497571D01*
X50188476Y-70402333D01*
X50283714Y-70354714D01*
X50474190Y-70354714D01*
X50569428Y-70402333D01*
X50617047Y-70497571D01*
X50617047Y-70592809D01*
X50140857Y-70688047D01*
X41783714Y-71631380D02*
X41783714Y-72345666D01*
X41736095Y-72488523D01*
X41640857Y-72583761D01*
X41498000Y-72631380D01*
X41402761Y-72631380D01*
X42688476Y-71964714D02*
X42688476Y-72631380D01*
X42259904Y-71964714D02*
X42259904Y-72488523D01*
X42307523Y-72583761D01*
X42402761Y-72631380D01*
X42545619Y-72631380D01*
X42640857Y-72583761D01*
X42688476Y-72536142D01*
X43164666Y-72631380D02*
X43164666Y-71964714D01*
X43164666Y-72059952D02*
X43212285Y-72012333D01*
X43307523Y-71964714D01*
X43450380Y-71964714D01*
X43545619Y-72012333D01*
X43593238Y-72107571D01*
X43593238Y-72631380D01*
X43593238Y-72107571D02*
X43640857Y-72012333D01*
X43736095Y-71964714D01*
X43878952Y-71964714D01*
X43974190Y-72012333D01*
X44021809Y-72107571D01*
X44021809Y-72631380D01*
X44498000Y-71964714D02*
X44498000Y-72964714D01*
X44498000Y-72012333D02*
X44593238Y-71964714D01*
X44783714Y-71964714D01*
X44878952Y-72012333D01*
X44926571Y-72059952D01*
X44974190Y-72155190D01*
X44974190Y-72440904D01*
X44926571Y-72536142D01*
X44878952Y-72583761D01*
X44783714Y-72631380D01*
X44593238Y-72631380D01*
X44498000Y-72583761D01*
X45783714Y-72583761D02*
X45688476Y-72631380D01*
X45498000Y-72631380D01*
X45402761Y-72583761D01*
X45355142Y-72488523D01*
X45355142Y-72107571D01*
X45402761Y-72012333D01*
X45498000Y-71964714D01*
X45688476Y-71964714D01*
X45783714Y-72012333D01*
X45831333Y-72107571D01*
X45831333Y-72202809D01*
X45355142Y-72298047D01*
X46259904Y-72631380D02*
X46259904Y-71964714D01*
X46259904Y-72155190D02*
X46307523Y-72059952D01*
X46355142Y-72012333D01*
X46450380Y-71964714D01*
X46545619Y-71964714D01*
X47498000Y-71964714D02*
X47878952Y-71964714D01*
X47640857Y-71631380D02*
X47640857Y-72488523D01*
X47688476Y-72583761D01*
X47783714Y-72631380D01*
X47878952Y-72631380D01*
X48355142Y-72631380D02*
X48259904Y-72583761D01*
X48212285Y-72536142D01*
X48164666Y-72440904D01*
X48164666Y-72155190D01*
X48212285Y-72059952D01*
X48259904Y-72012333D01*
X48355142Y-71964714D01*
X48498000Y-71964714D01*
X48593238Y-72012333D01*
X48640857Y-72059952D01*
X48688476Y-72155190D01*
X48688476Y-72440904D01*
X48640857Y-72536142D01*
X48593238Y-72583761D01*
X48498000Y-72631380D01*
X48355142Y-72631380D01*
X50450380Y-72536142D02*
X50402761Y-72583761D01*
X50259904Y-72631380D01*
X50164666Y-72631380D01*
X50021809Y-72583761D01*
X49926571Y-72488523D01*
X49878952Y-72393285D01*
X49831333Y-72202809D01*
X49831333Y-72059952D01*
X49878952Y-71869476D01*
X49926571Y-71774238D01*
X50021809Y-71679000D01*
X50164666Y-71631380D01*
X50259904Y-71631380D01*
X50402761Y-71679000D01*
X50450380Y-71726619D01*
X51021809Y-72631380D02*
X50926571Y-72583761D01*
X50878952Y-72488523D01*
X50878952Y-71631380D01*
X51545619Y-72631380D02*
X51450380Y-72583761D01*
X51402761Y-72536142D01*
X51355142Y-72440904D01*
X51355142Y-72155190D01*
X51402761Y-72059952D01*
X51450380Y-72012333D01*
X51545619Y-71964714D01*
X51688476Y-71964714D01*
X51783714Y-72012333D01*
X51831333Y-72059952D01*
X51878952Y-72155190D01*
X51878952Y-72440904D01*
X51831333Y-72536142D01*
X51783714Y-72583761D01*
X51688476Y-72631380D01*
X51545619Y-72631380D01*
X52259904Y-72583761D02*
X52355142Y-72631380D01*
X52545619Y-72631380D01*
X52640857Y-72583761D01*
X52688476Y-72488523D01*
X52688476Y-72440904D01*
X52640857Y-72345666D01*
X52545619Y-72298047D01*
X52402761Y-72298047D01*
X52307523Y-72250428D01*
X52259904Y-72155190D01*
X52259904Y-72107571D01*
X52307523Y-72012333D01*
X52402761Y-71964714D01*
X52545619Y-71964714D01*
X52640857Y-72012333D01*
X53498000Y-72583761D02*
X53402761Y-72631380D01*
X53212285Y-72631380D01*
X53117047Y-72583761D01*
X53069428Y-72488523D01*
X53069428Y-72107571D01*
X53117047Y-72012333D01*
X53212285Y-71964714D01*
X53402761Y-71964714D01*
X53498000Y-72012333D01*
X53545619Y-72107571D01*
X53545619Y-72202809D01*
X53069428Y-72298047D01*
X81280000Y-51816000D02*
X80264000Y-54356000D01*
X72136000Y-56388000D02*
X71120000Y-57404000D01*
X74168000Y-56388000D02*
X72136000Y-56388000D01*
X91948000Y-111252000D02*
X92964000Y-110744000D01*
X91948000Y-113284000D02*
X91948000Y-111252000D01*
X91948000Y-115316000D02*
X91948000Y-113284000D01*
X90805000Y-116205000D02*
X91948000Y-115316000D01*
X100330000Y-105410000D02*
X99568000Y-104648000D01*
X100330000Y-113665000D02*
X99568000Y-114300000D01*
X71120000Y-59944000D02*
X69088000Y-59944000D01*
X71120000Y-60452000D02*
X71120000Y-59944000D01*
X71628000Y-61468000D02*
X71120000Y-60452000D01*
X73152000Y-61468000D02*
X71628000Y-61468000D01*
X73660000Y-58928000D02*
X70612000Y-58928000D01*
X100330000Y-105410000D02*
X100330000Y-106045000D01*
X100330000Y-113665000D02*
X100330000Y-112395000D01*
X90805000Y-116205000D02*
X88900000Y-116205000D01*
X83034523Y-115657380D02*
X83605952Y-115657380D01*
X83320238Y-116657380D02*
X83320238Y-115657380D01*
X84510714Y-116562142D02*
X84463095Y-116609761D01*
X84320238Y-116657380D01*
X84225000Y-116657380D01*
X84082142Y-116609761D01*
X83986904Y-116514523D01*
X83939285Y-116419285D01*
X83891666Y-116228809D01*
X83891666Y-116085952D01*
X83939285Y-115895476D01*
X83986904Y-115800238D01*
X84082142Y-115705000D01*
X84225000Y-115657380D01*
X84320238Y-115657380D01*
X84463095Y-115705000D01*
X84510714Y-115752619D01*
X85367857Y-115990714D02*
X85367857Y-116657380D01*
X85129761Y-115609761D02*
X84891666Y-116324047D01*
X85510714Y-116324047D01*
X86320238Y-115990714D02*
X86320238Y-116657380D01*
X86082142Y-115609761D02*
X85844047Y-116324047D01*
X86463095Y-116324047D01*
X86796428Y-115752619D02*
X86844047Y-115705000D01*
X86939285Y-115657380D01*
X87177380Y-115657380D01*
X87272619Y-115705000D01*
X87320238Y-115752619D01*
X87367857Y-115847857D01*
X87367857Y-115943095D01*
X87320238Y-116085952D01*
X86748809Y-116657380D01*
X87367857Y-116657380D01*
X88225000Y-115990714D02*
X88225000Y-116657380D01*
X87986904Y-115609761D02*
X87748809Y-116324047D01*
X88367857Y-116324047D01*
X99782380Y-111910476D02*
X99782380Y-111339047D01*
X100782380Y-111624761D02*
X99782380Y-111624761D01*
X100687142Y-110434285D02*
X100734761Y-110481904D01*
X100782380Y-110624761D01*
X100782380Y-110720000D01*
X100734761Y-110862857D01*
X100639523Y-110958095D01*
X100544285Y-111005714D01*
X100353809Y-111053333D01*
X100210952Y-111053333D01*
X100020476Y-111005714D01*
X99925238Y-110958095D01*
X99830000Y-110862857D01*
X99782380Y-110720000D01*
X99782380Y-110624761D01*
X99830000Y-110481904D01*
X99877619Y-110434285D01*
X100115714Y-109577142D02*
X100782380Y-109577142D01*
X99734761Y-109815238D02*
X100449047Y-110053333D01*
X100449047Y-109434285D01*
X100115714Y-108624761D02*
X100782380Y-108624761D01*
X99734761Y-108862857D02*
X100449047Y-109100952D01*
X100449047Y-108481904D01*
X99877619Y-108148571D02*
X99830000Y-108100952D01*
X99782380Y-108005714D01*
X99782380Y-107767619D01*
X99830000Y-107672380D01*
X99877619Y-107624761D01*
X99972857Y-107577142D01*
X100068095Y-107577142D01*
X100210952Y-107624761D01*
X100782380Y-108196190D01*
X100782380Y-107577142D01*
X99877619Y-107196190D02*
X99830000Y-107148571D01*
X99782380Y-107053333D01*
X99782380Y-106815238D01*
X99830000Y-106720000D01*
X99877619Y-106672380D01*
X99972857Y-106624761D01*
X100068095Y-106624761D01*
X100210952Y-106672380D01*
X100782380Y-107243809D01*
X100782380Y-106624761D01*
X39036666Y-107612380D02*
X39036666Y-108326666D01*
X38989047Y-108469523D01*
X38893809Y-108564761D01*
X38750952Y-108612380D01*
X38655714Y-108612380D01*
X39655714Y-108040952D02*
X39560476Y-107993333D01*
X39512857Y-107945714D01*
X39465238Y-107850476D01*
X39465238Y-107802857D01*
X39512857Y-107707619D01*
X39560476Y-107660000D01*
X39655714Y-107612380D01*
X39846190Y-107612380D01*
X39941428Y-107660000D01*
X39989047Y-107707619D01*
X40036666Y-107802857D01*
X40036666Y-107850476D01*
X39989047Y-107945714D01*
X39941428Y-107993333D01*
X39846190Y-108040952D01*
X39655714Y-108040952D01*
X39560476Y-108088571D01*
X39512857Y-108136190D01*
X39465238Y-108231428D01*
X39465238Y-108421904D01*
X39512857Y-108517142D01*
X39560476Y-108564761D01*
X39655714Y-108612380D01*
X39846190Y-108612380D01*
X39941428Y-108564761D01*
X39989047Y-108517142D01*
X40036666Y-108421904D01*
X40036666Y-108231428D01*
X39989047Y-108136190D01*
X39941428Y-108088571D01*
X39846190Y-108040952D01*
X74596666Y-110152380D02*
X74596666Y-110866666D01*
X74549047Y-111009523D01*
X74453809Y-111104761D01*
X74310952Y-111152380D01*
X74215714Y-111152380D01*
X74977619Y-110152380D02*
X75644285Y-110152380D01*
X75215714Y-111152380D01*
X74596666Y-103167380D02*
X74596666Y-103881666D01*
X74549047Y-104024523D01*
X74453809Y-104119761D01*
X74310952Y-104167380D01*
X74215714Y-104167380D01*
X75501428Y-103167380D02*
X75310952Y-103167380D01*
X75215714Y-103215000D01*
X75168095Y-103262619D01*
X75072857Y-103405476D01*
X75025238Y-103595952D01*
X75025238Y-103976904D01*
X75072857Y-104072142D01*
X75120476Y-104119761D01*
X75215714Y-104167380D01*
X75406190Y-104167380D01*
X75501428Y-104119761D01*
X75549047Y-104072142D01*
X75596666Y-103976904D01*
X75596666Y-103738809D01*
X75549047Y-103643571D01*
X75501428Y-103595952D01*
X75406190Y-103548333D01*
X75215714Y-103548333D01*
X75120476Y-103595952D01*
X75072857Y-103643571D01*
X75025238Y-103738809D01*
X101560380Y-110255833D02*
X102274666Y-110255833D01*
X102417523Y-110303452D01*
X102512761Y-110398690D01*
X102560380Y-110541547D01*
X102560380Y-110636785D01*
X102560380Y-109779642D02*
X101560380Y-109779642D01*
X101560380Y-109398690D01*
X101608000Y-109303452D01*
X101655619Y-109255833D01*
X101750857Y-109208214D01*
X101893714Y-109208214D01*
X101988952Y-109255833D01*
X102036571Y-109303452D01*
X102084190Y-109398690D01*
X102084190Y-109779642D01*
X101560380Y-108351071D02*
X101560380Y-108541547D01*
X101608000Y-108636785D01*
X101655619Y-108684404D01*
X101798476Y-108779642D01*
X101988952Y-108827261D01*
X102369904Y-108827261D01*
X102465142Y-108779642D01*
X102512761Y-108732023D01*
X102560380Y-108636785D01*
X102560380Y-108446309D01*
X102512761Y-108351071D01*
X102465142Y-108303452D01*
X102369904Y-108255833D01*
X102131809Y-108255833D01*
X102036571Y-108303452D01*
X101988952Y-108351071D01*
X101941333Y-108446309D01*
X101941333Y-108636785D01*
X101988952Y-108732023D01*
X102036571Y-108779642D01*
X102131809Y-108827261D01*
X95178666Y-115784380D02*
X95178666Y-116498666D01*
X95131047Y-116641523D01*
X95035809Y-116736761D01*
X94892952Y-116784380D01*
X94797714Y-116784380D01*
X95654857Y-116784380D02*
X95654857Y-115784380D01*
X96035809Y-115784380D01*
X96131047Y-115832000D01*
X96178666Y-115879619D01*
X96226285Y-115974857D01*
X96226285Y-116117714D01*
X96178666Y-116212952D01*
X96131047Y-116260571D01*
X96035809Y-116308190D01*
X95654857Y-116308190D01*
X97131047Y-115784380D02*
X96654857Y-115784380D01*
X96607238Y-116260571D01*
X96654857Y-116212952D01*
X96750095Y-116165333D01*
X96988190Y-116165333D01*
X97083428Y-116212952D01*
X97131047Y-116260571D01*
X97178666Y-116355809D01*
X97178666Y-116593904D01*
X97131047Y-116689142D01*
X97083428Y-116736761D01*
X96988190Y-116784380D01*
X96750095Y-116784380D01*
X96654857Y-116736761D01*
X96607238Y-116689142D01*
X101560380Y-106445833D02*
X102274666Y-106445833D01*
X102417523Y-106493452D01*
X102512761Y-106588690D01*
X102560380Y-106731547D01*
X102560380Y-106826785D01*
X102560380Y-105969642D02*
X101560380Y-105969642D01*
X101560380Y-105588690D01*
X101608000Y-105493452D01*
X101655619Y-105445833D01*
X101750857Y-105398214D01*
X101893714Y-105398214D01*
X101988952Y-105445833D01*
X102036571Y-105493452D01*
X102084190Y-105588690D01*
X102084190Y-105969642D01*
X101893714Y-104541071D02*
X102560380Y-104541071D01*
X101512761Y-104779166D02*
X102227047Y-105017261D01*
X102227047Y-104398214D01*
X59522619Y-93440238D02*
X59475000Y-93535476D01*
X59379761Y-93630714D01*
X59236904Y-93773571D01*
X59189285Y-93868809D01*
X59189285Y-93964047D01*
X59427380Y-93916428D02*
X59379761Y-94011666D01*
X59284523Y-94106904D01*
X59094047Y-94154523D01*
X58760714Y-94154523D01*
X58570238Y-94106904D01*
X58475000Y-94011666D01*
X58427380Y-93916428D01*
X58427380Y-93725952D01*
X58475000Y-93630714D01*
X58570238Y-93535476D01*
X58760714Y-93487857D01*
X59094047Y-93487857D01*
X59284523Y-93535476D01*
X59379761Y-93630714D01*
X59427380Y-93725952D01*
X59427380Y-93916428D01*
X58427380Y-93154523D02*
X58427380Y-92535476D01*
X58808333Y-92868809D01*
X58808333Y-92725952D01*
X58855952Y-92630714D01*
X58903571Y-92583095D01*
X58998809Y-92535476D01*
X59236904Y-92535476D01*
X59332142Y-92583095D01*
X59379761Y-92630714D01*
X59427380Y-92725952D01*
X59427380Y-93011666D01*
X59379761Y-93106904D01*
X59332142Y-93154523D01*
X65356706Y-51157142D02*
X65309087Y-51204761D01*
X65166230Y-51252380D01*
X65070992Y-51252380D01*
X64928135Y-51204761D01*
X64832897Y-51109523D01*
X64785278Y-51014285D01*
X64737659Y-50823809D01*
X64737659Y-50680952D01*
X64785278Y-50490476D01*
X64832897Y-50395238D01*
X64928135Y-50300000D01*
X65070992Y-50252380D01*
X65166230Y-50252380D01*
X65309087Y-50300000D01*
X65356706Y-50347619D01*
X66309087Y-51252380D02*
X65737659Y-51252380D01*
X66023373Y-51252380D02*
X66023373Y-50252380D01*
X65928135Y-50395238D01*
X65832897Y-50490476D01*
X65737659Y-50538095D01*
X66928135Y-50252380D02*
X67023373Y-50252380D01*
X67118611Y-50300000D01*
X67166230Y-50347619D01*
X67213849Y-50442857D01*
X67261468Y-50633333D01*
X67261468Y-50871428D01*
X67213849Y-51061904D01*
X67166230Y-51157142D01*
X67118611Y-51204761D01*
X67023373Y-51252380D01*
X66928135Y-51252380D01*
X66832897Y-51204761D01*
X66785278Y-51157142D01*
X66737659Y-51061904D01*
X66690040Y-50871428D01*
X66690040Y-50633333D01*
X66737659Y-50442857D01*
X66785278Y-50347619D01*
X66832897Y-50300000D01*
X66928135Y-50252380D01*
X61520688Y-62309285D02*
X61520688Y-61833095D01*
X61806402Y-62404523D02*
X60806402Y-62071190D01*
X61806402Y-61737857D01*
X61806402Y-60880714D02*
X61806402Y-61452142D01*
X61806402Y-61166428D02*
X60806402Y-61166428D01*
X60949260Y-61261666D01*
X61044498Y-61356904D01*
X61092117Y-61452142D01*
X77142380Y-110174404D02*
X77951904Y-110174404D01*
X78047142Y-110126785D01*
X78094761Y-110079166D01*
X78142380Y-109983928D01*
X78142380Y-109793452D01*
X78094761Y-109698214D01*
X78047142Y-109650595D01*
X77951904Y-109602976D01*
X77142380Y-109602976D01*
X77475714Y-108698214D02*
X78142380Y-108698214D01*
X77094761Y-108936309D02*
X77809047Y-109174404D01*
X77809047Y-108555357D01*
X89335095Y-34477380D02*
X89335095Y-35286904D01*
X89382714Y-35382142D01*
X89430333Y-35429761D01*
X89525571Y-35477380D01*
X89716047Y-35477380D01*
X89811285Y-35429761D01*
X89858904Y-35382142D01*
X89906523Y-35286904D01*
X89906523Y-34477380D01*
X90335095Y-34572619D02*
X90382714Y-34525000D01*
X90477952Y-34477380D01*
X90716047Y-34477380D01*
X90811285Y-34525000D01*
X90858904Y-34572619D01*
X90906523Y-34667857D01*
X90906523Y-34763095D01*
X90858904Y-34905952D01*
X90287476Y-35477380D01*
X90906523Y-35477380D01*
X47029761Y-41552380D02*
X46696428Y-41076190D01*
X46458333Y-41552380D02*
X46458333Y-40552380D01*
X46839285Y-40552380D01*
X46934523Y-40600000D01*
X46982142Y-40647619D01*
X47029761Y-40742857D01*
X47029761Y-40885714D01*
X46982142Y-40980952D01*
X46934523Y-41028571D01*
X46839285Y-41076190D01*
X46458333Y-41076190D01*
X47315476Y-40552380D02*
X47648809Y-41552380D01*
X47982142Y-40552380D01*
X48839285Y-41552380D02*
X48267857Y-41552380D01*
X48553571Y-41552380D02*
X48553571Y-40552380D01*
X48458333Y-40695238D01*
X48363095Y-40790476D01*
X48267857Y-40838095D01*
X68572142Y-112467380D02*
X68238809Y-111991190D01*
X68000714Y-112467380D02*
X68000714Y-111467380D01*
X68381666Y-111467380D01*
X68476904Y-111515000D01*
X68524523Y-111562619D01*
X68572142Y-111657857D01*
X68572142Y-111800714D01*
X68524523Y-111895952D01*
X68476904Y-111943571D01*
X68381666Y-111991190D01*
X68000714Y-111991190D01*
X68953095Y-111562619D02*
X69000714Y-111515000D01*
X69095952Y-111467380D01*
X69334047Y-111467380D01*
X69429285Y-111515000D01*
X69476904Y-111562619D01*
X69524523Y-111657857D01*
X69524523Y-111753095D01*
X69476904Y-111895952D01*
X68905476Y-112467380D01*
X69524523Y-112467380D01*
X70143571Y-111467380D02*
X70238809Y-111467380D01*
X70334047Y-111515000D01*
X70381666Y-111562619D01*
X70429285Y-111657857D01*
X70476904Y-111848333D01*
X70476904Y-112086428D01*
X70429285Y-112276904D01*
X70381666Y-112372142D01*
X70334047Y-112419761D01*
X70238809Y-112467380D01*
X70143571Y-112467380D01*
X70048333Y-112419761D01*
X70000714Y-112372142D01*
X69953095Y-112276904D01*
X69905476Y-112086428D01*
X69905476Y-111848333D01*
X69953095Y-111657857D01*
X70000714Y-111562619D01*
X70048333Y-111515000D01*
X70143571Y-111467380D01*
X91384380Y-112910857D02*
X90908190Y-113244190D01*
X91384380Y-113482285D02*
X90384380Y-113482285D01*
X90384380Y-113101333D01*
X90432000Y-113006095D01*
X90479619Y-112958476D01*
X90574857Y-112910857D01*
X90717714Y-112910857D01*
X90812952Y-112958476D01*
X90860571Y-113006095D01*
X90908190Y-113101333D01*
X90908190Y-113482285D01*
X91384380Y-111958476D02*
X91384380Y-112529904D01*
X91384380Y-112244190D02*
X90384380Y-112244190D01*
X90527238Y-112339428D01*
X90622476Y-112434666D01*
X90670095Y-112529904D01*
X90812952Y-111387047D02*
X90765333Y-111482285D01*
X90717714Y-111529904D01*
X90622476Y-111577523D01*
X90574857Y-111577523D01*
X90479619Y-111529904D01*
X90432000Y-111482285D01*
X90384380Y-111387047D01*
X90384380Y-111196571D01*
X90432000Y-111101333D01*
X90479619Y-111053714D01*
X90574857Y-111006095D01*
X90622476Y-111006095D01*
X90717714Y-111053714D01*
X90765333Y-111101333D01*
X90812952Y-111196571D01*
X90812952Y-111387047D01*
X90860571Y-111482285D01*
X90908190Y-111529904D01*
X91003428Y-111577523D01*
X91193904Y-111577523D01*
X91289142Y-111529904D01*
X91336761Y-111482285D01*
X91384380Y-111387047D01*
X91384380Y-111196571D01*
X91336761Y-111101333D01*
X91289142Y-111053714D01*
X91193904Y-111006095D01*
X91003428Y-111006095D01*
X90908190Y-111053714D01*
X90860571Y-111101333D01*
X90812952Y-111196571D01*
X90162142Y-97862380D02*
X89828809Y-97386190D01*
X89590714Y-97862380D02*
X89590714Y-96862380D01*
X89971666Y-96862380D01*
X90066904Y-96910000D01*
X90114523Y-96957619D01*
X90162142Y-97052857D01*
X90162142Y-97195714D01*
X90114523Y-97290952D01*
X90066904Y-97338571D01*
X89971666Y-97386190D01*
X89590714Y-97386190D01*
X91114523Y-97862380D02*
X90543095Y-97862380D01*
X90828809Y-97862380D02*
X90828809Y-96862380D01*
X90733571Y-97005238D01*
X90638333Y-97100476D01*
X90543095Y-97148095D01*
X92019285Y-96862380D02*
X91543095Y-96862380D01*
X91495476Y-97338571D01*
X91543095Y-97290952D01*
X91638333Y-97243333D01*
X91876428Y-97243333D01*
X91971666Y-97290952D01*
X92019285Y-97338571D01*
X92066904Y-97433809D01*
X92066904Y-97671904D01*
X92019285Y-97767142D01*
X91971666Y-97814761D01*
X91876428Y-97862380D01*
X91638333Y-97862380D01*
X91543095Y-97814761D01*
X91495476Y-97767142D01*
X77732142Y-51507380D02*
X77398809Y-51031190D01*
X77160714Y-51507380D02*
X77160714Y-50507380D01*
X77541666Y-50507380D01*
X77636904Y-50555000D01*
X77684523Y-50602619D01*
X77732142Y-50697857D01*
X77732142Y-50840714D01*
X77684523Y-50935952D01*
X77636904Y-50983571D01*
X77541666Y-51031190D01*
X77160714Y-51031190D01*
X78684523Y-51507380D02*
X78113095Y-51507380D01*
X78398809Y-51507380D02*
X78398809Y-50507380D01*
X78303571Y-50650238D01*
X78208333Y-50745476D01*
X78113095Y-50793095D01*
X79541666Y-50840714D02*
X79541666Y-51507380D01*
X79303571Y-50459761D02*
X79065476Y-51174047D01*
X79684523Y-51174047D01*
X56507142Y-71192380D02*
X56173809Y-70716190D01*
X55935714Y-71192380D02*
X55935714Y-70192380D01*
X56316666Y-70192380D01*
X56411904Y-70240000D01*
X56459523Y-70287619D01*
X56507142Y-70382857D01*
X56507142Y-70525714D01*
X56459523Y-70620952D01*
X56411904Y-70668571D01*
X56316666Y-70716190D01*
X55935714Y-70716190D01*
X57459523Y-71192380D02*
X56888095Y-71192380D01*
X57173809Y-71192380D02*
X57173809Y-70192380D01*
X57078571Y-70335238D01*
X56983333Y-70430476D01*
X56888095Y-70478095D01*
X57792857Y-70192380D02*
X58411904Y-70192380D01*
X58078571Y-70573333D01*
X58221428Y-70573333D01*
X58316666Y-70620952D01*
X58364285Y-70668571D01*
X58411904Y-70763809D01*
X58411904Y-71001904D01*
X58364285Y-71097142D01*
X58316666Y-71144761D01*
X58221428Y-71192380D01*
X57935714Y-71192380D01*
X57840476Y-71144761D01*
X57792857Y-71097142D01*
X56761142Y-61666380D02*
X56427809Y-61190190D01*
X56189714Y-61666380D02*
X56189714Y-60666380D01*
X56570666Y-60666380D01*
X56665904Y-60714000D01*
X56713523Y-60761619D01*
X56761142Y-60856857D01*
X56761142Y-60999714D01*
X56713523Y-61094952D01*
X56665904Y-61142571D01*
X56570666Y-61190190D01*
X56189714Y-61190190D01*
X57713523Y-61666380D02*
X57142095Y-61666380D01*
X57427809Y-61666380D02*
X57427809Y-60666380D01*
X57332571Y-60809238D01*
X57237333Y-60904476D01*
X57142095Y-60952095D01*
X58094476Y-60761619D02*
X58142095Y-60714000D01*
X58237333Y-60666380D01*
X58475428Y-60666380D01*
X58570666Y-60714000D01*
X58618285Y-60761619D01*
X58665904Y-60856857D01*
X58665904Y-60952095D01*
X58618285Y-61094952D01*
X58046857Y-61666380D01*
X58665904Y-61666380D01*
X74541142Y-51507380D02*
X74207809Y-51031190D01*
X73969714Y-51507380D02*
X73969714Y-50507380D01*
X74350666Y-50507380D01*
X74445904Y-50555000D01*
X74493523Y-50602619D01*
X74541142Y-50697857D01*
X74541142Y-50840714D01*
X74493523Y-50935952D01*
X74445904Y-50983571D01*
X74350666Y-51031190D01*
X73969714Y-51031190D01*
X75493523Y-51507380D02*
X74922095Y-51507380D01*
X75207809Y-51507380D02*
X75207809Y-50507380D01*
X75112571Y-50650238D01*
X75017333Y-50745476D01*
X74922095Y-50793095D01*
X76445904Y-51507380D02*
X75874476Y-51507380D01*
X76160190Y-51507380D02*
X76160190Y-50507380D01*
X76064952Y-50650238D01*
X75969714Y-50745476D01*
X75874476Y-50793095D01*
X68572142Y-49347380D02*
X68238809Y-48871190D01*
X68000714Y-49347380D02*
X68000714Y-48347380D01*
X68381666Y-48347380D01*
X68476904Y-48395000D01*
X68524523Y-48442619D01*
X68572142Y-48537857D01*
X68572142Y-48680714D01*
X68524523Y-48775952D01*
X68476904Y-48823571D01*
X68381666Y-48871190D01*
X68000714Y-48871190D01*
X69524523Y-49347380D02*
X68953095Y-49347380D01*
X69238809Y-49347380D02*
X69238809Y-48347380D01*
X69143571Y-48490238D01*
X69048333Y-48585476D01*
X68953095Y-48633095D01*
X70143571Y-48347380D02*
X70238809Y-48347380D01*
X70334047Y-48395000D01*
X70381666Y-48442619D01*
X70429285Y-48537857D01*
X70476904Y-48728333D01*
X70476904Y-48966428D01*
X70429285Y-49156904D01*
X70381666Y-49252142D01*
X70334047Y-49299761D01*
X70238809Y-49347380D01*
X70143571Y-49347380D01*
X70048333Y-49299761D01*
X70000714Y-49252142D01*
X69953095Y-49156904D01*
X69905476Y-48966428D01*
X69905476Y-48728333D01*
X69953095Y-48537857D01*
X70000714Y-48442619D01*
X70048333Y-48395000D01*
X70143571Y-48347380D01*
X65605833Y-49347380D02*
X65272500Y-48871190D01*
X65034404Y-49347380D02*
X65034404Y-48347380D01*
X65415357Y-48347380D01*
X65510595Y-48395000D01*
X65558214Y-48442619D01*
X65605833Y-48537857D01*
X65605833Y-48680714D01*
X65558214Y-48775952D01*
X65510595Y-48823571D01*
X65415357Y-48871190D01*
X65034404Y-48871190D01*
X66082023Y-49347380D02*
X66272500Y-49347380D01*
X66367738Y-49299761D01*
X66415357Y-49252142D01*
X66510595Y-49109285D01*
X66558214Y-48918809D01*
X66558214Y-48537857D01*
X66510595Y-48442619D01*
X66462976Y-48395000D01*
X66367738Y-48347380D01*
X66177261Y-48347380D01*
X66082023Y-48395000D01*
X66034404Y-48442619D01*
X65986785Y-48537857D01*
X65986785Y-48775952D01*
X66034404Y-48871190D01*
X66082023Y-48918809D01*
X66177261Y-48966428D01*
X66367738Y-48966428D01*
X66462976Y-48918809D01*
X66510595Y-48871190D01*
X66558214Y-48775952D01*
X70953333Y-63952380D02*
X70620000Y-63476190D01*
X70381904Y-63952380D02*
X70381904Y-62952380D01*
X70762857Y-62952380D01*
X70858095Y-63000000D01*
X70905714Y-63047619D01*
X70953333Y-63142857D01*
X70953333Y-63285714D01*
X70905714Y-63380952D01*
X70858095Y-63428571D01*
X70762857Y-63476190D01*
X70381904Y-63476190D01*
X71524761Y-63380952D02*
X71429523Y-63333333D01*
X71381904Y-63285714D01*
X71334285Y-63190476D01*
X71334285Y-63142857D01*
X71381904Y-63047619D01*
X71429523Y-63000000D01*
X71524761Y-62952380D01*
X71715238Y-62952380D01*
X71810476Y-63000000D01*
X71858095Y-63047619D01*
X71905714Y-63142857D01*
X71905714Y-63190476D01*
X71858095Y-63285714D01*
X71810476Y-63333333D01*
X71715238Y-63380952D01*
X71524761Y-63380952D01*
X71429523Y-63428571D01*
X71381904Y-63476190D01*
X71334285Y-63571428D01*
X71334285Y-63761904D01*
X71381904Y-63857142D01*
X71429523Y-63904761D01*
X71524761Y-63952380D01*
X71715238Y-63952380D01*
X71810476Y-63904761D01*
X71858095Y-63857142D01*
X71905714Y-63761904D01*
X71905714Y-63571428D01*
X71858095Y-63476190D01*
X71810476Y-63428571D01*
X71715238Y-63380952D01*
X44029333Y-61666380D02*
X43696000Y-61190190D01*
X43457904Y-61666380D02*
X43457904Y-60666380D01*
X43838857Y-60666380D01*
X43934095Y-60714000D01*
X43981714Y-60761619D01*
X44029333Y-60856857D01*
X44029333Y-60999714D01*
X43981714Y-61094952D01*
X43934095Y-61142571D01*
X43838857Y-61190190D01*
X43457904Y-61190190D01*
X44362666Y-60666380D02*
X45029333Y-60666380D01*
X44600761Y-61666380D01*
X68921333Y-59380380D02*
X68588000Y-58904190D01*
X68349904Y-59380380D02*
X68349904Y-58380380D01*
X68730857Y-58380380D01*
X68826095Y-58428000D01*
X68873714Y-58475619D01*
X68921333Y-58570857D01*
X68921333Y-58713714D01*
X68873714Y-58808952D01*
X68826095Y-58856571D01*
X68730857Y-58904190D01*
X68349904Y-58904190D01*
X69778476Y-58380380D02*
X69588000Y-58380380D01*
X69492761Y-58428000D01*
X69445142Y-58475619D01*
X69349904Y-58618476D01*
X69302285Y-58808952D01*
X69302285Y-59189904D01*
X69349904Y-59285142D01*
X69397523Y-59332761D01*
X69492761Y-59380380D01*
X69683238Y-59380380D01*
X69778476Y-59332761D01*
X69826095Y-59285142D01*
X69873714Y-59189904D01*
X69873714Y-58951809D01*
X69826095Y-58856571D01*
X69778476Y-58808952D01*
X69683238Y-58761333D01*
X69492761Y-58761333D01*
X69397523Y-58808952D01*
X69349904Y-58856571D01*
X69302285Y-58951809D01*
X67778333Y-63952380D02*
X67445000Y-63476190D01*
X67206904Y-63952380D02*
X67206904Y-62952380D01*
X67587857Y-62952380D01*
X67683095Y-63000000D01*
X67730714Y-63047619D01*
X67778333Y-63142857D01*
X67778333Y-63285714D01*
X67730714Y-63380952D01*
X67683095Y-63428571D01*
X67587857Y-63476190D01*
X67206904Y-63476190D01*
X68683095Y-62952380D02*
X68206904Y-62952380D01*
X68159285Y-63428571D01*
X68206904Y-63380952D01*
X68302142Y-63333333D01*
X68540238Y-63333333D01*
X68635476Y-63380952D01*
X68683095Y-63428571D01*
X68730714Y-63523809D01*
X68730714Y-63761904D01*
X68683095Y-63857142D01*
X68635476Y-63904761D01*
X68540238Y-63952380D01*
X68302142Y-63952380D01*
X68206904Y-63904761D01*
X68159285Y-63857142D01*
X73940833Y-70682380D02*
X73607500Y-70206190D01*
X73369404Y-70682380D02*
X73369404Y-69682380D01*
X73750357Y-69682380D01*
X73845595Y-69730000D01*
X73893214Y-69777619D01*
X73940833Y-69872857D01*
X73940833Y-70015714D01*
X73893214Y-70110952D01*
X73845595Y-70158571D01*
X73750357Y-70206190D01*
X73369404Y-70206190D01*
X74797976Y-70015714D02*
X74797976Y-70682380D01*
X74559880Y-69634761D02*
X74321785Y-70349047D01*
X74940833Y-70349047D01*
X65873333Y-59380380D02*
X65540000Y-58904190D01*
X65301904Y-59380380D02*
X65301904Y-58380380D01*
X65682857Y-58380380D01*
X65778095Y-58428000D01*
X65825714Y-58475619D01*
X65873333Y-58570857D01*
X65873333Y-58713714D01*
X65825714Y-58808952D01*
X65778095Y-58856571D01*
X65682857Y-58904190D01*
X65301904Y-58904190D01*
X66206666Y-58380380D02*
X66825714Y-58380380D01*
X66492380Y-58761333D01*
X66635238Y-58761333D01*
X66730476Y-58808952D01*
X66778095Y-58856571D01*
X66825714Y-58951809D01*
X66825714Y-59189904D01*
X66778095Y-59285142D01*
X66730476Y-59332761D01*
X66635238Y-59380380D01*
X66349523Y-59380380D01*
X66254285Y-59332761D01*
X66206666Y-59285142D01*
X99767380Y-72556666D02*
X99291190Y-72890000D01*
X99767380Y-73128095D02*
X98767380Y-73128095D01*
X98767380Y-72747142D01*
X98815000Y-72651904D01*
X98862619Y-72604285D01*
X98957857Y-72556666D01*
X99100714Y-72556666D01*
X99195952Y-72604285D01*
X99243571Y-72651904D01*
X99291190Y-72747142D01*
X99291190Y-73128095D01*
X98862619Y-72175714D02*
X98815000Y-72128095D01*
X98767380Y-72032857D01*
X98767380Y-71794761D01*
X98815000Y-71699523D01*
X98862619Y-71651904D01*
X98957857Y-71604285D01*
X99053095Y-71604285D01*
X99195952Y-71651904D01*
X99767380Y-72223333D01*
X99767380Y-71604285D01*
X99767380Y-68746666D02*
X99291190Y-69080000D01*
X99767380Y-69318095D02*
X98767380Y-69318095D01*
X98767380Y-68937142D01*
X98815000Y-68841904D01*
X98862619Y-68794285D01*
X98957857Y-68746666D01*
X99100714Y-68746666D01*
X99195952Y-68794285D01*
X99243571Y-68841904D01*
X99291190Y-68937142D01*
X99291190Y-69318095D01*
X99767380Y-67794285D02*
X99767380Y-68365714D01*
X99767380Y-68080000D02*
X98767380Y-68080000D01*
X98910238Y-68175238D01*
X99005476Y-68270476D01*
X99053095Y-68365714D01*
X39244761Y-80417619D02*
X39149523Y-80370000D01*
X39054285Y-80274761D01*
X38911428Y-80131904D01*
X38816190Y-80084285D01*
X38720952Y-80084285D01*
X38768571Y-80322380D02*
X38673333Y-80274761D01*
X38578095Y-80179523D01*
X38530476Y-79989047D01*
X38530476Y-79655714D01*
X38578095Y-79465238D01*
X38673333Y-79370000D01*
X38768571Y-79322380D01*
X38959047Y-79322380D01*
X39054285Y-79370000D01*
X39149523Y-79465238D01*
X39197142Y-79655714D01*
X39197142Y-79989047D01*
X39149523Y-80179523D01*
X39054285Y-80274761D01*
X38959047Y-80322380D01*
X38768571Y-80322380D01*
X39530476Y-79322380D02*
X40197142Y-79322380D01*
X39768571Y-80322380D01*
X44354761Y-85497619D02*
X44259523Y-85450000D01*
X44164285Y-85354761D01*
X44021428Y-85211904D01*
X43926190Y-85164285D01*
X43830952Y-85164285D01*
X43878571Y-85402380D02*
X43783333Y-85354761D01*
X43688095Y-85259523D01*
X43640476Y-85069047D01*
X43640476Y-84735714D01*
X43688095Y-84545238D01*
X43783333Y-84450000D01*
X43878571Y-84402380D01*
X44069047Y-84402380D01*
X44164285Y-84450000D01*
X44259523Y-84545238D01*
X44307142Y-84735714D01*
X44307142Y-85069047D01*
X44259523Y-85259523D01*
X44164285Y-85354761D01*
X44069047Y-85402380D01*
X43878571Y-85402380D01*
X45164285Y-84402380D02*
X44973809Y-84402380D01*
X44878571Y-84450000D01*
X44830952Y-84497619D01*
X44735714Y-84640476D01*
X44688095Y-84830952D01*
X44688095Y-85211904D01*
X44735714Y-85307142D01*
X44783333Y-85354761D01*
X44878571Y-85402380D01*
X45069047Y-85402380D01*
X45164285Y-85354761D01*
X45211904Y-85307142D01*
X45259523Y-85211904D01*
X45259523Y-84973809D01*
X45211904Y-84878571D01*
X45164285Y-84830952D01*
X45069047Y-84783333D01*
X44878571Y-84783333D01*
X44783333Y-84830952D01*
X44735714Y-84878571D01*
X44688095Y-84973809D01*
X53244761Y-85497619D02*
X53149523Y-85450000D01*
X53054285Y-85354761D01*
X52911428Y-85211904D01*
X52816190Y-85164285D01*
X52720952Y-85164285D01*
X52768571Y-85402380D02*
X52673333Y-85354761D01*
X52578095Y-85259523D01*
X52530476Y-85069047D01*
X52530476Y-84735714D01*
X52578095Y-84545238D01*
X52673333Y-84450000D01*
X52768571Y-84402380D01*
X52959047Y-84402380D01*
X53054285Y-84450000D01*
X53149523Y-84545238D01*
X53197142Y-84735714D01*
X53197142Y-85069047D01*
X53149523Y-85259523D01*
X53054285Y-85354761D01*
X52959047Y-85402380D01*
X52768571Y-85402380D01*
X54101904Y-84402380D02*
X53625714Y-84402380D01*
X53578095Y-84878571D01*
X53625714Y-84830952D01*
X53720952Y-84783333D01*
X53959047Y-84783333D01*
X54054285Y-84830952D01*
X54101904Y-84878571D01*
X54149523Y-84973809D01*
X54149523Y-85211904D01*
X54101904Y-85307142D01*
X54054285Y-85354761D01*
X53959047Y-85402380D01*
X53720952Y-85402380D01*
X53625714Y-85354761D01*
X53578095Y-85307142D01*
X44324761Y-80417619D02*
X44229523Y-80370000D01*
X44134285Y-80274761D01*
X43991428Y-80131904D01*
X43896190Y-80084285D01*
X43800952Y-80084285D01*
X43848571Y-80322380D02*
X43753333Y-80274761D01*
X43658095Y-80179523D01*
X43610476Y-79989047D01*
X43610476Y-79655714D01*
X43658095Y-79465238D01*
X43753333Y-79370000D01*
X43848571Y-79322380D01*
X44039047Y-79322380D01*
X44134285Y-79370000D01*
X44229523Y-79465238D01*
X44277142Y-79655714D01*
X44277142Y-79989047D01*
X44229523Y-80179523D01*
X44134285Y-80274761D01*
X44039047Y-80322380D01*
X43848571Y-80322380D01*
X45134285Y-79655714D02*
X45134285Y-80322380D01*
X44896190Y-79274761D02*
X44658095Y-79989047D01*
X45277142Y-79989047D01*
X48164761Y-85497619D02*
X48069523Y-85450000D01*
X47974285Y-85354761D01*
X47831428Y-85211904D01*
X47736190Y-85164285D01*
X47640952Y-85164285D01*
X47688571Y-85402380D02*
X47593333Y-85354761D01*
X47498095Y-85259523D01*
X47450476Y-85069047D01*
X47450476Y-84735714D01*
X47498095Y-84545238D01*
X47593333Y-84450000D01*
X47688571Y-84402380D01*
X47879047Y-84402380D01*
X47974285Y-84450000D01*
X48069523Y-84545238D01*
X48117142Y-84735714D01*
X48117142Y-85069047D01*
X48069523Y-85259523D01*
X47974285Y-85354761D01*
X47879047Y-85402380D01*
X47688571Y-85402380D01*
X48498095Y-84497619D02*
X48545714Y-84450000D01*
X48640952Y-84402380D01*
X48879047Y-84402380D01*
X48974285Y-84450000D01*
X49021904Y-84497619D01*
X49069523Y-84592857D01*
X49069523Y-84688095D01*
X49021904Y-84830952D01*
X48450476Y-85402380D01*
X49069523Y-85402380D01*
X58324761Y-85497619D02*
X58229523Y-85450000D01*
X58134285Y-85354761D01*
X57991428Y-85211904D01*
X57896190Y-85164285D01*
X57800952Y-85164285D01*
X57848571Y-85402380D02*
X57753333Y-85354761D01*
X57658095Y-85259523D01*
X57610476Y-85069047D01*
X57610476Y-84735714D01*
X57658095Y-84545238D01*
X57753333Y-84450000D01*
X57848571Y-84402380D01*
X58039047Y-84402380D01*
X58134285Y-84450000D01*
X58229523Y-84545238D01*
X58277142Y-84735714D01*
X58277142Y-85069047D01*
X58229523Y-85259523D01*
X58134285Y-85354761D01*
X58039047Y-85402380D01*
X57848571Y-85402380D01*
X59229523Y-85402380D02*
X58658095Y-85402380D01*
X58943809Y-85402380D02*
X58943809Y-84402380D01*
X58848571Y-84545238D01*
X58753333Y-84640476D01*
X58658095Y-84688095D01*
X84256666Y-47944380D02*
X84256666Y-48658666D01*
X84209047Y-48801523D01*
X84113809Y-48896761D01*
X83970952Y-48944380D01*
X83875714Y-48944380D01*
X84732857Y-48944380D02*
X84732857Y-47944380D01*
X85113809Y-47944380D01*
X85209047Y-47992000D01*
X85256666Y-48039619D01*
X85304285Y-48134857D01*
X85304285Y-48277714D01*
X85256666Y-48372952D01*
X85209047Y-48420571D01*
X85113809Y-48468190D01*
X84732857Y-48468190D01*
X85637619Y-47944380D02*
X86256666Y-47944380D01*
X85923333Y-48325333D01*
X86066190Y-48325333D01*
X86161428Y-48372952D01*
X86209047Y-48420571D01*
X86256666Y-48515809D01*
X86256666Y-48753904D01*
X86209047Y-48849142D01*
X86161428Y-48896761D01*
X86066190Y-48944380D01*
X85780476Y-48944380D01*
X85685238Y-48896761D01*
X85637619Y-48849142D01*
X50506380Y-77033333D02*
X51220666Y-77033333D01*
X51363523Y-77080952D01*
X51458761Y-77176190D01*
X51506380Y-77319047D01*
X51506380Y-77414285D01*
X51506380Y-76557142D02*
X50506380Y-76557142D01*
X50506380Y-76176190D01*
X50554000Y-76080952D01*
X50601619Y-76033333D01*
X50696857Y-75985714D01*
X50839714Y-75985714D01*
X50934952Y-76033333D01*
X50982571Y-76080952D01*
X51030190Y-76176190D01*
X51030190Y-76557142D01*
X50601619Y-75604761D02*
X50554000Y-75557142D01*
X50506380Y-75461904D01*
X50506380Y-75223809D01*
X50554000Y-75128571D01*
X50601619Y-75080952D01*
X50696857Y-75033333D01*
X50792095Y-75033333D01*
X50934952Y-75080952D01*
X51506380Y-75652380D01*
X51506380Y-75033333D01*
X66641891Y-85143822D02*
X67356177Y-85143822D01*
X67499034Y-85191441D01*
X67594272Y-85286679D01*
X67641891Y-85429536D01*
X67641891Y-85524774D01*
X66975225Y-84239060D02*
X67641891Y-84239060D01*
X66594272Y-84477155D02*
X67308558Y-84715250D01*
X67308558Y-84096203D01*
X67911891Y-90286679D02*
X68911891Y-89953346D01*
X67911891Y-89620012D01*
X68911891Y-88715250D02*
X68435701Y-89048584D01*
X68911891Y-89286679D02*
X67911891Y-89286679D01*
X67911891Y-88905727D01*
X67959511Y-88810489D01*
X68007130Y-88762869D01*
X68102368Y-88715250D01*
X68245225Y-88715250D01*
X68340463Y-88762869D01*
X68388082Y-88810489D01*
X68435701Y-88905727D01*
X68435701Y-89286679D01*
X68816653Y-86953346D02*
X68864272Y-87000965D01*
X68911891Y-87143822D01*
X68911891Y-87239060D01*
X68864272Y-87381917D01*
X68769034Y-87477155D01*
X68673796Y-87524774D01*
X68483320Y-87572393D01*
X68340463Y-87572393D01*
X68149987Y-87524774D01*
X68054749Y-87477155D01*
X67959511Y-87381917D01*
X67911891Y-87239060D01*
X67911891Y-87143822D01*
X67959511Y-87000965D01*
X68007130Y-86953346D01*
X68911891Y-86381917D02*
X68864272Y-86477155D01*
X68816653Y-86524774D01*
X68721415Y-86572393D01*
X68435701Y-86572393D01*
X68340463Y-86524774D01*
X68292844Y-86477155D01*
X68245225Y-86381917D01*
X68245225Y-86239060D01*
X68292844Y-86143822D01*
X68340463Y-86096203D01*
X68435701Y-86048584D01*
X68721415Y-86048584D01*
X68816653Y-86096203D01*
X68864272Y-86143822D01*
X68911891Y-86239060D01*
X68911891Y-86381917D01*
X68245225Y-85620012D02*
X68911891Y-85620012D01*
X68340463Y-85620012D02*
X68292844Y-85572393D01*
X68245225Y-85477155D01*
X68245225Y-85334298D01*
X68292844Y-85239060D01*
X68388082Y-85191441D01*
X68911891Y-85191441D01*
X68911891Y-84286679D02*
X67911891Y-84286679D01*
X68864272Y-84286679D02*
X68911891Y-84381917D01*
X68911891Y-84572393D01*
X68864272Y-84667631D01*
X68816653Y-84715250D01*
X68721415Y-84762869D01*
X68435701Y-84762869D01*
X68340463Y-84715250D01*
X68292844Y-84667631D01*
X68245225Y-84572393D01*
X68245225Y-84381917D01*
X68292844Y-84286679D01*
X68911891Y-83810489D02*
X68245225Y-83810489D01*
X67911891Y-83810489D02*
X67959511Y-83858108D01*
X68007130Y-83810489D01*
X67959511Y-83762869D01*
X67911891Y-83810489D01*
X68007130Y-83810489D01*
X68245225Y-83477155D02*
X68245225Y-83096203D01*
X67911891Y-83334298D02*
X68769034Y-83334298D01*
X68864272Y-83286679D01*
X68911891Y-83191441D01*
X68911891Y-83096203D01*
X68911891Y-82762869D02*
X68245225Y-82762869D01*
X67911891Y-82762869D02*
X67959511Y-82810489D01*
X68007130Y-82762869D01*
X67959511Y-82715250D01*
X67911891Y-82762869D01*
X68007130Y-82762869D01*
X68911891Y-82143822D02*
X68864272Y-82239060D01*
X68816653Y-82286679D01*
X68721415Y-82334298D01*
X68435701Y-82334298D01*
X68340463Y-82286679D01*
X68292844Y-82239060D01*
X68245225Y-82143822D01*
X68245225Y-82000965D01*
X68292844Y-81905727D01*
X68340463Y-81858108D01*
X68435701Y-81810489D01*
X68721415Y-81810489D01*
X68816653Y-81858108D01*
X68864272Y-81905727D01*
X68911891Y-82000965D01*
X68911891Y-82143822D01*
X68245225Y-81381917D02*
X68911891Y-81381917D01*
X68340463Y-81381917D02*
X68292844Y-81334298D01*
X68245225Y-81239060D01*
X68245225Y-81096203D01*
X68292844Y-81000965D01*
X68388082Y-80953346D01*
X68911891Y-80953346D01*
X68864272Y-80096203D02*
X68911891Y-80191441D01*
X68911891Y-80381917D01*
X68864272Y-80477155D01*
X68769034Y-80524774D01*
X68388082Y-80524774D01*
X68292844Y-80477155D01*
X68245225Y-80381917D01*
X68245225Y-80191441D01*
X68292844Y-80096203D01*
X68388082Y-80048584D01*
X68483320Y-80048584D01*
X68578558Y-80524774D01*
X68911891Y-79620012D02*
X68245225Y-79620012D01*
X68435701Y-79620012D02*
X68340463Y-79572393D01*
X68292844Y-79524774D01*
X68245225Y-79429536D01*
X68245225Y-79334298D01*
X80317380Y-57473333D02*
X81031666Y-57473333D01*
X81174523Y-57520952D01*
X81269761Y-57616190D01*
X81317380Y-57759047D01*
X81317380Y-57854285D01*
X80317380Y-57092380D02*
X80317380Y-56473333D01*
X80698333Y-56806666D01*
X80698333Y-56663809D01*
X80745952Y-56568571D01*
X80793571Y-56520952D01*
X80888809Y-56473333D01*
X81126904Y-56473333D01*
X81222142Y-56520952D01*
X81269761Y-56568571D01*
X81317380Y-56663809D01*
X81317380Y-56949523D01*
X81269761Y-57044761D01*
X81222142Y-57092380D01*
X100511177Y-48677869D02*
X100511177Y-49392155D01*
X100463558Y-49535012D01*
X100368320Y-49630250D01*
X100225463Y-49677869D01*
X100130225Y-49677869D01*
X100939749Y-48773108D02*
X100987368Y-48725489D01*
X101082606Y-48677869D01*
X101320701Y-48677869D01*
X101415939Y-48725489D01*
X101463558Y-48773108D01*
X101511177Y-48868346D01*
X101511177Y-48963584D01*
X101463558Y-49106441D01*
X100892130Y-49677869D01*
X101511177Y-49677869D01*
X85010666Y-97017380D02*
X85010666Y-97731666D01*
X84963047Y-97874523D01*
X84867809Y-97969761D01*
X84724952Y-98017380D01*
X84629714Y-98017380D01*
X86010666Y-98017380D02*
X85439238Y-98017380D01*
X85724952Y-98017380D02*
X85724952Y-97017380D01*
X85629714Y-97160238D01*
X85534476Y-97255476D01*
X85439238Y-97303095D01*
X81317380Y-69243690D02*
X80317380Y-69243690D01*
X81222142Y-68196071D02*
X81269761Y-68243690D01*
X81317380Y-68386547D01*
X81317380Y-68481785D01*
X81269761Y-68624642D01*
X81174523Y-68719880D01*
X81079285Y-68767500D01*
X80888809Y-68815119D01*
X80745952Y-68815119D01*
X80555476Y-68767500D01*
X80460238Y-68719880D01*
X80365000Y-68624642D01*
X80317380Y-68481785D01*
X80317380Y-68386547D01*
X80365000Y-68243690D01*
X80412619Y-68196071D01*
X81317380Y-67243690D02*
X81317380Y-67815119D01*
X81317380Y-67529404D02*
X80317380Y-67529404D01*
X80460238Y-67624642D01*
X80555476Y-67719880D01*
X80603095Y-67815119D01*
X79017904Y-101544380D02*
X79017904Y-100544380D01*
X79256000Y-100544380D01*
X79398857Y-100592000D01*
X79494095Y-100687238D01*
X79541714Y-100782476D01*
X79589333Y-100972952D01*
X79589333Y-101115809D01*
X79541714Y-101306285D01*
X79494095Y-101401523D01*
X79398857Y-101496761D01*
X79256000Y-101544380D01*
X79017904Y-101544380D01*
X80446476Y-100877714D02*
X80446476Y-101544380D01*
X80208380Y-100496761D02*
X79970285Y-101211047D01*
X80589333Y-101211047D01*
X75062117Y-99317380D02*
X75062117Y-98317380D01*
X75633545Y-99317380D02*
X75204974Y-98745952D01*
X75633545Y-98317380D02*
X75062117Y-98888809D01*
X73937904Y-97480380D02*
X73937904Y-96480380D01*
X74176000Y-96480380D01*
X74318857Y-96528000D01*
X74414095Y-96623238D01*
X74461714Y-96718476D01*
X74509333Y-96908952D01*
X74509333Y-97051809D01*
X74461714Y-97242285D01*
X74414095Y-97337523D01*
X74318857Y-97432761D01*
X74176000Y-97480380D01*
X73937904Y-97480380D01*
X74842666Y-96480380D02*
X75461714Y-96480380D01*
X75128380Y-96861333D01*
X75271238Y-96861333D01*
X75366476Y-96908952D01*
X75414095Y-96956571D01*
X75461714Y-97051809D01*
X75461714Y-97289904D01*
X75414095Y-97385142D01*
X75366476Y-97432761D01*
X75271238Y-97480380D01*
X74985523Y-97480380D01*
X74890285Y-97432761D01*
X74842666Y-97385142D01*
X78237117Y-99072380D02*
X78237117Y-98072380D01*
X78808545Y-99072380D02*
X78379974Y-98500952D01*
X78808545Y-98072380D02*
X78237117Y-98643809D01*
X78509904Y-43632380D02*
X78509904Y-42632380D01*
X78748000Y-42632380D01*
X78890857Y-42680000D01*
X78986095Y-42775238D01*
X79033714Y-42870476D01*
X79081333Y-43060952D01*
X79081333Y-43203809D01*
X79033714Y-43394285D01*
X78986095Y-43489523D01*
X78890857Y-43584761D01*
X78748000Y-43632380D01*
X78509904Y-43632380D01*
X79462285Y-42727619D02*
X79509904Y-42680000D01*
X79605142Y-42632380D01*
X79843238Y-42632380D01*
X79938476Y-42680000D01*
X79986095Y-42727619D01*
X80033714Y-42822857D01*
X80033714Y-42918095D01*
X79986095Y-43060952D01*
X79414666Y-43632380D01*
X80033714Y-43632380D01*
X75461904Y-37028380D02*
X75461904Y-36028380D01*
X75700000Y-36028380D01*
X75842857Y-36076000D01*
X75938095Y-36171238D01*
X75985714Y-36266476D01*
X76033333Y-36456952D01*
X76033333Y-36599809D01*
X75985714Y-36790285D01*
X75938095Y-36885523D01*
X75842857Y-36980761D01*
X75700000Y-37028380D01*
X75461904Y-37028380D01*
X76985714Y-37028380D02*
X76414285Y-37028380D01*
X76700000Y-37028380D02*
X76700000Y-36028380D01*
X76604761Y-36171238D01*
X76509523Y-36266476D01*
X76414285Y-36314095D01*
X37457142Y-50141142D02*
X37409523Y-50188761D01*
X37266666Y-50236380D01*
X37171428Y-50236380D01*
X37028571Y-50188761D01*
X36933333Y-50093523D01*
X36885714Y-49998285D01*
X36838095Y-49807809D01*
X36838095Y-49664952D01*
X36885714Y-49474476D01*
X36933333Y-49379238D01*
X37028571Y-49284000D01*
X37171428Y-49236380D01*
X37266666Y-49236380D01*
X37409523Y-49284000D01*
X37457142Y-49331619D01*
X37838095Y-49331619D02*
X37885714Y-49284000D01*
X37980952Y-49236380D01*
X38219047Y-49236380D01*
X38314285Y-49284000D01*
X38361904Y-49331619D01*
X38409523Y-49426857D01*
X38409523Y-49522095D01*
X38361904Y-49664952D01*
X37790476Y-50236380D01*
X38409523Y-50236380D01*
X39361904Y-50236380D02*
X38790476Y-50236380D01*
X39076190Y-50236380D02*
X39076190Y-49236380D01*
X38980952Y-49379238D01*
X38885714Y-49474476D01*
X38790476Y-49522095D01*
X90484642Y-103637142D02*
X90437023Y-103684761D01*
X90294166Y-103732380D01*
X90198928Y-103732380D01*
X90056071Y-103684761D01*
X89960833Y-103589523D01*
X89913214Y-103494285D01*
X89865595Y-103303809D01*
X89865595Y-103160952D01*
X89913214Y-102970476D01*
X89960833Y-102875238D01*
X90056071Y-102780000D01*
X90198928Y-102732380D01*
X90294166Y-102732380D01*
X90437023Y-102780000D01*
X90484642Y-102827619D01*
X91437023Y-103732380D02*
X90865595Y-103732380D01*
X91151309Y-103732380D02*
X91151309Y-102732380D01*
X91056071Y-102875238D01*
X90960833Y-102970476D01*
X90865595Y-103018095D01*
X91913214Y-103732380D02*
X92103690Y-103732380D01*
X92198928Y-103684761D01*
X92246547Y-103637142D01*
X92341785Y-103494285D01*
X92389404Y-103303809D01*
X92389404Y-102922857D01*
X92341785Y-102827619D01*
X92294166Y-102780000D01*
X92198928Y-102732380D01*
X92008452Y-102732380D01*
X91913214Y-102780000D01*
X91865595Y-102827619D01*
X91817976Y-102922857D01*
X91817976Y-103160952D01*
X91865595Y-103256190D01*
X91913214Y-103303809D01*
X92008452Y-103351428D01*
X92198928Y-103351428D01*
X92294166Y-103303809D01*
X92341785Y-103256190D01*
X92389404Y-103160952D01*
X81162142Y-51157142D02*
X81114523Y-51204761D01*
X80971666Y-51252380D01*
X80876428Y-51252380D01*
X80733571Y-51204761D01*
X80638333Y-51109523D01*
X80590714Y-51014285D01*
X80543095Y-50823809D01*
X80543095Y-50680952D01*
X80590714Y-50490476D01*
X80638333Y-50395238D01*
X80733571Y-50300000D01*
X80876428Y-50252380D01*
X80971666Y-50252380D01*
X81114523Y-50300000D01*
X81162142Y-50347619D01*
X82114523Y-51252380D02*
X81543095Y-51252380D01*
X81828809Y-51252380D02*
X81828809Y-50252380D01*
X81733571Y-50395238D01*
X81638333Y-50490476D01*
X81543095Y-50538095D01*
X82685952Y-50680952D02*
X82590714Y-50633333D01*
X82543095Y-50585714D01*
X82495476Y-50490476D01*
X82495476Y-50442857D01*
X82543095Y-50347619D01*
X82590714Y-50300000D01*
X82685952Y-50252380D01*
X82876428Y-50252380D01*
X82971666Y-50300000D01*
X83019285Y-50347619D01*
X83066904Y-50442857D01*
X83066904Y-50490476D01*
X83019285Y-50585714D01*
X82971666Y-50633333D01*
X82876428Y-50680952D01*
X82685952Y-50680952D01*
X82590714Y-50728571D01*
X82543095Y-50776190D01*
X82495476Y-50871428D01*
X82495476Y-51061904D01*
X82543095Y-51157142D01*
X82590714Y-51204761D01*
X82685952Y-51252380D01*
X82876428Y-51252380D01*
X82971666Y-51204761D01*
X83019285Y-51157142D01*
X83066904Y-51061904D01*
X83066904Y-50871428D01*
X83019285Y-50776190D01*
X82971666Y-50728571D01*
X82876428Y-50680952D01*
X58777142Y-80017857D02*
X58824761Y-80065476D01*
X58872380Y-80208333D01*
X58872380Y-80303571D01*
X58824761Y-80446428D01*
X58729523Y-80541666D01*
X58634285Y-80589285D01*
X58443809Y-80636904D01*
X58300952Y-80636904D01*
X58110476Y-80589285D01*
X58015238Y-80541666D01*
X57920000Y-80446428D01*
X57872380Y-80303571D01*
X57872380Y-80208333D01*
X57920000Y-80065476D01*
X57967619Y-80017857D01*
X58872380Y-79065476D02*
X58872380Y-79636904D01*
X58872380Y-79351190D02*
X57872380Y-79351190D01*
X58015238Y-79446428D01*
X58110476Y-79541666D01*
X58158095Y-79636904D01*
X57872380Y-78732142D02*
X57872380Y-78065476D01*
X58872380Y-78494047D01*
X59793142Y-64777857D02*
X59840761Y-64825476D01*
X59888380Y-64968333D01*
X59888380Y-65063571D01*
X59840761Y-65206428D01*
X59745523Y-65301666D01*
X59650285Y-65349285D01*
X59459809Y-65396904D01*
X59316952Y-65396904D01*
X59126476Y-65349285D01*
X59031238Y-65301666D01*
X58936000Y-65206428D01*
X58888380Y-65063571D01*
X58888380Y-64968333D01*
X58936000Y-64825476D01*
X58983619Y-64777857D01*
X59888380Y-63825476D02*
X59888380Y-64396904D01*
X59888380Y-64111190D02*
X58888380Y-64111190D01*
X59031238Y-64206428D01*
X59126476Y-64301666D01*
X59174095Y-64396904D01*
X58888380Y-62968333D02*
X58888380Y-63158809D01*
X58936000Y-63254047D01*
X58983619Y-63301666D01*
X59126476Y-63396904D01*
X59316952Y-63444523D01*
X59697904Y-63444523D01*
X59793142Y-63396904D01*
X59840761Y-63349285D01*
X59888380Y-63254047D01*
X59888380Y-63063571D01*
X59840761Y-62968333D01*
X59793142Y-62920714D01*
X59697904Y-62873095D01*
X59459809Y-62873095D01*
X59364571Y-62920714D01*
X59316952Y-62968333D01*
X59269333Y-63063571D01*
X59269333Y-63254047D01*
X59316952Y-63349285D01*
X59364571Y-63396904D01*
X59459809Y-63444523D01*
X68953142Y-57761142D02*
X68905523Y-57808761D01*
X68762666Y-57856380D01*
X68667428Y-57856380D01*
X68524571Y-57808761D01*
X68429333Y-57713523D01*
X68381714Y-57618285D01*
X68334095Y-57427809D01*
X68334095Y-57284952D01*
X68381714Y-57094476D01*
X68429333Y-56999238D01*
X68524571Y-56904000D01*
X68667428Y-56856380D01*
X68762666Y-56856380D01*
X68905523Y-56904000D01*
X68953142Y-56951619D01*
X69905523Y-57856380D02*
X69334095Y-57856380D01*
X69619809Y-57856380D02*
X69619809Y-56856380D01*
X69524571Y-56999238D01*
X69429333Y-57094476D01*
X69334095Y-57142095D01*
X70810285Y-56856380D02*
X70334095Y-56856380D01*
X70286476Y-57332571D01*
X70334095Y-57284952D01*
X70429333Y-57237333D01*
X70667428Y-57237333D01*
X70762666Y-57284952D01*
X70810285Y-57332571D01*
X70857904Y-57427809D01*
X70857904Y-57665904D01*
X70810285Y-57761142D01*
X70762666Y-57808761D01*
X70667428Y-57856380D01*
X70429333Y-57856380D01*
X70334095Y-57808761D01*
X70286476Y-57761142D01*
X56237142Y-80017857D02*
X56284761Y-80065476D01*
X56332380Y-80208333D01*
X56332380Y-80303571D01*
X56284761Y-80446428D01*
X56189523Y-80541666D01*
X56094285Y-80589285D01*
X55903809Y-80636904D01*
X55760952Y-80636904D01*
X55570476Y-80589285D01*
X55475238Y-80541666D01*
X55380000Y-80446428D01*
X55332380Y-80303571D01*
X55332380Y-80208333D01*
X55380000Y-80065476D01*
X55427619Y-80017857D01*
X56332380Y-79065476D02*
X56332380Y-79636904D01*
X56332380Y-79351190D02*
X55332380Y-79351190D01*
X55475238Y-79446428D01*
X55570476Y-79541666D01*
X55618095Y-79636904D01*
X55665714Y-78208333D02*
X56332380Y-78208333D01*
X55284761Y-78446428D02*
X55999047Y-78684523D01*
X55999047Y-78065476D01*
X57253142Y-64777857D02*
X57300761Y-64825476D01*
X57348380Y-64968333D01*
X57348380Y-65063571D01*
X57300761Y-65206428D01*
X57205523Y-65301666D01*
X57110285Y-65349285D01*
X56919809Y-65396904D01*
X56776952Y-65396904D01*
X56586476Y-65349285D01*
X56491238Y-65301666D01*
X56396000Y-65206428D01*
X56348380Y-65063571D01*
X56348380Y-64968333D01*
X56396000Y-64825476D01*
X56443619Y-64777857D01*
X57348380Y-63825476D02*
X57348380Y-64396904D01*
X57348380Y-64111190D02*
X56348380Y-64111190D01*
X56491238Y-64206428D01*
X56586476Y-64301666D01*
X56634095Y-64396904D01*
X56348380Y-63492142D02*
X56348380Y-62873095D01*
X56729333Y-63206428D01*
X56729333Y-63063571D01*
X56776952Y-62968333D01*
X56824571Y-62920714D01*
X56919809Y-62873095D01*
X57157904Y-62873095D01*
X57253142Y-62920714D01*
X57300761Y-62968333D01*
X57348380Y-63063571D01*
X57348380Y-63349285D01*
X57300761Y-63444523D01*
X57253142Y-63492142D01*
X64889142Y-57761142D02*
X64841523Y-57808761D01*
X64698666Y-57856380D01*
X64603428Y-57856380D01*
X64460571Y-57808761D01*
X64365333Y-57713523D01*
X64317714Y-57618285D01*
X64270095Y-57427809D01*
X64270095Y-57284952D01*
X64317714Y-57094476D01*
X64365333Y-56999238D01*
X64460571Y-56904000D01*
X64603428Y-56856380D01*
X64698666Y-56856380D01*
X64841523Y-56904000D01*
X64889142Y-56951619D01*
X65841523Y-57856380D02*
X65270095Y-57856380D01*
X65555809Y-57856380D02*
X65555809Y-56856380D01*
X65460571Y-56999238D01*
X65365333Y-57094476D01*
X65270095Y-57142095D01*
X66222476Y-56951619D02*
X66270095Y-56904000D01*
X66365333Y-56856380D01*
X66603428Y-56856380D01*
X66698666Y-56904000D01*
X66746285Y-56951619D01*
X66793904Y-57046857D01*
X66793904Y-57142095D01*
X66746285Y-57284952D01*
X66174857Y-57856380D01*
X66793904Y-57856380D01*
X69842142Y-66397142D02*
X69794523Y-66444761D01*
X69651666Y-66492380D01*
X69556428Y-66492380D01*
X69413571Y-66444761D01*
X69318333Y-66349523D01*
X69270714Y-66254285D01*
X69223095Y-66063809D01*
X69223095Y-65920952D01*
X69270714Y-65730476D01*
X69318333Y-65635238D01*
X69413571Y-65540000D01*
X69556428Y-65492380D01*
X69651666Y-65492380D01*
X69794523Y-65540000D01*
X69842142Y-65587619D01*
X70794523Y-66492380D02*
X70223095Y-66492380D01*
X70508809Y-66492380D02*
X70508809Y-65492380D01*
X70413571Y-65635238D01*
X70318333Y-65730476D01*
X70223095Y-65778095D01*
X71746904Y-66492380D02*
X71175476Y-66492380D01*
X71461190Y-66492380D02*
X71461190Y-65492380D01*
X71365952Y-65635238D01*
X71270714Y-65730476D01*
X71175476Y-65778095D01*
X50932142Y-64301666D02*
X50979761Y-64349285D01*
X51027380Y-64492142D01*
X51027380Y-64587380D01*
X50979761Y-64730238D01*
X50884523Y-64825476D01*
X50789285Y-64873095D01*
X50598809Y-64920714D01*
X50455952Y-64920714D01*
X50265476Y-64873095D01*
X50170238Y-64825476D01*
X50075000Y-64730238D01*
X50027380Y-64587380D01*
X50027380Y-64492142D01*
X50075000Y-64349285D01*
X50122619Y-64301666D01*
X51027380Y-63825476D02*
X51027380Y-63635000D01*
X50979761Y-63539761D01*
X50932142Y-63492142D01*
X50789285Y-63396904D01*
X50598809Y-63349285D01*
X50217857Y-63349285D01*
X50122619Y-63396904D01*
X50075000Y-63444523D01*
X50027380Y-63539761D01*
X50027380Y-63730238D01*
X50075000Y-63825476D01*
X50122619Y-63873095D01*
X50217857Y-63920714D01*
X50455952Y-63920714D01*
X50551190Y-63873095D01*
X50598809Y-63825476D01*
X50646428Y-63730238D01*
X50646428Y-63539761D01*
X50598809Y-63444523D01*
X50551190Y-63396904D01*
X50455952Y-63349285D01*
X67778333Y-60682142D02*
X67730714Y-60729761D01*
X67587857Y-60777380D01*
X67492619Y-60777380D01*
X67349761Y-60729761D01*
X67254523Y-60634523D01*
X67206904Y-60539285D01*
X67159285Y-60348809D01*
X67159285Y-60205952D01*
X67206904Y-60015476D01*
X67254523Y-59920238D01*
X67349761Y-59825000D01*
X67492619Y-59777380D01*
X67587857Y-59777380D01*
X67730714Y-59825000D01*
X67778333Y-59872619D01*
X68349761Y-60205952D02*
X68254523Y-60158333D01*
X68206904Y-60110714D01*
X68159285Y-60015476D01*
X68159285Y-59967857D01*
X68206904Y-59872619D01*
X68254523Y-59825000D01*
X68349761Y-59777380D01*
X68540238Y-59777380D01*
X68635476Y-59825000D01*
X68683095Y-59872619D01*
X68730714Y-59967857D01*
X68730714Y-60015476D01*
X68683095Y-60110714D01*
X68635476Y-60158333D01*
X68540238Y-60205952D01*
X68349761Y-60205952D01*
X68254523Y-60253571D01*
X68206904Y-60301190D01*
X68159285Y-60396428D01*
X68159285Y-60586904D01*
X68206904Y-60682142D01*
X68254523Y-60729761D01*
X68349761Y-60777380D01*
X68540238Y-60777380D01*
X68635476Y-60729761D01*
X68683095Y-60682142D01*
X68730714Y-60586904D01*
X68730714Y-60396428D01*
X68683095Y-60301190D01*
X68635476Y-60253571D01*
X68540238Y-60205952D01*
X67778333Y-66397142D02*
X67730714Y-66444761D01*
X67587857Y-66492380D01*
X67492619Y-66492380D01*
X67349761Y-66444761D01*
X67254523Y-66349523D01*
X67206904Y-66254285D01*
X67159285Y-66063809D01*
X67159285Y-65920952D01*
X67206904Y-65730476D01*
X67254523Y-65635238D01*
X67349761Y-65540000D01*
X67492619Y-65492380D01*
X67587857Y-65492380D01*
X67730714Y-65540000D01*
X67778333Y-65587619D01*
X68111666Y-65492380D02*
X68778333Y-65492380D01*
X68349761Y-66492380D01*
X45061142Y-64301666D02*
X45108761Y-64349285D01*
X45156380Y-64492142D01*
X45156380Y-64587380D01*
X45108761Y-64730238D01*
X45013523Y-64825476D01*
X44918285Y-64873095D01*
X44727809Y-64920714D01*
X44584952Y-64920714D01*
X44394476Y-64873095D01*
X44299238Y-64825476D01*
X44204000Y-64730238D01*
X44156380Y-64587380D01*
X44156380Y-64492142D01*
X44204000Y-64349285D01*
X44251619Y-64301666D01*
X44156380Y-63444523D02*
X44156380Y-63635000D01*
X44204000Y-63730238D01*
X44251619Y-63777857D01*
X44394476Y-63873095D01*
X44584952Y-63920714D01*
X44965904Y-63920714D01*
X45061142Y-63873095D01*
X45108761Y-63825476D01*
X45156380Y-63730238D01*
X45156380Y-63539761D01*
X45108761Y-63444523D01*
X45061142Y-63396904D01*
X44965904Y-63349285D01*
X44727809Y-63349285D01*
X44632571Y-63396904D01*
X44584952Y-63444523D01*
X44537333Y-63539761D01*
X44537333Y-63730238D01*
X44584952Y-63825476D01*
X44632571Y-63873095D01*
X44727809Y-63920714D01*
X65238333Y-60682142D02*
X65190714Y-60729761D01*
X65047857Y-60777380D01*
X64952619Y-60777380D01*
X64809761Y-60729761D01*
X64714523Y-60634523D01*
X64666904Y-60539285D01*
X64619285Y-60348809D01*
X64619285Y-60205952D01*
X64666904Y-60015476D01*
X64714523Y-59920238D01*
X64809761Y-59825000D01*
X64952619Y-59777380D01*
X65047857Y-59777380D01*
X65190714Y-59825000D01*
X65238333Y-59872619D01*
X66143095Y-59777380D02*
X65666904Y-59777380D01*
X65619285Y-60253571D01*
X65666904Y-60205952D01*
X65762142Y-60158333D01*
X66000238Y-60158333D01*
X66095476Y-60205952D01*
X66143095Y-60253571D01*
X66190714Y-60348809D01*
X66190714Y-60586904D01*
X66143095Y-60682142D01*
X66095476Y-60729761D01*
X66000238Y-60777380D01*
X65762142Y-60777380D01*
X65666904Y-60729761D01*
X65619285Y-60682142D01*
X71461333Y-43537142D02*
X71413714Y-43584761D01*
X71270857Y-43632380D01*
X71175619Y-43632380D01*
X71032761Y-43584761D01*
X70937523Y-43489523D01*
X70889904Y-43394285D01*
X70842285Y-43203809D01*
X70842285Y-43060952D01*
X70889904Y-42870476D01*
X70937523Y-42775238D01*
X71032761Y-42680000D01*
X71175619Y-42632380D01*
X71270857Y-42632380D01*
X71413714Y-42680000D01*
X71461333Y-42727619D01*
X72318476Y-42965714D02*
X72318476Y-43632380D01*
X72080380Y-42584761D02*
X71842285Y-43299047D01*
X72461333Y-43299047D01*
X75017333Y-49887142D02*
X74969714Y-49934761D01*
X74826857Y-49982380D01*
X74731619Y-49982380D01*
X74588761Y-49934761D01*
X74493523Y-49839523D01*
X74445904Y-49744285D01*
X74398285Y-49553809D01*
X74398285Y-49410952D01*
X74445904Y-49220476D01*
X74493523Y-49125238D01*
X74588761Y-49030000D01*
X74731619Y-48982380D01*
X74826857Y-48982380D01*
X74969714Y-49030000D01*
X75017333Y-49077619D01*
X75350666Y-48982380D02*
X75969714Y-48982380D01*
X75636380Y-49363333D01*
X75779238Y-49363333D01*
X75874476Y-49410952D01*
X75922095Y-49458571D01*
X75969714Y-49553809D01*
X75969714Y-49791904D01*
X75922095Y-49887142D01*
X75874476Y-49934761D01*
X75779238Y-49982380D01*
X75493523Y-49982380D01*
X75398285Y-49934761D01*
X75350666Y-49887142D01*
X68413333Y-40587142D02*
X68365714Y-40634761D01*
X68222857Y-40682380D01*
X68127619Y-40682380D01*
X67984761Y-40634761D01*
X67889523Y-40539523D01*
X67841904Y-40444285D01*
X67794285Y-40253809D01*
X67794285Y-40110952D01*
X67841904Y-39920476D01*
X67889523Y-39825238D01*
X67984761Y-39730000D01*
X68127619Y-39682380D01*
X68222857Y-39682380D01*
X68365714Y-39730000D01*
X68413333Y-39777619D01*
X68794285Y-39777619D02*
X68841904Y-39730000D01*
X68937142Y-39682380D01*
X69175238Y-39682380D01*
X69270476Y-39730000D01*
X69318095Y-39777619D01*
X69365714Y-39872857D01*
X69365714Y-39968095D01*
X69318095Y-40110952D01*
X68746666Y-40682380D01*
X69365714Y-40682380D01*
X62063333Y-49177142D02*
X62015714Y-49224761D01*
X61872857Y-49272380D01*
X61777619Y-49272380D01*
X61634761Y-49224761D01*
X61539523Y-49129523D01*
X61491904Y-49034285D01*
X61444285Y-48843809D01*
X61444285Y-48700952D01*
X61491904Y-48510476D01*
X61539523Y-48415238D01*
X61634761Y-48320000D01*
X61777619Y-48272380D01*
X61872857Y-48272380D01*
X62015714Y-48320000D01*
X62063333Y-48367619D01*
X63015714Y-49272380D02*
X62444285Y-49272380D01*
X62730000Y-49272380D02*
X62730000Y-48272380D01*
X62634761Y-48415238D01*
X62539523Y-48510476D01*
X62444285Y-48558095D01*
X30988095Y-48982380D02*
X30988095Y-49791904D01*
X31035714Y-49887142D01*
X31083333Y-49934761D01*
X31178571Y-49982380D01*
X31369047Y-49982380D01*
X31464285Y-49934761D01*
X31511904Y-49887142D01*
X31559523Y-49791904D01*
X31559523Y-48982380D01*
X32559523Y-49982380D02*
X31988095Y-49982380D01*
X32273809Y-49982380D02*
X32273809Y-48982380D01*
X32178571Y-49125238D01*
X32083333Y-49220476D01*
X31988095Y-49268095D01*
D11*
X51750000Y-101600000D02*
G75*
G03*
X51750000Y-101600000I-950000J0D01*
G01*
X49210000Y-101600000D02*
G75*
G03*
X49210000Y-101600000I-950000J0D01*
G01*
X46670000Y-101600000D02*
G75*
G03*
X46670000Y-101600000I-950000J0D01*
G01*
X39050000Y-101600000D02*
G75*
G03*
X39050000Y-101600000I-950000J0D01*
G01*
X41590000Y-101600000D02*
G75*
G03*
X41590000Y-101600000I-950000J0D01*
G01*
X72070000Y-109220000D02*
G75*
G03*
X72070000Y-109220000I-950000J0D01*
G01*
X72070000Y-106680000D02*
G75*
G03*
X72070000Y-106680000I-950000J0D01*
G01*
X69529523Y-109220000D02*
G75*
G03*
X69529523Y-109220000I-950000J0D01*
G01*
X69529523Y-106671449D02*
G75*
G03*
X69529523Y-106671449I-950000J0D01*
G01*
X66980973Y-111750973D02*
G75*
G03*
X66980973Y-111750973I-950000J0D01*
G01*
X66990000Y-109220000D02*
G75*
G03*
X66990000Y-109220000I-950000J0D01*
G01*
X66990000Y-106680000D02*
G75*
G03*
X66990000Y-106680000I-950000J0D01*
G01*
X64450000Y-111760000D02*
G75*
G03*
X64450000Y-111760000I-950000J0D01*
G01*
X64432423Y-109219999D02*
G75*
G03*
X64432423Y-109219999I-950000J0D01*
G01*
X64450000Y-106680000D02*
G75*
G03*
X64450000Y-106680000I-950000J0D01*
G01*
X61910000Y-111760000D02*
G75*
G03*
X61910000Y-111760000I-950000J0D01*
G01*
X61910000Y-109220000D02*
G75*
G03*
X61910000Y-109220000I-950000J0D01*
G01*
X61910000Y-106680000D02*
G75*
G03*
X61910000Y-106680000I-950000J0D01*
G01*
X59370000Y-111760000D02*
G75*
G03*
X59370000Y-111760000I-950000J0D01*
G01*
X59370000Y-109220000D02*
G75*
G03*
X59370000Y-109220000I-950000J0D01*
G01*
X56830000Y-111760000D02*
G75*
G03*
X56830000Y-111760000I-950000J0D01*
G01*
X56830000Y-109220000D02*
G75*
G03*
X56830000Y-109220000I-950000J0D01*
G01*
X54280259Y-111759285D02*
G75*
G03*
X54280259Y-111759285I-950000J0D01*
G01*
X54290000Y-109220000D02*
G75*
G03*
X54290000Y-109220000I-950000J0D01*
G01*
X51750000Y-111760000D02*
G75*
G03*
X51750000Y-111760000I-950000J0D01*
G01*
X51750000Y-109220000D02*
G75*
G03*
X51750000Y-109220000I-950000J0D01*
G01*
X49210000Y-111760000D02*
G75*
G03*
X49210000Y-111760000I-950000J0D01*
G01*
X49191947Y-109201947D02*
G75*
G03*
X49191947Y-109201947I-950000J0D01*
G01*
X46660973Y-109201947D02*
G75*
G03*
X46660973Y-109201947I-950000J0D01*
G01*
X46660973Y-111759285D02*
G75*
G03*
X46660973Y-111759285I-950000J0D01*
G01*
X44130000Y-111760000D02*
G75*
G03*
X44130000Y-111760000I-950000J0D01*
G01*
X44103635Y-109201947D02*
G75*
G03*
X44103635Y-109201947I-950000J0D01*
G01*
X59368571Y-104139999D02*
G75*
G03*
X59368571Y-104139999I-950000J0D01*
G01*
X59370000Y-106680000D02*
G75*
G03*
X59370000Y-106680000I-950000J0D01*
G01*
X56830000Y-106680000D02*
G75*
G03*
X56830000Y-106680000I-950000J0D01*
G01*
X54280259Y-106670973D02*
G75*
G03*
X54280259Y-106670973I-950000J0D01*
G01*
X51750000Y-106680000D02*
G75*
G03*
X51750000Y-106680000I-950000J0D01*
G01*
X49210000Y-106680000D02*
G75*
G03*
X49210000Y-106680000I-950000J0D01*
G01*
X46670000Y-106680000D02*
G75*
G03*
X46670000Y-106680000I-950000J0D01*
G01*
X44130000Y-106680000D02*
G75*
G03*
X44130000Y-106680000I-950000J0D01*
G01*
X41590000Y-106680000D02*
G75*
G03*
X41590000Y-106680000I-950000J0D01*
G01*
X39050000Y-106680000D02*
G75*
G03*
X39050000Y-106680000I-950000J0D01*
G01*
X39050000Y-104140000D02*
G75*
G03*
X39050000Y-104140000I-950000J0D01*
G01*
X41590000Y-104140000D02*
G75*
G03*
X41590000Y-104140000I-950000J0D01*
G01*
X44130000Y-104140000D02*
G75*
G03*
X44130000Y-104140000I-950000J0D01*
G01*
X46670000Y-104140000D02*
G75*
G03*
X46670000Y-104140000I-950000J0D01*
G01*
X49210000Y-104140000D02*
G75*
G03*
X49210000Y-104140000I-950000J0D01*
G01*
X51750000Y-104140000D02*
G75*
G03*
X51750000Y-104140000I-950000J0D01*
G01*
X54290000Y-104140000D02*
G75*
G03*
X54290000Y-104140000I-950000J0D01*
G01*
X56830000Y-104140000D02*
G75*
G03*
X56830000Y-104140000I-950000J0D01*
G01*
X56830000Y-101600000D02*
G75*
G03*
X56830000Y-101600000I-950000J0D01*
G01*
X54290000Y-101600000D02*
G75*
G03*
X54290000Y-101600000I-950000J0D01*
G01*
X44130000Y-101600000D02*
G75*
G03*
X44130000Y-101600000I-950000J0D01*
G01*
X38040000Y-109160000D02*
X39370000Y-109160000D01*
X38040000Y-111760000D02*
X40700000Y-111760000D01*
X38040000Y-111820000D02*
X40700000Y-111820000D01*
X40700000Y-111760000D02*
X40700000Y-111820000D01*
X38040000Y-111760000D02*
X38040000Y-111820000D01*
X38040000Y-110490000D02*
X38040000Y-109160000D01*
X73600000Y-111700000D02*
X74930000Y-111700000D01*
X73600000Y-114300000D02*
X76260000Y-114300000D01*
X73600000Y-114360000D02*
X76260000Y-114360000D01*
X76260000Y-114300000D02*
X76260000Y-114360000D01*
X73600000Y-114300000D02*
X73600000Y-114360000D01*
X73600000Y-113030000D02*
X73600000Y-111700000D01*
X73600000Y-106045000D02*
X73600000Y-104715000D01*
X73600000Y-107315000D02*
X73600000Y-107375000D01*
X76260000Y-107315000D02*
X76260000Y-107375000D01*
X73600000Y-107375000D02*
X76260000Y-107375000D01*
X73600000Y-107315000D02*
X76260000Y-107315000D01*
X73600000Y-104715000D02*
X74930000Y-104715000D01*
X94610000Y-110752500D02*
X93280000Y-110752500D01*
X98480000Y-110752500D02*
X98480000Y-108092500D01*
X95880000Y-110752500D02*
X98480000Y-110752500D01*
X95880000Y-110752500D02*
X95880000Y-108092500D01*
X93280000Y-110752500D02*
X93280000Y-109422500D01*
X95880000Y-108092500D02*
X98480000Y-108092500D01*
X94610000Y-114562500D02*
X93280000Y-114562500D01*
X98480000Y-114562500D02*
X98480000Y-111902500D01*
X95880000Y-114562500D02*
X98480000Y-114562500D01*
X95880000Y-114562500D02*
X95880000Y-111902500D01*
X93280000Y-114562500D02*
X93280000Y-113232500D01*
X95880000Y-111902500D02*
X98480000Y-111902500D01*
X95880000Y-104282500D02*
X98480000Y-104282500D01*
X93280000Y-106942500D02*
X93280000Y-105612500D01*
X95880000Y-106942500D02*
X95880000Y-104282500D01*
X95880000Y-106942500D02*
X98480000Y-106942500D01*
X98480000Y-106942500D02*
X98480000Y-104282500D01*
X94610000Y-106942500D02*
X93280000Y-106942500D01*
X57975000Y-88225000D02*
X42085000Y-88225000D01*
X57975000Y-88225000D02*
X57975000Y-98465000D01*
X57975000Y-98465000D02*
X42085000Y-98465000D01*
X42085000Y-88225000D02*
X42085000Y-98465000D01*
X42085000Y-93345000D02*
X39545000Y-93345000D01*
X42085000Y-95885000D02*
X39545000Y-95885000D01*
X42085000Y-90805000D02*
X39545000Y-90805000D01*
X65511248Y-54510000D02*
X66033752Y-54510000D01*
X65511248Y-55980000D02*
X66033752Y-55980000D01*
X39634022Y-69345000D02*
X60214022Y-69345000D01*
X39634022Y-53845000D02*
X39634022Y-69345000D01*
X60214022Y-66675000D02*
X39634022Y-66675000D01*
X60214022Y-69345000D02*
X60214022Y-56515000D01*
X57544022Y-56515000D02*
X57544022Y-53845000D01*
X60214022Y-56515000D02*
X57544022Y-56515000D01*
X57544022Y-56515000D02*
X39634022Y-56515000D01*
X60214022Y-55245000D02*
X60214022Y-53845000D01*
X60214022Y-53845000D02*
X58814022Y-53845000D01*
X57544022Y-53845000D02*
X39634022Y-53845000D01*
X78630000Y-104272500D02*
X78630000Y-114552500D01*
X88970000Y-106762500D02*
X78690000Y-106762500D01*
X78690000Y-106762500D02*
X78690000Y-108412500D01*
X78690000Y-110412500D02*
X78690000Y-112062500D01*
X78630000Y-114552500D02*
X89030000Y-114552500D01*
X78690000Y-112062500D02*
X88970000Y-112062500D01*
X89030000Y-114552500D02*
X89030000Y-104272500D01*
X88970000Y-112062500D02*
X88970000Y-106762500D01*
X89030000Y-104272500D02*
X78630000Y-104272500D01*
X78690000Y-110412500D02*
G75*
G03*
X78690000Y-108412500I0J1000000D01*
G01*
X87147000Y-46875000D02*
X87147000Y-45065000D01*
X88647000Y-46875000D02*
X87147000Y-46875000D01*
X87147000Y-45065000D02*
X86047000Y-45065000D01*
X88647000Y-36475000D02*
X87147000Y-36475000D01*
X87147000Y-38285000D02*
X82022000Y-38285000D01*
X87147000Y-36475000D02*
X87147000Y-38285000D01*
D10*
X55375000Y-46800000D02*
X55375000Y-42100000D01*
X55375000Y-42100000D02*
X39875000Y-42100000D01*
X39875000Y-46800000D02*
X39875000Y-42100000D01*
X55375000Y-46800000D02*
X39875000Y-46800000D01*
D11*
X68987936Y-112930000D02*
X69442064Y-112930000D01*
X68987936Y-114400000D02*
X69442064Y-114400000D01*
X90070000Y-108560436D02*
X90070000Y-109014564D01*
X91540000Y-108560436D02*
X91540000Y-109014564D01*
X90577936Y-98325000D02*
X91032064Y-98325000D01*
X90577936Y-99795000D02*
X91032064Y-99795000D01*
X78147936Y-53440000D02*
X78602064Y-53440000D01*
X78147936Y-51970000D02*
X78602064Y-51970000D01*
X56922936Y-71655000D02*
X57377064Y-71655000D01*
X56922936Y-73125000D02*
X57377064Y-73125000D01*
X53112936Y-60457500D02*
X53567064Y-60457500D01*
X53112936Y-61927500D02*
X53567064Y-61927500D01*
X74067936Y-53440000D02*
X74522064Y-53440000D01*
X74067936Y-51970000D02*
X74522064Y-51970000D01*
X69625436Y-53440000D02*
X70079564Y-53440000D01*
X69625436Y-51970000D02*
X70079564Y-51970000D01*
X65545436Y-53440000D02*
X65999564Y-53440000D01*
X65545436Y-51970000D02*
X65999564Y-51970000D01*
X77960436Y-62820000D02*
X78414564Y-62820000D01*
X77960436Y-64290000D02*
X78414564Y-64290000D01*
X47397936Y-60457500D02*
X47852064Y-60457500D01*
X47397936Y-61927500D02*
X47852064Y-61927500D01*
X78147936Y-58520000D02*
X78602064Y-58520000D01*
X78147936Y-57050000D02*
X78602064Y-57050000D01*
X73880436Y-62820000D02*
X74334564Y-62820000D01*
X73880436Y-64290000D02*
X74334564Y-64290000D01*
X74334564Y-69315000D02*
X73880436Y-69315000D01*
X74334564Y-67845000D02*
X73880436Y-67845000D01*
X74105436Y-57050000D02*
X74559564Y-57050000D01*
X74105436Y-58520000D02*
X74559564Y-58520000D01*
X100230000Y-72617064D02*
X100230000Y-72162936D01*
X101700000Y-72617064D02*
X101700000Y-72162936D01*
X100230000Y-68807064D02*
X100230000Y-68352936D01*
X101700000Y-68807064D02*
X101700000Y-68352936D01*
X39340000Y-79030000D02*
X38690000Y-79030000D01*
X39340000Y-75910000D02*
X38690000Y-75910000D01*
X39340000Y-79030000D02*
X41015000Y-79030000D01*
X39340000Y-75910000D02*
X39990000Y-75910000D01*
X43180000Y-84110000D02*
X42530000Y-84110000D01*
X43180000Y-80990000D02*
X42530000Y-80990000D01*
X43180000Y-84110000D02*
X44855000Y-84110000D01*
X43180000Y-80990000D02*
X43830000Y-80990000D01*
X53340000Y-80990000D02*
X53990000Y-80990000D01*
X53340000Y-84110000D02*
X55015000Y-84110000D01*
X53340000Y-80990000D02*
X52690000Y-80990000D01*
X53340000Y-84110000D02*
X52690000Y-84110000D01*
X44420000Y-75910000D02*
X45070000Y-75910000D01*
X44420000Y-79030000D02*
X46095000Y-79030000D01*
X44420000Y-75910000D02*
X43770000Y-75910000D01*
X44420000Y-79030000D02*
X43770000Y-79030000D01*
X48260000Y-84110000D02*
X47610000Y-84110000D01*
X48260000Y-80990000D02*
X47610000Y-80990000D01*
X48260000Y-84110000D02*
X49935000Y-84110000D01*
X48260000Y-80990000D02*
X48910000Y-80990000D01*
X58420000Y-80990000D02*
X59070000Y-80990000D01*
X58420000Y-84110000D02*
X60095000Y-84110000D01*
X58420000Y-80990000D02*
X57770000Y-80990000D01*
X58420000Y-84110000D02*
X57770000Y-84110000D01*
X86490000Y-51292000D02*
X83690000Y-51292000D01*
X83690000Y-51292000D02*
X83690000Y-49292000D01*
X83690000Y-49292000D02*
X86490000Y-49292000D01*
X86490000Y-49292000D02*
X86490000Y-51292000D01*
X46930000Y-74930000D02*
X46930000Y-73600000D01*
X46930000Y-78800000D02*
X49590000Y-78800000D01*
X46930000Y-76200000D02*
X46930000Y-78800000D01*
X46930000Y-76200000D02*
X49590000Y-76200000D01*
X46930000Y-73600000D02*
X48260000Y-73600000D01*
X49590000Y-76200000D02*
X49590000Y-78800000D01*
X54595000Y-50486000D02*
X54595000Y-53146000D01*
X57195000Y-50486000D02*
X57195000Y-51816000D01*
X54595000Y-53146000D02*
X49455000Y-53146000D01*
X55865000Y-50486000D02*
X57195000Y-50486000D01*
X54595000Y-50486000D02*
X49455000Y-50486000D01*
X49455000Y-50486000D02*
X49455000Y-53146000D01*
X38040000Y-81220000D02*
X39370000Y-81220000D01*
X38040000Y-83820000D02*
X40700000Y-83820000D01*
X38040000Y-83880000D02*
X40700000Y-83880000D01*
X40700000Y-83820000D02*
X40700000Y-83880000D01*
X38040000Y-83820000D02*
X38040000Y-83880000D01*
X38040000Y-82550000D02*
X38040000Y-81220000D01*
X70629511Y-86070489D02*
G75*
G03*
X70629511Y-84070489I0J1000000D01*
G01*
X66239511Y-95880489D02*
X86009511Y-95880489D01*
X86009511Y-95880489D02*
X86009511Y-75810489D01*
X86009511Y-75810489D02*
X66239511Y-75810489D01*
X66239511Y-75810489D02*
X66239511Y-95880489D01*
X70569511Y-79930489D02*
X70569511Y-90210489D01*
X70629511Y-86070489D02*
X70629511Y-87720489D01*
X80909511Y-82420489D02*
X70629511Y-82420489D01*
X70629511Y-87720489D02*
X80909511Y-87720489D01*
X70569511Y-90210489D02*
X80969511Y-90210489D01*
X80909511Y-87720489D02*
X80909511Y-82420489D01*
X80969511Y-90210489D02*
X80969511Y-79930489D01*
X70629511Y-82420489D02*
X70629511Y-84070489D01*
X80969511Y-79930489D02*
X70569511Y-79930489D01*
X81865000Y-58140000D02*
G75*
G03*
X81865000Y-56140000I0J1000000D01*
G01*
X92205000Y-52000000D02*
X81805000Y-52000000D01*
X92145000Y-59790000D02*
X92145000Y-54490000D01*
X92205000Y-62280000D02*
X92205000Y-52000000D01*
X81865000Y-59790000D02*
X92145000Y-59790000D01*
X81805000Y-62280000D02*
X92205000Y-62280000D01*
X81865000Y-58140000D02*
X81865000Y-59790000D01*
X81865000Y-54490000D02*
X81865000Y-56140000D01*
X92145000Y-54490000D02*
X81865000Y-54490000D01*
X81805000Y-52000000D02*
X81805000Y-62280000D01*
X99514511Y-52825489D02*
X99514511Y-65585489D01*
X99514511Y-51555489D02*
X99514511Y-50225489D01*
X99514511Y-50225489D02*
X100844511Y-50225489D01*
X99514511Y-52825489D02*
X102174511Y-52825489D01*
X99514511Y-65585489D02*
X102174511Y-65585489D01*
X102174511Y-52825489D02*
X102174511Y-65585489D01*
X89414511Y-93965000D02*
X89414511Y-96565000D01*
X92014511Y-88825000D02*
X86814511Y-88825000D01*
X86814511Y-96565000D02*
X86814511Y-88825000D01*
X92014511Y-96565000D02*
X90684511Y-96565000D01*
X92014511Y-93965000D02*
X92014511Y-88825000D01*
X92014511Y-93965000D02*
X89414511Y-93965000D01*
X92014511Y-95235000D02*
X92014511Y-96565000D01*
X89414511Y-96565000D02*
X86814511Y-96565000D01*
X81865000Y-65617500D02*
X81865000Y-67267500D01*
X81865000Y-70917500D02*
X92145000Y-70917500D01*
X92145000Y-65617500D02*
X81865000Y-65617500D01*
X81865000Y-69267500D02*
X81865000Y-70917500D01*
X92145000Y-70917500D02*
X92145000Y-65617500D01*
X81865000Y-69267500D02*
G75*
G03*
X81865000Y-67267500I0J1000000D01*
G01*
X76414022Y-99625000D02*
X76414022Y-99495000D01*
X76414022Y-102305000D02*
X76414022Y-102435000D01*
X81854022Y-102435000D02*
X81854022Y-102305000D01*
X76414022Y-102435000D02*
X81854022Y-102435000D01*
X77314022Y-99495000D02*
X77314022Y-102435000D01*
X81854022Y-99495000D02*
X81854022Y-99625000D01*
X77434022Y-99495000D02*
X77434022Y-102435000D01*
X76414022Y-99495000D02*
X81854022Y-99495000D01*
X77194022Y-99495000D02*
X77194022Y-102435000D01*
X76629022Y-97990000D02*
X76629022Y-95050000D01*
X77409022Y-97990000D02*
X71969022Y-97990000D01*
X76389022Y-97990000D02*
X76389022Y-95050000D01*
X71969022Y-97990000D02*
X71969022Y-97860000D01*
X76509022Y-97990000D02*
X76509022Y-95050000D01*
X77409022Y-95050000D02*
X71969022Y-95050000D01*
X71969022Y-95050000D02*
X71969022Y-95180000D01*
X77409022Y-95180000D02*
X77409022Y-95050000D01*
X77409022Y-97860000D02*
X77409022Y-97990000D01*
X80648000Y-48505000D02*
X74948000Y-48505000D01*
X80648000Y-48505000D02*
X80648000Y-44205000D01*
X80648000Y-44205000D02*
X74948000Y-44205000D01*
X79092000Y-41020000D02*
X79092000Y-37720000D01*
X79092000Y-37720000D02*
X73692000Y-37720000D01*
X79092000Y-41020000D02*
X73692000Y-41020000D01*
X45209887Y-50165000D02*
G75*
G03*
X45209887Y-50165000I-2620000J0D01*
G01*
X44390887Y-48301000D02*
X44390887Y-49125000D01*
X44550887Y-51205000D02*
X44550887Y-51864000D01*
X43350887Y-47697000D02*
X43350887Y-49125000D01*
X44630887Y-48560000D02*
X44630887Y-49125000D01*
X43029887Y-51205000D02*
X43029887Y-52708000D01*
X44350887Y-48264000D02*
X44350887Y-49125000D01*
X44710887Y-51205000D02*
X44710887Y-51665000D01*
X42869887Y-47600000D02*
X42869887Y-49125000D01*
X44270887Y-51205000D02*
X44270887Y-52136000D01*
X45030887Y-49250000D02*
X45030887Y-51080000D01*
X44670887Y-51205000D02*
X44670887Y-51719000D01*
X43750887Y-47855000D02*
X43750887Y-49125000D01*
X44670887Y-48611000D02*
X44670887Y-49125000D01*
X43830887Y-47897000D02*
X43830887Y-49125000D01*
X43790887Y-51205000D02*
X43790887Y-52455000D01*
X42909887Y-51205000D02*
X42909887Y-52726000D01*
X44110887Y-51205000D02*
X44110887Y-52260000D01*
X43269887Y-47674000D02*
X43269887Y-49125000D01*
X44270887Y-48194000D02*
X44270887Y-49125000D01*
X43670887Y-47817000D02*
X43670887Y-49125000D01*
X40035112Y-48440000D02*
X40035112Y-48940000D01*
X43510887Y-51205000D02*
X43510887Y-52579000D01*
X43950887Y-51205000D02*
X43950887Y-52365000D01*
X44070887Y-48043000D02*
X44070887Y-49125000D01*
X44910887Y-48987000D02*
X44910887Y-51343000D01*
X44710887Y-48665000D02*
X44710887Y-49125000D01*
X44230887Y-48161000D02*
X44230887Y-49125000D01*
X43590887Y-51205000D02*
X43590887Y-52547000D01*
X44990887Y-49154000D02*
X44990887Y-51176000D01*
X43470887Y-47737000D02*
X43470887Y-49125000D01*
X45190887Y-49881000D02*
X45190887Y-50449000D01*
X42869887Y-51205000D02*
X42869887Y-52730000D01*
X43470887Y-51205000D02*
X43470887Y-52593000D01*
X44870887Y-48914000D02*
X44870887Y-49125000D01*
X45070887Y-49360000D02*
X45070887Y-50970000D01*
X44630887Y-51205000D02*
X44630887Y-51770000D01*
X39785112Y-48690000D02*
X40285112Y-48690000D01*
X43550887Y-47767000D02*
X43550887Y-49125000D01*
X43910887Y-51205000D02*
X43910887Y-52389000D01*
X43390887Y-51205000D02*
X43390887Y-52620000D01*
X44350887Y-51205000D02*
X44350887Y-52066000D01*
X43870887Y-51205000D02*
X43870887Y-52412000D01*
X44150887Y-51205000D02*
X44150887Y-52230000D01*
X43430887Y-51205000D02*
X43430887Y-52607000D01*
X44310887Y-51205000D02*
X44310887Y-52102000D01*
X42949887Y-47609000D02*
X42949887Y-49125000D01*
X44590887Y-48512000D02*
X44590887Y-49125000D01*
X43630887Y-51205000D02*
X43630887Y-52530000D01*
X44150887Y-48100000D02*
X44150887Y-49125000D01*
X43790887Y-47875000D02*
X43790887Y-49125000D01*
X44470887Y-51205000D02*
X44470887Y-51950000D01*
X43189887Y-51205000D02*
X43189887Y-52676000D01*
X42829887Y-47596000D02*
X42829887Y-49125000D01*
X42789887Y-47592000D02*
X42789887Y-52738000D01*
X42709887Y-47587000D02*
X42709887Y-52743000D01*
X43550887Y-51205000D02*
X43550887Y-52563000D01*
X43990887Y-51205000D02*
X43990887Y-52340000D01*
X42989887Y-47615000D02*
X42989887Y-49125000D01*
X43149887Y-47645000D02*
X43149887Y-49125000D01*
X43430887Y-47723000D02*
X43430887Y-49125000D01*
X42989887Y-51205000D02*
X42989887Y-52715000D01*
X44430887Y-48339000D02*
X44430887Y-49125000D01*
X44190887Y-51205000D02*
X44190887Y-52200000D01*
X43950887Y-47965000D02*
X43950887Y-49125000D01*
X42909887Y-47604000D02*
X42909887Y-49125000D01*
X43229887Y-47664000D02*
X43229887Y-49125000D01*
X44590887Y-51205000D02*
X44590887Y-51818000D01*
X43630887Y-47800000D02*
X43630887Y-49125000D01*
X42629887Y-47585000D02*
X42629887Y-52745000D01*
X43109887Y-47637000D02*
X43109887Y-49125000D01*
X43229887Y-51205000D02*
X43229887Y-52666000D01*
X43590887Y-47783000D02*
X43590887Y-49125000D01*
X43830887Y-51205000D02*
X43830887Y-52433000D01*
X44110887Y-48070000D02*
X44110887Y-49125000D01*
X42749887Y-47589000D02*
X42749887Y-52741000D01*
X43029887Y-47622000D02*
X43029887Y-49125000D01*
X43109887Y-51205000D02*
X43109887Y-52693000D01*
X42829887Y-51205000D02*
X42829887Y-52734000D01*
X44510887Y-48422000D02*
X44510887Y-49125000D01*
X44950887Y-49067000D02*
X44950887Y-51263000D01*
X43189887Y-47654000D02*
X43189887Y-49125000D01*
X44790887Y-51205000D02*
X44790887Y-51548000D01*
X42949887Y-51205000D02*
X42949887Y-52721000D01*
X43710887Y-47836000D02*
X43710887Y-49125000D01*
X44030887Y-48016000D02*
X44030887Y-49125000D01*
X44310887Y-48228000D02*
X44310887Y-49125000D01*
X44750887Y-51205000D02*
X44750887Y-51608000D01*
X44470887Y-48380000D02*
X44470887Y-49125000D01*
X43350887Y-51205000D02*
X43350887Y-52633000D01*
X43990887Y-47990000D02*
X43990887Y-49125000D01*
X45110887Y-49488000D02*
X45110887Y-50842000D01*
X43269887Y-51205000D02*
X43269887Y-52656000D01*
X43510887Y-47751000D02*
X43510887Y-49125000D01*
X43310887Y-47685000D02*
X43310887Y-49125000D01*
X43069887Y-47629000D02*
X43069887Y-49125000D01*
X43149887Y-51205000D02*
X43149887Y-52685000D01*
X44390887Y-51205000D02*
X44390887Y-52029000D01*
X44870887Y-51205000D02*
X44870887Y-51416000D01*
X44830887Y-51205000D02*
X44830887Y-51484000D01*
X44230887Y-51205000D02*
X44230887Y-52169000D01*
X44510887Y-51205000D02*
X44510887Y-51908000D01*
X43710887Y-51205000D02*
X43710887Y-52494000D01*
X43910887Y-47941000D02*
X43910887Y-49125000D01*
X43390887Y-47710000D02*
X43390887Y-49125000D01*
X45150887Y-49647000D02*
X45150887Y-50683000D01*
X44190887Y-48130000D02*
X44190887Y-49125000D01*
X42669887Y-47586000D02*
X42669887Y-52744000D01*
X44750887Y-48722000D02*
X44750887Y-49125000D01*
X44070887Y-51205000D02*
X44070887Y-52287000D01*
X43310887Y-51205000D02*
X43310887Y-52645000D01*
X44030887Y-51205000D02*
X44030887Y-52314000D01*
X44430887Y-51205000D02*
X44430887Y-51991000D01*
X43750887Y-51205000D02*
X43750887Y-52475000D01*
X42589887Y-47585000D02*
X42589887Y-52745000D01*
X43870887Y-47918000D02*
X43870887Y-49125000D01*
X43069887Y-51205000D02*
X43069887Y-52701000D01*
X44790887Y-48782000D02*
X44790887Y-49125000D01*
X44830887Y-48846000D02*
X44830887Y-49125000D01*
X44550887Y-48466000D02*
X44550887Y-49125000D01*
X43670887Y-51205000D02*
X43670887Y-52513000D01*
X91066252Y-100865000D02*
X90543748Y-100865000D01*
X91066252Y-102335000D02*
X90543748Y-102335000D01*
X78636252Y-55980000D02*
X78113748Y-55980000D01*
X78636252Y-54510000D02*
X78113748Y-54510000D01*
X59155000Y-75303748D02*
X59155000Y-75826252D01*
X57685000Y-75303748D02*
X57685000Y-75826252D01*
X55345000Y-63873748D02*
X55345000Y-64396252D01*
X53875000Y-63873748D02*
X53875000Y-64396252D01*
X74033748Y-54510000D02*
X74556252Y-54510000D01*
X74033748Y-55980000D02*
X74556252Y-55980000D01*
X56615000Y-75303748D02*
X56615000Y-75826252D01*
X55145000Y-75303748D02*
X55145000Y-75826252D01*
X52805000Y-63873748D02*
X52805000Y-64396252D01*
X51335000Y-63873748D02*
X51335000Y-64396252D01*
X70113752Y-54510000D02*
X69591248Y-54510000D01*
X70113752Y-55980000D02*
X69591248Y-55980000D01*
X77926248Y-65360000D02*
X78448752Y-65360000D01*
X77926248Y-66830000D02*
X78448752Y-66830000D01*
X49630000Y-63873748D02*
X49630000Y-64396252D01*
X48160000Y-63873748D02*
X48160000Y-64396252D01*
X78636252Y-61060000D02*
X78113748Y-61060000D01*
X78636252Y-59590000D02*
X78113748Y-59590000D01*
X74368752Y-66830000D02*
X73846248Y-66830000D01*
X74368752Y-65360000D02*
X73846248Y-65360000D01*
X47090000Y-63873748D02*
X47090000Y-64396252D01*
X45620000Y-63873748D02*
X45620000Y-64396252D01*
X74071248Y-61060000D02*
X74593752Y-61060000D01*
X74071248Y-59590000D02*
X74593752Y-59590000D01*
X72564000Y-44210000D02*
X68354000Y-44210000D01*
X72564000Y-47230000D02*
X72564000Y-44210000D01*
X68354000Y-47230000D02*
X72564000Y-47230000D01*
X72651252Y-49049000D02*
X72128748Y-49049000D01*
X72651252Y-50519000D02*
X72128748Y-50519000D01*
X68318748Y-42645000D02*
X68841252Y-42645000D01*
X68318748Y-41175000D02*
X68841252Y-41175000D01*
X58580000Y-47980000D02*
X66640000Y-47980000D01*
X66640000Y-43460000D02*
X58580000Y-43460000D01*
X66640000Y-47980000D02*
X66640000Y-43460000D01*
X36020000Y-50800000D02*
X27020000Y-50800000D01*
X27020000Y-50800000D02*
X27020000Y-108000000D01*
X27020000Y-108000000D02*
X36020000Y-108000000D01*
X36020000Y-108000000D02*
X36020000Y-50800000D01*
%LPC*%
D12*
X101600000Y-36576000D03*
X102108000Y-116332000D03*
D13*
X50800000Y-101600000D03*
X48260000Y-101600000D03*
X45720000Y-101600000D03*
X38100000Y-101600000D03*
X40640000Y-101600000D03*
X71120000Y-109220000D03*
X71120000Y-106680000D03*
X68579523Y-109220000D03*
X68579523Y-106671449D03*
X66030973Y-111750973D03*
X66040000Y-109220000D03*
X66040000Y-106680000D03*
X63500000Y-111760000D03*
X63482423Y-109219999D03*
X63500000Y-106680000D03*
X60960000Y-111760000D03*
X60960000Y-109220000D03*
X60960000Y-106680000D03*
X58420000Y-111760000D03*
X58420000Y-109220000D03*
X55880000Y-111760000D03*
X55880000Y-109220000D03*
X53330259Y-111759285D03*
X53340000Y-109220000D03*
X50800000Y-111760000D03*
X50800000Y-109220000D03*
X48260000Y-111760000D03*
X48241947Y-109201947D03*
X45710973Y-109201947D03*
X45710973Y-111759285D03*
X43180000Y-111760000D03*
X43153635Y-109201947D03*
X58418571Y-104139999D03*
X58420000Y-106680000D03*
X55880000Y-106680000D03*
X53330259Y-106670973D03*
X50800000Y-106680000D03*
X48260000Y-106680000D03*
X45720000Y-106680000D03*
X43180000Y-106680000D03*
X40640000Y-106680000D03*
X38100000Y-106680000D03*
X38100000Y-104140000D03*
X40640000Y-104140000D03*
X43180000Y-104140000D03*
X45720000Y-104140000D03*
X48260000Y-104140000D03*
X50800000Y-104140000D03*
X53340000Y-104140000D03*
X55880000Y-104140000D03*
X55880000Y-101600000D03*
X53340000Y-101600000D03*
X43180000Y-101600000D03*
D14*
X39370000Y-110490000D03*
X74930000Y-113030000D03*
X74930000Y-106045000D03*
X94610000Y-109422500D03*
D15*
X97150000Y-109422500D03*
D14*
X94610000Y-113232500D03*
D15*
X97150000Y-113232500D03*
X97150000Y-105612500D03*
D14*
X94610000Y-105612500D03*
D16*
X55055000Y-93345000D03*
D17*
X38395000Y-90805000D03*
D18*
X38395000Y-93345000D03*
X38395000Y-95885000D03*
D19*
X64735000Y-55245000D03*
X66810000Y-55245000D03*
D20*
X58814022Y-55245000D03*
D21*
X56274022Y-55245000D03*
X53734022Y-55245000D03*
X51194022Y-55245000D03*
X48654022Y-55245000D03*
X46114022Y-55245000D03*
X43574022Y-55245000D03*
X41034022Y-55245000D03*
X41034022Y-67945000D03*
X43574022Y-67945000D03*
X46114022Y-67945000D03*
X48654022Y-67945000D03*
X51194022Y-67945000D03*
X53734022Y-67945000D03*
X56274022Y-67945000D03*
X58814022Y-67945000D03*
D20*
X80020000Y-113222500D03*
D21*
X82560000Y-113222500D03*
X85100000Y-113222500D03*
X87640000Y-113222500D03*
X87640000Y-105602500D03*
X85100000Y-105602500D03*
X82560000Y-105602500D03*
X80020000Y-105602500D03*
D22*
X95129511Y-51555489D03*
X97669511Y-51555489D03*
X97669511Y-64255489D03*
X95129511Y-64255489D03*
X97669511Y-61715489D03*
X97669511Y-54095489D03*
X95129511Y-54095489D03*
X72269511Y-99815489D03*
X72269511Y-102355489D03*
X69729511Y-99815489D03*
X69729511Y-102355489D03*
X67189511Y-99815489D03*
X67189511Y-102355489D03*
X64649511Y-102355489D03*
X62109511Y-102355489D03*
X64649511Y-99815489D03*
X62109511Y-99815489D03*
X64649511Y-97275489D03*
X62109511Y-97275489D03*
X64649511Y-94735489D03*
X62109511Y-94735489D03*
X64649511Y-92195489D03*
X62109511Y-92195489D03*
X64649511Y-89655489D03*
X62109511Y-89655489D03*
X64649511Y-87115489D03*
X62109511Y-87115489D03*
X64649511Y-84575489D03*
X62109511Y-84575489D03*
X97669511Y-102355489D03*
X95129511Y-102355489D03*
X97669511Y-99815489D03*
X95129511Y-99815489D03*
X97669511Y-97275489D03*
X95129511Y-97275489D03*
X97669511Y-94735489D03*
X95129511Y-94735489D03*
X97669511Y-92195489D03*
X95129511Y-92195489D03*
X97669511Y-89655489D03*
X95129511Y-89655489D03*
X97669511Y-87115489D03*
X95129511Y-87115489D03*
X97669511Y-84575489D03*
X95129511Y-84575489D03*
X97669511Y-82035489D03*
X95129511Y-82035489D03*
X97669511Y-79495489D03*
X95129511Y-79495489D03*
X97669511Y-76955489D03*
X95129511Y-76955489D03*
X97669511Y-74415489D03*
X95129511Y-74415489D03*
X97669511Y-71875489D03*
X95129511Y-71875489D03*
X97669511Y-69335489D03*
X95129511Y-69335489D03*
X97669511Y-66795489D03*
X95129511Y-66795489D03*
X95129511Y-61715489D03*
X64649511Y-82035489D03*
X62109511Y-82035489D03*
X64649511Y-79495489D03*
X62109511Y-79495489D03*
X64649511Y-76955489D03*
X62109511Y-76955489D03*
X64649511Y-74415489D03*
X62109511Y-74415489D03*
X64649511Y-71875489D03*
X62109511Y-71875489D03*
X64649511Y-69335489D03*
X62109511Y-69335489D03*
X64649511Y-66795489D03*
X62109511Y-66795489D03*
X64649511Y-64255489D03*
X62109511Y-64255489D03*
X95129511Y-56635489D03*
X97669511Y-56635489D03*
X95129511Y-59175489D03*
X97669511Y-59175489D03*
D23*
X84322000Y-39135000D03*
D24*
X93472000Y-41675000D03*
D23*
X84322000Y-41675000D03*
X84322000Y-44215000D03*
D25*
X51375000Y-45450000D03*
X43875000Y-43450000D03*
D26*
X68302500Y-113665000D03*
X70127500Y-113665000D03*
D27*
X90805000Y-109787500D03*
X90805000Y-107787500D03*
D28*
X89805000Y-99060000D03*
X91805000Y-99060000D03*
X79375000Y-52705000D03*
X77375000Y-52705000D03*
X56150000Y-72390000D03*
X58150000Y-72390000D03*
X52340000Y-61192500D03*
X54340000Y-61192500D03*
X75295000Y-52705000D03*
X73295000Y-52705000D03*
X70852500Y-52705000D03*
X68852500Y-52705000D03*
X66772500Y-52705000D03*
X64772500Y-52705000D03*
X77187500Y-63555000D03*
X79187500Y-63555000D03*
X46625000Y-61192500D03*
X48625000Y-61192500D03*
X79375000Y-57785000D03*
X77375000Y-57785000D03*
X73107500Y-63555000D03*
X75107500Y-63555000D03*
D29*
X75107500Y-68580000D03*
X73107500Y-68580000D03*
D28*
X73332500Y-57785000D03*
X75332500Y-57785000D03*
D30*
X100965000Y-73302500D03*
X100965000Y-71477500D03*
X100965000Y-69492500D03*
X100965000Y-67667500D03*
D31*
X40277500Y-78420000D03*
X40277500Y-76520000D03*
X38402500Y-77470000D03*
X44117500Y-83500000D03*
X44117500Y-81600000D03*
X42242500Y-82550000D03*
X52402500Y-82550000D03*
X54277500Y-81600000D03*
X54277500Y-83500000D03*
X43482500Y-77470000D03*
X45357500Y-76520000D03*
X45357500Y-78420000D03*
X49197500Y-83500000D03*
X49197500Y-81600000D03*
X47322500Y-82550000D03*
X57482500Y-82550000D03*
X59357500Y-81600000D03*
X59357500Y-83500000D03*
D32*
X84440000Y-50292000D03*
X85740000Y-50292000D03*
D14*
X48260000Y-74930000D03*
D15*
X48260000Y-77470000D03*
X50785000Y-51816000D03*
X53325000Y-51816000D03*
D14*
X55865000Y-51816000D03*
X39370000Y-82550000D03*
D21*
X71959511Y-81260489D03*
X74499511Y-81260489D03*
X77039511Y-81260489D03*
X79579511Y-81260489D03*
X79579511Y-88880489D03*
X77039511Y-88880489D03*
X74499511Y-88880489D03*
D20*
X71959511Y-88880489D03*
D21*
X83195000Y-53330000D03*
X85735000Y-53330000D03*
X88275000Y-53330000D03*
X90815000Y-53330000D03*
X90815000Y-60950000D03*
X88275000Y-60950000D03*
X85735000Y-60950000D03*
D20*
X83195000Y-60950000D03*
D14*
X100844511Y-51555489D03*
D15*
X100844511Y-54095489D03*
X100844511Y-56635489D03*
X100844511Y-59175489D03*
X100844511Y-61715489D03*
X100844511Y-64255489D03*
D14*
X90684511Y-95235000D03*
D15*
X88144511Y-95235000D03*
X90684511Y-92695000D03*
X88144511Y-92695000D03*
X90684511Y-90155000D03*
X88144511Y-90155000D03*
D20*
X83195000Y-72077500D03*
D21*
X85735000Y-72077500D03*
X88275000Y-72077500D03*
X90815000Y-72077500D03*
X90815000Y-64457500D03*
X88275000Y-64457500D03*
X85735000Y-64457500D03*
X83195000Y-64457500D03*
D33*
X82944022Y-100965000D03*
D34*
X75324022Y-100965000D03*
X78499022Y-96520000D03*
D33*
X70879022Y-96520000D03*
D35*
X79248000Y-46355000D03*
X74948000Y-46355000D03*
D36*
X73692000Y-39370000D03*
X77692000Y-39370000D03*
D37*
X43839887Y-50165000D03*
D20*
X41339887Y-50165000D03*
D38*
X91755000Y-101600000D03*
X89855000Y-101600000D03*
D39*
X79412500Y-55245000D03*
X77337500Y-55245000D03*
D40*
X58420000Y-74527500D03*
X58420000Y-76602500D03*
X54610000Y-63097500D03*
X54610000Y-65172500D03*
D19*
X73257500Y-55245000D03*
X75332500Y-55245000D03*
D40*
X55880000Y-74527500D03*
X55880000Y-76602500D03*
X52070000Y-63097500D03*
X52070000Y-65172500D03*
D39*
X68815000Y-55245000D03*
X70890000Y-55245000D03*
D19*
X77150000Y-66095000D03*
X79225000Y-66095000D03*
D40*
X48895000Y-63097500D03*
X48895000Y-65172500D03*
D39*
X79412500Y-60325000D03*
X77337500Y-60325000D03*
X75145000Y-66095000D03*
X73070000Y-66095000D03*
D40*
X46355000Y-63097500D03*
X46355000Y-65172500D03*
D19*
X75370000Y-60325000D03*
X73295000Y-60325000D03*
D41*
X71641500Y-45720000D03*
X68566500Y-45720000D03*
D38*
X73340000Y-49784000D03*
X71440000Y-49784000D03*
D42*
X67630000Y-41910000D03*
X69530000Y-41910000D03*
D43*
X65342500Y-45720000D03*
X59117500Y-45720000D03*
D44*
X29720000Y-104400000D03*
X29720000Y-53400000D03*
D45*
X33020000Y-59600000D03*
X33020000Y-61800000D03*
X33020000Y-64000000D03*
X33020000Y-66200000D03*
X33020000Y-68400000D03*
X33020000Y-70600000D03*
X33020000Y-72800000D03*
X33020000Y-75000000D03*
X33020000Y-77200000D03*
X33020000Y-79400000D03*
X33020000Y-81600000D03*
X33020000Y-83800000D03*
X33020000Y-86000000D03*
X33020000Y-88200000D03*
X33020000Y-90400000D03*
X33020000Y-92600000D03*
X33020000Y-95400000D03*
X33020000Y-98200000D03*
X30020000Y-59600000D03*
X30020000Y-61800000D03*
X30020000Y-64000000D03*
X30020000Y-66200000D03*
X30020000Y-68400000D03*
X30020000Y-70600000D03*
X30020000Y-72800000D03*
X30020000Y-75000000D03*
X30020000Y-77200000D03*
X30020000Y-79400000D03*
X30020000Y-81600000D03*
X30020000Y-83800000D03*
X30020000Y-86000000D03*
X30020000Y-88200000D03*
X30020000Y-90400000D03*
X30020000Y-92600000D03*
X30020000Y-95400000D03*
X30020000Y-98200000D03*
D12*
X29845000Y-43815000D03*
X29845000Y-114808000D03*
M02*
