%FSLAX45Y45*%
G04 Gerber Fmt 4.5, Leading zero omitted, Abs format (unit mm)*
G04 Created by KiCad (PCBNEW (6.0.1)) date 2022-02-06 00:08:50*
%MOMM*%
%LPD*%
G01*
G04 APERTURE LIST*
%TA.AperFunction,Profile*%
%ADD10C,0.100000*%
%TD*%
%ADD11C,0.200000*%
%ADD12C,0.350000*%
%ADD13C,0.360000*%
G04 APERTURE END LIST*
D10*
X2540000Y-3302000D02*
X10566400Y-3302000D01*
X10566400Y-3302000D02*
X10566400Y-11938000D01*
X10566400Y-11938000D02*
X2540000Y-11938000D01*
X2540000Y-11938000D02*
X2540000Y-3302000D01*
D11*
D12*
X5330500Y-9159500D02*
X5680500Y-9509500D01*
X5680500Y-9159500D02*
X5330500Y-9509500D01*
D13*
X3152000Y-5340000D02*
G75*
G03*
X3152000Y-5340000I-180000J0D01*
G01*
X3152000Y-10440000D02*
G75*
G03*
X3152000Y-10440000I-180000J0D01*
G01*
D11*
X2792619Y-12253476D02*
X2792619Y-12053476D01*
X2840238Y-12053476D01*
X2868809Y-12063000D01*
X2887857Y-12082048D01*
X2897381Y-12101095D01*
X2906905Y-12139190D01*
X2906905Y-12167762D01*
X2897381Y-12205857D01*
X2887857Y-12224905D01*
X2868809Y-12243952D01*
X2840238Y-12253476D01*
X2792619Y-12253476D01*
X2992619Y-12253476D02*
X2992619Y-12120143D01*
X2992619Y-12158238D02*
X3002143Y-12139190D01*
X3011667Y-12129667D01*
X3030714Y-12120143D01*
X3049762Y-12120143D01*
X3116428Y-12253476D02*
X3116428Y-12120143D01*
X3116428Y-12053476D02*
X3106905Y-12063000D01*
X3116428Y-12072524D01*
X3125952Y-12063000D01*
X3116428Y-12053476D01*
X3116428Y-12072524D01*
X3240238Y-12253476D02*
X3221190Y-12243952D01*
X3211667Y-12224905D01*
X3211667Y-12053476D01*
X3345000Y-12253476D02*
X3325952Y-12243952D01*
X3316428Y-12224905D01*
X3316428Y-12053476D01*
X3573571Y-12253476D02*
X3573571Y-12053476D01*
X3640238Y-12196333D01*
X3706905Y-12053476D01*
X3706905Y-12253476D01*
X3887857Y-12253476D02*
X3887857Y-12148714D01*
X3878333Y-12129667D01*
X3859286Y-12120143D01*
X3821190Y-12120143D01*
X3802143Y-12129667D01*
X3887857Y-12243952D02*
X3868809Y-12253476D01*
X3821190Y-12253476D01*
X3802143Y-12243952D01*
X3792619Y-12224905D01*
X3792619Y-12205857D01*
X3802143Y-12186809D01*
X3821190Y-12177286D01*
X3868809Y-12177286D01*
X3887857Y-12167762D01*
X3983095Y-12120143D02*
X3983095Y-12320143D01*
X3983095Y-12129667D02*
X4002143Y-12120143D01*
X4040238Y-12120143D01*
X4059286Y-12129667D01*
X4068809Y-12139190D01*
X4078333Y-12158238D01*
X4078333Y-12215381D01*
X4068809Y-12234428D01*
X4059286Y-12243952D01*
X4040238Y-12253476D01*
X4002143Y-12253476D01*
X3983095Y-12243952D01*
X4164048Y-12234428D02*
X4173571Y-12243952D01*
X4164048Y-12253476D01*
X4154524Y-12243952D01*
X4164048Y-12234428D01*
X4164048Y-12253476D01*
X4164048Y-12129667D02*
X4173571Y-12139190D01*
X4164048Y-12148714D01*
X4154524Y-12139190D01*
X4164048Y-12129667D01*
X4164048Y-12148714D01*
X2335000Y-12483000D02*
X2535000Y-12683000D01*
X2535000Y-12483000D02*
X2335000Y-12683000D01*
X2773571Y-12473476D02*
X2897381Y-12473476D01*
X2830714Y-12549667D01*
X2859286Y-12549667D01*
X2878333Y-12559190D01*
X2887857Y-12568714D01*
X2897381Y-12587762D01*
X2897381Y-12635381D01*
X2887857Y-12654428D01*
X2878333Y-12663952D01*
X2859286Y-12673476D01*
X2802143Y-12673476D01*
X2783095Y-12663952D01*
X2773571Y-12654428D01*
X2983095Y-12654428D02*
X2992619Y-12663952D01*
X2983095Y-12673476D01*
X2973571Y-12663952D01*
X2983095Y-12654428D01*
X2983095Y-12673476D01*
X3173571Y-12473476D02*
X3078333Y-12473476D01*
X3068809Y-12568714D01*
X3078333Y-12559190D01*
X3097381Y-12549667D01*
X3145000Y-12549667D01*
X3164048Y-12559190D01*
X3173571Y-12568714D01*
X3183095Y-12587762D01*
X3183095Y-12635381D01*
X3173571Y-12654428D01*
X3164048Y-12663952D01*
X3145000Y-12673476D01*
X3097381Y-12673476D01*
X3078333Y-12663952D01*
X3068809Y-12654428D01*
X3306905Y-12473476D02*
X3325952Y-12473476D01*
X3345000Y-12483000D01*
X3354524Y-12492524D01*
X3364048Y-12511571D01*
X3373571Y-12549667D01*
X3373571Y-12597286D01*
X3364048Y-12635381D01*
X3354524Y-12654428D01*
X3345000Y-12663952D01*
X3325952Y-12673476D01*
X3306905Y-12673476D01*
X3287857Y-12663952D01*
X3278333Y-12654428D01*
X3268809Y-12635381D01*
X3259286Y-12597286D01*
X3259286Y-12549667D01*
X3268809Y-12511571D01*
X3278333Y-12492524D01*
X3287857Y-12483000D01*
X3306905Y-12473476D01*
X3497381Y-12473476D02*
X3516428Y-12473476D01*
X3535476Y-12483000D01*
X3545000Y-12492524D01*
X3554524Y-12511571D01*
X3564048Y-12549667D01*
X3564048Y-12597286D01*
X3554524Y-12635381D01*
X3545000Y-12654428D01*
X3535476Y-12663952D01*
X3516428Y-12673476D01*
X3497381Y-12673476D01*
X3478333Y-12663952D01*
X3468809Y-12654428D01*
X3459286Y-12635381D01*
X3449762Y-12597286D01*
X3449762Y-12549667D01*
X3459286Y-12511571D01*
X3468809Y-12492524D01*
X3478333Y-12483000D01*
X3497381Y-12473476D01*
X3649762Y-12673476D02*
X3649762Y-12540143D01*
X3649762Y-12559190D02*
X3659286Y-12549667D01*
X3678333Y-12540143D01*
X3706905Y-12540143D01*
X3725952Y-12549667D01*
X3735476Y-12568714D01*
X3735476Y-12673476D01*
X3735476Y-12568714D02*
X3745000Y-12549667D01*
X3764048Y-12540143D01*
X3792619Y-12540143D01*
X3811667Y-12549667D01*
X3821190Y-12568714D01*
X3821190Y-12673476D01*
X3916428Y-12673476D02*
X3916428Y-12540143D01*
X3916428Y-12559190D02*
X3925952Y-12549667D01*
X3945000Y-12540143D01*
X3973571Y-12540143D01*
X3992619Y-12549667D01*
X4002143Y-12568714D01*
X4002143Y-12673476D01*
X4002143Y-12568714D02*
X4011667Y-12549667D01*
X4030714Y-12540143D01*
X4059286Y-12540143D01*
X4078333Y-12549667D01*
X4087857Y-12568714D01*
X4087857Y-12673476D01*
X4478333Y-12463952D02*
X4306905Y-12721095D01*
X4735476Y-12473476D02*
X4754524Y-12473476D01*
X4773571Y-12483000D01*
X4783095Y-12492524D01*
X4792619Y-12511571D01*
X4802143Y-12549667D01*
X4802143Y-12597286D01*
X4792619Y-12635381D01*
X4783095Y-12654428D01*
X4773571Y-12663952D01*
X4754524Y-12673476D01*
X4735476Y-12673476D01*
X4716429Y-12663952D01*
X4706905Y-12654428D01*
X4697381Y-12635381D01*
X4687857Y-12597286D01*
X4687857Y-12549667D01*
X4697381Y-12511571D01*
X4706905Y-12492524D01*
X4716429Y-12483000D01*
X4735476Y-12473476D01*
X4887857Y-12654428D02*
X4897381Y-12663952D01*
X4887857Y-12673476D01*
X4878333Y-12663952D01*
X4887857Y-12654428D01*
X4887857Y-12673476D01*
X5087857Y-12673476D02*
X4973571Y-12673476D01*
X5030714Y-12673476D02*
X5030714Y-12473476D01*
X5011667Y-12502048D01*
X4992619Y-12521095D01*
X4973571Y-12530619D01*
X5154524Y-12473476D02*
X5278333Y-12473476D01*
X5211667Y-12549667D01*
X5240238Y-12549667D01*
X5259286Y-12559190D01*
X5268810Y-12568714D01*
X5278333Y-12587762D01*
X5278333Y-12635381D01*
X5268810Y-12654428D01*
X5259286Y-12663952D01*
X5240238Y-12673476D01*
X5183095Y-12673476D01*
X5164048Y-12663952D01*
X5154524Y-12654428D01*
X5345000Y-12473476D02*
X5478333Y-12473476D01*
X5392619Y-12673476D01*
X5583095Y-12559190D02*
X5564048Y-12549667D01*
X5554524Y-12540143D01*
X5545000Y-12521095D01*
X5545000Y-12511571D01*
X5554524Y-12492524D01*
X5564048Y-12483000D01*
X5583095Y-12473476D01*
X5621190Y-12473476D01*
X5640238Y-12483000D01*
X5649762Y-12492524D01*
X5659286Y-12511571D01*
X5659286Y-12521095D01*
X5649762Y-12540143D01*
X5640238Y-12549667D01*
X5621190Y-12559190D01*
X5583095Y-12559190D01*
X5564048Y-12568714D01*
X5554524Y-12578238D01*
X5545000Y-12597286D01*
X5545000Y-12635381D01*
X5554524Y-12654428D01*
X5564048Y-12663952D01*
X5583095Y-12673476D01*
X5621190Y-12673476D01*
X5640238Y-12663952D01*
X5649762Y-12654428D01*
X5659286Y-12635381D01*
X5659286Y-12597286D01*
X5649762Y-12578238D01*
X5640238Y-12568714D01*
X5621190Y-12559190D01*
X5735476Y-12473476D02*
X5735476Y-12511571D01*
X5811667Y-12473476D02*
X5811667Y-12511571D01*
X6106905Y-12749667D02*
X6097381Y-12740143D01*
X6078333Y-12711571D01*
X6068809Y-12692524D01*
X6059286Y-12663952D01*
X6049762Y-12616333D01*
X6049762Y-12578238D01*
X6059286Y-12530619D01*
X6068809Y-12502048D01*
X6078333Y-12483000D01*
X6097381Y-12454428D01*
X6106905Y-12444905D01*
X6287857Y-12673476D02*
X6173571Y-12673476D01*
X6230714Y-12673476D02*
X6230714Y-12473476D01*
X6211667Y-12502048D01*
X6192619Y-12521095D01*
X6173571Y-12530619D01*
X6525952Y-12673476D02*
X6525952Y-12473476D01*
X6611667Y-12673476D02*
X6611667Y-12568714D01*
X6602143Y-12549667D01*
X6583095Y-12540143D01*
X6554524Y-12540143D01*
X6535476Y-12549667D01*
X6525952Y-12559190D01*
X6735476Y-12673476D02*
X6716428Y-12663952D01*
X6706905Y-12654428D01*
X6697381Y-12635381D01*
X6697381Y-12578238D01*
X6706905Y-12559190D01*
X6716428Y-12549667D01*
X6735476Y-12540143D01*
X6764048Y-12540143D01*
X6783095Y-12549667D01*
X6792619Y-12559190D01*
X6802143Y-12578238D01*
X6802143Y-12635381D01*
X6792619Y-12654428D01*
X6783095Y-12663952D01*
X6764048Y-12673476D01*
X6735476Y-12673476D01*
X6916428Y-12673476D02*
X6897381Y-12663952D01*
X6887857Y-12644905D01*
X6887857Y-12473476D01*
X7068809Y-12663952D02*
X7049762Y-12673476D01*
X7011667Y-12673476D01*
X6992619Y-12663952D01*
X6983095Y-12644905D01*
X6983095Y-12568714D01*
X6992619Y-12549667D01*
X7011667Y-12540143D01*
X7049762Y-12540143D01*
X7068809Y-12549667D01*
X7078333Y-12568714D01*
X7078333Y-12587762D01*
X6983095Y-12606809D01*
X7145000Y-12749667D02*
X7154524Y-12740143D01*
X7173571Y-12711571D01*
X7183095Y-12692524D01*
X7192619Y-12663952D01*
X7202143Y-12616333D01*
X7202143Y-12578238D01*
X7192619Y-12530619D01*
X7183095Y-12502048D01*
X7173571Y-12483000D01*
X7154524Y-12454428D01*
X7145000Y-12444905D01*
X7506905Y-12749667D02*
X7497381Y-12740143D01*
X7478333Y-12711571D01*
X7468809Y-12692524D01*
X7459286Y-12663952D01*
X7449762Y-12616333D01*
X7449762Y-12578238D01*
X7459286Y-12530619D01*
X7468809Y-12502048D01*
X7478333Y-12483000D01*
X7497381Y-12454428D01*
X7506905Y-12444905D01*
X7583095Y-12540143D02*
X7583095Y-12673476D01*
X7583095Y-12559190D02*
X7592619Y-12549667D01*
X7611667Y-12540143D01*
X7640238Y-12540143D01*
X7659286Y-12549667D01*
X7668809Y-12568714D01*
X7668809Y-12673476D01*
X7792619Y-12673476D02*
X7773571Y-12663952D01*
X7764048Y-12654428D01*
X7754524Y-12635381D01*
X7754524Y-12578238D01*
X7764048Y-12559190D01*
X7773571Y-12549667D01*
X7792619Y-12540143D01*
X7821190Y-12540143D01*
X7840238Y-12549667D01*
X7849762Y-12559190D01*
X7859286Y-12578238D01*
X7859286Y-12635381D01*
X7849762Y-12654428D01*
X7840238Y-12663952D01*
X7821190Y-12673476D01*
X7792619Y-12673476D01*
X7916428Y-12540143D02*
X7992619Y-12540143D01*
X7945000Y-12473476D02*
X7945000Y-12644905D01*
X7954524Y-12663952D01*
X7973571Y-12673476D01*
X7992619Y-12673476D01*
X8211667Y-12540143D02*
X8211667Y-12740143D01*
X8211667Y-12549667D02*
X8230714Y-12540143D01*
X8268809Y-12540143D01*
X8287857Y-12549667D01*
X8297381Y-12559190D01*
X8306905Y-12578238D01*
X8306905Y-12635381D01*
X8297381Y-12654428D01*
X8287857Y-12663952D01*
X8268809Y-12673476D01*
X8230714Y-12673476D01*
X8211667Y-12663952D01*
X8421190Y-12673476D02*
X8402143Y-12663952D01*
X8392619Y-12644905D01*
X8392619Y-12473476D01*
X8583095Y-12673476D02*
X8583095Y-12568714D01*
X8573571Y-12549667D01*
X8554524Y-12540143D01*
X8516429Y-12540143D01*
X8497381Y-12549667D01*
X8583095Y-12663952D02*
X8564048Y-12673476D01*
X8516429Y-12673476D01*
X8497381Y-12663952D01*
X8487857Y-12644905D01*
X8487857Y-12625857D01*
X8497381Y-12606809D01*
X8516429Y-12597286D01*
X8564048Y-12597286D01*
X8583095Y-12587762D01*
X8649762Y-12540143D02*
X8725952Y-12540143D01*
X8678333Y-12473476D02*
X8678333Y-12644905D01*
X8687857Y-12663952D01*
X8706905Y-12673476D01*
X8725952Y-12673476D01*
X8868810Y-12663952D02*
X8849762Y-12673476D01*
X8811667Y-12673476D01*
X8792619Y-12663952D01*
X8783095Y-12644905D01*
X8783095Y-12568714D01*
X8792619Y-12549667D01*
X8811667Y-12540143D01*
X8849762Y-12540143D01*
X8868810Y-12549667D01*
X8878333Y-12568714D01*
X8878333Y-12587762D01*
X8783095Y-12606809D01*
X9049762Y-12673476D02*
X9049762Y-12473476D01*
X9049762Y-12663952D02*
X9030714Y-12673476D01*
X8992619Y-12673476D01*
X8973571Y-12663952D01*
X8964048Y-12654428D01*
X8954524Y-12635381D01*
X8954524Y-12578238D01*
X8964048Y-12559190D01*
X8973571Y-12549667D01*
X8992619Y-12540143D01*
X9030714Y-12540143D01*
X9049762Y-12549667D01*
X9125952Y-12749667D02*
X9135476Y-12740143D01*
X9154524Y-12711571D01*
X9164048Y-12692524D01*
X9173571Y-12663952D01*
X9183095Y-12616333D01*
X9183095Y-12578238D01*
X9173571Y-12530619D01*
X9164048Y-12502048D01*
X9154524Y-12483000D01*
X9135476Y-12454428D01*
X9125952Y-12444905D01*
X2535000Y-12903000D02*
G75*
G03*
X2535000Y-12903000I-100000J0D01*
G01*
X2773571Y-12793476D02*
X2897381Y-12793476D01*
X2830714Y-12869667D01*
X2859286Y-12869667D01*
X2878333Y-12879190D01*
X2887857Y-12888714D01*
X2897381Y-12907762D01*
X2897381Y-12955381D01*
X2887857Y-12974428D01*
X2878333Y-12983952D01*
X2859286Y-12993476D01*
X2802143Y-12993476D01*
X2783095Y-12983952D01*
X2773571Y-12974428D01*
X2983095Y-12974428D02*
X2992619Y-12983952D01*
X2983095Y-12993476D01*
X2973571Y-12983952D01*
X2983095Y-12974428D01*
X2983095Y-12993476D01*
X3164048Y-12793476D02*
X3125952Y-12793476D01*
X3106905Y-12803000D01*
X3097381Y-12812524D01*
X3078333Y-12841095D01*
X3068809Y-12879190D01*
X3068809Y-12955381D01*
X3078333Y-12974428D01*
X3087857Y-12983952D01*
X3106905Y-12993476D01*
X3145000Y-12993476D01*
X3164048Y-12983952D01*
X3173571Y-12974428D01*
X3183095Y-12955381D01*
X3183095Y-12907762D01*
X3173571Y-12888714D01*
X3164048Y-12879190D01*
X3145000Y-12869667D01*
X3106905Y-12869667D01*
X3087857Y-12879190D01*
X3078333Y-12888714D01*
X3068809Y-12907762D01*
X3306905Y-12793476D02*
X3325952Y-12793476D01*
X3345000Y-12803000D01*
X3354524Y-12812524D01*
X3364048Y-12831571D01*
X3373571Y-12869667D01*
X3373571Y-12917286D01*
X3364048Y-12955381D01*
X3354524Y-12974428D01*
X3345000Y-12983952D01*
X3325952Y-12993476D01*
X3306905Y-12993476D01*
X3287857Y-12983952D01*
X3278333Y-12974428D01*
X3268809Y-12955381D01*
X3259286Y-12917286D01*
X3259286Y-12869667D01*
X3268809Y-12831571D01*
X3278333Y-12812524D01*
X3287857Y-12803000D01*
X3306905Y-12793476D01*
X3497381Y-12793476D02*
X3516428Y-12793476D01*
X3535476Y-12803000D01*
X3545000Y-12812524D01*
X3554524Y-12831571D01*
X3564048Y-12869667D01*
X3564048Y-12917286D01*
X3554524Y-12955381D01*
X3545000Y-12974428D01*
X3535476Y-12983952D01*
X3516428Y-12993476D01*
X3497381Y-12993476D01*
X3478333Y-12983952D01*
X3468809Y-12974428D01*
X3459286Y-12955381D01*
X3449762Y-12917286D01*
X3449762Y-12869667D01*
X3459286Y-12831571D01*
X3468809Y-12812524D01*
X3478333Y-12803000D01*
X3497381Y-12793476D01*
X3649762Y-12993476D02*
X3649762Y-12860143D01*
X3649762Y-12879190D02*
X3659286Y-12869667D01*
X3678333Y-12860143D01*
X3706905Y-12860143D01*
X3725952Y-12869667D01*
X3735476Y-12888714D01*
X3735476Y-12993476D01*
X3735476Y-12888714D02*
X3745000Y-12869667D01*
X3764048Y-12860143D01*
X3792619Y-12860143D01*
X3811667Y-12869667D01*
X3821190Y-12888714D01*
X3821190Y-12993476D01*
X3916428Y-12993476D02*
X3916428Y-12860143D01*
X3916428Y-12879190D02*
X3925952Y-12869667D01*
X3945000Y-12860143D01*
X3973571Y-12860143D01*
X3992619Y-12869667D01*
X4002143Y-12888714D01*
X4002143Y-12993476D01*
X4002143Y-12888714D02*
X4011667Y-12869667D01*
X4030714Y-12860143D01*
X4059286Y-12860143D01*
X4078333Y-12869667D01*
X4087857Y-12888714D01*
X4087857Y-12993476D01*
X4478333Y-12783952D02*
X4306905Y-13041095D01*
X4735476Y-12793476D02*
X4754524Y-12793476D01*
X4773571Y-12803000D01*
X4783095Y-12812524D01*
X4792619Y-12831571D01*
X4802143Y-12869667D01*
X4802143Y-12917286D01*
X4792619Y-12955381D01*
X4783095Y-12974428D01*
X4773571Y-12983952D01*
X4754524Y-12993476D01*
X4735476Y-12993476D01*
X4716429Y-12983952D01*
X4706905Y-12974428D01*
X4697381Y-12955381D01*
X4687857Y-12917286D01*
X4687857Y-12869667D01*
X4697381Y-12831571D01*
X4706905Y-12812524D01*
X4716429Y-12803000D01*
X4735476Y-12793476D01*
X4887857Y-12974428D02*
X4897381Y-12983952D01*
X4887857Y-12993476D01*
X4878333Y-12983952D01*
X4887857Y-12974428D01*
X4887857Y-12993476D01*
X5087857Y-12993476D02*
X4973571Y-12993476D01*
X5030714Y-12993476D02*
X5030714Y-12793476D01*
X5011667Y-12822048D01*
X4992619Y-12841095D01*
X4973571Y-12850619D01*
X5259286Y-12860143D02*
X5259286Y-12993476D01*
X5211667Y-12783952D02*
X5164048Y-12926809D01*
X5287857Y-12926809D01*
X5468810Y-12993476D02*
X5354524Y-12993476D01*
X5411667Y-12993476D02*
X5411667Y-12793476D01*
X5392619Y-12822048D01*
X5373571Y-12841095D01*
X5354524Y-12850619D01*
X5535476Y-12793476D02*
X5668809Y-12793476D01*
X5583095Y-12993476D01*
X5735476Y-12793476D02*
X5735476Y-12831571D01*
X5811667Y-12793476D02*
X5811667Y-12831571D01*
X6106905Y-13069667D02*
X6097381Y-13060143D01*
X6078333Y-13031571D01*
X6068809Y-13012524D01*
X6059286Y-12983952D01*
X6049762Y-12936333D01*
X6049762Y-12898238D01*
X6059286Y-12850619D01*
X6068809Y-12822048D01*
X6078333Y-12803000D01*
X6097381Y-12774428D01*
X6106905Y-12764905D01*
X6173571Y-12812524D02*
X6183095Y-12803000D01*
X6202143Y-12793476D01*
X6249762Y-12793476D01*
X6268809Y-12803000D01*
X6278333Y-12812524D01*
X6287857Y-12831571D01*
X6287857Y-12850619D01*
X6278333Y-12879190D01*
X6164048Y-12993476D01*
X6287857Y-12993476D01*
X6525952Y-12993476D02*
X6525952Y-12793476D01*
X6611667Y-12993476D02*
X6611667Y-12888714D01*
X6602143Y-12869667D01*
X6583095Y-12860143D01*
X6554524Y-12860143D01*
X6535476Y-12869667D01*
X6525952Y-12879190D01*
X6735476Y-12993476D02*
X6716428Y-12983952D01*
X6706905Y-12974428D01*
X6697381Y-12955381D01*
X6697381Y-12898238D01*
X6706905Y-12879190D01*
X6716428Y-12869667D01*
X6735476Y-12860143D01*
X6764048Y-12860143D01*
X6783095Y-12869667D01*
X6792619Y-12879190D01*
X6802143Y-12898238D01*
X6802143Y-12955381D01*
X6792619Y-12974428D01*
X6783095Y-12983952D01*
X6764048Y-12993476D01*
X6735476Y-12993476D01*
X6916428Y-12993476D02*
X6897381Y-12983952D01*
X6887857Y-12964905D01*
X6887857Y-12793476D01*
X7068809Y-12983952D02*
X7049762Y-12993476D01*
X7011667Y-12993476D01*
X6992619Y-12983952D01*
X6983095Y-12964905D01*
X6983095Y-12888714D01*
X6992619Y-12869667D01*
X7011667Y-12860143D01*
X7049762Y-12860143D01*
X7068809Y-12869667D01*
X7078333Y-12888714D01*
X7078333Y-12907762D01*
X6983095Y-12926809D01*
X7154524Y-12983952D02*
X7173571Y-12993476D01*
X7211667Y-12993476D01*
X7230714Y-12983952D01*
X7240238Y-12964905D01*
X7240238Y-12955381D01*
X7230714Y-12936333D01*
X7211667Y-12926809D01*
X7183095Y-12926809D01*
X7164048Y-12917286D01*
X7154524Y-12898238D01*
X7154524Y-12888714D01*
X7164048Y-12869667D01*
X7183095Y-12860143D01*
X7211667Y-12860143D01*
X7230714Y-12869667D01*
X7306905Y-13069667D02*
X7316428Y-13060143D01*
X7335476Y-13031571D01*
X7345000Y-13012524D01*
X7354524Y-12983952D01*
X7364048Y-12936333D01*
X7364048Y-12898238D01*
X7354524Y-12850619D01*
X7345000Y-12822048D01*
X7335476Y-12803000D01*
X7316428Y-12774428D01*
X7306905Y-12764905D01*
X7668809Y-13069667D02*
X7659286Y-13060143D01*
X7640238Y-13031571D01*
X7630714Y-13012524D01*
X7621190Y-12983952D01*
X7611667Y-12936333D01*
X7611667Y-12898238D01*
X7621190Y-12850619D01*
X7630714Y-12822048D01*
X7640238Y-12803000D01*
X7659286Y-12774428D01*
X7668809Y-12764905D01*
X7745000Y-12860143D02*
X7745000Y-12993476D01*
X7745000Y-12879190D02*
X7754524Y-12869667D01*
X7773571Y-12860143D01*
X7802143Y-12860143D01*
X7821190Y-12869667D01*
X7830714Y-12888714D01*
X7830714Y-12993476D01*
X7954524Y-12993476D02*
X7935476Y-12983952D01*
X7925952Y-12974428D01*
X7916428Y-12955381D01*
X7916428Y-12898238D01*
X7925952Y-12879190D01*
X7935476Y-12869667D01*
X7954524Y-12860143D01*
X7983095Y-12860143D01*
X8002143Y-12869667D01*
X8011667Y-12879190D01*
X8021190Y-12898238D01*
X8021190Y-12955381D01*
X8011667Y-12974428D01*
X8002143Y-12983952D01*
X7983095Y-12993476D01*
X7954524Y-12993476D01*
X8078333Y-12860143D02*
X8154524Y-12860143D01*
X8106905Y-12793476D02*
X8106905Y-12964905D01*
X8116428Y-12983952D01*
X8135476Y-12993476D01*
X8154524Y-12993476D01*
X8373571Y-12860143D02*
X8373571Y-13060143D01*
X8373571Y-12869667D02*
X8392619Y-12860143D01*
X8430714Y-12860143D01*
X8449762Y-12869667D01*
X8459286Y-12879190D01*
X8468810Y-12898238D01*
X8468810Y-12955381D01*
X8459286Y-12974428D01*
X8449762Y-12983952D01*
X8430714Y-12993476D01*
X8392619Y-12993476D01*
X8373571Y-12983952D01*
X8583095Y-12993476D02*
X8564048Y-12983952D01*
X8554524Y-12964905D01*
X8554524Y-12793476D01*
X8745000Y-12993476D02*
X8745000Y-12888714D01*
X8735476Y-12869667D01*
X8716429Y-12860143D01*
X8678333Y-12860143D01*
X8659286Y-12869667D01*
X8745000Y-12983952D02*
X8725952Y-12993476D01*
X8678333Y-12993476D01*
X8659286Y-12983952D01*
X8649762Y-12964905D01*
X8649762Y-12945857D01*
X8659286Y-12926809D01*
X8678333Y-12917286D01*
X8725952Y-12917286D01*
X8745000Y-12907762D01*
X8811667Y-12860143D02*
X8887857Y-12860143D01*
X8840238Y-12793476D02*
X8840238Y-12964905D01*
X8849762Y-12983952D01*
X8868810Y-12993476D01*
X8887857Y-12993476D01*
X9030714Y-12983952D02*
X9011667Y-12993476D01*
X8973571Y-12993476D01*
X8954524Y-12983952D01*
X8945000Y-12964905D01*
X8945000Y-12888714D01*
X8954524Y-12869667D01*
X8973571Y-12860143D01*
X9011667Y-12860143D01*
X9030714Y-12869667D01*
X9040238Y-12888714D01*
X9040238Y-12907762D01*
X8945000Y-12926809D01*
X9211667Y-12993476D02*
X9211667Y-12793476D01*
X9211667Y-12983952D02*
X9192619Y-12993476D01*
X9154524Y-12993476D01*
X9135476Y-12983952D01*
X9125952Y-12974428D01*
X9116429Y-12955381D01*
X9116429Y-12898238D01*
X9125952Y-12879190D01*
X9135476Y-12869667D01*
X9154524Y-12860143D01*
X9192619Y-12860143D01*
X9211667Y-12869667D01*
X9287857Y-13069667D02*
X9297381Y-13060143D01*
X9316429Y-13031571D01*
X9325952Y-13012524D01*
X9335476Y-12983952D01*
X9345000Y-12936333D01*
X9345000Y-12898238D01*
X9335476Y-12850619D01*
X9325952Y-12822048D01*
X9316429Y-12803000D01*
X9297381Y-12774428D01*
X9287857Y-12764905D01*
M02*
