G04 #@! TF.GenerationSoftware,KiCad,Pcbnew,(6.0.0)*
G04 #@! TF.CreationDate,2022-01-14T02:16:32-05:00*
G04 #@! TF.ProjectId,klxecu,6b6c7865-6375-42e6-9b69-6361645f7063,rev?*
G04 #@! TF.SameCoordinates,Original*
G04 #@! TF.FileFunction,Soldermask,Top*
G04 #@! TF.FilePolarity,Negative*
%FSLAX46Y46*%
G04 Gerber Fmt 4.6, Leading zero omitted, Abs format (unit mm)*
G04 Created by KiCad (PCBNEW (6.0.0)) date 2022-01-14 02:16:32*
%MOMM*%
%LPD*%
G01*
G04 APERTURE LIST*
G04 Aperture macros list*
%AMRoundRect*
0 Rectangle with rounded corners*
0 $1 Rounding radius*
0 $2 $3 $4 $5 $6 $7 $8 $9 X,Y pos of 4 corners*
0 Add a 4 corners polygon primitive as box body*
4,1,4,$2,$3,$4,$5,$6,$7,$8,$9,$2,$3,0*
0 Add four circle primitives for the rounded corners*
1,1,$1+$1,$2,$3*
1,1,$1+$1,$4,$5*
1,1,$1+$1,$6,$7*
1,1,$1+$1,$8,$9*
0 Add four rect primitives between the rounded corners*
20,1,$1+$1,$2,$3,$4,$5,0*
20,1,$1+$1,$4,$5,$6,$7,0*
20,1,$1+$1,$6,$7,$8,$9,0*
20,1,$1+$1,$8,$9,$2,$3,0*%
G04 Aperture macros list end*
%ADD10C,6.400000*%
%ADD11RoundRect,0.250000X0.350000X0.450000X-0.350000X0.450000X-0.350000X-0.450000X0.350000X-0.450000X0*%
%ADD12RoundRect,0.250000X-0.450000X0.350000X-0.450000X-0.350000X0.450000X-0.350000X0.450000X0.350000X0*%
%ADD13RoundRect,0.250000X-0.350000X-0.450000X0.350000X-0.450000X0.350000X0.450000X-0.350000X0.450000X0*%
%ADD14RoundRect,0.250000X0.450000X-0.262500X0.450000X0.262500X-0.450000X0.262500X-0.450000X-0.262500X0*%
%ADD15C,1.600000*%
%ADD16O,1.600000X1.600000*%
%ADD17R,1.600000X1.600000*%
%ADD18R,2.000000X1.905000*%
%ADD19O,2.000000X1.905000*%
%ADD20R,1.905000X2.000000*%
%ADD21O,1.905000X2.000000*%
%ADD22O,1.500000X1.050000*%
%ADD23R,1.500000X1.050000*%
%ADD24R,1.700000X1.700000*%
%ADD25O,1.700000X1.700000*%
%ADD26R,2.200000X2.200000*%
%ADD27O,2.200000X2.200000*%
%ADD28RoundRect,0.250000X0.337500X0.475000X-0.337500X0.475000X-0.337500X-0.475000X0.337500X-0.475000X0*%
%ADD29RoundRect,0.250000X-0.475000X0.337500X-0.475000X-0.337500X0.475000X-0.337500X0.475000X0.337500X0*%
%ADD30RoundRect,0.250000X0.475000X-0.337500X0.475000X0.337500X-0.475000X0.337500X-0.475000X-0.337500X0*%
%ADD31RoundRect,0.250000X-0.337500X-0.475000X0.337500X-0.475000X0.337500X0.475000X-0.337500X0.475000X0*%
G04 APERTURE END LIST*
D10*
X22860000Y-27940000D03*
X22860000Y-91440000D03*
X142240000Y-27940000D03*
D11*
X143240000Y-53340000D03*
X141240000Y-53340000D03*
X141240000Y-55880000D03*
X143240000Y-55880000D03*
D12*
X138430000Y-45990000D03*
X138430000Y-47990000D03*
X135890000Y-45990000D03*
X135890000Y-47990000D03*
D13*
X131080000Y-53340000D03*
X133080000Y-53340000D03*
X131080000Y-55880000D03*
X133080000Y-55880000D03*
X105680000Y-63500000D03*
X107680000Y-63500000D03*
D11*
X131080000Y-60960000D03*
X133080000Y-60960000D03*
D14*
X36830000Y-42822500D03*
X36830000Y-40997500D03*
D11*
X108950000Y-73660000D03*
X106950000Y-73660000D03*
D15*
X39595000Y-76200000D03*
D16*
X44675000Y-76200000D03*
X55351678Y-71765000D03*
X47731678Y-64145000D03*
X52811678Y-71765000D03*
X50271678Y-64145000D03*
X50271678Y-71765000D03*
X52811678Y-64145000D03*
X47731678Y-71765000D03*
D17*
X55351678Y-64145000D03*
X75041678Y-47000000D03*
D16*
X59801678Y-54620000D03*
X72501678Y-47000000D03*
X62341678Y-54620000D03*
X69961678Y-47000000D03*
X64881678Y-54620000D03*
X67421678Y-47000000D03*
X67421678Y-54620000D03*
X64881678Y-47000000D03*
X69961678Y-54620000D03*
X62341678Y-47000000D03*
X72501678Y-54620000D03*
X59801678Y-47000000D03*
X75041678Y-54620000D03*
D18*
X59723687Y-36553687D03*
D19*
X59723687Y-34013687D03*
X59723687Y-31473687D03*
D15*
X36210000Y-33060000D03*
X34910000Y-38060000D03*
D17*
X89641678Y-54625000D03*
D16*
X89641678Y-52085000D03*
X89641678Y-49545000D03*
X89641678Y-47005000D03*
D17*
X89006678Y-60320000D03*
D16*
X89006678Y-62860000D03*
X89006678Y-65400000D03*
X89006678Y-67940000D03*
X89006678Y-70480000D03*
X89006678Y-73020000D03*
X89006678Y-75560000D03*
X89006678Y-78100000D03*
X89006678Y-80640000D03*
X89006678Y-83180000D03*
X89006678Y-85720000D03*
X89006678Y-88260000D03*
D17*
X93451678Y-75565000D03*
D16*
X93451678Y-78105000D03*
X93451678Y-80645000D03*
X93451678Y-83185000D03*
X93451678Y-85725000D03*
X93451678Y-88265000D03*
D12*
X52070000Y-61960000D03*
X52070000Y-59960000D03*
X142240000Y-78470000D03*
X142240000Y-76470000D03*
D13*
X141240000Y-60960000D03*
X143240000Y-60960000D03*
D12*
X133350000Y-44180000D03*
X133350000Y-42180000D03*
X133350000Y-45990000D03*
X133350000Y-47990000D03*
D20*
X64241678Y-86670000D03*
D21*
X66781678Y-86670000D03*
X69321678Y-86670000D03*
D20*
X51541678Y-80320000D03*
D21*
X54081678Y-80320000D03*
X56621678Y-80320000D03*
D20*
X76306678Y-86670000D03*
D21*
X78846678Y-86670000D03*
X81386678Y-86670000D03*
X57256678Y-86670000D03*
X54716678Y-86670000D03*
D20*
X52176678Y-86670000D03*
X76306678Y-80320000D03*
D21*
X78846678Y-80320000D03*
X81386678Y-80320000D03*
D20*
X63606678Y-80320000D03*
D21*
X66146678Y-80320000D03*
X68686678Y-80320000D03*
D22*
X40640000Y-44450000D03*
X40640000Y-45720000D03*
D23*
X40640000Y-43180000D03*
D24*
X72390000Y-36830000D03*
D25*
X72390000Y-34290000D03*
X72390000Y-31750000D03*
D24*
X36830000Y-45720000D03*
D25*
X135890000Y-88900000D03*
X138430000Y-88900000D03*
X135890000Y-86360000D03*
X138430000Y-86360000D03*
X135890000Y-83820000D03*
X138430000Y-83820000D03*
X135890000Y-81280000D03*
X138430000Y-81280000D03*
X135890000Y-78740000D03*
X138430000Y-78740000D03*
X135890000Y-76200000D03*
X138430000Y-76200000D03*
X135890000Y-73660000D03*
X138430000Y-73660000D03*
X135890000Y-71120000D03*
X138430000Y-71120000D03*
X135890000Y-68580000D03*
X138430000Y-68580000D03*
X135890000Y-66040000D03*
X138430000Y-66040000D03*
X135890000Y-63500000D03*
X138430000Y-63500000D03*
X135890000Y-60960000D03*
X138430000Y-60960000D03*
X135890000Y-58420000D03*
X138430000Y-58420000D03*
X135890000Y-55880000D03*
X138430000Y-55880000D03*
X135890000Y-53340000D03*
X138430000Y-53340000D03*
X135890000Y-50800000D03*
D24*
X138430000Y-50800000D03*
X27935000Y-38115000D03*
D25*
X30475000Y-38115000D03*
X27935000Y-40655000D03*
X30475000Y-40655000D03*
X27935000Y-43195000D03*
X30475000Y-43195000D03*
X27935000Y-45735000D03*
X30475000Y-45735000D03*
X27935000Y-48275000D03*
X30475000Y-48275000D03*
X27935000Y-50815000D03*
X30475000Y-50815000D03*
X27935000Y-53355000D03*
X30475000Y-53355000D03*
X27935000Y-55895000D03*
X30475000Y-55895000D03*
X27935000Y-58435000D03*
X30475000Y-58435000D03*
X27935000Y-60975000D03*
X30475000Y-60975000D03*
X27935000Y-63515000D03*
X30475000Y-63515000D03*
X27935000Y-66055000D03*
X30475000Y-66055000D03*
X27935000Y-68595000D03*
X30475000Y-68595000D03*
X27935000Y-71135000D03*
X30475000Y-71135000D03*
X27935000Y-73675000D03*
X30475000Y-73675000D03*
X27935000Y-76215000D03*
X30475000Y-76215000D03*
X27935000Y-78755000D03*
X30475000Y-78755000D03*
X27935000Y-81295000D03*
X30475000Y-81295000D03*
X100420000Y-88930000D03*
X102960000Y-88930000D03*
X100420000Y-86390000D03*
X102960000Y-86390000D03*
X100420000Y-83850000D03*
X102960000Y-83850000D03*
X100420000Y-81310000D03*
X102960000Y-81310000D03*
X100420000Y-78770000D03*
X102960000Y-78770000D03*
X100420000Y-76230000D03*
X102960000Y-76230000D03*
X100420000Y-73690000D03*
X102960000Y-73690000D03*
X100420000Y-71150000D03*
X102960000Y-71150000D03*
X100420000Y-68610000D03*
X102960000Y-68610000D03*
X100420000Y-66070000D03*
X102960000Y-66070000D03*
X100420000Y-63530000D03*
X102960000Y-63530000D03*
X100420000Y-60990000D03*
X102960000Y-60990000D03*
X100420000Y-58450000D03*
X102960000Y-58450000D03*
X100420000Y-55910000D03*
X102960000Y-55910000D03*
X100420000Y-53370000D03*
X102960000Y-53370000D03*
X100420000Y-50830000D03*
X102960000Y-50830000D03*
X100420000Y-48290000D03*
X102960000Y-48290000D03*
X100420000Y-45750000D03*
X102960000Y-45750000D03*
X100420000Y-43210000D03*
X102960000Y-43210000D03*
X100420000Y-40670000D03*
D24*
X102960000Y-40670000D03*
D16*
X122359520Y-36019520D03*
X114739520Y-28399520D03*
X119819520Y-36019520D03*
X117279520Y-28399520D03*
X117279520Y-36019520D03*
X119819520Y-28399520D03*
X114739520Y-36019520D03*
D17*
X122359520Y-28399520D03*
D26*
X54333687Y-32108687D03*
D27*
X46713687Y-32108687D03*
D26*
X50523687Y-37188687D03*
D27*
X42903687Y-37188687D03*
D17*
X82656678Y-71055113D03*
D15*
X82656678Y-68555113D03*
D28*
X143277500Y-50800000D03*
X141202500Y-50800000D03*
X141202500Y-58420000D03*
X143277500Y-58420000D03*
D29*
X140970000Y-45952500D03*
X140970000Y-48027500D03*
D30*
X135890000Y-44217500D03*
X135890000Y-42142500D03*
D31*
X131042500Y-50800000D03*
X133117500Y-50800000D03*
X131042500Y-58420000D03*
X133117500Y-58420000D03*
D15*
X66040000Y-35520000D03*
D17*
X66040000Y-33020000D03*
D15*
X54948687Y-28933687D03*
X52448687Y-28933687D03*
X39728687Y-37168687D03*
X39728687Y-34668687D03*
D17*
X42268687Y-28933687D03*
D15*
X39768687Y-28933687D03*
D17*
X59796678Y-71110000D03*
D16*
X77576678Y-58410000D03*
X62336678Y-71110000D03*
X75036678Y-58410000D03*
X64876678Y-71110000D03*
X72496678Y-58410000D03*
X67416678Y-71110000D03*
X69956678Y-58410000D03*
X69956678Y-71110000D03*
X67416678Y-58410000D03*
X72496678Y-71110000D03*
X64876678Y-58410000D03*
X75036678Y-71110000D03*
X62336678Y-58410000D03*
X77576678Y-71110000D03*
X59796678Y-58410000D03*
M02*
