G04 #@! TF.GenerationSoftware,KiCad,Pcbnew,(6.0.0)*
G04 #@! TF.CreationDate,2022-01-14T02:16:32-05:00*
G04 #@! TF.ProjectId,klxecu,6b6c7865-6375-42e6-9b69-6361645f7063,rev?*
G04 #@! TF.SameCoordinates,Original*
G04 #@! TF.FileFunction,Paste,Top*
G04 #@! TF.FilePolarity,Positive*
%FSLAX46Y46*%
G04 Gerber Fmt 4.6, Leading zero omitted, Abs format (unit mm)*
G04 Created by KiCad (PCBNEW (6.0.0)) date 2022-01-14 02:16:32*
%MOMM*%
%LPD*%
G01*
G04 APERTURE LIST*
G04 Aperture macros list*
%AMRoundRect*
0 Rectangle with rounded corners*
0 $1 Rounding radius*
0 $2 $3 $4 $5 $6 $7 $8 $9 X,Y pos of 4 corners*
0 Add a 4 corners polygon primitive as box body*
4,1,4,$2,$3,$4,$5,$6,$7,$8,$9,$2,$3,0*
0 Add four circle primitives for the rounded corners*
1,1,$1+$1,$2,$3*
1,1,$1+$1,$4,$5*
1,1,$1+$1,$6,$7*
1,1,$1+$1,$8,$9*
0 Add four rect primitives between the rounded corners*
20,1,$1+$1,$2,$3,$4,$5,0*
20,1,$1+$1,$4,$5,$6,$7,0*
20,1,$1+$1,$6,$7,$8,$9,0*
20,1,$1+$1,$8,$9,$2,$3,0*%
G04 Aperture macros list end*
%ADD10RoundRect,0.250000X0.350000X0.450000X-0.350000X0.450000X-0.350000X-0.450000X0.350000X-0.450000X0*%
%ADD11RoundRect,0.250000X-0.450000X0.350000X-0.450000X-0.350000X0.450000X-0.350000X0.450000X0.350000X0*%
%ADD12RoundRect,0.250000X-0.350000X-0.450000X0.350000X-0.450000X0.350000X0.450000X-0.350000X0.450000X0*%
%ADD13RoundRect,0.250000X0.450000X-0.262500X0.450000X0.262500X-0.450000X0.262500X-0.450000X-0.262500X0*%
%ADD14RoundRect,0.250000X0.337500X0.475000X-0.337500X0.475000X-0.337500X-0.475000X0.337500X-0.475000X0*%
%ADD15RoundRect,0.250000X-0.475000X0.337500X-0.475000X-0.337500X0.475000X-0.337500X0.475000X0.337500X0*%
%ADD16RoundRect,0.250000X0.475000X-0.337500X0.475000X0.337500X-0.475000X0.337500X-0.475000X-0.337500X0*%
%ADD17RoundRect,0.250000X-0.337500X-0.475000X0.337500X-0.475000X0.337500X0.475000X-0.337500X0.475000X0*%
G04 APERTURE END LIST*
D10*
X143240000Y-53340000D03*
X141240000Y-53340000D03*
X141240000Y-55880000D03*
X143240000Y-55880000D03*
D11*
X138430000Y-45990000D03*
X138430000Y-47990000D03*
X135890000Y-45990000D03*
X135890000Y-47990000D03*
D12*
X131080000Y-53340000D03*
X133080000Y-53340000D03*
X131080000Y-55880000D03*
X133080000Y-55880000D03*
X105680000Y-63500000D03*
X107680000Y-63500000D03*
D10*
X131080000Y-60960000D03*
X133080000Y-60960000D03*
D13*
X36830000Y-42822500D03*
X36830000Y-40997500D03*
D10*
X108950000Y-73660000D03*
X106950000Y-73660000D03*
D11*
X52070000Y-61960000D03*
X52070000Y-59960000D03*
X142240000Y-78470000D03*
X142240000Y-76470000D03*
D12*
X141240000Y-60960000D03*
X143240000Y-60960000D03*
D11*
X133350000Y-44180000D03*
X133350000Y-42180000D03*
X133350000Y-45990000D03*
X133350000Y-47990000D03*
D14*
X143277500Y-50800000D03*
X141202500Y-50800000D03*
X141202500Y-58420000D03*
X143277500Y-58420000D03*
D15*
X140970000Y-45952500D03*
X140970000Y-48027500D03*
D16*
X135890000Y-44217500D03*
X135890000Y-42142500D03*
D17*
X131042500Y-50800000D03*
X133117500Y-50800000D03*
X131042500Y-58420000D03*
X133117500Y-58420000D03*
M02*
