M48
; DRILL file {KiCad (6.0.0)} date Fri Jan 14 02:18:02 2022
; FORMAT={-:-/ absolute / metric / decimal}
; #@! TF.CreationDate,2022-01-14T02:18:02-05:00
; #@! TF.GenerationSoftware,Kicad,Pcbnew,(6.0.0)
; #@! TF.FileFunction,Plated,1,2,PTH
FMAT,2
METRIC
; #@! TA.AperFunction,Plated,PTH,ViaDrill
T1C0.400
; #@! TA.AperFunction,Plated,PTH,ComponentDrill
T2C0.600
; #@! TA.AperFunction,Plated,PTH,ComponentDrill
T3C0.750
; #@! TA.AperFunction,Plated,PTH,ComponentDrill
T4C0.800
; #@! TA.AperFunction,Plated,PTH,ComponentDrill
T5C1.000
; #@! TA.AperFunction,Plated,PTH,ComponentDrill
T6C1.100
; #@! TA.AperFunction,Plated,PTH,ComponentDrill
T7C2.200
; #@! TA.AperFunction,Plated,PTH,ComponentDrill
T8C3.200
%
G90
G05
T1
X23.495Y-59.69
X25.4Y-44.45
X33.02Y-59.69
X33.02Y-69.85
X34.29Y-60.96
X34.29Y-66.04
X34.29Y-74.865
X34.925Y-53.975
X38.1Y-62.23
X39.37Y-65.051
X40.383Y-56.4
X40.64Y-58.42
X46.99Y-45.72
X48.26Y-46.99
X49.53Y-48.26
X50.8Y-49.53
X53.34Y-43.18
X57.067Y-59.69
X80.01Y-38.1
X81.28Y-44.45
X83.625Y-39.175
X85.09Y-57.15
X86.36Y-38.1
X87.63Y-38.1
X88.9Y-38.1
X90.17Y-38.1
X94.274Y-43.725
X132.08Y-63.5
X139.7Y-40.64
X142.24Y-63.5
T2
X34.91Y-38.06
X36.21Y-33.06
T3
X40.64Y-43.18
X40.64Y-44.45
X40.64Y-45.72
T4
X39.595Y-76.2
X39.729Y-34.669
X39.729Y-37.169
X39.769Y-28.934
X42.269Y-28.934
X44.675Y-76.2
X47.732Y-64.145
X47.732Y-71.765
X50.272Y-64.145
X50.272Y-71.765
X52.449Y-28.934
X52.812Y-64.145
X52.812Y-71.765
X54.949Y-28.934
X55.352Y-64.145
X55.352Y-71.765
X59.797Y-58.41
X59.797Y-71.11
X59.802Y-47.0
X59.802Y-54.62
X62.337Y-58.41
X62.337Y-71.11
X62.342Y-47.0
X62.342Y-54.62
X64.877Y-58.41
X64.877Y-71.11
X64.882Y-47.0
X64.882Y-54.62
X66.04Y-33.02
X66.04Y-35.52
X67.417Y-58.41
X67.417Y-71.11
X67.422Y-47.0
X67.422Y-54.62
X69.957Y-58.41
X69.957Y-71.11
X69.962Y-47.0
X69.962Y-54.62
X72.497Y-58.41
X72.497Y-71.11
X72.502Y-47.0
X72.502Y-54.62
X75.037Y-58.41
X75.037Y-71.11
X75.042Y-47.0
X75.042Y-54.62
X77.577Y-58.41
X77.577Y-71.11
X82.657Y-68.555
X82.657Y-71.055
X89.007Y-60.32
X89.007Y-62.86
X89.007Y-65.4
X89.007Y-67.94
X89.007Y-70.48
X89.007Y-73.02
X89.007Y-75.56
X89.007Y-78.1
X89.007Y-80.64
X89.007Y-83.18
X89.007Y-85.72
X89.007Y-88.26
X89.642Y-47.005
X89.642Y-49.545
X89.642Y-52.085
X89.642Y-54.625
X93.452Y-75.565
X93.452Y-78.105
X93.452Y-80.645
X93.452Y-83.185
X93.452Y-85.725
X93.452Y-88.265
X114.74Y-28.4
X114.74Y-36.02
X117.28Y-28.4
X117.28Y-36.02
X119.82Y-28.4
X119.82Y-36.02
X122.36Y-28.4
X122.36Y-36.02
T5
X27.935Y-38.115
X27.935Y-40.655
X27.935Y-43.195
X27.935Y-45.735
X27.935Y-48.275
X27.935Y-50.815
X27.935Y-53.355
X27.935Y-55.895
X27.935Y-58.435
X27.935Y-60.975
X27.935Y-63.515
X27.935Y-66.055
X27.935Y-68.595
X27.935Y-71.135
X27.935Y-73.675
X27.935Y-76.215
X27.935Y-78.755
X27.935Y-81.295
X30.475Y-38.115
X30.475Y-40.655
X30.475Y-43.195
X30.475Y-45.735
X30.475Y-48.275
X30.475Y-50.815
X30.475Y-53.355
X30.475Y-55.895
X30.475Y-58.435
X30.475Y-60.975
X30.475Y-63.515
X30.475Y-66.055
X30.475Y-68.595
X30.475Y-71.135
X30.475Y-73.675
X30.475Y-76.215
X30.475Y-78.755
X30.475Y-81.295
X36.83Y-45.72
X72.39Y-31.75
X72.39Y-34.29
X72.39Y-36.83
X100.42Y-40.67
X100.42Y-43.21
X100.42Y-45.75
X100.42Y-48.29
X100.42Y-50.83
X100.42Y-53.37
X100.42Y-55.91
X100.42Y-58.45
X100.42Y-60.99
X100.42Y-63.53
X100.42Y-66.07
X100.42Y-68.61
X100.42Y-71.15
X100.42Y-73.69
X100.42Y-76.23
X100.42Y-78.77
X100.42Y-81.31
X100.42Y-83.85
X100.42Y-86.39
X100.42Y-88.93
X102.96Y-40.67
X102.96Y-43.21
X102.96Y-45.75
X102.96Y-48.29
X102.96Y-50.83
X102.96Y-53.37
X102.96Y-55.91
X102.96Y-58.45
X102.96Y-60.99
X102.96Y-63.53
X102.96Y-66.07
X102.96Y-68.61
X102.96Y-71.15
X102.96Y-73.69
X102.96Y-76.23
X102.96Y-78.77
X102.96Y-81.31
X102.96Y-83.85
X102.96Y-86.39
X102.96Y-88.93
X135.89Y-50.8
X135.89Y-53.34
X135.89Y-55.88
X135.89Y-58.42
X135.89Y-60.96
X135.89Y-63.5
X135.89Y-66.04
X135.89Y-68.58
X135.89Y-71.12
X135.89Y-73.66
X135.89Y-76.2
X135.89Y-78.74
X135.89Y-81.28
X135.89Y-83.82
X135.89Y-86.36
X135.89Y-88.9
X138.43Y-50.8
X138.43Y-53.34
X138.43Y-55.88
X138.43Y-58.42
X138.43Y-60.96
X138.43Y-63.5
X138.43Y-66.04
X138.43Y-68.58
X138.43Y-71.12
X138.43Y-73.66
X138.43Y-76.2
X138.43Y-78.74
X138.43Y-81.28
X138.43Y-83.82
X138.43Y-86.36
X138.43Y-88.9
T6
X42.904Y-37.189
X46.714Y-32.109
X50.524Y-37.189
X51.542Y-80.32
X52.177Y-86.67
X54.082Y-80.32
X54.334Y-32.109
X54.717Y-86.67
X56.622Y-80.32
X57.257Y-86.67
X59.724Y-31.474
X59.724Y-34.014
X59.724Y-36.554
X63.607Y-80.32
X64.242Y-86.67
X66.147Y-80.32
X66.782Y-86.67
X68.687Y-80.32
X69.322Y-86.67
X76.307Y-80.32
X76.307Y-86.67
X78.847Y-80.32
X78.847Y-86.67
X81.387Y-80.32
X81.387Y-86.67
T7
X143.51Y-92.71
T8
X22.86Y-27.94
X22.86Y-91.44
X142.24Y-27.94
T0
M30
