G04 #@! TF.GenerationSoftware,KiCad,Pcbnew,(6.0.0)*
G04 #@! TF.CreationDate,2022-01-14T02:16:32-05:00*
G04 #@! TF.ProjectId,klxecu,6b6c7865-6375-42e6-9b69-6361645f7063,rev?*
G04 #@! TF.SameCoordinates,Original*
G04 #@! TF.FileFunction,Legend,Bot*
G04 #@! TF.FilePolarity,Positive*
%FSLAX46Y46*%
G04 Gerber Fmt 4.6, Leading zero omitted, Abs format (unit mm)*
G04 Created by KiCad (PCBNEW (6.0.0)) date 2022-01-14 02:16:32*
%MOMM*%
%LPD*%
G01*
G04 APERTURE LIST*
G04 Aperture macros list*
%AMRoundRect*
0 Rectangle with rounded corners*
0 $1 Rounding radius*
0 $2 $3 $4 $5 $6 $7 $8 $9 X,Y pos of 4 corners*
0 Add a 4 corners polygon primitive as box body*
4,1,4,$2,$3,$4,$5,$6,$7,$8,$9,$2,$3,0*
0 Add four circle primitives for the rounded corners*
1,1,$1+$1,$2,$3*
1,1,$1+$1,$4,$5*
1,1,$1+$1,$6,$7*
1,1,$1+$1,$8,$9*
0 Add four rect primitives between the rounded corners*
20,1,$1+$1,$2,$3,$4,$5,0*
20,1,$1+$1,$4,$5,$6,$7,0*
20,1,$1+$1,$6,$7,$8,$9,0*
20,1,$1+$1,$8,$9,$2,$3,0*%
G04 Aperture macros list end*
%ADD10C,0.150000*%
%ADD11C,0.120000*%
%ADD12C,6.400000*%
%ADD13C,4.400000*%
%ADD14RoundRect,0.250000X0.262500X0.450000X-0.262500X0.450000X-0.262500X-0.450000X0.262500X-0.450000X0*%
%ADD15C,1.600000*%
%ADD16O,1.600000X1.600000*%
%ADD17R,1.600000X1.600000*%
%ADD18RoundRect,0.150000X-0.825000X-0.150000X0.825000X-0.150000X0.825000X0.150000X-0.825000X0.150000X0*%
%ADD19R,1.400000X0.300000*%
%ADD20R,2.000000X1.905000*%
%ADD21O,2.000000X1.905000*%
%ADD22RoundRect,0.250000X0.450000X-0.350000X0.450000X0.350000X-0.450000X0.350000X-0.450000X-0.350000X0*%
%ADD23RoundRect,0.250000X-0.350000X-0.450000X0.350000X-0.450000X0.350000X0.450000X-0.350000X0.450000X0*%
%ADD24RoundRect,0.250000X-0.262500X-0.450000X0.262500X-0.450000X0.262500X0.450000X-0.262500X0.450000X0*%
%ADD25RoundRect,0.250000X-0.450000X0.350000X-0.450000X-0.350000X0.450000X-0.350000X0.450000X0.350000X0*%
%ADD26R,1.905000X2.000000*%
%ADD27O,1.905000X2.000000*%
%ADD28O,1.500000X1.050000*%
%ADD29R,1.500000X1.050000*%
%ADD30R,1.700000X1.700000*%
%ADD31O,1.700000X1.700000*%
%ADD32R,2.200000X2.200000*%
%ADD33O,2.200000X2.200000*%
%ADD34RoundRect,0.250000X0.475000X-0.337500X0.475000X0.337500X-0.475000X0.337500X-0.475000X-0.337500X0*%
%ADD35RoundRect,0.250000X-0.475000X0.337500X-0.475000X-0.337500X0.475000X-0.337500X0.475000X0.337500X0*%
%ADD36RoundRect,0.250000X-0.337500X-0.475000X0.337500X-0.475000X0.337500X0.475000X-0.337500X0.475000X0*%
%ADD37RoundRect,0.250000X0.337500X0.475000X-0.337500X0.475000X-0.337500X-0.475000X0.337500X-0.475000X0*%
G04 APERTURE END LIST*
D10*
X37909166Y-54682380D02*
X38242500Y-54206190D01*
X38480595Y-54682380D02*
X38480595Y-53682380D01*
X38099642Y-53682380D01*
X38004404Y-53730000D01*
X37956785Y-53777619D01*
X37909166Y-53872857D01*
X37909166Y-54015714D01*
X37956785Y-54110952D01*
X38004404Y-54158571D01*
X38099642Y-54206190D01*
X38480595Y-54206190D01*
X37528214Y-53777619D02*
X37480595Y-53730000D01*
X37385357Y-53682380D01*
X37147261Y-53682380D01*
X37052023Y-53730000D01*
X37004404Y-53777619D01*
X36956785Y-53872857D01*
X36956785Y-53968095D01*
X37004404Y-54110952D01*
X37575833Y-54682380D01*
X36956785Y-54682380D01*
X83418582Y-55532380D02*
X83418582Y-56341904D01*
X83370963Y-56437142D01*
X83323344Y-56484761D01*
X83228106Y-56532380D01*
X83037630Y-56532380D01*
X82942392Y-56484761D01*
X82894773Y-56437142D01*
X82847154Y-56341904D01*
X82847154Y-55532380D01*
X81894773Y-55532380D02*
X82370963Y-55532380D01*
X82418582Y-56008571D01*
X82370963Y-55960952D01*
X82275725Y-55913333D01*
X82037630Y-55913333D01*
X81942392Y-55960952D01*
X81894773Y-56008571D01*
X81847154Y-56103809D01*
X81847154Y-56341904D01*
X81894773Y-56437142D01*
X81942392Y-56484761D01*
X82037630Y-56532380D01*
X82275725Y-56532380D01*
X82370963Y-56484761D01*
X82418582Y-56437142D01*
X45211904Y-54002380D02*
X45211904Y-54811904D01*
X45164285Y-54907142D01*
X45116666Y-54954761D01*
X45021428Y-55002380D01*
X44830952Y-55002380D01*
X44735714Y-54954761D01*
X44688095Y-54907142D01*
X44640476Y-54811904D01*
X44640476Y-54002380D01*
X44259523Y-54002380D02*
X43640476Y-54002380D01*
X43973809Y-54383333D01*
X43830952Y-54383333D01*
X43735714Y-54430952D01*
X43688095Y-54478571D01*
X43640476Y-54573809D01*
X43640476Y-54811904D01*
X43688095Y-54907142D01*
X43735714Y-54954761D01*
X43830952Y-55002380D01*
X44116666Y-55002380D01*
X44211904Y-54954761D01*
X44259523Y-54907142D01*
X52522380Y-56507142D02*
X52046190Y-56173809D01*
X52522380Y-55935714D02*
X51522380Y-55935714D01*
X51522380Y-56316666D01*
X51570000Y-56411904D01*
X51617619Y-56459523D01*
X51712857Y-56507142D01*
X51855714Y-56507142D01*
X51950952Y-56459523D01*
X51998571Y-56411904D01*
X52046190Y-56316666D01*
X52046190Y-55935714D01*
X52522380Y-57459523D02*
X52522380Y-56888095D01*
X52522380Y-57173809D02*
X51522380Y-57173809D01*
X51665238Y-57078571D01*
X51760476Y-56983333D01*
X51808095Y-56888095D01*
X51522380Y-57792857D02*
X51522380Y-58411904D01*
X51903333Y-58078571D01*
X51903333Y-58221428D01*
X51950952Y-58316666D01*
X51998571Y-58364285D01*
X52093809Y-58411904D01*
X52331904Y-58411904D01*
X52427142Y-58364285D01*
X52474761Y-58316666D01*
X52522380Y-58221428D01*
X52522380Y-57935714D01*
X52474761Y-57840476D01*
X52427142Y-57792857D01*
X68111666Y-61412380D02*
X68445000Y-60936190D01*
X68683095Y-61412380D02*
X68683095Y-60412380D01*
X68302142Y-60412380D01*
X68206904Y-60460000D01*
X68159285Y-60507619D01*
X68111666Y-60602857D01*
X68111666Y-60745714D01*
X68159285Y-60840952D01*
X68206904Y-60888571D01*
X68302142Y-60936190D01*
X68683095Y-60936190D01*
X67206904Y-60412380D02*
X67683095Y-60412380D01*
X67730714Y-60888571D01*
X67683095Y-60840952D01*
X67587857Y-60793333D01*
X67349761Y-60793333D01*
X67254523Y-60840952D01*
X67206904Y-60888571D01*
X67159285Y-60983809D01*
X67159285Y-61221904D01*
X67206904Y-61317142D01*
X67254523Y-61364761D01*
X67349761Y-61412380D01*
X67587857Y-61412380D01*
X67683095Y-61364761D01*
X67730714Y-61317142D01*
X37909166Y-60522380D02*
X38242500Y-60046190D01*
X38480595Y-60522380D02*
X38480595Y-59522380D01*
X38099642Y-59522380D01*
X38004404Y-59570000D01*
X37956785Y-59617619D01*
X37909166Y-59712857D01*
X37909166Y-59855714D01*
X37956785Y-59950952D01*
X38004404Y-59998571D01*
X38099642Y-60046190D01*
X38480595Y-60046190D01*
X37575833Y-59522380D02*
X36956785Y-59522380D01*
X37290119Y-59903333D01*
X37147261Y-59903333D01*
X37052023Y-59950952D01*
X37004404Y-59998571D01*
X36956785Y-60093809D01*
X36956785Y-60331904D01*
X37004404Y-60427142D01*
X37052023Y-60474761D01*
X37147261Y-60522380D01*
X37432976Y-60522380D01*
X37528214Y-60474761D01*
X37575833Y-60427142D01*
X33092380Y-56983333D02*
X32616190Y-56650000D01*
X33092380Y-56411904D02*
X32092380Y-56411904D01*
X32092380Y-56792857D01*
X32140000Y-56888095D01*
X32187619Y-56935714D01*
X32282857Y-56983333D01*
X32425714Y-56983333D01*
X32520952Y-56935714D01*
X32568571Y-56888095D01*
X32616190Y-56792857D01*
X32616190Y-56411904D01*
X33092380Y-57935714D02*
X33092380Y-57364285D01*
X33092380Y-57650000D02*
X32092380Y-57650000D01*
X32235238Y-57554761D01*
X32330476Y-57459523D01*
X32378095Y-57364285D01*
X54967142Y-56507142D02*
X55014761Y-56459523D01*
X55062380Y-56316666D01*
X55062380Y-56221428D01*
X55014761Y-56078571D01*
X54919523Y-55983333D01*
X54824285Y-55935714D01*
X54633809Y-55888095D01*
X54490952Y-55888095D01*
X54300476Y-55935714D01*
X54205238Y-55983333D01*
X54110000Y-56078571D01*
X54062380Y-56221428D01*
X54062380Y-56316666D01*
X54110000Y-56459523D01*
X54157619Y-56507142D01*
X54157619Y-56888095D02*
X54110000Y-56935714D01*
X54062380Y-57030952D01*
X54062380Y-57269047D01*
X54110000Y-57364285D01*
X54157619Y-57411904D01*
X54252857Y-57459523D01*
X54348095Y-57459523D01*
X54490952Y-57411904D01*
X55062380Y-56840476D01*
X55062380Y-57459523D01*
X54395714Y-58316666D02*
X55062380Y-58316666D01*
X54014761Y-58078571D02*
X54729047Y-57840476D01*
X54729047Y-58459523D01*
X43537142Y-64127142D02*
X43584761Y-64079523D01*
X43632380Y-63936666D01*
X43632380Y-63841428D01*
X43584761Y-63698571D01*
X43489523Y-63603333D01*
X43394285Y-63555714D01*
X43203809Y-63508095D01*
X43060952Y-63508095D01*
X42870476Y-63555714D01*
X42775238Y-63603333D01*
X42680000Y-63698571D01*
X42632380Y-63841428D01*
X42632380Y-63936666D01*
X42680000Y-64079523D01*
X42727619Y-64127142D01*
X42727619Y-64508095D02*
X42680000Y-64555714D01*
X42632380Y-64650952D01*
X42632380Y-64889047D01*
X42680000Y-64984285D01*
X42727619Y-65031904D01*
X42822857Y-65079523D01*
X42918095Y-65079523D01*
X43060952Y-65031904D01*
X43632380Y-64460476D01*
X43632380Y-65079523D01*
X42727619Y-65460476D02*
X42680000Y-65508095D01*
X42632380Y-65603333D01*
X42632380Y-65841428D01*
X42680000Y-65936666D01*
X42727619Y-65984285D01*
X42822857Y-66031904D01*
X42918095Y-66031904D01*
X43060952Y-65984285D01*
X43632380Y-65412857D01*
X43632380Y-66031904D01*
X46077142Y-64127142D02*
X46124761Y-64079523D01*
X46172380Y-63936666D01*
X46172380Y-63841428D01*
X46124761Y-63698571D01*
X46029523Y-63603333D01*
X45934285Y-63555714D01*
X45743809Y-63508095D01*
X45600952Y-63508095D01*
X45410476Y-63555714D01*
X45315238Y-63603333D01*
X45220000Y-63698571D01*
X45172380Y-63841428D01*
X45172380Y-63936666D01*
X45220000Y-64079523D01*
X45267619Y-64127142D01*
X45267619Y-64508095D02*
X45220000Y-64555714D01*
X45172380Y-64650952D01*
X45172380Y-64889047D01*
X45220000Y-64984285D01*
X45267619Y-65031904D01*
X45362857Y-65079523D01*
X45458095Y-65079523D01*
X45600952Y-65031904D01*
X46172380Y-64460476D01*
X46172380Y-65079523D01*
X46172380Y-66031904D02*
X46172380Y-65460476D01*
X46172380Y-65746190D02*
X45172380Y-65746190D01*
X45315238Y-65650952D01*
X45410476Y-65555714D01*
X45458095Y-65460476D01*
X50522142Y-60317142D02*
X50569761Y-60269523D01*
X50617380Y-60126666D01*
X50617380Y-60031428D01*
X50569761Y-59888571D01*
X50474523Y-59793333D01*
X50379285Y-59745714D01*
X50188809Y-59698095D01*
X50045952Y-59698095D01*
X49855476Y-59745714D01*
X49760238Y-59793333D01*
X49665000Y-59888571D01*
X49617380Y-60031428D01*
X49617380Y-60126666D01*
X49665000Y-60269523D01*
X49712619Y-60317142D01*
X49712619Y-60698095D02*
X49665000Y-60745714D01*
X49617380Y-60840952D01*
X49617380Y-61079047D01*
X49665000Y-61174285D01*
X49712619Y-61221904D01*
X49807857Y-61269523D01*
X49903095Y-61269523D01*
X50045952Y-61221904D01*
X50617380Y-60650476D01*
X50617380Y-61269523D01*
X49617380Y-61888571D02*
X49617380Y-61983809D01*
X49665000Y-62079047D01*
X49712619Y-62126666D01*
X49807857Y-62174285D01*
X49998333Y-62221904D01*
X50236428Y-62221904D01*
X50426904Y-62174285D01*
X50522142Y-62126666D01*
X50569761Y-62079047D01*
X50617380Y-61983809D01*
X50617380Y-61888571D01*
X50569761Y-61793333D01*
X50522142Y-61745714D01*
X50426904Y-61698095D01*
X50236428Y-61650476D01*
X49998333Y-61650476D01*
X49807857Y-61698095D01*
X49712619Y-61745714D01*
X49665000Y-61793333D01*
X49617380Y-61888571D01*
X142882857Y-51792142D02*
X142930476Y-51839761D01*
X143073333Y-51887380D01*
X143168571Y-51887380D01*
X143311428Y-51839761D01*
X143406666Y-51744523D01*
X143454285Y-51649285D01*
X143501904Y-51458809D01*
X143501904Y-51315952D01*
X143454285Y-51125476D01*
X143406666Y-51030238D01*
X143311428Y-50935000D01*
X143168571Y-50887380D01*
X143073333Y-50887380D01*
X142930476Y-50935000D01*
X142882857Y-50982619D01*
X141930476Y-51887380D02*
X142501904Y-51887380D01*
X142216190Y-51887380D02*
X142216190Y-50887380D01*
X142311428Y-51030238D01*
X142406666Y-51125476D01*
X142501904Y-51173095D01*
X141454285Y-51887380D02*
X141263809Y-51887380D01*
X141168571Y-51839761D01*
X141120952Y-51792142D01*
X141025714Y-51649285D01*
X140978095Y-51458809D01*
X140978095Y-51077857D01*
X141025714Y-50982619D01*
X141073333Y-50935000D01*
X141168571Y-50887380D01*
X141359047Y-50887380D01*
X141454285Y-50935000D01*
X141501904Y-50982619D01*
X141549523Y-51077857D01*
X141549523Y-51315952D01*
X141501904Y-51411190D01*
X141454285Y-51458809D01*
X141359047Y-51506428D01*
X141168571Y-51506428D01*
X141073333Y-51458809D01*
X141025714Y-51411190D01*
X140978095Y-51315952D01*
X142882857Y-58142142D02*
X142930476Y-58189761D01*
X143073333Y-58237380D01*
X143168571Y-58237380D01*
X143311428Y-58189761D01*
X143406666Y-58094523D01*
X143454285Y-57999285D01*
X143501904Y-57808809D01*
X143501904Y-57665952D01*
X143454285Y-57475476D01*
X143406666Y-57380238D01*
X143311428Y-57285000D01*
X143168571Y-57237380D01*
X143073333Y-57237380D01*
X142930476Y-57285000D01*
X142882857Y-57332619D01*
X141930476Y-58237380D02*
X142501904Y-58237380D01*
X142216190Y-58237380D02*
X142216190Y-57237380D01*
X142311428Y-57380238D01*
X142406666Y-57475476D01*
X142501904Y-57523095D01*
X141359047Y-57665952D02*
X141454285Y-57618333D01*
X141501904Y-57570714D01*
X141549523Y-57475476D01*
X141549523Y-57427857D01*
X141501904Y-57332619D01*
X141454285Y-57285000D01*
X141359047Y-57237380D01*
X141168571Y-57237380D01*
X141073333Y-57285000D01*
X141025714Y-57332619D01*
X140978095Y-57427857D01*
X140978095Y-57475476D01*
X141025714Y-57570714D01*
X141073333Y-57618333D01*
X141168571Y-57665952D01*
X141359047Y-57665952D01*
X141454285Y-57713571D01*
X141501904Y-57761190D01*
X141549523Y-57856428D01*
X141549523Y-58046904D01*
X141501904Y-58142142D01*
X141454285Y-58189761D01*
X141359047Y-58237380D01*
X141168571Y-58237380D01*
X141073333Y-58189761D01*
X141025714Y-58142142D01*
X140978095Y-58046904D01*
X140978095Y-57856428D01*
X141025714Y-57761190D01*
X141073333Y-57713571D01*
X141168571Y-57665952D01*
X138787142Y-42537142D02*
X138834761Y-42489523D01*
X138882380Y-42346666D01*
X138882380Y-42251428D01*
X138834761Y-42108571D01*
X138739523Y-42013333D01*
X138644285Y-41965714D01*
X138453809Y-41918095D01*
X138310952Y-41918095D01*
X138120476Y-41965714D01*
X138025238Y-42013333D01*
X137930000Y-42108571D01*
X137882380Y-42251428D01*
X137882380Y-42346666D01*
X137930000Y-42489523D01*
X137977619Y-42537142D01*
X138882380Y-43489523D02*
X138882380Y-42918095D01*
X138882380Y-43203809D02*
X137882380Y-43203809D01*
X138025238Y-43108571D01*
X138120476Y-43013333D01*
X138168095Y-42918095D01*
X137882380Y-43822857D02*
X137882380Y-44489523D01*
X138882380Y-44060952D01*
X136247142Y-42537142D02*
X136294761Y-42489523D01*
X136342380Y-42346666D01*
X136342380Y-42251428D01*
X136294761Y-42108571D01*
X136199523Y-42013333D01*
X136104285Y-41965714D01*
X135913809Y-41918095D01*
X135770952Y-41918095D01*
X135580476Y-41965714D01*
X135485238Y-42013333D01*
X135390000Y-42108571D01*
X135342380Y-42251428D01*
X135342380Y-42346666D01*
X135390000Y-42489523D01*
X135437619Y-42537142D01*
X136342380Y-43489523D02*
X136342380Y-42918095D01*
X136342380Y-43203809D02*
X135342380Y-43203809D01*
X135485238Y-43108571D01*
X135580476Y-43013333D01*
X135628095Y-42918095D01*
X135342380Y-43822857D02*
X135342380Y-44441904D01*
X135723333Y-44108571D01*
X135723333Y-44251428D01*
X135770952Y-44346666D01*
X135818571Y-44394285D01*
X135913809Y-44441904D01*
X136151904Y-44441904D01*
X136247142Y-44394285D01*
X136294761Y-44346666D01*
X136342380Y-44251428D01*
X136342380Y-43965714D01*
X136294761Y-43870476D01*
X136247142Y-43822857D01*
X128912857Y-53697142D02*
X128960476Y-53744761D01*
X129103333Y-53792380D01*
X129198571Y-53792380D01*
X129341428Y-53744761D01*
X129436666Y-53649523D01*
X129484285Y-53554285D01*
X129531904Y-53363809D01*
X129531904Y-53220952D01*
X129484285Y-53030476D01*
X129436666Y-52935238D01*
X129341428Y-52840000D01*
X129198571Y-52792380D01*
X129103333Y-52792380D01*
X128960476Y-52840000D01*
X128912857Y-52887619D01*
X127960476Y-53792380D02*
X128531904Y-53792380D01*
X128246190Y-53792380D02*
X128246190Y-52792380D01*
X128341428Y-52935238D01*
X128436666Y-53030476D01*
X128531904Y-53078095D01*
X127579523Y-52887619D02*
X127531904Y-52840000D01*
X127436666Y-52792380D01*
X127198571Y-52792380D01*
X127103333Y-52840000D01*
X127055714Y-52887619D01*
X127008095Y-52982857D01*
X127008095Y-53078095D01*
X127055714Y-53220952D01*
X127627142Y-53792380D01*
X127008095Y-53792380D01*
X128912857Y-56237142D02*
X128960476Y-56284761D01*
X129103333Y-56332380D01*
X129198571Y-56332380D01*
X129341428Y-56284761D01*
X129436666Y-56189523D01*
X129484285Y-56094285D01*
X129531904Y-55903809D01*
X129531904Y-55760952D01*
X129484285Y-55570476D01*
X129436666Y-55475238D01*
X129341428Y-55380000D01*
X129198571Y-55332380D01*
X129103333Y-55332380D01*
X128960476Y-55380000D01*
X128912857Y-55427619D01*
X127960476Y-56332380D02*
X128531904Y-56332380D01*
X128246190Y-56332380D02*
X128246190Y-55332380D01*
X128341428Y-55475238D01*
X128436666Y-55570476D01*
X128531904Y-55618095D01*
X127008095Y-56332380D02*
X127579523Y-56332380D01*
X127293809Y-56332380D02*
X127293809Y-55332380D01*
X127389047Y-55475238D01*
X127484285Y-55570476D01*
X127579523Y-55618095D01*
X74652142Y-63492142D02*
X74699761Y-63444523D01*
X74747380Y-63301666D01*
X74747380Y-63206428D01*
X74699761Y-63063571D01*
X74604523Y-62968333D01*
X74509285Y-62920714D01*
X74318809Y-62873095D01*
X74175952Y-62873095D01*
X73985476Y-62920714D01*
X73890238Y-62968333D01*
X73795000Y-63063571D01*
X73747380Y-63206428D01*
X73747380Y-63301666D01*
X73795000Y-63444523D01*
X73842619Y-63492142D01*
X74747380Y-64444523D02*
X74747380Y-63873095D01*
X74747380Y-64158809D02*
X73747380Y-64158809D01*
X73890238Y-64063571D01*
X73985476Y-63968333D01*
X74033095Y-63873095D01*
X73747380Y-65063571D02*
X73747380Y-65158809D01*
X73795000Y-65254047D01*
X73842619Y-65301666D01*
X73937857Y-65349285D01*
X74128333Y-65396904D01*
X74366428Y-65396904D01*
X74556904Y-65349285D01*
X74652142Y-65301666D01*
X74699761Y-65254047D01*
X74747380Y-65158809D01*
X74747380Y-65063571D01*
X74699761Y-64968333D01*
X74652142Y-64920714D01*
X74556904Y-64873095D01*
X74366428Y-64825476D01*
X74128333Y-64825476D01*
X73937857Y-64873095D01*
X73842619Y-64920714D01*
X73795000Y-64968333D01*
X73747380Y-65063571D01*
X49887142Y-52538333D02*
X49934761Y-52490714D01*
X49982380Y-52347857D01*
X49982380Y-52252619D01*
X49934761Y-52109761D01*
X49839523Y-52014523D01*
X49744285Y-51966904D01*
X49553809Y-51919285D01*
X49410952Y-51919285D01*
X49220476Y-51966904D01*
X49125238Y-52014523D01*
X49030000Y-52109761D01*
X48982380Y-52252619D01*
X48982380Y-52347857D01*
X49030000Y-52490714D01*
X49077619Y-52538333D01*
X48982380Y-53395476D02*
X48982380Y-53205000D01*
X49030000Y-53109761D01*
X49077619Y-53062142D01*
X49220476Y-52966904D01*
X49410952Y-52919285D01*
X49791904Y-52919285D01*
X49887142Y-52966904D01*
X49934761Y-53014523D01*
X49982380Y-53109761D01*
X49982380Y-53300238D01*
X49934761Y-53395476D01*
X49887142Y-53443095D01*
X49791904Y-53490714D01*
X49553809Y-53490714D01*
X49458571Y-53443095D01*
X49410952Y-53395476D01*
X49363333Y-53300238D01*
X49363333Y-53109761D01*
X49410952Y-53014523D01*
X49458571Y-52966904D01*
X49553809Y-52919285D01*
X68633820Y-63968333D02*
X68681439Y-63920714D01*
X68729058Y-63777857D01*
X68729058Y-63682619D01*
X68681439Y-63539761D01*
X68586201Y-63444523D01*
X68490963Y-63396904D01*
X68300487Y-63349285D01*
X68157630Y-63349285D01*
X67967154Y-63396904D01*
X67871916Y-63444523D01*
X67776678Y-63539761D01*
X67729058Y-63682619D01*
X67729058Y-63777857D01*
X67776678Y-63920714D01*
X67824297Y-63968333D01*
X67729058Y-64873095D02*
X67729058Y-64396904D01*
X68205249Y-64349285D01*
X68157630Y-64396904D01*
X68110011Y-64492142D01*
X68110011Y-64730238D01*
X68157630Y-64825476D01*
X68205249Y-64873095D01*
X68300487Y-64920714D01*
X68538582Y-64920714D01*
X68633820Y-64873095D01*
X68681439Y-64825476D01*
X68729058Y-64730238D01*
X68729058Y-64492142D01*
X68681439Y-64396904D01*
X68633820Y-64349285D01*
D11*
X37969564Y-55145000D02*
X37515436Y-55145000D01*
X37969564Y-56615000D02*
X37515436Y-56615000D01*
X82656678Y-55235000D02*
X79206678Y-55235000D01*
X82656678Y-55235000D02*
X84606678Y-55235000D01*
X82656678Y-46365000D02*
X80706678Y-46365000D01*
X82656678Y-46365000D02*
X84606678Y-46365000D01*
D10*
X46125000Y-55475000D02*
X46125000Y-55700000D01*
X42775000Y-55475000D02*
X42775000Y-55775000D01*
X42775000Y-58825000D02*
X42775000Y-58525000D01*
X46125000Y-58825000D02*
X46125000Y-58525000D01*
X46125000Y-55475000D02*
X42775000Y-55475000D01*
X46125000Y-58825000D02*
X42775000Y-58825000D01*
X46125000Y-55700000D02*
X47350000Y-55700000D01*
D11*
X52911678Y-61187064D02*
X52911678Y-60732936D01*
X51441678Y-61187064D02*
X51441678Y-60732936D01*
X70999614Y-60225000D02*
X71453742Y-60225000D01*
X70999614Y-61695000D02*
X71453742Y-61695000D01*
X37515436Y-57685000D02*
X37969564Y-57685000D01*
X37515436Y-59155000D02*
X37969564Y-59155000D01*
X35025000Y-56922936D02*
X35025000Y-57377064D01*
X33555000Y-56922936D02*
X33555000Y-57377064D01*
X55451678Y-61221252D02*
X55451678Y-60698748D01*
X53981678Y-61221252D02*
X53981678Y-60698748D01*
X42445000Y-60698748D02*
X42445000Y-61221252D01*
X43915000Y-60698748D02*
X43915000Y-61221252D01*
X44985000Y-60698748D02*
X44985000Y-61221252D01*
X46455000Y-60698748D02*
X46455000Y-61221252D01*
X47525000Y-60698748D02*
X47525000Y-61221252D01*
X48995000Y-60698748D02*
X48995000Y-61221252D01*
X141978748Y-54075000D02*
X142501252Y-54075000D01*
X141978748Y-52605000D02*
X142501252Y-52605000D01*
X141978748Y-55145000D02*
X142501252Y-55145000D01*
X141978748Y-56615000D02*
X142501252Y-56615000D01*
X139165000Y-47251252D02*
X139165000Y-46728748D01*
X137695000Y-47251252D02*
X137695000Y-46728748D01*
X136625000Y-47251252D02*
X136625000Y-46728748D01*
X135155000Y-47251252D02*
X135155000Y-46728748D01*
X132341252Y-52605000D02*
X131818748Y-52605000D01*
X132341252Y-54075000D02*
X131818748Y-54075000D01*
X132341252Y-55145000D02*
X131818748Y-55145000D01*
X132341252Y-56615000D02*
X131818748Y-56615000D01*
X71761678Y-63873748D02*
X71761678Y-64396252D01*
X73231678Y-63873748D02*
X73231678Y-64396252D01*
X48795000Y-55618748D02*
X48795000Y-56141252D01*
X50265000Y-55618748D02*
X50265000Y-56141252D01*
X69221678Y-63873748D02*
X69221678Y-64396252D01*
X70691678Y-63873748D02*
X70691678Y-64396252D01*
%LPC*%
D12*
X22860000Y-27940000D03*
D13*
X143510000Y-92710000D03*
D12*
X22860000Y-91440000D03*
X142240000Y-27940000D03*
D14*
X38655000Y-55880000D03*
X36830000Y-55880000D03*
D15*
X39595000Y-76200000D03*
D16*
X44675000Y-76200000D03*
X55351678Y-71765000D03*
X47731678Y-64145000D03*
X52811678Y-71765000D03*
X50271678Y-64145000D03*
X50271678Y-71765000D03*
X52811678Y-64145000D03*
X47731678Y-71765000D03*
D17*
X55351678Y-64145000D03*
D18*
X85131678Y-54610000D03*
X85131678Y-53340000D03*
X85131678Y-52070000D03*
X85131678Y-50800000D03*
X85131678Y-49530000D03*
X85131678Y-48260000D03*
X85131678Y-46990000D03*
X80181678Y-46990000D03*
X80181678Y-48260000D03*
X80181678Y-49530000D03*
X80181678Y-50800000D03*
X80181678Y-52070000D03*
X80181678Y-53340000D03*
X80181678Y-54610000D03*
D17*
X75041678Y-47000000D03*
D16*
X59801678Y-54620000D03*
X72501678Y-47000000D03*
X62341678Y-54620000D03*
X69961678Y-47000000D03*
X64881678Y-54620000D03*
X67421678Y-47000000D03*
X67421678Y-54620000D03*
X64881678Y-47000000D03*
X69961678Y-54620000D03*
X62341678Y-47000000D03*
X72501678Y-54620000D03*
X59801678Y-47000000D03*
X75041678Y-54620000D03*
D19*
X46650000Y-56150000D03*
X46650000Y-56650000D03*
X46650000Y-57150000D03*
X46650000Y-57650000D03*
X46650000Y-58150000D03*
X42250000Y-58150000D03*
X42250000Y-57650000D03*
X42250000Y-57150000D03*
X42250000Y-56650000D03*
X42250000Y-56150000D03*
D20*
X59723687Y-36553687D03*
D21*
X59723687Y-34013687D03*
X59723687Y-31473687D03*
D15*
X36210000Y-33060000D03*
X34910000Y-38060000D03*
D17*
X89641678Y-54625000D03*
D16*
X89641678Y-52085000D03*
X89641678Y-49545000D03*
X89641678Y-47005000D03*
D17*
X89006678Y-60320000D03*
D16*
X89006678Y-62860000D03*
X89006678Y-65400000D03*
X89006678Y-67940000D03*
X89006678Y-70480000D03*
X89006678Y-73020000D03*
X89006678Y-75560000D03*
X89006678Y-78100000D03*
X89006678Y-80640000D03*
X89006678Y-83180000D03*
X89006678Y-85720000D03*
X89006678Y-88260000D03*
D17*
X93451678Y-75565000D03*
D16*
X93451678Y-78105000D03*
X93451678Y-80645000D03*
X93451678Y-83185000D03*
X93451678Y-85725000D03*
X93451678Y-88265000D03*
D22*
X52176678Y-61960000D03*
X52176678Y-59960000D03*
D23*
X72226678Y-60960000D03*
X70226678Y-60960000D03*
D24*
X38655000Y-58420000D03*
X36830000Y-58420000D03*
D25*
X34290000Y-58150000D03*
X34290000Y-56150000D03*
D26*
X64241678Y-86670000D03*
D27*
X66781678Y-86670000D03*
X69321678Y-86670000D03*
D26*
X51541678Y-80320000D03*
D27*
X54081678Y-80320000D03*
X56621678Y-80320000D03*
D26*
X76306678Y-86670000D03*
D27*
X78846678Y-86670000D03*
X81386678Y-86670000D03*
X57256678Y-86670000D03*
X54716678Y-86670000D03*
D26*
X52176678Y-86670000D03*
X76306678Y-80320000D03*
D27*
X78846678Y-80320000D03*
X81386678Y-80320000D03*
D26*
X63606678Y-80320000D03*
D27*
X66146678Y-80320000D03*
X68686678Y-80320000D03*
D28*
X40640000Y-44450000D03*
X40640000Y-45720000D03*
D29*
X40640000Y-43180000D03*
D30*
X72390000Y-36830000D03*
D31*
X72390000Y-34290000D03*
X72390000Y-31750000D03*
D30*
X36830000Y-45720000D03*
D31*
X135890000Y-88900000D03*
X138430000Y-88900000D03*
X135890000Y-86360000D03*
X138430000Y-86360000D03*
X135890000Y-83820000D03*
X138430000Y-83820000D03*
X135890000Y-81280000D03*
X138430000Y-81280000D03*
X135890000Y-78740000D03*
X138430000Y-78740000D03*
X135890000Y-76200000D03*
X138430000Y-76200000D03*
X135890000Y-73660000D03*
X138430000Y-73660000D03*
X135890000Y-71120000D03*
X138430000Y-71120000D03*
X135890000Y-68580000D03*
X138430000Y-68580000D03*
X135890000Y-66040000D03*
X138430000Y-66040000D03*
X135890000Y-63500000D03*
X138430000Y-63500000D03*
X135890000Y-60960000D03*
X138430000Y-60960000D03*
X135890000Y-58420000D03*
X138430000Y-58420000D03*
X135890000Y-55880000D03*
X138430000Y-55880000D03*
X135890000Y-53340000D03*
X138430000Y-53340000D03*
X135890000Y-50800000D03*
D30*
X138430000Y-50800000D03*
X27935000Y-38115000D03*
D31*
X30475000Y-38115000D03*
X27935000Y-40655000D03*
X30475000Y-40655000D03*
X27935000Y-43195000D03*
X30475000Y-43195000D03*
X27935000Y-45735000D03*
X30475000Y-45735000D03*
X27935000Y-48275000D03*
X30475000Y-48275000D03*
X27935000Y-50815000D03*
X30475000Y-50815000D03*
X27935000Y-53355000D03*
X30475000Y-53355000D03*
X27935000Y-55895000D03*
X30475000Y-55895000D03*
X27935000Y-58435000D03*
X30475000Y-58435000D03*
X27935000Y-60975000D03*
X30475000Y-60975000D03*
X27935000Y-63515000D03*
X30475000Y-63515000D03*
X27935000Y-66055000D03*
X30475000Y-66055000D03*
X27935000Y-68595000D03*
X30475000Y-68595000D03*
X27935000Y-71135000D03*
X30475000Y-71135000D03*
X27935000Y-73675000D03*
X30475000Y-73675000D03*
X27935000Y-76215000D03*
X30475000Y-76215000D03*
X27935000Y-78755000D03*
X30475000Y-78755000D03*
X27935000Y-81295000D03*
X30475000Y-81295000D03*
X100420000Y-88930000D03*
X102960000Y-88930000D03*
X100420000Y-86390000D03*
X102960000Y-86390000D03*
X100420000Y-83850000D03*
X102960000Y-83850000D03*
X100420000Y-81310000D03*
X102960000Y-81310000D03*
X100420000Y-78770000D03*
X102960000Y-78770000D03*
X100420000Y-76230000D03*
X102960000Y-76230000D03*
X100420000Y-73690000D03*
X102960000Y-73690000D03*
X100420000Y-71150000D03*
X102960000Y-71150000D03*
X100420000Y-68610000D03*
X102960000Y-68610000D03*
X100420000Y-66070000D03*
X102960000Y-66070000D03*
X100420000Y-63530000D03*
X102960000Y-63530000D03*
X100420000Y-60990000D03*
X102960000Y-60990000D03*
X100420000Y-58450000D03*
X102960000Y-58450000D03*
X100420000Y-55910000D03*
X102960000Y-55910000D03*
X100420000Y-53370000D03*
X102960000Y-53370000D03*
X100420000Y-50830000D03*
X102960000Y-50830000D03*
X100420000Y-48290000D03*
X102960000Y-48290000D03*
X100420000Y-45750000D03*
X102960000Y-45750000D03*
X100420000Y-43210000D03*
X102960000Y-43210000D03*
X100420000Y-40670000D03*
D30*
X102960000Y-40670000D03*
D16*
X122359520Y-36019520D03*
X114739520Y-28399520D03*
X119819520Y-36019520D03*
X117279520Y-28399520D03*
X117279520Y-36019520D03*
X119819520Y-28399520D03*
X114739520Y-36019520D03*
D17*
X122359520Y-28399520D03*
D32*
X54333687Y-32108687D03*
D33*
X46713687Y-32108687D03*
D32*
X50523687Y-37188687D03*
D33*
X42903687Y-37188687D03*
D34*
X54716678Y-61997500D03*
X54716678Y-59922500D03*
D17*
X82656678Y-71055113D03*
D15*
X82656678Y-68555113D03*
D35*
X43180000Y-59922500D03*
X43180000Y-61997500D03*
X45720000Y-59922500D03*
X45720000Y-61997500D03*
X48260000Y-59922500D03*
X48260000Y-61997500D03*
D36*
X141202500Y-53340000D03*
X143277500Y-53340000D03*
X143277500Y-55880000D03*
X141202500Y-55880000D03*
D34*
X138430000Y-48027500D03*
X138430000Y-45952500D03*
X135890000Y-48027500D03*
X135890000Y-45952500D03*
D37*
X133117500Y-53340000D03*
X131042500Y-53340000D03*
X133117500Y-55880000D03*
X131042500Y-55880000D03*
D35*
X72496678Y-63097500D03*
X72496678Y-65172500D03*
X49530000Y-54842500D03*
X49530000Y-56917500D03*
X69956678Y-63097500D03*
X69956678Y-65172500D03*
D15*
X66040000Y-35520000D03*
D17*
X66040000Y-33020000D03*
D15*
X54948687Y-28933687D03*
X52448687Y-28933687D03*
X39728687Y-37168687D03*
X39728687Y-34668687D03*
D17*
X42268687Y-28933687D03*
D15*
X39768687Y-28933687D03*
D17*
X59796678Y-71110000D03*
D16*
X77576678Y-58410000D03*
X62336678Y-71110000D03*
X75036678Y-58410000D03*
X64876678Y-71110000D03*
X72496678Y-58410000D03*
X67416678Y-71110000D03*
X69956678Y-58410000D03*
X69956678Y-71110000D03*
X67416678Y-58410000D03*
X72496678Y-71110000D03*
X64876678Y-58410000D03*
X75036678Y-71110000D03*
X62336678Y-58410000D03*
X77576678Y-71110000D03*
X59796678Y-58410000D03*
M02*
