%FSLAX45Y45*%
G04 Gerber Fmt 4.5, Leading zero omitted, Abs format (unit mm)*
G04 Created by KiCad (PCBNEW (6.0.1)) date 2022-02-28 18:52:45*
%MOMM*%
%LPD*%
G01*
G04 APERTURE LIST*
%TA.AperFunction,Profile*%
%ADD10C,0.100000*%
%TD*%
%ADD11C,0.200000*%
%ADD12C,0.040000*%
%ADD13C,0.070000*%
%ADD14C,0.076200*%
%ADD15C,0.080000*%
%ADD16C,0.100000*%
%ADD17C,0.110000*%
G04 APERTURE END LIST*
D10*
X3937000Y-3683000D02*
X13525500Y-3683000D01*
X13525500Y-3683000D02*
X13525500Y-11303000D01*
X13525500Y-11303000D02*
X3937000Y-11303000D01*
X3937000Y-11303000D02*
X3937000Y-3683000D01*
D11*
D12*
X4289050Y-6774500D02*
X4329050Y-6814500D01*
X4329050Y-6774500D02*
X4289050Y-6814500D01*
X4488500Y-5949000D02*
X4528500Y-5989000D01*
X4528500Y-5949000D02*
X4488500Y-5989000D01*
X4742500Y-5949000D02*
X4782500Y-5989000D01*
X4782500Y-5949000D02*
X4742500Y-5989000D01*
X4806000Y-5441000D02*
X4846000Y-5481000D01*
X4846000Y-5441000D02*
X4806000Y-5481000D01*
X4869500Y-5822000D02*
X4909500Y-5862000D01*
X4909500Y-5822000D02*
X4869500Y-5862000D01*
X5082854Y-6076000D02*
X5122854Y-6116000D01*
X5122854Y-6076000D02*
X5082854Y-6116000D01*
X5123500Y-5250500D02*
X5163500Y-5290500D01*
X5163500Y-5250500D02*
X5123500Y-5290500D01*
X5123500Y-5504500D02*
X5163500Y-5544500D01*
X5163500Y-5504500D02*
X5123500Y-5544500D01*
X5123500Y-5631500D02*
X5163500Y-5671500D01*
X5163500Y-5631500D02*
X5123500Y-5671500D01*
X5123500Y-5758500D02*
X5163500Y-5798500D01*
X5163500Y-5758500D02*
X5123500Y-5798500D01*
X5123500Y-5885500D02*
X5163500Y-5925500D01*
X5163500Y-5885500D02*
X5123500Y-5925500D01*
X5187000Y-8552500D02*
X5227000Y-8592500D01*
X5227000Y-8552500D02*
X5187000Y-8592500D01*
X5250500Y-7219000D02*
X5290500Y-7259000D01*
X5290500Y-7219000D02*
X5250500Y-7259000D01*
X5297594Y-7752905D02*
X5337594Y-7792905D01*
X5337594Y-7752905D02*
X5297594Y-7792905D01*
X5314000Y-7608950D02*
X5354000Y-7648950D01*
X5354000Y-7608950D02*
X5314000Y-7648950D01*
X5314000Y-8679500D02*
X5354000Y-8719500D01*
X5354000Y-8679500D02*
X5314000Y-8719500D01*
X5377500Y-7822855D02*
X5417500Y-7862855D01*
X5417500Y-7822855D02*
X5377500Y-7862855D01*
X5377500Y-9323450D02*
X5417500Y-9363450D01*
X5417500Y-9323450D02*
X5377500Y-9363450D01*
X5381181Y-7682955D02*
X5421181Y-7722955D01*
X5421181Y-7682955D02*
X5381181Y-7722955D01*
X5568000Y-7329194D02*
X5608000Y-7369194D01*
X5608000Y-7329194D02*
X5568000Y-7369194D01*
X5822000Y-6130550D02*
X5862000Y-6170550D01*
X5862000Y-6130550D02*
X5822000Y-6170550D01*
X5885500Y-7282500D02*
X5925500Y-7322500D01*
X5925500Y-7282500D02*
X5885500Y-7322500D01*
X6457000Y-6465950D02*
X6497000Y-6505950D01*
X6497000Y-6465950D02*
X6457000Y-6505950D01*
X6647500Y-6457000D02*
X6687500Y-6497000D01*
X6687500Y-6457000D02*
X6647500Y-6497000D01*
X6711000Y-5949000D02*
X6751000Y-5989000D01*
X6751000Y-5949000D02*
X6711000Y-5989000D01*
X6965000Y-6330000D02*
X7005000Y-6370000D01*
X7005000Y-6330000D02*
X6965000Y-6370000D01*
X7346000Y-6384550D02*
X7386000Y-6424550D01*
X7386000Y-6384550D02*
X7346000Y-6424550D01*
X7409500Y-3980500D02*
X7449500Y-4020500D01*
X7449500Y-3980500D02*
X7409500Y-4020500D01*
X7409500Y-4806000D02*
X7449500Y-4846000D01*
X7449500Y-4806000D02*
X7409500Y-4846000D01*
X7715500Y-4401500D02*
X7755500Y-4441500D01*
X7755500Y-4401500D02*
X7715500Y-4441500D01*
X8044500Y-3980500D02*
X8084500Y-4020500D01*
X8084500Y-3980500D02*
X8044500Y-4020500D01*
X8044500Y-4806000D02*
X8084500Y-4846000D01*
X8084500Y-4806000D02*
X8044500Y-4846000D01*
X8044500Y-9513950D02*
X8084500Y-9553950D01*
X8084500Y-9513950D02*
X8044500Y-9553950D01*
X8235000Y-9505000D02*
X8275000Y-9545000D01*
X8275000Y-9505000D02*
X8235000Y-9545000D01*
X8362000Y-8171500D02*
X8402000Y-8211500D01*
X8402000Y-8171500D02*
X8362000Y-8211500D01*
X8489000Y-8171500D02*
X8529000Y-8211500D01*
X8529000Y-8171500D02*
X8489000Y-8211500D01*
X8613284Y-8173880D02*
X8653284Y-8213880D01*
X8653284Y-8173880D02*
X8613284Y-8213880D01*
X8688450Y-8044500D02*
X8728450Y-8084500D01*
X8728450Y-8044500D02*
X8688450Y-8084500D01*
X8870000Y-10584500D02*
X8910000Y-10624500D01*
X8910000Y-10584500D02*
X8870000Y-10624500D01*
X10394000Y-4425000D02*
X10434000Y-4465000D01*
X10434000Y-4425000D02*
X10394000Y-4465000D01*
X10394000Y-4869500D02*
X10434000Y-4909500D01*
X10434000Y-4869500D02*
X10394000Y-4909500D01*
X10522058Y-8797550D02*
X10562058Y-8837550D01*
X10562058Y-8797550D02*
X10522058Y-8837550D01*
X10711500Y-4670050D02*
X10751500Y-4710050D01*
X10751500Y-4670050D02*
X10711500Y-4710050D01*
X10893050Y-4742500D02*
X10933050Y-4782500D01*
X10933050Y-4742500D02*
X10893050Y-4782500D01*
X10902000Y-8679500D02*
X10942000Y-8719500D01*
X10942000Y-8679500D02*
X10902000Y-8719500D01*
X11156000Y-8861050D02*
X11196000Y-8901050D01*
X11196000Y-8861050D02*
X11156000Y-8901050D01*
X11346500Y-8924550D02*
X11386500Y-8964550D01*
X11386500Y-8924550D02*
X11346500Y-8964550D01*
D13*
X5559500Y-10477500D02*
G75*
G03*
X5559500Y-10477500I-35000J0D01*
G01*
X5559500Y-10985500D02*
G75*
G03*
X5559500Y-10985500I-35000J0D01*
G01*
X7464500Y-10033000D02*
G75*
G03*
X7464500Y-10033000I-35000J0D01*
G01*
X7464500Y-10541000D02*
G75*
G03*
X7464500Y-10541000I-35000J0D01*
G01*
X7718500Y-10033000D02*
G75*
G03*
X7718500Y-10033000I-35000J0D01*
G01*
X7718500Y-10541000D02*
G75*
G03*
X7718500Y-10541000I-35000J0D01*
G01*
X8925000Y-5524500D02*
G75*
G03*
X8925000Y-5524500I-35000J0D01*
G01*
X8925000Y-5778500D02*
G75*
G03*
X8925000Y-5778500I-35000J0D01*
G01*
X8925000Y-6667500D02*
G75*
G03*
X8925000Y-6667500I-35000J0D01*
G01*
X8925000Y-6921500D02*
G75*
G03*
X8925000Y-6921500I-35000J0D01*
G01*
X8925000Y-7175500D02*
G75*
G03*
X8925000Y-7175500I-35000J0D01*
G01*
X8925000Y-7429500D02*
G75*
G03*
X8925000Y-7429500I-35000J0D01*
G01*
X8925000Y-7683500D02*
G75*
G03*
X8925000Y-7683500I-35000J0D01*
G01*
X9433000Y-5524500D02*
G75*
G03*
X9433000Y-5524500I-35000J0D01*
G01*
X9433000Y-5778500D02*
G75*
G03*
X9433000Y-5778500I-35000J0D01*
G01*
X9433000Y-6667500D02*
G75*
G03*
X9433000Y-6667500I-35000J0D01*
G01*
X9433000Y-6921500D02*
G75*
G03*
X9433000Y-6921500I-35000J0D01*
G01*
X9433000Y-7175500D02*
G75*
G03*
X9433000Y-7175500I-35000J0D01*
G01*
X9433000Y-7429500D02*
G75*
G03*
X9433000Y-7429500I-35000J0D01*
G01*
X9433000Y-7683500D02*
G75*
G03*
X9433000Y-7683500I-35000J0D01*
G01*
X10449000Y-9715500D02*
G75*
G03*
X10449000Y-9715500I-35000J0D01*
G01*
X10449000Y-10223500D02*
G75*
G03*
X10449000Y-10223500I-35000J0D01*
G01*
X11020500Y-6985000D02*
G75*
G03*
X11020500Y-6985000I-35000J0D01*
G01*
X11020500Y-7493000D02*
G75*
G03*
X11020500Y-7493000I-35000J0D01*
G01*
X11020500Y-10731500D02*
G75*
G03*
X11020500Y-10731500I-35000J0D01*
G01*
X11274500Y-6985000D02*
G75*
G03*
X11274500Y-6985000I-35000J0D01*
G01*
X11274500Y-7493000D02*
G75*
G03*
X11274500Y-7493000I-35000J0D01*
G01*
X11528500Y-6985000D02*
G75*
G03*
X11528500Y-6985000I-35000J0D01*
G01*
X11528500Y-7493000D02*
G75*
G03*
X11528500Y-7493000I-35000J0D01*
G01*
X11528500Y-10731500D02*
G75*
G03*
X11528500Y-10731500I-35000J0D01*
G01*
X12227000Y-7937500D02*
G75*
G03*
X12227000Y-7937500I-35000J0D01*
G01*
X12227000Y-8191500D02*
G75*
G03*
X12227000Y-8191500I-35000J0D01*
G01*
X12290500Y-5588000D02*
G75*
G03*
X12290500Y-5588000I-35000J0D01*
G01*
X12290500Y-6096000D02*
G75*
G03*
X12290500Y-6096000I-35000J0D01*
G01*
X12290500Y-6350000D02*
G75*
G03*
X12290500Y-6350000I-35000J0D01*
G01*
X12290500Y-6858000D02*
G75*
G03*
X12290500Y-6858000I-35000J0D01*
G01*
X12417500Y-9461500D02*
G75*
G03*
X12417500Y-9461500I-35000J0D01*
G01*
X12417500Y-9969500D02*
G75*
G03*
X12417500Y-9969500I-35000J0D01*
G01*
X12735000Y-7937500D02*
G75*
G03*
X12735000Y-7937500I-35000J0D01*
G01*
X12735000Y-8191500D02*
G75*
G03*
X12735000Y-8191500I-35000J0D01*
G01*
D14*
X9652000Y-6883400D02*
X9652000Y-6959600D01*
X9613900Y-6921500D02*
X9690100Y-6921500D01*
X9652000Y-7137400D02*
X9652000Y-7213600D01*
X9613900Y-7175500D02*
X9690100Y-7175500D01*
X9652000Y-7391400D02*
X9652000Y-7467600D01*
X9613900Y-7429500D02*
X9690100Y-7429500D01*
X9652000Y-7645400D02*
X9652000Y-7721600D01*
X9613900Y-7683500D02*
X9690100Y-7683500D01*
X9652000Y-7899400D02*
X9652000Y-7975600D01*
X9613900Y-7937500D02*
X9690100Y-7937500D01*
X9652000Y-8153400D02*
X9652000Y-8229600D01*
X9613900Y-8191500D02*
X9690100Y-8191500D01*
X9652000Y-8407400D02*
X9652000Y-8483600D01*
X9613900Y-8445500D02*
X9690100Y-8445500D01*
X9652000Y-8661400D02*
X9652000Y-8737600D01*
X9613900Y-8699500D02*
X9690100Y-8699500D01*
X9652000Y-8915400D02*
X9652000Y-8991600D01*
X9613900Y-8953500D02*
X9690100Y-8953500D01*
X9652000Y-9169400D02*
X9652000Y-9245600D01*
X9613900Y-9207500D02*
X9690100Y-9207500D01*
X9652000Y-9423400D02*
X9652000Y-9499600D01*
X9613900Y-9461500D02*
X9690100Y-9461500D01*
X9652000Y-9677400D02*
X9652000Y-9753600D01*
X9613900Y-9715500D02*
X9690100Y-9715500D01*
X9652000Y-9931400D02*
X9652000Y-10007600D01*
X9613900Y-9969500D02*
X9690100Y-9969500D01*
X9652000Y-10185400D02*
X9652000Y-10261600D01*
X9613900Y-10223500D02*
X9690100Y-10223500D01*
X9652000Y-10439400D02*
X9652000Y-10515600D01*
X9613900Y-10477500D02*
X9690100Y-10477500D01*
X9652000Y-10693400D02*
X9652000Y-10769600D01*
X9613900Y-10731500D02*
X9690100Y-10731500D01*
X9906000Y-6883400D02*
X9906000Y-6959600D01*
X9867900Y-6921500D02*
X9944100Y-6921500D01*
X9906000Y-7137400D02*
X9906000Y-7213600D01*
X9867900Y-7175500D02*
X9944100Y-7175500D01*
X9906000Y-7391400D02*
X9906000Y-7467600D01*
X9867900Y-7429500D02*
X9944100Y-7429500D01*
X9906000Y-7645400D02*
X9906000Y-7721600D01*
X9867900Y-7683500D02*
X9944100Y-7683500D01*
X9906000Y-7899400D02*
X9906000Y-7975600D01*
X9867900Y-7937500D02*
X9944100Y-7937500D01*
X9906000Y-8153400D02*
X9906000Y-8229600D01*
X9867900Y-8191500D02*
X9944100Y-8191500D01*
X9906000Y-8407400D02*
X9906000Y-8483600D01*
X9867900Y-8445500D02*
X9944100Y-8445500D01*
X9906000Y-8661400D02*
X9906000Y-8737600D01*
X9867900Y-8699500D02*
X9944100Y-8699500D01*
X9906000Y-8915400D02*
X9906000Y-8991600D01*
X9867900Y-8953500D02*
X9944100Y-8953500D01*
X9906000Y-9169400D02*
X9906000Y-9245600D01*
X9867900Y-9207500D02*
X9944100Y-9207500D01*
X9906000Y-9423400D02*
X9906000Y-9499600D01*
X9867900Y-9461500D02*
X9944100Y-9461500D01*
X9906000Y-9677400D02*
X9906000Y-9753600D01*
X9867900Y-9715500D02*
X9944100Y-9715500D01*
X9906000Y-9931400D02*
X9906000Y-10007600D01*
X9867900Y-9969500D02*
X9944100Y-9969500D01*
X9906000Y-10185400D02*
X9906000Y-10261600D01*
X9867900Y-10223500D02*
X9944100Y-10223500D01*
X9906000Y-10439400D02*
X9906000Y-10515600D01*
X9867900Y-10477500D02*
X9944100Y-10477500D01*
X9906000Y-10693400D02*
X9906000Y-10769600D01*
X9867900Y-10731500D02*
X9944100Y-10731500D01*
X10160000Y-10439400D02*
X10160000Y-10515600D01*
X10121900Y-10477500D02*
X10198100Y-10477500D01*
X10160000Y-10693400D02*
X10160000Y-10769600D01*
X10121900Y-10731500D02*
X10198100Y-10731500D01*
X10414000Y-10439400D02*
X10414000Y-10515600D01*
X10375900Y-10477500D02*
X10452100Y-10477500D01*
X10414000Y-10693400D02*
X10414000Y-10769600D01*
X10375900Y-10731500D02*
X10452100Y-10731500D01*
X10668000Y-10439400D02*
X10668000Y-10515600D01*
X10629900Y-10477500D02*
X10706100Y-10477500D01*
X10668000Y-10693400D02*
X10668000Y-10769600D01*
X10629900Y-10731500D02*
X10706100Y-10731500D01*
X12954000Y-5613400D02*
X12954000Y-5689600D01*
X12915900Y-5651500D02*
X12992100Y-5651500D01*
X12954000Y-5867400D02*
X12954000Y-5943600D01*
X12915900Y-5905500D02*
X12992100Y-5905500D01*
X12954000Y-6121400D02*
X12954000Y-6197600D01*
X12915900Y-6159500D02*
X12992100Y-6159500D01*
X12954000Y-6375400D02*
X12954000Y-6451600D01*
X12915900Y-6413500D02*
X12992100Y-6413500D01*
X12954000Y-6629400D02*
X12954000Y-6705600D01*
X12915900Y-6667500D02*
X12992100Y-6667500D01*
X12954000Y-6883400D02*
X12954000Y-6959600D01*
X12915900Y-6921500D02*
X12992100Y-6921500D01*
X12954000Y-7137400D02*
X12954000Y-7213600D01*
X12915900Y-7175500D02*
X12992100Y-7175500D01*
X12954000Y-7391400D02*
X12954000Y-7467600D01*
X12915900Y-7429500D02*
X12992100Y-7429500D01*
X12954000Y-7645400D02*
X12954000Y-7721600D01*
X12915900Y-7683500D02*
X12992100Y-7683500D01*
X12954000Y-7899400D02*
X12954000Y-7975600D01*
X12915900Y-7937500D02*
X12992100Y-7937500D01*
X12954000Y-8153400D02*
X12954000Y-8229600D01*
X12915900Y-8191500D02*
X12992100Y-8191500D01*
X12954000Y-8407400D02*
X12954000Y-8483600D01*
X12915900Y-8445500D02*
X12992100Y-8445500D01*
X12954000Y-8661400D02*
X12954000Y-8737600D01*
X12915900Y-8699500D02*
X12992100Y-8699500D01*
X12954000Y-8915400D02*
X12954000Y-8991600D01*
X12915900Y-8953500D02*
X12992100Y-8953500D01*
X12954000Y-9169400D02*
X12954000Y-9245600D01*
X12915900Y-9207500D02*
X12992100Y-9207500D01*
X12954000Y-9423400D02*
X12954000Y-9499600D01*
X12915900Y-9461500D02*
X12992100Y-9461500D01*
X12954000Y-9677400D02*
X12954000Y-9753600D01*
X12915900Y-9715500D02*
X12992100Y-9715500D01*
X12954000Y-9931400D02*
X12954000Y-10007600D01*
X12915900Y-9969500D02*
X12992100Y-9969500D01*
X12954000Y-10185400D02*
X12954000Y-10261600D01*
X12915900Y-10223500D02*
X12992100Y-10223500D01*
X12954000Y-10439400D02*
X12954000Y-10515600D01*
X12915900Y-10477500D02*
X12992100Y-10477500D01*
X12954000Y-10693400D02*
X12954000Y-10769600D01*
X12915900Y-10731500D02*
X12992100Y-10731500D01*
X13208000Y-5613400D02*
X13208000Y-5689600D01*
X13169900Y-5651500D02*
X13246100Y-5651500D01*
X13208000Y-5867400D02*
X13208000Y-5943600D01*
X13169900Y-5905500D02*
X13246100Y-5905500D01*
X13208000Y-6121400D02*
X13208000Y-6197600D01*
X13169900Y-6159500D02*
X13246100Y-6159500D01*
X13208000Y-6375400D02*
X13208000Y-6451600D01*
X13169900Y-6413500D02*
X13246100Y-6413500D01*
X13208000Y-6629400D02*
X13208000Y-6705600D01*
X13169900Y-6667500D02*
X13246100Y-6667500D01*
X13208000Y-6883400D02*
X13208000Y-6959600D01*
X13169900Y-6921500D02*
X13246100Y-6921500D01*
X13208000Y-7137400D02*
X13208000Y-7213600D01*
X13169900Y-7175500D02*
X13246100Y-7175500D01*
X13208000Y-7391400D02*
X13208000Y-7467600D01*
X13169900Y-7429500D02*
X13246100Y-7429500D01*
X13208000Y-7645400D02*
X13208000Y-7721600D01*
X13169900Y-7683500D02*
X13246100Y-7683500D01*
X13208000Y-7899400D02*
X13208000Y-7975600D01*
X13169900Y-7937500D02*
X13246100Y-7937500D01*
X13208000Y-8153400D02*
X13208000Y-8229600D01*
X13169900Y-8191500D02*
X13246100Y-8191500D01*
X13208000Y-8407400D02*
X13208000Y-8483600D01*
X13169900Y-8445500D02*
X13246100Y-8445500D01*
X13208000Y-8661400D02*
X13208000Y-8737600D01*
X13169900Y-8699500D02*
X13246100Y-8699500D01*
X13208000Y-8915400D02*
X13208000Y-8991600D01*
X13169900Y-8953500D02*
X13246100Y-8953500D01*
X13208000Y-9169400D02*
X13208000Y-9245600D01*
X13169900Y-9207500D02*
X13246100Y-9207500D01*
X13208000Y-9423400D02*
X13208000Y-9499600D01*
X13169900Y-9461500D02*
X13246100Y-9461500D01*
X13208000Y-9677400D02*
X13208000Y-9753600D01*
X13169900Y-9715500D02*
X13246100Y-9715500D01*
X13208000Y-9931400D02*
X13208000Y-10007600D01*
X13169900Y-9969500D02*
X13246100Y-9969500D01*
X13208000Y-10185400D02*
X13208000Y-10261600D01*
X13169900Y-10223500D02*
X13246100Y-10223500D01*
X13208000Y-10439400D02*
X13208000Y-10515600D01*
X13169900Y-10477500D02*
X13246100Y-10477500D01*
X13208000Y-10693400D02*
X13208000Y-10769600D01*
X13169900Y-10731500D02*
X13246100Y-10731500D01*
D15*
X5552785Y-5805784D02*
X5552785Y-5749215D01*
X5496216Y-5749215D01*
X5496216Y-5805784D01*
X5552785Y-5805784D01*
X5552785Y-7075784D02*
X5552785Y-7019215D01*
X5496216Y-7019215D01*
X5496216Y-7075784D01*
X5552785Y-7075784D01*
X5603784Y-5102285D02*
X5603784Y-5045716D01*
X5547216Y-5045716D01*
X5547216Y-5102285D01*
X5603784Y-5102285D01*
X5803784Y-4352285D02*
X5803784Y-4295716D01*
X5747215Y-4295716D01*
X5747215Y-4352285D01*
X5803784Y-4352285D01*
X5806784Y-5805784D02*
X5806784Y-5749215D01*
X5750215Y-5749215D01*
X5750215Y-5805784D01*
X5806784Y-5805784D01*
X5806784Y-7075784D02*
X5806784Y-7019215D01*
X5750215Y-7019215D01*
X5750215Y-7075784D01*
X5806784Y-7075784D01*
X5842284Y-7979784D02*
X5842284Y-7923215D01*
X5785715Y-7923215D01*
X5785715Y-7979784D01*
X5842284Y-7979784D01*
X5842284Y-8741785D02*
X5842284Y-8685216D01*
X5785715Y-8685216D01*
X5785715Y-8741785D01*
X5842284Y-8741785D01*
X5933784Y-10251785D02*
X5933784Y-10195216D01*
X5877215Y-10195216D01*
X5877215Y-10251785D01*
X5933784Y-10251785D01*
X5933784Y-11013785D02*
X5933784Y-10957216D01*
X5877215Y-10957216D01*
X5877215Y-11013785D01*
X5933784Y-11013785D01*
X5934784Y-9869785D02*
X5934784Y-9813216D01*
X5878215Y-9813216D01*
X5878215Y-9869785D01*
X5934784Y-9869785D01*
X6060784Y-5805784D02*
X6060784Y-5749215D01*
X6004215Y-5749215D01*
X6004215Y-5805784D01*
X6060784Y-5805784D01*
X6060784Y-7075784D02*
X6060784Y-7019215D01*
X6004215Y-7019215D01*
X6004215Y-7075784D01*
X6060784Y-7075784D01*
X6096284Y-7979784D02*
X6096284Y-7923215D01*
X6039715Y-7923215D01*
X6039715Y-7979784D01*
X6096284Y-7979784D01*
X6096284Y-8741785D02*
X6096284Y-8685216D01*
X6039715Y-8685216D01*
X6039715Y-8741785D01*
X6096284Y-8741785D01*
X6166784Y-4854285D02*
X6166784Y-4797716D01*
X6110215Y-4797716D01*
X6110215Y-4854285D01*
X6166784Y-4854285D01*
X6184784Y-9869785D02*
X6184784Y-9813216D01*
X6128215Y-9813216D01*
X6128215Y-9869785D01*
X6184784Y-9869785D01*
X6187784Y-10251785D02*
X6187784Y-10195216D01*
X6131215Y-10195216D01*
X6131215Y-10251785D01*
X6187784Y-10251785D01*
X6187784Y-11013785D02*
X6187784Y-10957216D01*
X6131215Y-10957216D01*
X6131215Y-11013785D01*
X6187784Y-11013785D01*
X6196273Y-5298785D02*
X6196273Y-5242216D01*
X6139704Y-5242216D01*
X6139704Y-5298785D01*
X6196273Y-5298785D01*
X6314784Y-5805784D02*
X6314784Y-5749215D01*
X6258215Y-5749215D01*
X6258215Y-5805784D01*
X6314784Y-5805784D01*
X6314784Y-7075784D02*
X6314784Y-7019215D01*
X6258215Y-7019215D01*
X6258215Y-7075784D01*
X6314784Y-7075784D01*
X6350284Y-7979784D02*
X6350284Y-7923215D01*
X6293715Y-7923215D01*
X6293715Y-7979784D01*
X6350284Y-7979784D01*
X6350284Y-8741785D02*
X6350284Y-8685216D01*
X6293715Y-8685216D01*
X6293715Y-8741785D01*
X6350284Y-8741785D01*
X6396273Y-5298785D02*
X6396273Y-5242216D01*
X6339704Y-5242216D01*
X6339704Y-5298785D01*
X6396273Y-5298785D01*
X6416784Y-4854285D02*
X6416784Y-4797716D01*
X6360215Y-4797716D01*
X6360215Y-4854285D01*
X6416784Y-4854285D01*
X6441784Y-10251785D02*
X6441784Y-10195216D01*
X6385215Y-10195216D01*
X6385215Y-10251785D01*
X6441784Y-10251785D01*
X6441784Y-11013785D02*
X6441784Y-10957216D01*
X6385215Y-10957216D01*
X6385215Y-11013785D01*
X6441784Y-11013785D01*
X6508284Y-9869785D02*
X6508284Y-9813216D01*
X6451715Y-9813216D01*
X6451715Y-9869785D01*
X6508284Y-9869785D01*
X6568784Y-5805784D02*
X6568784Y-5749215D01*
X6512215Y-5749215D01*
X6512215Y-5805784D01*
X6568784Y-5805784D01*
X6568784Y-7075784D02*
X6568784Y-7019215D01*
X6512215Y-7019215D01*
X6512215Y-7075784D01*
X6568784Y-7075784D01*
X6604284Y-7979784D02*
X6604284Y-7923215D01*
X6547715Y-7923215D01*
X6547715Y-7979784D01*
X6604284Y-7979784D01*
X6604284Y-8741785D02*
X6604284Y-8685216D01*
X6547715Y-8685216D01*
X6547715Y-8741785D01*
X6604284Y-8741785D01*
X6695784Y-10251785D02*
X6695784Y-10195216D01*
X6639215Y-10195216D01*
X6639215Y-10251785D01*
X6695784Y-10251785D01*
X6695784Y-11013785D02*
X6695784Y-10957216D01*
X6639215Y-10957216D01*
X6639215Y-11013785D01*
X6695784Y-11013785D01*
X6758284Y-9869785D02*
X6758284Y-9813216D01*
X6701715Y-9813216D01*
X6701715Y-9869785D01*
X6758284Y-9869785D01*
X6822784Y-5805784D02*
X6822784Y-5749215D01*
X6766215Y-5749215D01*
X6766215Y-5805784D01*
X6822784Y-5805784D01*
X6822784Y-7075784D02*
X6822784Y-7019215D01*
X6766215Y-7019215D01*
X6766215Y-7075784D01*
X6822784Y-7075784D01*
X7076784Y-5805784D02*
X7076784Y-5749215D01*
X7020215Y-5749215D01*
X7020215Y-5805784D01*
X7076784Y-5805784D01*
X7076784Y-7075784D02*
X7076784Y-7019215D01*
X7020215Y-7019215D01*
X7020215Y-7075784D01*
X7076784Y-7075784D01*
X7330784Y-5805784D02*
X7330784Y-5749215D01*
X7274215Y-5749215D01*
X7274215Y-5805784D01*
X7330784Y-5805784D01*
X7330784Y-7075784D02*
X7330784Y-7019215D01*
X7274215Y-7019215D01*
X7274215Y-7075784D01*
X7330784Y-7075784D01*
X7654773Y-6949784D02*
X7654773Y-6893215D01*
X7598204Y-6893215D01*
X7598204Y-6949784D01*
X7654773Y-6949784D01*
X7904773Y-6949784D02*
X7904773Y-6893215D01*
X7848204Y-6893215D01*
X7848204Y-6949784D01*
X7904773Y-6949784D01*
X8475785Y-4028784D02*
X8475785Y-3972215D01*
X8419216Y-3972215D01*
X8419216Y-4028784D01*
X8475785Y-4028784D01*
X8725785Y-4028784D02*
X8725785Y-3972215D01*
X8669216Y-3972215D01*
X8669216Y-4028784D01*
X8725785Y-4028784D01*
X8981785Y-6128284D02*
X8981785Y-6071715D01*
X8925216Y-6071715D01*
X8925216Y-6128284D01*
X8981785Y-6128284D01*
X8981785Y-6378284D02*
X8981785Y-6321715D01*
X8925216Y-6321715D01*
X8925216Y-6378284D01*
X8981785Y-6378284D01*
X8981785Y-8031284D02*
X8981785Y-7974715D01*
X8925216Y-7974715D01*
X8925216Y-8031284D01*
X8981785Y-8031284D01*
X8981785Y-8281284D02*
X8981785Y-8224715D01*
X8925216Y-8224715D01*
X8925216Y-8281284D01*
X8981785Y-8281284D01*
X9299285Y-8031284D02*
X9299285Y-7974715D01*
X9242716Y-7974715D01*
X9242716Y-8031284D01*
X9299285Y-8031284D01*
X9299285Y-8281284D02*
X9299285Y-8224715D01*
X9242716Y-8224715D01*
X9242716Y-8281284D01*
X9299285Y-8281284D01*
X9362785Y-4023050D02*
X9362785Y-3966481D01*
X9306216Y-3966481D01*
X9306216Y-4023050D01*
X9362785Y-4023050D01*
X9362785Y-4523050D02*
X9362785Y-4466481D01*
X9306216Y-4466481D01*
X9306216Y-4523050D01*
X9362785Y-4523050D01*
X9362785Y-6126284D02*
X9362785Y-6069715D01*
X9306216Y-6069715D01*
X9306216Y-6126284D01*
X9362785Y-6126284D01*
X9362785Y-6376284D02*
X9362785Y-6319715D01*
X9306216Y-6319715D01*
X9306216Y-6376284D01*
X9362785Y-6376284D01*
X9744785Y-5678784D02*
X9744785Y-5622215D01*
X9688216Y-5622215D01*
X9688216Y-5678784D01*
X9744785Y-5678784D01*
X9744785Y-6440784D02*
X9744785Y-6384215D01*
X9688216Y-6384215D01*
X9688216Y-6440784D01*
X9744785Y-6440784D01*
X9998785Y-5678784D02*
X9998785Y-5622215D01*
X9942216Y-5622215D01*
X9942216Y-5678784D01*
X9998785Y-5678784D01*
X9998785Y-6440784D02*
X9998785Y-6384215D01*
X9942216Y-6384215D01*
X9942216Y-6440784D01*
X9998785Y-6440784D01*
X10252785Y-5678784D02*
X10252785Y-5622215D01*
X10196216Y-5622215D01*
X10196216Y-5678784D01*
X10252785Y-5678784D01*
X10252785Y-6440784D02*
X10252785Y-6384215D01*
X10196216Y-6384215D01*
X10196216Y-6440784D01*
X10252785Y-6440784D01*
X10444285Y-7140284D02*
X10444285Y-7083715D01*
X10387716Y-7083715D01*
X10387716Y-7140284D01*
X10444285Y-7140284D01*
X10444285Y-7457784D02*
X10444285Y-7401215D01*
X10387716Y-7401215D01*
X10387716Y-7457784D01*
X10444285Y-7457784D01*
X10444285Y-7775284D02*
X10444285Y-7718715D01*
X10387716Y-7718715D01*
X10387716Y-7775284D01*
X10444285Y-7775284D01*
X10444285Y-8092784D02*
X10444285Y-8036215D01*
X10387716Y-8036215D01*
X10387716Y-8092784D01*
X10444285Y-8092784D01*
X10446285Y-6822784D02*
X10446285Y-6766215D01*
X10389716Y-6766215D01*
X10389716Y-6822784D01*
X10446285Y-6822784D01*
X10506785Y-5678784D02*
X10506785Y-5622215D01*
X10450216Y-5622215D01*
X10450216Y-5678784D01*
X10506785Y-5678784D01*
X10506785Y-6440784D02*
X10506785Y-6384215D01*
X10450216Y-6384215D01*
X10450216Y-6440784D01*
X10506785Y-6440784D01*
X10694285Y-7140284D02*
X10694285Y-7083715D01*
X10637716Y-7083715D01*
X10637716Y-7140284D01*
X10694285Y-7140284D01*
X10694285Y-7457784D02*
X10694285Y-7401215D01*
X10637716Y-7401215D01*
X10637716Y-7457784D01*
X10694285Y-7457784D01*
X10694285Y-7775284D02*
X10694285Y-7718715D01*
X10637716Y-7718715D01*
X10637716Y-7775284D01*
X10694285Y-7775284D01*
X10694285Y-8092784D02*
X10694285Y-8036215D01*
X10637716Y-8036215D01*
X10637716Y-8092784D01*
X10694285Y-8092784D01*
X10696285Y-6822784D02*
X10696285Y-6766215D01*
X10639716Y-6766215D01*
X10639716Y-6822784D01*
X10696285Y-6822784D01*
X11077285Y-7777284D02*
X11077285Y-7720715D01*
X11020716Y-7720715D01*
X11020716Y-7777284D01*
X11077285Y-7777284D01*
X11077285Y-8027284D02*
X11077285Y-7970715D01*
X11020716Y-7970715D01*
X11020716Y-8027284D01*
X11077285Y-8027284D01*
X11203284Y-5680784D02*
X11203284Y-5624215D01*
X11146716Y-5624215D01*
X11146716Y-5680784D01*
X11203284Y-5680784D01*
X11203284Y-6442784D02*
X11203284Y-6386215D01*
X11146716Y-6386215D01*
X11146716Y-6442784D01*
X11203284Y-6442784D01*
X11205784Y-4474785D02*
X11205784Y-4418216D01*
X11149216Y-4418216D01*
X11149216Y-4474785D01*
X11205784Y-4474785D01*
X11205784Y-5236785D02*
X11205784Y-5180216D01*
X11149216Y-5180216D01*
X11149216Y-5236785D01*
X11205784Y-5236785D01*
X11394784Y-7777284D02*
X11394784Y-7720715D01*
X11338215Y-7720715D01*
X11338215Y-7777284D01*
X11394784Y-7777284D01*
X11394784Y-8027284D02*
X11394784Y-7970715D01*
X11338215Y-7970715D01*
X11338215Y-8027284D01*
X11394784Y-8027284D01*
X11457284Y-5680784D02*
X11457284Y-5624215D01*
X11400715Y-5624215D01*
X11400715Y-5680784D01*
X11457284Y-5680784D01*
X11457284Y-6442784D02*
X11457284Y-6386215D01*
X11400715Y-6386215D01*
X11400715Y-6442784D01*
X11457284Y-6442784D01*
X11459784Y-4474785D02*
X11459784Y-4418216D01*
X11403215Y-4418216D01*
X11403215Y-4474785D01*
X11459784Y-4474785D01*
X11459784Y-5236785D02*
X11459784Y-5180216D01*
X11403215Y-5180216D01*
X11403215Y-5236785D01*
X11459784Y-5236785D01*
X11711284Y-5680784D02*
X11711284Y-5624215D01*
X11654715Y-5624215D01*
X11654715Y-5680784D01*
X11711284Y-5680784D01*
X11711284Y-6442784D02*
X11711284Y-6386215D01*
X11654715Y-6386215D01*
X11654715Y-6442784D01*
X11711284Y-6442784D01*
X11713784Y-4474785D02*
X11713784Y-4418216D01*
X11657215Y-4418216D01*
X11657215Y-4474785D01*
X11713784Y-4474785D01*
X11713784Y-5236785D02*
X11713784Y-5180216D01*
X11657215Y-5180216D01*
X11657215Y-5236785D01*
X11713784Y-5236785D01*
X11965284Y-5680784D02*
X11965284Y-5624215D01*
X11908715Y-5624215D01*
X11908715Y-5680784D01*
X11965284Y-5680784D01*
X11965284Y-6442784D02*
X11965284Y-6386215D01*
X11908715Y-6386215D01*
X11908715Y-6442784D01*
X11965284Y-6442784D01*
X11967784Y-4474785D02*
X11967784Y-4418216D01*
X11911215Y-4418216D01*
X11911215Y-4474785D01*
X11967784Y-4474785D01*
X11967784Y-5236785D02*
X11967784Y-5180216D01*
X11911215Y-5180216D01*
X11911215Y-5236785D01*
X11967784Y-5236785D01*
X12221784Y-4474785D02*
X12221784Y-4418216D01*
X12165215Y-4418216D01*
X12165215Y-4474785D01*
X12221784Y-4474785D01*
X12221784Y-5236785D02*
X12221784Y-5180216D01*
X12165215Y-5180216D01*
X12165215Y-5236785D01*
X12221784Y-5236785D01*
X12475784Y-4474785D02*
X12475784Y-4418216D01*
X12419215Y-4418216D01*
X12419215Y-4474785D01*
X12475784Y-4474785D01*
X12475784Y-5236785D02*
X12475784Y-5180216D01*
X12419215Y-5180216D01*
X12419215Y-5236785D01*
X12475784Y-5236785D01*
X12728284Y-9493785D02*
X12728284Y-9437216D01*
X12671715Y-9437216D01*
X12671715Y-9493785D01*
X12728284Y-9493785D01*
X12728284Y-9743785D02*
X12728284Y-9687216D01*
X12671715Y-9687216D01*
X12671715Y-9743785D01*
X12728284Y-9743785D01*
X12729784Y-4474785D02*
X12729784Y-4418216D01*
X12673215Y-4418216D01*
X12673215Y-4474785D01*
X12729784Y-4474785D01*
X12729784Y-5236785D02*
X12729784Y-5180216D01*
X12673215Y-5180216D01*
X12673215Y-5236785D01*
X12729784Y-5236785D01*
X12983784Y-4474785D02*
X12983784Y-4418216D01*
X12927215Y-4418216D01*
X12927215Y-4474785D01*
X12983784Y-4474785D01*
X12983784Y-5236785D02*
X12983784Y-5180216D01*
X12927215Y-5180216D01*
X12927215Y-5236785D01*
X12983784Y-5236785D01*
D16*
X4383000Y-4686000D02*
X4433000Y-4636000D01*
X4383000Y-4586000D01*
X4333000Y-4636000D01*
X4383000Y-4686000D01*
X4383000Y-4940000D02*
X4433000Y-4890000D01*
X4383000Y-4840000D01*
X4333000Y-4890000D01*
X4383000Y-4940000D01*
X4526000Y-6264000D02*
X4576000Y-6214000D01*
X4526000Y-6164000D01*
X4476000Y-6214000D01*
X4526000Y-6264000D01*
X4526000Y-6484000D02*
X4576000Y-6434000D01*
X4526000Y-6384000D01*
X4476000Y-6434000D01*
X4526000Y-6484000D01*
X4526000Y-6704000D02*
X4576000Y-6654000D01*
X4526000Y-6604000D01*
X4476000Y-6654000D01*
X4526000Y-6704000D01*
X4526000Y-6924000D02*
X4576000Y-6874000D01*
X4526000Y-6824000D01*
X4476000Y-6874000D01*
X4526000Y-6924000D01*
X4526000Y-7144000D02*
X4576000Y-7094000D01*
X4526000Y-7044000D01*
X4476000Y-7094000D01*
X4526000Y-7144000D01*
X4526000Y-7364000D02*
X4576000Y-7314000D01*
X4526000Y-7264000D01*
X4476000Y-7314000D01*
X4526000Y-7364000D01*
X4526000Y-7584000D02*
X4576000Y-7534000D01*
X4526000Y-7484000D01*
X4476000Y-7534000D01*
X4526000Y-7584000D01*
X4526000Y-7804000D02*
X4576000Y-7754000D01*
X4526000Y-7704000D01*
X4476000Y-7754000D01*
X4526000Y-7804000D01*
X4526000Y-8024000D02*
X4576000Y-7974000D01*
X4526000Y-7924000D01*
X4476000Y-7974000D01*
X4526000Y-8024000D01*
X4526000Y-8244000D02*
X4576000Y-8194000D01*
X4526000Y-8144000D01*
X4476000Y-8194000D01*
X4526000Y-8244000D01*
X4526000Y-8464000D02*
X4576000Y-8414000D01*
X4526000Y-8364000D01*
X4476000Y-8414000D01*
X4526000Y-8464000D01*
X4526000Y-8684000D02*
X4576000Y-8634000D01*
X4526000Y-8584000D01*
X4476000Y-8634000D01*
X4526000Y-8684000D01*
X4526000Y-8904000D02*
X4576000Y-8854000D01*
X4526000Y-8804000D01*
X4476000Y-8854000D01*
X4526000Y-8904000D01*
X4526000Y-9124000D02*
X4576000Y-9074000D01*
X4526000Y-9024000D01*
X4476000Y-9074000D01*
X4526000Y-9124000D01*
X4526000Y-9344000D02*
X4576000Y-9294000D01*
X4526000Y-9244000D01*
X4476000Y-9294000D01*
X4526000Y-9344000D01*
X4526000Y-9564000D02*
X4576000Y-9514000D01*
X4526000Y-9464000D01*
X4476000Y-9514000D01*
X4526000Y-9564000D01*
X4526000Y-9844000D02*
X4576000Y-9794000D01*
X4526000Y-9744000D01*
X4476000Y-9794000D01*
X4526000Y-9844000D01*
X4526000Y-10124000D02*
X4576000Y-10074000D01*
X4526000Y-10024000D01*
X4476000Y-10074000D01*
X4526000Y-10124000D01*
X4637000Y-4686000D02*
X4687000Y-4636000D01*
X4637000Y-4586000D01*
X4587000Y-4636000D01*
X4637000Y-4686000D01*
X4637000Y-4940000D02*
X4687000Y-4890000D01*
X4637000Y-4840000D01*
X4587000Y-4890000D01*
X4637000Y-4940000D01*
X4826000Y-6264000D02*
X4876000Y-6214000D01*
X4826000Y-6164000D01*
X4776000Y-6214000D01*
X4826000Y-6264000D01*
X4826000Y-6484000D02*
X4876000Y-6434000D01*
X4826000Y-6384000D01*
X4776000Y-6434000D01*
X4826000Y-6484000D01*
X4826000Y-6704000D02*
X4876000Y-6654000D01*
X4826000Y-6604000D01*
X4776000Y-6654000D01*
X4826000Y-6704000D01*
X4826000Y-6924000D02*
X4876000Y-6874000D01*
X4826000Y-6824000D01*
X4776000Y-6874000D01*
X4826000Y-6924000D01*
X4826000Y-7144000D02*
X4876000Y-7094000D01*
X4826000Y-7044000D01*
X4776000Y-7094000D01*
X4826000Y-7144000D01*
X4826000Y-7364000D02*
X4876000Y-7314000D01*
X4826000Y-7264000D01*
X4776000Y-7314000D01*
X4826000Y-7364000D01*
X4826000Y-7584000D02*
X4876000Y-7534000D01*
X4826000Y-7484000D01*
X4776000Y-7534000D01*
X4826000Y-7584000D01*
X4826000Y-7804000D02*
X4876000Y-7754000D01*
X4826000Y-7704000D01*
X4776000Y-7754000D01*
X4826000Y-7804000D01*
X4826000Y-8024000D02*
X4876000Y-7974000D01*
X4826000Y-7924000D01*
X4776000Y-7974000D01*
X4826000Y-8024000D01*
X4826000Y-8244000D02*
X4876000Y-8194000D01*
X4826000Y-8144000D01*
X4776000Y-8194000D01*
X4826000Y-8244000D01*
X4826000Y-8464000D02*
X4876000Y-8414000D01*
X4826000Y-8364000D01*
X4776000Y-8414000D01*
X4826000Y-8464000D01*
X4826000Y-8684000D02*
X4876000Y-8634000D01*
X4826000Y-8584000D01*
X4776000Y-8634000D01*
X4826000Y-8684000D01*
X4826000Y-8904000D02*
X4876000Y-8854000D01*
X4826000Y-8804000D01*
X4776000Y-8854000D01*
X4826000Y-8904000D01*
X4826000Y-9124000D02*
X4876000Y-9074000D01*
X4826000Y-9024000D01*
X4776000Y-9074000D01*
X4826000Y-9124000D01*
X4826000Y-9344000D02*
X4876000Y-9294000D01*
X4826000Y-9244000D01*
X4776000Y-9294000D01*
X4826000Y-9344000D01*
X4826000Y-9564000D02*
X4876000Y-9514000D01*
X4826000Y-9464000D01*
X4776000Y-9514000D01*
X4826000Y-9564000D01*
X4826000Y-9844000D02*
X4876000Y-9794000D01*
X4826000Y-9744000D01*
X4776000Y-9794000D01*
X4826000Y-9844000D01*
X4826000Y-10124000D02*
X4876000Y-10074000D01*
X4826000Y-10024000D01*
X4776000Y-10074000D01*
X4826000Y-10124000D01*
X4891000Y-4686000D02*
X4941000Y-4636000D01*
X4891000Y-4586000D01*
X4841000Y-4636000D01*
X4891000Y-4686000D01*
X4891000Y-4940000D02*
X4941000Y-4890000D01*
X4891000Y-4840000D01*
X4841000Y-4890000D01*
X4891000Y-4940000D01*
X5524500Y-10210000D02*
X5574500Y-10160000D01*
X5524500Y-10110000D01*
X5474500Y-10160000D01*
X5524500Y-10210000D01*
X6794500Y-5447500D02*
X6844500Y-5397500D01*
X6794500Y-5347500D01*
X6744500Y-5397500D01*
X6794500Y-5447500D01*
X7048500Y-5447500D02*
X7098500Y-5397500D01*
X7048500Y-5347500D01*
X6998500Y-5397500D01*
X7048500Y-5447500D01*
X7302500Y-5447500D02*
X7352500Y-5397500D01*
X7302500Y-5347500D01*
X7252500Y-5397500D01*
X7302500Y-5447500D01*
X8064500Y-10337000D02*
X8114500Y-10287000D01*
X8064500Y-10237000D01*
X8014500Y-10287000D01*
X8064500Y-10337000D01*
X8064500Y-10908500D02*
X8114500Y-10858500D01*
X8064500Y-10808500D01*
X8014500Y-10858500D01*
X8064500Y-10908500D01*
X11938000Y-6846000D02*
X11988000Y-6796000D01*
X11938000Y-6746000D01*
X11888000Y-6796000D01*
X11938000Y-6846000D01*
X11938000Y-7100000D02*
X11988000Y-7050000D01*
X11938000Y-7000000D01*
X11888000Y-7050000D01*
X11938000Y-7100000D01*
X11938000Y-7354000D02*
X11988000Y-7304000D01*
X11938000Y-7254000D01*
X11888000Y-7304000D01*
X11938000Y-7354000D01*
X12318500Y-7352500D02*
X12368500Y-7302500D01*
X12318500Y-7252500D01*
X12268500Y-7302500D01*
X12318500Y-7352500D01*
X12509500Y-4114000D02*
X12559500Y-4064000D01*
X12509500Y-4014000D01*
X12459500Y-4064000D01*
X12509500Y-4114000D01*
X12572500Y-7352500D02*
X12622500Y-7302500D01*
X12572500Y-7252500D01*
X12522500Y-7302500D01*
X12572500Y-7352500D01*
X12573000Y-5701500D02*
X12623000Y-5651500D01*
X12573000Y-5601500D01*
X12523000Y-5651500D01*
X12573000Y-5701500D01*
X12573000Y-5955500D02*
X12623000Y-5905500D01*
X12573000Y-5855500D01*
X12523000Y-5905500D01*
X12573000Y-5955500D01*
X12573000Y-6209500D02*
X12623000Y-6159500D01*
X12573000Y-6109500D01*
X12523000Y-6159500D01*
X12573000Y-6209500D01*
X12573000Y-6463500D02*
X12623000Y-6413500D01*
X12573000Y-6363500D01*
X12523000Y-6413500D01*
X12573000Y-6463500D01*
X12573000Y-6717500D02*
X12623000Y-6667500D01*
X12573000Y-6617500D01*
X12523000Y-6667500D01*
X12573000Y-6717500D01*
X12573000Y-6971500D02*
X12623000Y-6921500D01*
X12573000Y-6871500D01*
X12523000Y-6921500D01*
X12573000Y-6971500D01*
X12890500Y-4114000D02*
X12940500Y-4064000D01*
X12890500Y-4014000D01*
X12840500Y-4064000D01*
X12890500Y-4114000D01*
D17*
X7438000Y-9186500D02*
X7548000Y-9296500D01*
X7548000Y-9186500D02*
X7438000Y-9296500D01*
X7548000Y-9241500D02*
G75*
G03*
X7548000Y-9241500I-55000J0D01*
G01*
X7692000Y-9186500D02*
X7802000Y-9296500D01*
X7802000Y-9186500D02*
X7692000Y-9296500D01*
X7802000Y-9241500D02*
G75*
G03*
X7802000Y-9241500I-55000J0D01*
G01*
X7946000Y-9186500D02*
X8056000Y-9296500D01*
X8056000Y-9186500D02*
X7946000Y-9296500D01*
X8056000Y-9241500D02*
G75*
G03*
X8056000Y-9241500I-55000J0D01*
G01*
X10676500Y-9724000D02*
X10786500Y-9834000D01*
X10786500Y-9724000D02*
X10676500Y-9834000D01*
X10786500Y-9779000D02*
G75*
G03*
X10786500Y-9779000I-55000J0D01*
G01*
X10676500Y-10105000D02*
X10786500Y-10215000D01*
X10786500Y-10105000D02*
X10676500Y-10215000D01*
X10786500Y-10160000D02*
G75*
G03*
X10786500Y-10160000I-55000J0D01*
G01*
X11438500Y-9724000D02*
X11548500Y-9834000D01*
X11548500Y-9724000D02*
X11438500Y-9834000D01*
X11548500Y-9779000D02*
G75*
G03*
X11548500Y-9779000I-55000J0D01*
G01*
X11438500Y-10105000D02*
X11548500Y-10215000D01*
X11548500Y-10105000D02*
X11438500Y-10215000D01*
X11548500Y-10160000D02*
G75*
G03*
X11548500Y-10160000I-55000J0D01*
G01*
D11*
X4189619Y-11618476D02*
X4189619Y-11418476D01*
X4237238Y-11418476D01*
X4265810Y-11428000D01*
X4284857Y-11447048D01*
X4294381Y-11466095D01*
X4303905Y-11504190D01*
X4303905Y-11532762D01*
X4294381Y-11570857D01*
X4284857Y-11589905D01*
X4265810Y-11608952D01*
X4237238Y-11618476D01*
X4189619Y-11618476D01*
X4389619Y-11618476D02*
X4389619Y-11485143D01*
X4389619Y-11523238D02*
X4399143Y-11504190D01*
X4408667Y-11494667D01*
X4427714Y-11485143D01*
X4446762Y-11485143D01*
X4513429Y-11618476D02*
X4513429Y-11485143D01*
X4513429Y-11418476D02*
X4503905Y-11428000D01*
X4513429Y-11437524D01*
X4522952Y-11428000D01*
X4513429Y-11418476D01*
X4513429Y-11437524D01*
X4637238Y-11618476D02*
X4618190Y-11608952D01*
X4608667Y-11589905D01*
X4608667Y-11418476D01*
X4742000Y-11618476D02*
X4722952Y-11608952D01*
X4713429Y-11589905D01*
X4713429Y-11418476D01*
X4970571Y-11618476D02*
X4970571Y-11418476D01*
X5037238Y-11561333D01*
X5103905Y-11418476D01*
X5103905Y-11618476D01*
X5284857Y-11618476D02*
X5284857Y-11513714D01*
X5275333Y-11494667D01*
X5256286Y-11485143D01*
X5218190Y-11485143D01*
X5199143Y-11494667D01*
X5284857Y-11608952D02*
X5265810Y-11618476D01*
X5218190Y-11618476D01*
X5199143Y-11608952D01*
X5189619Y-11589905D01*
X5189619Y-11570857D01*
X5199143Y-11551809D01*
X5218190Y-11542286D01*
X5265810Y-11542286D01*
X5284857Y-11532762D01*
X5380095Y-11485143D02*
X5380095Y-11685143D01*
X5380095Y-11494667D02*
X5399143Y-11485143D01*
X5437238Y-11485143D01*
X5456286Y-11494667D01*
X5465810Y-11504190D01*
X5475333Y-11523238D01*
X5475333Y-11580381D01*
X5465810Y-11599428D01*
X5456286Y-11608952D01*
X5437238Y-11618476D01*
X5399143Y-11618476D01*
X5380095Y-11608952D01*
X5561048Y-11599428D02*
X5570571Y-11608952D01*
X5561048Y-11618476D01*
X5551524Y-11608952D01*
X5561048Y-11599428D01*
X5561048Y-11618476D01*
X5561048Y-11494667D02*
X5570571Y-11504190D01*
X5561048Y-11513714D01*
X5551524Y-11504190D01*
X5561048Y-11494667D01*
X5561048Y-11513714D01*
D12*
X3892000Y-11928000D02*
X3932000Y-11968000D01*
X3932000Y-11928000D02*
X3892000Y-11968000D01*
D11*
X4227714Y-11838476D02*
X4246762Y-11838476D01*
X4265810Y-11848000D01*
X4275333Y-11857524D01*
X4284857Y-11876571D01*
X4294381Y-11914667D01*
X4294381Y-11962286D01*
X4284857Y-12000381D01*
X4275333Y-12019428D01*
X4265810Y-12028952D01*
X4246762Y-12038476D01*
X4227714Y-12038476D01*
X4208667Y-12028952D01*
X4199143Y-12019428D01*
X4189619Y-12000381D01*
X4180095Y-11962286D01*
X4180095Y-11914667D01*
X4189619Y-11876571D01*
X4199143Y-11857524D01*
X4208667Y-11848000D01*
X4227714Y-11838476D01*
X4380095Y-12019428D02*
X4389619Y-12028952D01*
X4380095Y-12038476D01*
X4370571Y-12028952D01*
X4380095Y-12019428D01*
X4380095Y-12038476D01*
X4561048Y-11905143D02*
X4561048Y-12038476D01*
X4513429Y-11828952D02*
X4465810Y-11971809D01*
X4589619Y-11971809D01*
X4703905Y-11838476D02*
X4722952Y-11838476D01*
X4742000Y-11848000D01*
X4751524Y-11857524D01*
X4761048Y-11876571D01*
X4770571Y-11914667D01*
X4770571Y-11962286D01*
X4761048Y-12000381D01*
X4751524Y-12019428D01*
X4742000Y-12028952D01*
X4722952Y-12038476D01*
X4703905Y-12038476D01*
X4684857Y-12028952D01*
X4675333Y-12019428D01*
X4665810Y-12000381D01*
X4656286Y-11962286D01*
X4656286Y-11914667D01*
X4665810Y-11876571D01*
X4675333Y-11857524D01*
X4684857Y-11848000D01*
X4703905Y-11838476D01*
X4894381Y-11838476D02*
X4913429Y-11838476D01*
X4932476Y-11848000D01*
X4942000Y-11857524D01*
X4951524Y-11876571D01*
X4961048Y-11914667D01*
X4961048Y-11962286D01*
X4951524Y-12000381D01*
X4942000Y-12019428D01*
X4932476Y-12028952D01*
X4913429Y-12038476D01*
X4894381Y-12038476D01*
X4875333Y-12028952D01*
X4865810Y-12019428D01*
X4856286Y-12000381D01*
X4846762Y-11962286D01*
X4846762Y-11914667D01*
X4856286Y-11876571D01*
X4865810Y-11857524D01*
X4875333Y-11848000D01*
X4894381Y-11838476D01*
X5046762Y-12038476D02*
X5046762Y-11905143D01*
X5046762Y-11924190D02*
X5056286Y-11914667D01*
X5075333Y-11905143D01*
X5103905Y-11905143D01*
X5122952Y-11914667D01*
X5132476Y-11933714D01*
X5132476Y-12038476D01*
X5132476Y-11933714D02*
X5142000Y-11914667D01*
X5161048Y-11905143D01*
X5189619Y-11905143D01*
X5208667Y-11914667D01*
X5218190Y-11933714D01*
X5218190Y-12038476D01*
X5313429Y-12038476D02*
X5313429Y-11905143D01*
X5313429Y-11924190D02*
X5322952Y-11914667D01*
X5342000Y-11905143D01*
X5370571Y-11905143D01*
X5389619Y-11914667D01*
X5399143Y-11933714D01*
X5399143Y-12038476D01*
X5399143Y-11933714D02*
X5408667Y-11914667D01*
X5427714Y-11905143D01*
X5456286Y-11905143D01*
X5475333Y-11914667D01*
X5484857Y-11933714D01*
X5484857Y-12038476D01*
X5875333Y-11828952D02*
X5703905Y-12086095D01*
X6132476Y-11838476D02*
X6151524Y-11838476D01*
X6170571Y-11848000D01*
X6180095Y-11857524D01*
X6189619Y-11876571D01*
X6199143Y-11914667D01*
X6199143Y-11962286D01*
X6189619Y-12000381D01*
X6180095Y-12019428D01*
X6170571Y-12028952D01*
X6151524Y-12038476D01*
X6132476Y-12038476D01*
X6113428Y-12028952D01*
X6103905Y-12019428D01*
X6094381Y-12000381D01*
X6084857Y-11962286D01*
X6084857Y-11914667D01*
X6094381Y-11876571D01*
X6103905Y-11857524D01*
X6113428Y-11848000D01*
X6132476Y-11838476D01*
X6284857Y-12019428D02*
X6294381Y-12028952D01*
X6284857Y-12038476D01*
X6275333Y-12028952D01*
X6284857Y-12019428D01*
X6284857Y-12038476D01*
X6418190Y-11838476D02*
X6437238Y-11838476D01*
X6456286Y-11848000D01*
X6465809Y-11857524D01*
X6475333Y-11876571D01*
X6484857Y-11914667D01*
X6484857Y-11962286D01*
X6475333Y-12000381D01*
X6465809Y-12019428D01*
X6456286Y-12028952D01*
X6437238Y-12038476D01*
X6418190Y-12038476D01*
X6399143Y-12028952D01*
X6389619Y-12019428D01*
X6380095Y-12000381D01*
X6370571Y-11962286D01*
X6370571Y-11914667D01*
X6380095Y-11876571D01*
X6389619Y-11857524D01*
X6399143Y-11848000D01*
X6418190Y-11838476D01*
X6675333Y-12038476D02*
X6561048Y-12038476D01*
X6618190Y-12038476D02*
X6618190Y-11838476D01*
X6599143Y-11867048D01*
X6580095Y-11886095D01*
X6561048Y-11895619D01*
X6856286Y-11838476D02*
X6761048Y-11838476D01*
X6751524Y-11933714D01*
X6761048Y-11924190D01*
X6780095Y-11914667D01*
X6827714Y-11914667D01*
X6846762Y-11924190D01*
X6856286Y-11933714D01*
X6865809Y-11952762D01*
X6865809Y-12000381D01*
X6856286Y-12019428D01*
X6846762Y-12028952D01*
X6827714Y-12038476D01*
X6780095Y-12038476D01*
X6761048Y-12028952D01*
X6751524Y-12019428D01*
X6932476Y-11838476D02*
X7065809Y-11838476D01*
X6980095Y-12038476D01*
X7132476Y-11838476D02*
X7132476Y-11876571D01*
X7208667Y-11838476D02*
X7208667Y-11876571D01*
X7503905Y-12114667D02*
X7494381Y-12105143D01*
X7475333Y-12076571D01*
X7465809Y-12057524D01*
X7456286Y-12028952D01*
X7446762Y-11981333D01*
X7446762Y-11943238D01*
X7456286Y-11895619D01*
X7465809Y-11867048D01*
X7475333Y-11848000D01*
X7494381Y-11819428D01*
X7503905Y-11809905D01*
X7665809Y-11905143D02*
X7665809Y-12038476D01*
X7618190Y-11828952D02*
X7570571Y-11971809D01*
X7694381Y-11971809D01*
X7751524Y-11838476D02*
X7884857Y-11838476D01*
X7799143Y-12038476D01*
X8113428Y-12038476D02*
X8113428Y-11838476D01*
X8199143Y-12038476D02*
X8199143Y-11933714D01*
X8189619Y-11914667D01*
X8170571Y-11905143D01*
X8142000Y-11905143D01*
X8122952Y-11914667D01*
X8113428Y-11924190D01*
X8322952Y-12038476D02*
X8303905Y-12028952D01*
X8294381Y-12019428D01*
X8284857Y-12000381D01*
X8284857Y-11943238D01*
X8294381Y-11924190D01*
X8303905Y-11914667D01*
X8322952Y-11905143D01*
X8351524Y-11905143D01*
X8370571Y-11914667D01*
X8380095Y-11924190D01*
X8389619Y-11943238D01*
X8389619Y-12000381D01*
X8380095Y-12019428D01*
X8370571Y-12028952D01*
X8351524Y-12038476D01*
X8322952Y-12038476D01*
X8503905Y-12038476D02*
X8484857Y-12028952D01*
X8475333Y-12009905D01*
X8475333Y-11838476D01*
X8656286Y-12028952D02*
X8637238Y-12038476D01*
X8599143Y-12038476D01*
X8580095Y-12028952D01*
X8570571Y-12009905D01*
X8570571Y-11933714D01*
X8580095Y-11914667D01*
X8599143Y-11905143D01*
X8637238Y-11905143D01*
X8656286Y-11914667D01*
X8665810Y-11933714D01*
X8665810Y-11952762D01*
X8570571Y-11971809D01*
X8742000Y-12028952D02*
X8761048Y-12038476D01*
X8799143Y-12038476D01*
X8818190Y-12028952D01*
X8827714Y-12009905D01*
X8827714Y-12000381D01*
X8818190Y-11981333D01*
X8799143Y-11971809D01*
X8770571Y-11971809D01*
X8751524Y-11962286D01*
X8742000Y-11943238D01*
X8742000Y-11933714D01*
X8751524Y-11914667D01*
X8770571Y-11905143D01*
X8799143Y-11905143D01*
X8818190Y-11914667D01*
X8894381Y-12114667D02*
X8903905Y-12105143D01*
X8922952Y-12076571D01*
X8932476Y-12057524D01*
X8942000Y-12028952D01*
X8951524Y-11981333D01*
X8951524Y-11943238D01*
X8942000Y-11895619D01*
X8932476Y-11867048D01*
X8922952Y-11848000D01*
X8903905Y-11819428D01*
X8894381Y-11809905D01*
D13*
X3932000Y-12212000D02*
G75*
G03*
X3932000Y-12212000I-35000J0D01*
G01*
D11*
X4227714Y-12102476D02*
X4246762Y-12102476D01*
X4265810Y-12112000D01*
X4275333Y-12121524D01*
X4284857Y-12140571D01*
X4294381Y-12178667D01*
X4294381Y-12226286D01*
X4284857Y-12264381D01*
X4275333Y-12283428D01*
X4265810Y-12292952D01*
X4246762Y-12302476D01*
X4227714Y-12302476D01*
X4208667Y-12292952D01*
X4199143Y-12283428D01*
X4189619Y-12264381D01*
X4180095Y-12226286D01*
X4180095Y-12178667D01*
X4189619Y-12140571D01*
X4199143Y-12121524D01*
X4208667Y-12112000D01*
X4227714Y-12102476D01*
X4380095Y-12283428D02*
X4389619Y-12292952D01*
X4380095Y-12302476D01*
X4370571Y-12292952D01*
X4380095Y-12283428D01*
X4380095Y-12302476D01*
X4456286Y-12102476D02*
X4589619Y-12102476D01*
X4503905Y-12302476D01*
X4703905Y-12102476D02*
X4722952Y-12102476D01*
X4742000Y-12112000D01*
X4751524Y-12121524D01*
X4761048Y-12140571D01*
X4770571Y-12178667D01*
X4770571Y-12226286D01*
X4761048Y-12264381D01*
X4751524Y-12283428D01*
X4742000Y-12292952D01*
X4722952Y-12302476D01*
X4703905Y-12302476D01*
X4684857Y-12292952D01*
X4675333Y-12283428D01*
X4665810Y-12264381D01*
X4656286Y-12226286D01*
X4656286Y-12178667D01*
X4665810Y-12140571D01*
X4675333Y-12121524D01*
X4684857Y-12112000D01*
X4703905Y-12102476D01*
X4894381Y-12102476D02*
X4913429Y-12102476D01*
X4932476Y-12112000D01*
X4942000Y-12121524D01*
X4951524Y-12140571D01*
X4961048Y-12178667D01*
X4961048Y-12226286D01*
X4951524Y-12264381D01*
X4942000Y-12283428D01*
X4932476Y-12292952D01*
X4913429Y-12302476D01*
X4894381Y-12302476D01*
X4875333Y-12292952D01*
X4865810Y-12283428D01*
X4856286Y-12264381D01*
X4846762Y-12226286D01*
X4846762Y-12178667D01*
X4856286Y-12140571D01*
X4865810Y-12121524D01*
X4875333Y-12112000D01*
X4894381Y-12102476D01*
X5046762Y-12302476D02*
X5046762Y-12169143D01*
X5046762Y-12188190D02*
X5056286Y-12178667D01*
X5075333Y-12169143D01*
X5103905Y-12169143D01*
X5122952Y-12178667D01*
X5132476Y-12197714D01*
X5132476Y-12302476D01*
X5132476Y-12197714D02*
X5142000Y-12178667D01*
X5161048Y-12169143D01*
X5189619Y-12169143D01*
X5208667Y-12178667D01*
X5218190Y-12197714D01*
X5218190Y-12302476D01*
X5313429Y-12302476D02*
X5313429Y-12169143D01*
X5313429Y-12188190D02*
X5322952Y-12178667D01*
X5342000Y-12169143D01*
X5370571Y-12169143D01*
X5389619Y-12178667D01*
X5399143Y-12197714D01*
X5399143Y-12302476D01*
X5399143Y-12197714D02*
X5408667Y-12178667D01*
X5427714Y-12169143D01*
X5456286Y-12169143D01*
X5475333Y-12178667D01*
X5484857Y-12197714D01*
X5484857Y-12302476D01*
X5875333Y-12092952D02*
X5703905Y-12350095D01*
X6132476Y-12102476D02*
X6151524Y-12102476D01*
X6170571Y-12112000D01*
X6180095Y-12121524D01*
X6189619Y-12140571D01*
X6199143Y-12178667D01*
X6199143Y-12226286D01*
X6189619Y-12264381D01*
X6180095Y-12283428D01*
X6170571Y-12292952D01*
X6151524Y-12302476D01*
X6132476Y-12302476D01*
X6113428Y-12292952D01*
X6103905Y-12283428D01*
X6094381Y-12264381D01*
X6084857Y-12226286D01*
X6084857Y-12178667D01*
X6094381Y-12140571D01*
X6103905Y-12121524D01*
X6113428Y-12112000D01*
X6132476Y-12102476D01*
X6284857Y-12283428D02*
X6294381Y-12292952D01*
X6284857Y-12302476D01*
X6275333Y-12292952D01*
X6284857Y-12283428D01*
X6284857Y-12302476D01*
X6418190Y-12102476D02*
X6437238Y-12102476D01*
X6456286Y-12112000D01*
X6465809Y-12121524D01*
X6475333Y-12140571D01*
X6484857Y-12178667D01*
X6484857Y-12226286D01*
X6475333Y-12264381D01*
X6465809Y-12283428D01*
X6456286Y-12292952D01*
X6437238Y-12302476D01*
X6418190Y-12302476D01*
X6399143Y-12292952D01*
X6389619Y-12283428D01*
X6380095Y-12264381D01*
X6370571Y-12226286D01*
X6370571Y-12178667D01*
X6380095Y-12140571D01*
X6389619Y-12121524D01*
X6399143Y-12112000D01*
X6418190Y-12102476D01*
X6561048Y-12121524D02*
X6570571Y-12112000D01*
X6589619Y-12102476D01*
X6637238Y-12102476D01*
X6656286Y-12112000D01*
X6665809Y-12121524D01*
X6675333Y-12140571D01*
X6675333Y-12159619D01*
X6665809Y-12188190D01*
X6551524Y-12302476D01*
X6675333Y-12302476D01*
X6742000Y-12102476D02*
X6875333Y-12102476D01*
X6789619Y-12302476D01*
X7037238Y-12102476D02*
X6999143Y-12102476D01*
X6980095Y-12112000D01*
X6970571Y-12121524D01*
X6951524Y-12150095D01*
X6942000Y-12188190D01*
X6942000Y-12264381D01*
X6951524Y-12283428D01*
X6961048Y-12292952D01*
X6980095Y-12302476D01*
X7018190Y-12302476D01*
X7037238Y-12292952D01*
X7046762Y-12283428D01*
X7056286Y-12264381D01*
X7056286Y-12216762D01*
X7046762Y-12197714D01*
X7037238Y-12188190D01*
X7018190Y-12178667D01*
X6980095Y-12178667D01*
X6961048Y-12188190D01*
X6951524Y-12197714D01*
X6942000Y-12216762D01*
X7132476Y-12102476D02*
X7132476Y-12140571D01*
X7208667Y-12102476D02*
X7208667Y-12140571D01*
X7503905Y-12378667D02*
X7494381Y-12369143D01*
X7475333Y-12340571D01*
X7465809Y-12321524D01*
X7456286Y-12292952D01*
X7446762Y-12245333D01*
X7446762Y-12207238D01*
X7456286Y-12159619D01*
X7465809Y-12131048D01*
X7475333Y-12112000D01*
X7494381Y-12083428D01*
X7503905Y-12073905D01*
X7665809Y-12169143D02*
X7665809Y-12302476D01*
X7618190Y-12092952D02*
X7570571Y-12235809D01*
X7694381Y-12235809D01*
X7808667Y-12102476D02*
X7827714Y-12102476D01*
X7846762Y-12112000D01*
X7856286Y-12121524D01*
X7865809Y-12140571D01*
X7875333Y-12178667D01*
X7875333Y-12226286D01*
X7865809Y-12264381D01*
X7856286Y-12283428D01*
X7846762Y-12292952D01*
X7827714Y-12302476D01*
X7808667Y-12302476D01*
X7789619Y-12292952D01*
X7780095Y-12283428D01*
X7770571Y-12264381D01*
X7761048Y-12226286D01*
X7761048Y-12178667D01*
X7770571Y-12140571D01*
X7780095Y-12121524D01*
X7789619Y-12112000D01*
X7808667Y-12102476D01*
X8113428Y-12302476D02*
X8113428Y-12102476D01*
X8199143Y-12302476D02*
X8199143Y-12197714D01*
X8189619Y-12178667D01*
X8170571Y-12169143D01*
X8142000Y-12169143D01*
X8122952Y-12178667D01*
X8113428Y-12188190D01*
X8322952Y-12302476D02*
X8303905Y-12292952D01*
X8294381Y-12283428D01*
X8284857Y-12264381D01*
X8284857Y-12207238D01*
X8294381Y-12188190D01*
X8303905Y-12178667D01*
X8322952Y-12169143D01*
X8351524Y-12169143D01*
X8370571Y-12178667D01*
X8380095Y-12188190D01*
X8389619Y-12207238D01*
X8389619Y-12264381D01*
X8380095Y-12283428D01*
X8370571Y-12292952D01*
X8351524Y-12302476D01*
X8322952Y-12302476D01*
X8503905Y-12302476D02*
X8484857Y-12292952D01*
X8475333Y-12273905D01*
X8475333Y-12102476D01*
X8656286Y-12292952D02*
X8637238Y-12302476D01*
X8599143Y-12302476D01*
X8580095Y-12292952D01*
X8570571Y-12273905D01*
X8570571Y-12197714D01*
X8580095Y-12178667D01*
X8599143Y-12169143D01*
X8637238Y-12169143D01*
X8656286Y-12178667D01*
X8665810Y-12197714D01*
X8665810Y-12216762D01*
X8570571Y-12235809D01*
X8742000Y-12292952D02*
X8761048Y-12302476D01*
X8799143Y-12302476D01*
X8818190Y-12292952D01*
X8827714Y-12273905D01*
X8827714Y-12264381D01*
X8818190Y-12245333D01*
X8799143Y-12235809D01*
X8770571Y-12235809D01*
X8751524Y-12226286D01*
X8742000Y-12207238D01*
X8742000Y-12197714D01*
X8751524Y-12178667D01*
X8770571Y-12169143D01*
X8799143Y-12169143D01*
X8818190Y-12178667D01*
X8894381Y-12378667D02*
X8903905Y-12369143D01*
X8922952Y-12340571D01*
X8932476Y-12321524D01*
X8942000Y-12292952D01*
X8951524Y-12245333D01*
X8951524Y-12207238D01*
X8942000Y-12159619D01*
X8932476Y-12131048D01*
X8922952Y-12112000D01*
X8903905Y-12083428D01*
X8894381Y-12073905D01*
D14*
X3893900Y-12437900D02*
X3893900Y-12514100D01*
X3855800Y-12476000D02*
X3932000Y-12476000D01*
D11*
X4227714Y-12366476D02*
X4246762Y-12366476D01*
X4265810Y-12376000D01*
X4275333Y-12385524D01*
X4284857Y-12404571D01*
X4294381Y-12442667D01*
X4294381Y-12490286D01*
X4284857Y-12528381D01*
X4275333Y-12547428D01*
X4265810Y-12556952D01*
X4246762Y-12566476D01*
X4227714Y-12566476D01*
X4208667Y-12556952D01*
X4199143Y-12547428D01*
X4189619Y-12528381D01*
X4180095Y-12490286D01*
X4180095Y-12442667D01*
X4189619Y-12404571D01*
X4199143Y-12385524D01*
X4208667Y-12376000D01*
X4227714Y-12366476D01*
X4380095Y-12547428D02*
X4389619Y-12556952D01*
X4380095Y-12566476D01*
X4370571Y-12556952D01*
X4380095Y-12547428D01*
X4380095Y-12566476D01*
X4456286Y-12366476D02*
X4589619Y-12366476D01*
X4503905Y-12566476D01*
X4751524Y-12366476D02*
X4713429Y-12366476D01*
X4694381Y-12376000D01*
X4684857Y-12385524D01*
X4665810Y-12414095D01*
X4656286Y-12452190D01*
X4656286Y-12528381D01*
X4665810Y-12547428D01*
X4675333Y-12556952D01*
X4694381Y-12566476D01*
X4732476Y-12566476D01*
X4751524Y-12556952D01*
X4761048Y-12547428D01*
X4770571Y-12528381D01*
X4770571Y-12480762D01*
X4761048Y-12461714D01*
X4751524Y-12452190D01*
X4732476Y-12442667D01*
X4694381Y-12442667D01*
X4675333Y-12452190D01*
X4665810Y-12461714D01*
X4656286Y-12480762D01*
X4846762Y-12385524D02*
X4856286Y-12376000D01*
X4875333Y-12366476D01*
X4922952Y-12366476D01*
X4942000Y-12376000D01*
X4951524Y-12385524D01*
X4961048Y-12404571D01*
X4961048Y-12423619D01*
X4951524Y-12452190D01*
X4837238Y-12566476D01*
X4961048Y-12566476D01*
X5046762Y-12566476D02*
X5046762Y-12433143D01*
X5046762Y-12452190D02*
X5056286Y-12442667D01*
X5075333Y-12433143D01*
X5103905Y-12433143D01*
X5122952Y-12442667D01*
X5132476Y-12461714D01*
X5132476Y-12566476D01*
X5132476Y-12461714D02*
X5142000Y-12442667D01*
X5161048Y-12433143D01*
X5189619Y-12433143D01*
X5208667Y-12442667D01*
X5218190Y-12461714D01*
X5218190Y-12566476D01*
X5313429Y-12566476D02*
X5313429Y-12433143D01*
X5313429Y-12452190D02*
X5322952Y-12442667D01*
X5342000Y-12433143D01*
X5370571Y-12433143D01*
X5389619Y-12442667D01*
X5399143Y-12461714D01*
X5399143Y-12566476D01*
X5399143Y-12461714D02*
X5408667Y-12442667D01*
X5427714Y-12433143D01*
X5456286Y-12433143D01*
X5475333Y-12442667D01*
X5484857Y-12461714D01*
X5484857Y-12566476D01*
X5875333Y-12356952D02*
X5703905Y-12614095D01*
X6132476Y-12366476D02*
X6151524Y-12366476D01*
X6170571Y-12376000D01*
X6180095Y-12385524D01*
X6189619Y-12404571D01*
X6199143Y-12442667D01*
X6199143Y-12490286D01*
X6189619Y-12528381D01*
X6180095Y-12547428D01*
X6170571Y-12556952D01*
X6151524Y-12566476D01*
X6132476Y-12566476D01*
X6113428Y-12556952D01*
X6103905Y-12547428D01*
X6094381Y-12528381D01*
X6084857Y-12490286D01*
X6084857Y-12442667D01*
X6094381Y-12404571D01*
X6103905Y-12385524D01*
X6113428Y-12376000D01*
X6132476Y-12366476D01*
X6284857Y-12547428D02*
X6294381Y-12556952D01*
X6284857Y-12566476D01*
X6275333Y-12556952D01*
X6284857Y-12547428D01*
X6284857Y-12566476D01*
X6418190Y-12366476D02*
X6437238Y-12366476D01*
X6456286Y-12376000D01*
X6465809Y-12385524D01*
X6475333Y-12404571D01*
X6484857Y-12442667D01*
X6484857Y-12490286D01*
X6475333Y-12528381D01*
X6465809Y-12547428D01*
X6456286Y-12556952D01*
X6437238Y-12566476D01*
X6418190Y-12566476D01*
X6399143Y-12556952D01*
X6389619Y-12547428D01*
X6380095Y-12528381D01*
X6370571Y-12490286D01*
X6370571Y-12442667D01*
X6380095Y-12404571D01*
X6389619Y-12385524D01*
X6399143Y-12376000D01*
X6418190Y-12366476D01*
X6551524Y-12366476D02*
X6675333Y-12366476D01*
X6608667Y-12442667D01*
X6637238Y-12442667D01*
X6656286Y-12452190D01*
X6665809Y-12461714D01*
X6675333Y-12480762D01*
X6675333Y-12528381D01*
X6665809Y-12547428D01*
X6656286Y-12556952D01*
X6637238Y-12566476D01*
X6580095Y-12566476D01*
X6561048Y-12556952D01*
X6551524Y-12547428D01*
X6799143Y-12366476D02*
X6818190Y-12366476D01*
X6837238Y-12376000D01*
X6846762Y-12385524D01*
X6856286Y-12404571D01*
X6865809Y-12442667D01*
X6865809Y-12490286D01*
X6856286Y-12528381D01*
X6846762Y-12547428D01*
X6837238Y-12556952D01*
X6818190Y-12566476D01*
X6799143Y-12566476D01*
X6780095Y-12556952D01*
X6770571Y-12547428D01*
X6761048Y-12528381D01*
X6751524Y-12490286D01*
X6751524Y-12442667D01*
X6761048Y-12404571D01*
X6770571Y-12385524D01*
X6780095Y-12376000D01*
X6799143Y-12366476D01*
X6989619Y-12366476D02*
X7008667Y-12366476D01*
X7027714Y-12376000D01*
X7037238Y-12385524D01*
X7046762Y-12404571D01*
X7056286Y-12442667D01*
X7056286Y-12490286D01*
X7046762Y-12528381D01*
X7037238Y-12547428D01*
X7027714Y-12556952D01*
X7008667Y-12566476D01*
X6989619Y-12566476D01*
X6970571Y-12556952D01*
X6961048Y-12547428D01*
X6951524Y-12528381D01*
X6942000Y-12490286D01*
X6942000Y-12442667D01*
X6951524Y-12404571D01*
X6961048Y-12385524D01*
X6970571Y-12376000D01*
X6989619Y-12366476D01*
X7132476Y-12366476D02*
X7132476Y-12404571D01*
X7208667Y-12366476D02*
X7208667Y-12404571D01*
X7503905Y-12642667D02*
X7494381Y-12633143D01*
X7475333Y-12604571D01*
X7465809Y-12585524D01*
X7456286Y-12556952D01*
X7446762Y-12509333D01*
X7446762Y-12471238D01*
X7456286Y-12423619D01*
X7465809Y-12395048D01*
X7475333Y-12376000D01*
X7494381Y-12347428D01*
X7503905Y-12337905D01*
X7608667Y-12452190D02*
X7589619Y-12442667D01*
X7580095Y-12433143D01*
X7570571Y-12414095D01*
X7570571Y-12404571D01*
X7580095Y-12385524D01*
X7589619Y-12376000D01*
X7608667Y-12366476D01*
X7646762Y-12366476D01*
X7665809Y-12376000D01*
X7675333Y-12385524D01*
X7684857Y-12404571D01*
X7684857Y-12414095D01*
X7675333Y-12433143D01*
X7665809Y-12442667D01*
X7646762Y-12452190D01*
X7608667Y-12452190D01*
X7589619Y-12461714D01*
X7580095Y-12471238D01*
X7570571Y-12490286D01*
X7570571Y-12528381D01*
X7580095Y-12547428D01*
X7589619Y-12556952D01*
X7608667Y-12566476D01*
X7646762Y-12566476D01*
X7665809Y-12556952D01*
X7675333Y-12547428D01*
X7684857Y-12528381D01*
X7684857Y-12490286D01*
X7675333Y-12471238D01*
X7665809Y-12461714D01*
X7646762Y-12452190D01*
X7808667Y-12366476D02*
X7827714Y-12366476D01*
X7846762Y-12376000D01*
X7856286Y-12385524D01*
X7865809Y-12404571D01*
X7875333Y-12442667D01*
X7875333Y-12490286D01*
X7865809Y-12528381D01*
X7856286Y-12547428D01*
X7846762Y-12556952D01*
X7827714Y-12566476D01*
X7808667Y-12566476D01*
X7789619Y-12556952D01*
X7780095Y-12547428D01*
X7770571Y-12528381D01*
X7761048Y-12490286D01*
X7761048Y-12442667D01*
X7770571Y-12404571D01*
X7780095Y-12385524D01*
X7789619Y-12376000D01*
X7808667Y-12366476D01*
X8113428Y-12566476D02*
X8113428Y-12366476D01*
X8199143Y-12566476D02*
X8199143Y-12461714D01*
X8189619Y-12442667D01*
X8170571Y-12433143D01*
X8142000Y-12433143D01*
X8122952Y-12442667D01*
X8113428Y-12452190D01*
X8322952Y-12566476D02*
X8303905Y-12556952D01*
X8294381Y-12547428D01*
X8284857Y-12528381D01*
X8284857Y-12471238D01*
X8294381Y-12452190D01*
X8303905Y-12442667D01*
X8322952Y-12433143D01*
X8351524Y-12433143D01*
X8370571Y-12442667D01*
X8380095Y-12452190D01*
X8389619Y-12471238D01*
X8389619Y-12528381D01*
X8380095Y-12547428D01*
X8370571Y-12556952D01*
X8351524Y-12566476D01*
X8322952Y-12566476D01*
X8503905Y-12566476D02*
X8484857Y-12556952D01*
X8475333Y-12537905D01*
X8475333Y-12366476D01*
X8656286Y-12556952D02*
X8637238Y-12566476D01*
X8599143Y-12566476D01*
X8580095Y-12556952D01*
X8570571Y-12537905D01*
X8570571Y-12461714D01*
X8580095Y-12442667D01*
X8599143Y-12433143D01*
X8637238Y-12433143D01*
X8656286Y-12442667D01*
X8665810Y-12461714D01*
X8665810Y-12480762D01*
X8570571Y-12499809D01*
X8742000Y-12556952D02*
X8761048Y-12566476D01*
X8799143Y-12566476D01*
X8818190Y-12556952D01*
X8827714Y-12537905D01*
X8827714Y-12528381D01*
X8818190Y-12509333D01*
X8799143Y-12499809D01*
X8770571Y-12499809D01*
X8751524Y-12490286D01*
X8742000Y-12471238D01*
X8742000Y-12461714D01*
X8751524Y-12442667D01*
X8770571Y-12433143D01*
X8799143Y-12433143D01*
X8818190Y-12442667D01*
X8894381Y-12642667D02*
X8903905Y-12633143D01*
X8922952Y-12604571D01*
X8932476Y-12585524D01*
X8942000Y-12556952D01*
X8951524Y-12509333D01*
X8951524Y-12471238D01*
X8942000Y-12423619D01*
X8932476Y-12395048D01*
X8922952Y-12376000D01*
X8903905Y-12347428D01*
X8894381Y-12337905D01*
D15*
X3920284Y-12768284D02*
X3920284Y-12711715D01*
X3863715Y-12711715D01*
X3863715Y-12768284D01*
X3920284Y-12768284D01*
D11*
X4227714Y-12630476D02*
X4246762Y-12630476D01*
X4265810Y-12640000D01*
X4275333Y-12649524D01*
X4284857Y-12668571D01*
X4294381Y-12706667D01*
X4294381Y-12754286D01*
X4284857Y-12792381D01*
X4275333Y-12811428D01*
X4265810Y-12820952D01*
X4246762Y-12830476D01*
X4227714Y-12830476D01*
X4208667Y-12820952D01*
X4199143Y-12811428D01*
X4189619Y-12792381D01*
X4180095Y-12754286D01*
X4180095Y-12706667D01*
X4189619Y-12668571D01*
X4199143Y-12649524D01*
X4208667Y-12640000D01*
X4227714Y-12630476D01*
X4380095Y-12811428D02*
X4389619Y-12820952D01*
X4380095Y-12830476D01*
X4370571Y-12820952D01*
X4380095Y-12811428D01*
X4380095Y-12830476D01*
X4503905Y-12716190D02*
X4484857Y-12706667D01*
X4475333Y-12697143D01*
X4465810Y-12678095D01*
X4465810Y-12668571D01*
X4475333Y-12649524D01*
X4484857Y-12640000D01*
X4503905Y-12630476D01*
X4542000Y-12630476D01*
X4561048Y-12640000D01*
X4570571Y-12649524D01*
X4580095Y-12668571D01*
X4580095Y-12678095D01*
X4570571Y-12697143D01*
X4561048Y-12706667D01*
X4542000Y-12716190D01*
X4503905Y-12716190D01*
X4484857Y-12725714D01*
X4475333Y-12735238D01*
X4465810Y-12754286D01*
X4465810Y-12792381D01*
X4475333Y-12811428D01*
X4484857Y-12820952D01*
X4503905Y-12830476D01*
X4542000Y-12830476D01*
X4561048Y-12820952D01*
X4570571Y-12811428D01*
X4580095Y-12792381D01*
X4580095Y-12754286D01*
X4570571Y-12735238D01*
X4561048Y-12725714D01*
X4542000Y-12716190D01*
X4703905Y-12630476D02*
X4722952Y-12630476D01*
X4742000Y-12640000D01*
X4751524Y-12649524D01*
X4761048Y-12668571D01*
X4770571Y-12706667D01*
X4770571Y-12754286D01*
X4761048Y-12792381D01*
X4751524Y-12811428D01*
X4742000Y-12820952D01*
X4722952Y-12830476D01*
X4703905Y-12830476D01*
X4684857Y-12820952D01*
X4675333Y-12811428D01*
X4665810Y-12792381D01*
X4656286Y-12754286D01*
X4656286Y-12706667D01*
X4665810Y-12668571D01*
X4675333Y-12649524D01*
X4684857Y-12640000D01*
X4703905Y-12630476D01*
X4894381Y-12630476D02*
X4913429Y-12630476D01*
X4932476Y-12640000D01*
X4942000Y-12649524D01*
X4951524Y-12668571D01*
X4961048Y-12706667D01*
X4961048Y-12754286D01*
X4951524Y-12792381D01*
X4942000Y-12811428D01*
X4932476Y-12820952D01*
X4913429Y-12830476D01*
X4894381Y-12830476D01*
X4875333Y-12820952D01*
X4865810Y-12811428D01*
X4856286Y-12792381D01*
X4846762Y-12754286D01*
X4846762Y-12706667D01*
X4856286Y-12668571D01*
X4865810Y-12649524D01*
X4875333Y-12640000D01*
X4894381Y-12630476D01*
X5046762Y-12830476D02*
X5046762Y-12697143D01*
X5046762Y-12716190D02*
X5056286Y-12706667D01*
X5075333Y-12697143D01*
X5103905Y-12697143D01*
X5122952Y-12706667D01*
X5132476Y-12725714D01*
X5132476Y-12830476D01*
X5132476Y-12725714D02*
X5142000Y-12706667D01*
X5161048Y-12697143D01*
X5189619Y-12697143D01*
X5208667Y-12706667D01*
X5218190Y-12725714D01*
X5218190Y-12830476D01*
X5313429Y-12830476D02*
X5313429Y-12697143D01*
X5313429Y-12716190D02*
X5322952Y-12706667D01*
X5342000Y-12697143D01*
X5370571Y-12697143D01*
X5389619Y-12706667D01*
X5399143Y-12725714D01*
X5399143Y-12830476D01*
X5399143Y-12725714D02*
X5408667Y-12706667D01*
X5427714Y-12697143D01*
X5456286Y-12697143D01*
X5475333Y-12706667D01*
X5484857Y-12725714D01*
X5484857Y-12830476D01*
X5875333Y-12620952D02*
X5703905Y-12878095D01*
X6132476Y-12630476D02*
X6151524Y-12630476D01*
X6170571Y-12640000D01*
X6180095Y-12649524D01*
X6189619Y-12668571D01*
X6199143Y-12706667D01*
X6199143Y-12754286D01*
X6189619Y-12792381D01*
X6180095Y-12811428D01*
X6170571Y-12820952D01*
X6151524Y-12830476D01*
X6132476Y-12830476D01*
X6113428Y-12820952D01*
X6103905Y-12811428D01*
X6094381Y-12792381D01*
X6084857Y-12754286D01*
X6084857Y-12706667D01*
X6094381Y-12668571D01*
X6103905Y-12649524D01*
X6113428Y-12640000D01*
X6132476Y-12630476D01*
X6284857Y-12811428D02*
X6294381Y-12820952D01*
X6284857Y-12830476D01*
X6275333Y-12820952D01*
X6284857Y-12811428D01*
X6284857Y-12830476D01*
X6418190Y-12630476D02*
X6437238Y-12630476D01*
X6456286Y-12640000D01*
X6465809Y-12649524D01*
X6475333Y-12668571D01*
X6484857Y-12706667D01*
X6484857Y-12754286D01*
X6475333Y-12792381D01*
X6465809Y-12811428D01*
X6456286Y-12820952D01*
X6437238Y-12830476D01*
X6418190Y-12830476D01*
X6399143Y-12820952D01*
X6389619Y-12811428D01*
X6380095Y-12792381D01*
X6370571Y-12754286D01*
X6370571Y-12706667D01*
X6380095Y-12668571D01*
X6389619Y-12649524D01*
X6399143Y-12640000D01*
X6418190Y-12630476D01*
X6551524Y-12630476D02*
X6675333Y-12630476D01*
X6608667Y-12706667D01*
X6637238Y-12706667D01*
X6656286Y-12716190D01*
X6665809Y-12725714D01*
X6675333Y-12744762D01*
X6675333Y-12792381D01*
X6665809Y-12811428D01*
X6656286Y-12820952D01*
X6637238Y-12830476D01*
X6580095Y-12830476D01*
X6561048Y-12820952D01*
X6551524Y-12811428D01*
X6865809Y-12830476D02*
X6751524Y-12830476D01*
X6808667Y-12830476D02*
X6808667Y-12630476D01*
X6789619Y-12659048D01*
X6770571Y-12678095D01*
X6751524Y-12687619D01*
X7046762Y-12630476D02*
X6951524Y-12630476D01*
X6942000Y-12725714D01*
X6951524Y-12716190D01*
X6970571Y-12706667D01*
X7018190Y-12706667D01*
X7037238Y-12716190D01*
X7046762Y-12725714D01*
X7056286Y-12744762D01*
X7056286Y-12792381D01*
X7046762Y-12811428D01*
X7037238Y-12820952D01*
X7018190Y-12830476D01*
X6970571Y-12830476D01*
X6951524Y-12820952D01*
X6942000Y-12811428D01*
X7132476Y-12630476D02*
X7132476Y-12668571D01*
X7208667Y-12630476D02*
X7208667Y-12668571D01*
X7503905Y-12906667D02*
X7494381Y-12897143D01*
X7475333Y-12868571D01*
X7465809Y-12849524D01*
X7456286Y-12820952D01*
X7446762Y-12773333D01*
X7446762Y-12735238D01*
X7456286Y-12687619D01*
X7465809Y-12659048D01*
X7475333Y-12640000D01*
X7494381Y-12611428D01*
X7503905Y-12601905D01*
X7684857Y-12830476D02*
X7570571Y-12830476D01*
X7627714Y-12830476D02*
X7627714Y-12630476D01*
X7608667Y-12659048D01*
X7589619Y-12678095D01*
X7570571Y-12687619D01*
X7808667Y-12630476D02*
X7827714Y-12630476D01*
X7846762Y-12640000D01*
X7856286Y-12649524D01*
X7865809Y-12668571D01*
X7875333Y-12706667D01*
X7875333Y-12754286D01*
X7865809Y-12792381D01*
X7856286Y-12811428D01*
X7846762Y-12820952D01*
X7827714Y-12830476D01*
X7808667Y-12830476D01*
X7789619Y-12820952D01*
X7780095Y-12811428D01*
X7770571Y-12792381D01*
X7761048Y-12754286D01*
X7761048Y-12706667D01*
X7770571Y-12668571D01*
X7780095Y-12649524D01*
X7789619Y-12640000D01*
X7808667Y-12630476D01*
X8046762Y-12697143D02*
X8046762Y-12830476D01*
X7999143Y-12620952D02*
X7951524Y-12763809D01*
X8075333Y-12763809D01*
X8303905Y-12830476D02*
X8303905Y-12630476D01*
X8389619Y-12830476D02*
X8389619Y-12725714D01*
X8380095Y-12706667D01*
X8361048Y-12697143D01*
X8332476Y-12697143D01*
X8313428Y-12706667D01*
X8303905Y-12716190D01*
X8513429Y-12830476D02*
X8494381Y-12820952D01*
X8484857Y-12811428D01*
X8475333Y-12792381D01*
X8475333Y-12735238D01*
X8484857Y-12716190D01*
X8494381Y-12706667D01*
X8513429Y-12697143D01*
X8542000Y-12697143D01*
X8561048Y-12706667D01*
X8570571Y-12716190D01*
X8580095Y-12735238D01*
X8580095Y-12792381D01*
X8570571Y-12811428D01*
X8561048Y-12820952D01*
X8542000Y-12830476D01*
X8513429Y-12830476D01*
X8694381Y-12830476D02*
X8675333Y-12820952D01*
X8665810Y-12801905D01*
X8665810Y-12630476D01*
X8846762Y-12820952D02*
X8827714Y-12830476D01*
X8789619Y-12830476D01*
X8770571Y-12820952D01*
X8761048Y-12801905D01*
X8761048Y-12725714D01*
X8770571Y-12706667D01*
X8789619Y-12697143D01*
X8827714Y-12697143D01*
X8846762Y-12706667D01*
X8856286Y-12725714D01*
X8856286Y-12744762D01*
X8761048Y-12763809D01*
X8932476Y-12820952D02*
X8951524Y-12830476D01*
X8989619Y-12830476D01*
X9008667Y-12820952D01*
X9018190Y-12801905D01*
X9018190Y-12792381D01*
X9008667Y-12773333D01*
X8989619Y-12763809D01*
X8961048Y-12763809D01*
X8942000Y-12754286D01*
X8932476Y-12735238D01*
X8932476Y-12725714D01*
X8942000Y-12706667D01*
X8961048Y-12697143D01*
X8989619Y-12697143D01*
X9008667Y-12706667D01*
X9084857Y-12906667D02*
X9094381Y-12897143D01*
X9113429Y-12868571D01*
X9122952Y-12849524D01*
X9132476Y-12820952D01*
X9142000Y-12773333D01*
X9142000Y-12735238D01*
X9132476Y-12687619D01*
X9122952Y-12659048D01*
X9113429Y-12640000D01*
X9094381Y-12611428D01*
X9084857Y-12601905D01*
D16*
X3882000Y-13054000D02*
X3932000Y-13004000D01*
X3882000Y-12954000D01*
X3832000Y-13004000D01*
X3882000Y-13054000D01*
D11*
X4294381Y-13094476D02*
X4180095Y-13094476D01*
X4237238Y-13094476D02*
X4237238Y-12894476D01*
X4218190Y-12923048D01*
X4199143Y-12942095D01*
X4180095Y-12951619D01*
X4380095Y-13075428D02*
X4389619Y-13084952D01*
X4380095Y-13094476D01*
X4370571Y-13084952D01*
X4380095Y-13075428D01*
X4380095Y-13094476D01*
X4513429Y-12894476D02*
X4532476Y-12894476D01*
X4551524Y-12904000D01*
X4561048Y-12913524D01*
X4570571Y-12932571D01*
X4580095Y-12970667D01*
X4580095Y-13018286D01*
X4570571Y-13056381D01*
X4561048Y-13075428D01*
X4551524Y-13084952D01*
X4532476Y-13094476D01*
X4513429Y-13094476D01*
X4494381Y-13084952D01*
X4484857Y-13075428D01*
X4475333Y-13056381D01*
X4465810Y-13018286D01*
X4465810Y-12970667D01*
X4475333Y-12932571D01*
X4484857Y-12913524D01*
X4494381Y-12904000D01*
X4513429Y-12894476D01*
X4703905Y-12894476D02*
X4722952Y-12894476D01*
X4742000Y-12904000D01*
X4751524Y-12913524D01*
X4761048Y-12932571D01*
X4770571Y-12970667D01*
X4770571Y-13018286D01*
X4761048Y-13056381D01*
X4751524Y-13075428D01*
X4742000Y-13084952D01*
X4722952Y-13094476D01*
X4703905Y-13094476D01*
X4684857Y-13084952D01*
X4675333Y-13075428D01*
X4665810Y-13056381D01*
X4656286Y-13018286D01*
X4656286Y-12970667D01*
X4665810Y-12932571D01*
X4675333Y-12913524D01*
X4684857Y-12904000D01*
X4703905Y-12894476D01*
X4894381Y-12894476D02*
X4913429Y-12894476D01*
X4932476Y-12904000D01*
X4942000Y-12913524D01*
X4951524Y-12932571D01*
X4961048Y-12970667D01*
X4961048Y-13018286D01*
X4951524Y-13056381D01*
X4942000Y-13075428D01*
X4932476Y-13084952D01*
X4913429Y-13094476D01*
X4894381Y-13094476D01*
X4875333Y-13084952D01*
X4865810Y-13075428D01*
X4856286Y-13056381D01*
X4846762Y-13018286D01*
X4846762Y-12970667D01*
X4856286Y-12932571D01*
X4865810Y-12913524D01*
X4875333Y-12904000D01*
X4894381Y-12894476D01*
X5046762Y-13094476D02*
X5046762Y-12961143D01*
X5046762Y-12980190D02*
X5056286Y-12970667D01*
X5075333Y-12961143D01*
X5103905Y-12961143D01*
X5122952Y-12970667D01*
X5132476Y-12989714D01*
X5132476Y-13094476D01*
X5132476Y-12989714D02*
X5142000Y-12970667D01*
X5161048Y-12961143D01*
X5189619Y-12961143D01*
X5208667Y-12970667D01*
X5218190Y-12989714D01*
X5218190Y-13094476D01*
X5313429Y-13094476D02*
X5313429Y-12961143D01*
X5313429Y-12980190D02*
X5322952Y-12970667D01*
X5342000Y-12961143D01*
X5370571Y-12961143D01*
X5389619Y-12970667D01*
X5399143Y-12989714D01*
X5399143Y-13094476D01*
X5399143Y-12989714D02*
X5408667Y-12970667D01*
X5427714Y-12961143D01*
X5456286Y-12961143D01*
X5475333Y-12970667D01*
X5484857Y-12989714D01*
X5484857Y-13094476D01*
X5875333Y-12884952D02*
X5703905Y-13142095D01*
X6132476Y-12894476D02*
X6151524Y-12894476D01*
X6170571Y-12904000D01*
X6180095Y-12913524D01*
X6189619Y-12932571D01*
X6199143Y-12970667D01*
X6199143Y-13018286D01*
X6189619Y-13056381D01*
X6180095Y-13075428D01*
X6170571Y-13084952D01*
X6151524Y-13094476D01*
X6132476Y-13094476D01*
X6113428Y-13084952D01*
X6103905Y-13075428D01*
X6094381Y-13056381D01*
X6084857Y-13018286D01*
X6084857Y-12970667D01*
X6094381Y-12932571D01*
X6103905Y-12913524D01*
X6113428Y-12904000D01*
X6132476Y-12894476D01*
X6284857Y-13075428D02*
X6294381Y-13084952D01*
X6284857Y-13094476D01*
X6275333Y-13084952D01*
X6284857Y-13075428D01*
X6284857Y-13094476D01*
X6418190Y-12894476D02*
X6437238Y-12894476D01*
X6456286Y-12904000D01*
X6465809Y-12913524D01*
X6475333Y-12932571D01*
X6484857Y-12970667D01*
X6484857Y-13018286D01*
X6475333Y-13056381D01*
X6465809Y-13075428D01*
X6456286Y-13084952D01*
X6437238Y-13094476D01*
X6418190Y-13094476D01*
X6399143Y-13084952D01*
X6389619Y-13075428D01*
X6380095Y-13056381D01*
X6370571Y-13018286D01*
X6370571Y-12970667D01*
X6380095Y-12932571D01*
X6389619Y-12913524D01*
X6399143Y-12904000D01*
X6418190Y-12894476D01*
X6551524Y-12894476D02*
X6675333Y-12894476D01*
X6608667Y-12970667D01*
X6637238Y-12970667D01*
X6656286Y-12980190D01*
X6665809Y-12989714D01*
X6675333Y-13008762D01*
X6675333Y-13056381D01*
X6665809Y-13075428D01*
X6656286Y-13084952D01*
X6637238Y-13094476D01*
X6580095Y-13094476D01*
X6561048Y-13084952D01*
X6551524Y-13075428D01*
X6770571Y-13094476D02*
X6808667Y-13094476D01*
X6827714Y-13084952D01*
X6837238Y-13075428D01*
X6856286Y-13046857D01*
X6865809Y-13008762D01*
X6865809Y-12932571D01*
X6856286Y-12913524D01*
X6846762Y-12904000D01*
X6827714Y-12894476D01*
X6789619Y-12894476D01*
X6770571Y-12904000D01*
X6761048Y-12913524D01*
X6751524Y-12932571D01*
X6751524Y-12980190D01*
X6761048Y-12999238D01*
X6770571Y-13008762D01*
X6789619Y-13018286D01*
X6827714Y-13018286D01*
X6846762Y-13008762D01*
X6856286Y-12999238D01*
X6865809Y-12980190D01*
X7037238Y-12961143D02*
X7037238Y-13094476D01*
X6989619Y-12884952D02*
X6942000Y-13027809D01*
X7065809Y-13027809D01*
X7132476Y-12894476D02*
X7132476Y-12932571D01*
X7208667Y-12894476D02*
X7208667Y-12932571D01*
X7503905Y-13170667D02*
X7494381Y-13161143D01*
X7475333Y-13132571D01*
X7465809Y-13113524D01*
X7456286Y-13084952D01*
X7446762Y-13037333D01*
X7446762Y-12999238D01*
X7456286Y-12951619D01*
X7465809Y-12923048D01*
X7475333Y-12904000D01*
X7494381Y-12875428D01*
X7503905Y-12865905D01*
X7665809Y-12894476D02*
X7627714Y-12894476D01*
X7608667Y-12904000D01*
X7599143Y-12913524D01*
X7580095Y-12942095D01*
X7570571Y-12980190D01*
X7570571Y-13056381D01*
X7580095Y-13075428D01*
X7589619Y-13084952D01*
X7608667Y-13094476D01*
X7646762Y-13094476D01*
X7665809Y-13084952D01*
X7675333Y-13075428D01*
X7684857Y-13056381D01*
X7684857Y-13008762D01*
X7675333Y-12989714D01*
X7665809Y-12980190D01*
X7646762Y-12970667D01*
X7608667Y-12970667D01*
X7589619Y-12980190D01*
X7580095Y-12989714D01*
X7570571Y-13008762D01*
X7875333Y-13094476D02*
X7761048Y-13094476D01*
X7818190Y-13094476D02*
X7818190Y-12894476D01*
X7799143Y-12923048D01*
X7780095Y-12942095D01*
X7761048Y-12951619D01*
X8113428Y-13094476D02*
X8113428Y-12894476D01*
X8199143Y-13094476D02*
X8199143Y-12989714D01*
X8189619Y-12970667D01*
X8170571Y-12961143D01*
X8142000Y-12961143D01*
X8122952Y-12970667D01*
X8113428Y-12980190D01*
X8322952Y-13094476D02*
X8303905Y-13084952D01*
X8294381Y-13075428D01*
X8284857Y-13056381D01*
X8284857Y-12999238D01*
X8294381Y-12980190D01*
X8303905Y-12970667D01*
X8322952Y-12961143D01*
X8351524Y-12961143D01*
X8370571Y-12970667D01*
X8380095Y-12980190D01*
X8389619Y-12999238D01*
X8389619Y-13056381D01*
X8380095Y-13075428D01*
X8370571Y-13084952D01*
X8351524Y-13094476D01*
X8322952Y-13094476D01*
X8503905Y-13094476D02*
X8484857Y-13084952D01*
X8475333Y-13065905D01*
X8475333Y-12894476D01*
X8656286Y-13084952D02*
X8637238Y-13094476D01*
X8599143Y-13094476D01*
X8580095Y-13084952D01*
X8570571Y-13065905D01*
X8570571Y-12989714D01*
X8580095Y-12970667D01*
X8599143Y-12961143D01*
X8637238Y-12961143D01*
X8656286Y-12970667D01*
X8665810Y-12989714D01*
X8665810Y-13008762D01*
X8570571Y-13027809D01*
X8742000Y-13084952D02*
X8761048Y-13094476D01*
X8799143Y-13094476D01*
X8818190Y-13084952D01*
X8827714Y-13065905D01*
X8827714Y-13056381D01*
X8818190Y-13037333D01*
X8799143Y-13027809D01*
X8770571Y-13027809D01*
X8751524Y-13018286D01*
X8742000Y-12999238D01*
X8742000Y-12989714D01*
X8751524Y-12970667D01*
X8770571Y-12961143D01*
X8799143Y-12961143D01*
X8818190Y-12970667D01*
X8894381Y-13170667D02*
X8903905Y-13161143D01*
X8922952Y-13132571D01*
X8932476Y-13113524D01*
X8942000Y-13084952D01*
X8951524Y-13037333D01*
X8951524Y-12999238D01*
X8942000Y-12951619D01*
X8932476Y-12923048D01*
X8922952Y-12904000D01*
X8903905Y-12875428D01*
X8894381Y-12865905D01*
D17*
X3822000Y-13213000D02*
X3932000Y-13323000D01*
X3932000Y-13213000D02*
X3822000Y-13323000D01*
X3932000Y-13268000D02*
G75*
G03*
X3932000Y-13268000I-55000J0D01*
G01*
D11*
X4294381Y-13358476D02*
X4180095Y-13358476D01*
X4237238Y-13358476D02*
X4237238Y-13158476D01*
X4218190Y-13187048D01*
X4199143Y-13206095D01*
X4180095Y-13215619D01*
X4380095Y-13339428D02*
X4389619Y-13348952D01*
X4380095Y-13358476D01*
X4370571Y-13348952D01*
X4380095Y-13339428D01*
X4380095Y-13358476D01*
X4580095Y-13358476D02*
X4465810Y-13358476D01*
X4522952Y-13358476D02*
X4522952Y-13158476D01*
X4503905Y-13187048D01*
X4484857Y-13206095D01*
X4465810Y-13215619D01*
X4703905Y-13158476D02*
X4722952Y-13158476D01*
X4742000Y-13168000D01*
X4751524Y-13177524D01*
X4761048Y-13196571D01*
X4770571Y-13234667D01*
X4770571Y-13282286D01*
X4761048Y-13320381D01*
X4751524Y-13339428D01*
X4742000Y-13348952D01*
X4722952Y-13358476D01*
X4703905Y-13358476D01*
X4684857Y-13348952D01*
X4675333Y-13339428D01*
X4665810Y-13320381D01*
X4656286Y-13282286D01*
X4656286Y-13234667D01*
X4665810Y-13196571D01*
X4675333Y-13177524D01*
X4684857Y-13168000D01*
X4703905Y-13158476D01*
X4894381Y-13158476D02*
X4913429Y-13158476D01*
X4932476Y-13168000D01*
X4942000Y-13177524D01*
X4951524Y-13196571D01*
X4961048Y-13234667D01*
X4961048Y-13282286D01*
X4951524Y-13320381D01*
X4942000Y-13339428D01*
X4932476Y-13348952D01*
X4913429Y-13358476D01*
X4894381Y-13358476D01*
X4875333Y-13348952D01*
X4865810Y-13339428D01*
X4856286Y-13320381D01*
X4846762Y-13282286D01*
X4846762Y-13234667D01*
X4856286Y-13196571D01*
X4865810Y-13177524D01*
X4875333Y-13168000D01*
X4894381Y-13158476D01*
X5046762Y-13358476D02*
X5046762Y-13225143D01*
X5046762Y-13244190D02*
X5056286Y-13234667D01*
X5075333Y-13225143D01*
X5103905Y-13225143D01*
X5122952Y-13234667D01*
X5132476Y-13253714D01*
X5132476Y-13358476D01*
X5132476Y-13253714D02*
X5142000Y-13234667D01*
X5161048Y-13225143D01*
X5189619Y-13225143D01*
X5208667Y-13234667D01*
X5218190Y-13253714D01*
X5218190Y-13358476D01*
X5313429Y-13358476D02*
X5313429Y-13225143D01*
X5313429Y-13244190D02*
X5322952Y-13234667D01*
X5342000Y-13225143D01*
X5370571Y-13225143D01*
X5389619Y-13234667D01*
X5399143Y-13253714D01*
X5399143Y-13358476D01*
X5399143Y-13253714D02*
X5408667Y-13234667D01*
X5427714Y-13225143D01*
X5456286Y-13225143D01*
X5475333Y-13234667D01*
X5484857Y-13253714D01*
X5484857Y-13358476D01*
X5875333Y-13148952D02*
X5703905Y-13406095D01*
X6132476Y-13158476D02*
X6151524Y-13158476D01*
X6170571Y-13168000D01*
X6180095Y-13177524D01*
X6189619Y-13196571D01*
X6199143Y-13234667D01*
X6199143Y-13282286D01*
X6189619Y-13320381D01*
X6180095Y-13339428D01*
X6170571Y-13348952D01*
X6151524Y-13358476D01*
X6132476Y-13358476D01*
X6113428Y-13348952D01*
X6103905Y-13339428D01*
X6094381Y-13320381D01*
X6084857Y-13282286D01*
X6084857Y-13234667D01*
X6094381Y-13196571D01*
X6103905Y-13177524D01*
X6113428Y-13168000D01*
X6132476Y-13158476D01*
X6284857Y-13339428D02*
X6294381Y-13348952D01*
X6284857Y-13358476D01*
X6275333Y-13348952D01*
X6284857Y-13339428D01*
X6284857Y-13358476D01*
X6418190Y-13158476D02*
X6437238Y-13158476D01*
X6456286Y-13168000D01*
X6465809Y-13177524D01*
X6475333Y-13196571D01*
X6484857Y-13234667D01*
X6484857Y-13282286D01*
X6475333Y-13320381D01*
X6465809Y-13339428D01*
X6456286Y-13348952D01*
X6437238Y-13358476D01*
X6418190Y-13358476D01*
X6399143Y-13348952D01*
X6389619Y-13339428D01*
X6380095Y-13320381D01*
X6370571Y-13282286D01*
X6370571Y-13234667D01*
X6380095Y-13196571D01*
X6389619Y-13177524D01*
X6399143Y-13168000D01*
X6418190Y-13158476D01*
X6656286Y-13225143D02*
X6656286Y-13358476D01*
X6608667Y-13148952D02*
X6561048Y-13291809D01*
X6684857Y-13291809D01*
X6742000Y-13158476D02*
X6865809Y-13158476D01*
X6799143Y-13234667D01*
X6827714Y-13234667D01*
X6846762Y-13244190D01*
X6856286Y-13253714D01*
X6865809Y-13272762D01*
X6865809Y-13320381D01*
X6856286Y-13339428D01*
X6846762Y-13348952D01*
X6827714Y-13358476D01*
X6770571Y-13358476D01*
X6751524Y-13348952D01*
X6742000Y-13339428D01*
X6932476Y-13158476D02*
X7056286Y-13158476D01*
X6989619Y-13234667D01*
X7018190Y-13234667D01*
X7037238Y-13244190D01*
X7046762Y-13253714D01*
X7056286Y-13272762D01*
X7056286Y-13320381D01*
X7046762Y-13339428D01*
X7037238Y-13348952D01*
X7018190Y-13358476D01*
X6961048Y-13358476D01*
X6942000Y-13348952D01*
X6932476Y-13339428D01*
X7132476Y-13158476D02*
X7132476Y-13196571D01*
X7208667Y-13158476D02*
X7208667Y-13196571D01*
X7503905Y-13434667D02*
X7494381Y-13425143D01*
X7475333Y-13396571D01*
X7465809Y-13377524D01*
X7456286Y-13348952D01*
X7446762Y-13301333D01*
X7446762Y-13263238D01*
X7456286Y-13215619D01*
X7465809Y-13187048D01*
X7475333Y-13168000D01*
X7494381Y-13139428D01*
X7503905Y-13129905D01*
X7561048Y-13158476D02*
X7694381Y-13158476D01*
X7608667Y-13358476D01*
X7922952Y-13358476D02*
X7922952Y-13158476D01*
X8008667Y-13358476D02*
X8008667Y-13253714D01*
X7999143Y-13234667D01*
X7980095Y-13225143D01*
X7951524Y-13225143D01*
X7932476Y-13234667D01*
X7922952Y-13244190D01*
X8132476Y-13358476D02*
X8113428Y-13348952D01*
X8103905Y-13339428D01*
X8094381Y-13320381D01*
X8094381Y-13263238D01*
X8103905Y-13244190D01*
X8113428Y-13234667D01*
X8132476Y-13225143D01*
X8161048Y-13225143D01*
X8180095Y-13234667D01*
X8189619Y-13244190D01*
X8199143Y-13263238D01*
X8199143Y-13320381D01*
X8189619Y-13339428D01*
X8180095Y-13348952D01*
X8161048Y-13358476D01*
X8132476Y-13358476D01*
X8313428Y-13358476D02*
X8294381Y-13348952D01*
X8284857Y-13329905D01*
X8284857Y-13158476D01*
X8465810Y-13348952D02*
X8446762Y-13358476D01*
X8408667Y-13358476D01*
X8389619Y-13348952D01*
X8380095Y-13329905D01*
X8380095Y-13253714D01*
X8389619Y-13234667D01*
X8408667Y-13225143D01*
X8446762Y-13225143D01*
X8465810Y-13234667D01*
X8475333Y-13253714D01*
X8475333Y-13272762D01*
X8380095Y-13291809D01*
X8551524Y-13348952D02*
X8570571Y-13358476D01*
X8608667Y-13358476D01*
X8627714Y-13348952D01*
X8637238Y-13329905D01*
X8637238Y-13320381D01*
X8627714Y-13301333D01*
X8608667Y-13291809D01*
X8580095Y-13291809D01*
X8561048Y-13282286D01*
X8551524Y-13263238D01*
X8551524Y-13253714D01*
X8561048Y-13234667D01*
X8580095Y-13225143D01*
X8608667Y-13225143D01*
X8627714Y-13234667D01*
X8703905Y-13434667D02*
X8713429Y-13425143D01*
X8732476Y-13396571D01*
X8742000Y-13377524D01*
X8751524Y-13348952D01*
X8761048Y-13301333D01*
X8761048Y-13263238D01*
X8751524Y-13215619D01*
X8742000Y-13187048D01*
X8732476Y-13168000D01*
X8713429Y-13139428D01*
X8703905Y-13129905D01*
M02*
