M48
; DRILL file {KiCad (6.0.1)} date Mon Feb 28 18:52:44 2022
; FORMAT={-:-/ absolute / metric / decimal}
; #@! TF.CreationDate,2022-02-28T18:52:44-05:00
; #@! TF.GenerationSoftware,Kicad,Pcbnew,(6.0.1)
; #@! TF.FileFunction,Plated,1,4,PTH
FMAT,2
METRIC
; #@! TA.AperFunction,Plated,PTH,ViaDrill
T1C0.400
; #@! TA.AperFunction,Plated,PTH,ComponentDrill
T2C0.700
; #@! TA.AperFunction,Plated,PTH,ComponentDrill
T3C0.762
; #@! TA.AperFunction,Plated,PTH,ComponentDrill
T4C0.800
; #@! TA.AperFunction,Plated,PTH,ComponentDrill
T5C1.000
; #@! TA.AperFunction,Plated,PTH,ComponentDrill
T6C1.100
%
G90
G05
T1
X43.09Y-67.945
X45.085Y-59.69
X47.625Y-59.69
X48.26Y-54.61
X48.895Y-58.42
X51.029Y-60.96
X51.435Y-52.705
X51.435Y-55.245
X51.435Y-56.515
X51.435Y-57.785
X51.435Y-59.055
X52.07Y-85.725
X52.705Y-72.39
X53.176Y-77.729
X53.34Y-76.289
X53.34Y-86.995
X53.975Y-78.429
X53.975Y-93.434
X54.012Y-77.03
X55.88Y-73.492
X58.42Y-61.505
X59.055Y-73.025
X64.77Y-64.859
X66.675Y-64.77
X67.31Y-59.69
X69.85Y-63.5
X73.66Y-64.046
X74.295Y-40.005
X74.295Y-48.26
X77.355Y-44.215
X80.645Y-40.005
X80.645Y-48.26
X80.645Y-95.34
X82.55Y-95.25
X83.82Y-81.915
X85.09Y-81.915
X86.333Y-81.939
X87.084Y-80.645
X88.9Y-106.045
X104.14Y-44.45
X104.14Y-48.895
X105.421Y-88.175
X107.315Y-46.901
X109.13Y-47.625
X109.22Y-86.995
X111.76Y-88.81
X113.665Y-89.445
T2
X55.245Y-104.775
X55.245Y-109.855
X74.295Y-100.33
X74.295Y-105.41
X76.835Y-100.33
X76.835Y-105.41
X88.9Y-55.245
X88.9Y-57.785
X88.9Y-66.675
X88.9Y-69.215
X88.9Y-71.755
X88.9Y-74.295
X88.9Y-76.835
X93.98Y-55.245
X93.98Y-57.785
X93.98Y-66.675
X93.98Y-69.215
X93.98Y-71.755
X93.98Y-74.295
X93.98Y-76.835
X104.14Y-97.155
X104.14Y-102.235
X109.855Y-69.85
X109.855Y-74.93
X109.855Y-107.315
X112.395Y-69.85
X112.395Y-74.93
X114.935Y-69.85
X114.935Y-74.93
X114.935Y-107.315
X121.92Y-79.375
X121.92Y-81.915
X122.555Y-55.88
X122.555Y-60.96
X122.555Y-63.5
X122.555Y-68.58
X123.825Y-94.615
X123.825Y-99.695
X127.0Y-79.375
X127.0Y-81.915
T3
X96.52Y-69.215
X96.52Y-71.755
X96.52Y-74.295
X96.52Y-76.835
X96.52Y-79.375
X96.52Y-81.915
X96.52Y-84.455
X96.52Y-86.995
X96.52Y-89.535
X96.52Y-92.075
X96.52Y-94.615
X96.52Y-97.155
X96.52Y-99.695
X96.52Y-102.235
X96.52Y-104.775
X96.52Y-107.315
X99.06Y-69.215
X99.06Y-71.755
X99.06Y-74.295
X99.06Y-76.835
X99.06Y-79.375
X99.06Y-81.915
X99.06Y-84.455
X99.06Y-86.995
X99.06Y-89.535
X99.06Y-92.075
X99.06Y-94.615
X99.06Y-97.155
X99.06Y-99.695
X99.06Y-102.235
X99.06Y-104.775
X99.06Y-107.315
X101.6Y-104.775
X101.6Y-107.315
X104.14Y-104.775
X104.14Y-107.315
X106.68Y-104.775
X106.68Y-107.315
X129.54Y-56.515
X129.54Y-59.055
X129.54Y-61.595
X129.54Y-64.135
X129.54Y-66.675
X129.54Y-69.215
X129.54Y-71.755
X129.54Y-74.295
X129.54Y-76.835
X129.54Y-79.375
X129.54Y-81.915
X129.54Y-84.455
X129.54Y-86.995
X129.54Y-89.535
X129.54Y-92.075
X129.54Y-94.615
X129.54Y-97.155
X129.54Y-99.695
X129.54Y-102.235
X129.54Y-104.775
X129.54Y-107.315
X132.08Y-56.515
X132.08Y-59.055
X132.08Y-61.595
X132.08Y-64.135
X132.08Y-66.675
X132.08Y-69.215
X132.08Y-71.755
X132.08Y-74.295
X132.08Y-76.835
X132.08Y-79.375
X132.08Y-81.915
X132.08Y-84.455
X132.08Y-86.995
X132.08Y-89.535
X132.08Y-92.075
X132.08Y-94.615
X132.08Y-97.155
X132.08Y-99.695
X132.08Y-102.235
X132.08Y-104.775
X132.08Y-107.315
T4
X55.245Y-57.775
X55.245Y-70.475
X55.755Y-50.74
X57.755Y-43.24
X57.785Y-57.775
X57.785Y-70.475
X58.14Y-79.515
X58.14Y-87.135
X59.055Y-102.235
X59.055Y-109.855
X59.065Y-98.415
X60.325Y-57.775
X60.325Y-70.475
X60.68Y-79.515
X60.68Y-87.135
X61.385Y-48.26
X61.565Y-98.415
X61.595Y-102.235
X61.595Y-109.855
X61.68Y-52.705
X62.865Y-57.775
X62.865Y-70.475
X63.22Y-79.515
X63.22Y-87.135
X63.68Y-52.705
X63.885Y-48.26
X64.135Y-102.235
X64.135Y-109.855
X64.8Y-98.415
X65.405Y-57.775
X65.405Y-70.475
X65.76Y-79.515
X65.76Y-87.135
X66.675Y-102.235
X66.675Y-109.855
X67.3Y-98.415
X67.945Y-57.775
X67.945Y-70.475
X70.485Y-57.775
X70.485Y-70.475
X73.025Y-57.775
X73.025Y-70.475
X76.265Y-69.215
X78.765Y-69.215
X84.475Y-40.005
X86.975Y-40.005
X89.535Y-61.0
X89.535Y-63.5
X89.535Y-80.03
X89.535Y-82.53
X92.71Y-80.03
X92.71Y-82.53
X93.345Y-39.948
X93.345Y-44.948
X93.345Y-60.98
X93.345Y-63.48
X97.165Y-56.505
X97.165Y-64.125
X99.705Y-56.505
X99.705Y-64.125
X102.245Y-56.505
X102.245Y-64.125
X104.16Y-71.12
X104.16Y-74.295
X104.16Y-77.47
X104.16Y-80.645
X104.18Y-67.945
X104.785Y-56.505
X104.785Y-64.125
X106.66Y-71.12
X106.66Y-74.295
X106.66Y-77.47
X106.66Y-80.645
X106.68Y-67.945
X110.49Y-77.49
X110.49Y-79.99
X111.75Y-56.525
X111.75Y-64.145
X111.775Y-44.465
X111.775Y-52.085
X113.665Y-77.49
X113.665Y-79.99
X114.29Y-56.525
X114.29Y-64.145
X114.315Y-44.465
X114.315Y-52.085
X116.83Y-56.525
X116.83Y-64.145
X116.855Y-44.465
X116.855Y-52.085
X119.37Y-56.525
X119.37Y-64.145
X119.395Y-44.465
X119.395Y-52.085
X121.935Y-44.465
X121.935Y-52.085
X124.475Y-44.465
X124.475Y-52.085
X127.0Y-94.655
X127.0Y-97.155
X127.015Y-44.465
X127.015Y-52.085
X129.555Y-44.465
X129.555Y-52.085
T5
X43.83Y-46.36
X43.83Y-48.9
X45.26Y-62.14
X45.26Y-64.34
X45.26Y-66.54
X45.26Y-68.74
X45.26Y-70.94
X45.26Y-73.14
X45.26Y-75.34
X45.26Y-77.54
X45.26Y-79.74
X45.26Y-81.94
X45.26Y-84.14
X45.26Y-86.34
X45.26Y-88.54
X45.26Y-90.74
X45.26Y-92.94
X45.26Y-95.14
X45.26Y-97.94
X45.26Y-100.74
X46.37Y-46.36
X46.37Y-48.9
X48.26Y-62.14
X48.26Y-64.34
X48.26Y-66.54
X48.26Y-68.74
X48.26Y-70.94
X48.26Y-73.14
X48.26Y-75.34
X48.26Y-77.54
X48.26Y-79.74
X48.26Y-81.94
X48.26Y-84.14
X48.26Y-86.34
X48.26Y-88.54
X48.26Y-90.74
X48.26Y-92.94
X48.26Y-95.14
X48.26Y-97.94
X48.26Y-100.74
X48.91Y-46.36
X48.91Y-48.9
X55.245Y-101.6
X67.945Y-53.975
X70.485Y-53.975
X73.025Y-53.975
X80.645Y-102.87
X80.645Y-108.585
X119.38Y-67.96
X119.38Y-70.5
X119.38Y-73.04
X123.185Y-73.025
X125.095Y-40.64
X125.725Y-73.025
X125.73Y-56.515
X125.73Y-59.055
X125.73Y-61.595
X125.73Y-64.135
X125.73Y-66.675
X125.73Y-69.215
X128.905Y-40.64
T6
X74.93Y-92.415
X77.47Y-92.415
X80.01Y-92.415
X107.315Y-97.79
X107.315Y-101.6
X114.935Y-97.79
X114.935Y-101.6
T0
M30
