%FSLAX45Y45*%
G04 Gerber Fmt 4.5, Leading zero omitted, Abs format (unit mm)*
G04 Created by KiCad (PCBNEW (6.0.1)) date 2022-03-02 00:16:33*
%MOMM*%
%LPD*%
G01*
G04 APERTURE LIST*
%TA.AperFunction,Profile*%
%ADD10C,0.100000*%
%TD*%
%ADD11C,0.200000*%
%ADD12C,0.350000*%
%ADD13C,0.360000*%
G04 APERTURE END LIST*
D10*
X3937000Y-3683000D02*
X13525500Y-3683000D01*
X13525500Y-3683000D02*
X13525500Y-11239500D01*
X13525500Y-11239500D02*
X3937000Y-11239500D01*
X3937000Y-11239500D02*
X3937000Y-3683000D01*
D11*
D12*
X7572000Y-7400500D02*
X7922000Y-7750500D01*
X7922000Y-7400500D02*
X7572000Y-7750500D01*
D13*
X4676000Y-5594000D02*
G75*
G03*
X4676000Y-5594000I-180000J0D01*
G01*
X4676000Y-10694000D02*
G75*
G03*
X4676000Y-10694000I-180000J0D01*
G01*
D11*
X4189619Y-11554976D02*
X4189619Y-11354976D01*
X4237238Y-11354976D01*
X4265810Y-11364500D01*
X4284857Y-11383548D01*
X4294381Y-11402595D01*
X4303905Y-11440690D01*
X4303905Y-11469262D01*
X4294381Y-11507357D01*
X4284857Y-11526405D01*
X4265810Y-11545452D01*
X4237238Y-11554976D01*
X4189619Y-11554976D01*
X4389619Y-11554976D02*
X4389619Y-11421643D01*
X4389619Y-11459738D02*
X4399143Y-11440690D01*
X4408667Y-11431167D01*
X4427714Y-11421643D01*
X4446762Y-11421643D01*
X4513429Y-11554976D02*
X4513429Y-11421643D01*
X4513429Y-11354976D02*
X4503905Y-11364500D01*
X4513429Y-11374024D01*
X4522952Y-11364500D01*
X4513429Y-11354976D01*
X4513429Y-11374024D01*
X4637238Y-11554976D02*
X4618190Y-11545452D01*
X4608667Y-11526405D01*
X4608667Y-11354976D01*
X4742000Y-11554976D02*
X4722952Y-11545452D01*
X4713429Y-11526405D01*
X4713429Y-11354976D01*
X4970571Y-11554976D02*
X4970571Y-11354976D01*
X5037238Y-11497833D01*
X5103905Y-11354976D01*
X5103905Y-11554976D01*
X5284857Y-11554976D02*
X5284857Y-11450214D01*
X5275333Y-11431167D01*
X5256286Y-11421643D01*
X5218190Y-11421643D01*
X5199143Y-11431167D01*
X5284857Y-11545452D02*
X5265810Y-11554976D01*
X5218190Y-11554976D01*
X5199143Y-11545452D01*
X5189619Y-11526405D01*
X5189619Y-11507357D01*
X5199143Y-11488309D01*
X5218190Y-11478786D01*
X5265810Y-11478786D01*
X5284857Y-11469262D01*
X5380095Y-11421643D02*
X5380095Y-11621643D01*
X5380095Y-11431167D02*
X5399143Y-11421643D01*
X5437238Y-11421643D01*
X5456286Y-11431167D01*
X5465810Y-11440690D01*
X5475333Y-11459738D01*
X5475333Y-11516881D01*
X5465810Y-11535928D01*
X5456286Y-11545452D01*
X5437238Y-11554976D01*
X5399143Y-11554976D01*
X5380095Y-11545452D01*
X5561048Y-11535928D02*
X5570571Y-11545452D01*
X5561048Y-11554976D01*
X5551524Y-11545452D01*
X5561048Y-11535928D01*
X5561048Y-11554976D01*
X5561048Y-11431167D02*
X5570571Y-11440690D01*
X5561048Y-11450214D01*
X5551524Y-11440690D01*
X5561048Y-11431167D01*
X5561048Y-11450214D01*
X3732000Y-11784500D02*
X3932000Y-11984500D01*
X3932000Y-11784500D02*
X3732000Y-11984500D01*
X4170571Y-11774976D02*
X4294381Y-11774976D01*
X4227714Y-11851167D01*
X4256286Y-11851167D01*
X4275333Y-11860690D01*
X4284857Y-11870214D01*
X4294381Y-11889262D01*
X4294381Y-11936881D01*
X4284857Y-11955928D01*
X4275333Y-11965452D01*
X4256286Y-11974976D01*
X4199143Y-11974976D01*
X4180095Y-11965452D01*
X4170571Y-11955928D01*
X4380095Y-11955928D02*
X4389619Y-11965452D01*
X4380095Y-11974976D01*
X4370571Y-11965452D01*
X4380095Y-11955928D01*
X4380095Y-11974976D01*
X4570571Y-11774976D02*
X4475333Y-11774976D01*
X4465810Y-11870214D01*
X4475333Y-11860690D01*
X4494381Y-11851167D01*
X4542000Y-11851167D01*
X4561048Y-11860690D01*
X4570571Y-11870214D01*
X4580095Y-11889262D01*
X4580095Y-11936881D01*
X4570571Y-11955928D01*
X4561048Y-11965452D01*
X4542000Y-11974976D01*
X4494381Y-11974976D01*
X4475333Y-11965452D01*
X4465810Y-11955928D01*
X4703905Y-11774976D02*
X4722952Y-11774976D01*
X4742000Y-11784500D01*
X4751524Y-11794024D01*
X4761048Y-11813071D01*
X4770571Y-11851167D01*
X4770571Y-11898786D01*
X4761048Y-11936881D01*
X4751524Y-11955928D01*
X4742000Y-11965452D01*
X4722952Y-11974976D01*
X4703905Y-11974976D01*
X4684857Y-11965452D01*
X4675333Y-11955928D01*
X4665810Y-11936881D01*
X4656286Y-11898786D01*
X4656286Y-11851167D01*
X4665810Y-11813071D01*
X4675333Y-11794024D01*
X4684857Y-11784500D01*
X4703905Y-11774976D01*
X4894381Y-11774976D02*
X4913429Y-11774976D01*
X4932476Y-11784500D01*
X4942000Y-11794024D01*
X4951524Y-11813071D01*
X4961048Y-11851167D01*
X4961048Y-11898786D01*
X4951524Y-11936881D01*
X4942000Y-11955928D01*
X4932476Y-11965452D01*
X4913429Y-11974976D01*
X4894381Y-11974976D01*
X4875333Y-11965452D01*
X4865810Y-11955928D01*
X4856286Y-11936881D01*
X4846762Y-11898786D01*
X4846762Y-11851167D01*
X4856286Y-11813071D01*
X4865810Y-11794024D01*
X4875333Y-11784500D01*
X4894381Y-11774976D01*
X5046762Y-11974976D02*
X5046762Y-11841643D01*
X5046762Y-11860690D02*
X5056286Y-11851167D01*
X5075333Y-11841643D01*
X5103905Y-11841643D01*
X5122952Y-11851167D01*
X5132476Y-11870214D01*
X5132476Y-11974976D01*
X5132476Y-11870214D02*
X5142000Y-11851167D01*
X5161048Y-11841643D01*
X5189619Y-11841643D01*
X5208667Y-11851167D01*
X5218190Y-11870214D01*
X5218190Y-11974976D01*
X5313429Y-11974976D02*
X5313429Y-11841643D01*
X5313429Y-11860690D02*
X5322952Y-11851167D01*
X5342000Y-11841643D01*
X5370571Y-11841643D01*
X5389619Y-11851167D01*
X5399143Y-11870214D01*
X5399143Y-11974976D01*
X5399143Y-11870214D02*
X5408667Y-11851167D01*
X5427714Y-11841643D01*
X5456286Y-11841643D01*
X5475333Y-11851167D01*
X5484857Y-11870214D01*
X5484857Y-11974976D01*
X5875333Y-11765452D02*
X5703905Y-12022595D01*
X6132476Y-11774976D02*
X6151524Y-11774976D01*
X6170571Y-11784500D01*
X6180095Y-11794024D01*
X6189619Y-11813071D01*
X6199143Y-11851167D01*
X6199143Y-11898786D01*
X6189619Y-11936881D01*
X6180095Y-11955928D01*
X6170571Y-11965452D01*
X6151524Y-11974976D01*
X6132476Y-11974976D01*
X6113428Y-11965452D01*
X6103905Y-11955928D01*
X6094381Y-11936881D01*
X6084857Y-11898786D01*
X6084857Y-11851167D01*
X6094381Y-11813071D01*
X6103905Y-11794024D01*
X6113428Y-11784500D01*
X6132476Y-11774976D01*
X6284857Y-11955928D02*
X6294381Y-11965452D01*
X6284857Y-11974976D01*
X6275333Y-11965452D01*
X6284857Y-11955928D01*
X6284857Y-11974976D01*
X6484857Y-11974976D02*
X6370571Y-11974976D01*
X6427714Y-11974976D02*
X6427714Y-11774976D01*
X6408667Y-11803548D01*
X6389619Y-11822595D01*
X6370571Y-11832119D01*
X6551524Y-11774976D02*
X6675333Y-11774976D01*
X6608667Y-11851167D01*
X6637238Y-11851167D01*
X6656286Y-11860690D01*
X6665809Y-11870214D01*
X6675333Y-11889262D01*
X6675333Y-11936881D01*
X6665809Y-11955928D01*
X6656286Y-11965452D01*
X6637238Y-11974976D01*
X6580095Y-11974976D01*
X6561048Y-11965452D01*
X6551524Y-11955928D01*
X6742000Y-11774976D02*
X6875333Y-11774976D01*
X6789619Y-11974976D01*
X6980095Y-11860690D02*
X6961048Y-11851167D01*
X6951524Y-11841643D01*
X6942000Y-11822595D01*
X6942000Y-11813071D01*
X6951524Y-11794024D01*
X6961048Y-11784500D01*
X6980095Y-11774976D01*
X7018190Y-11774976D01*
X7037238Y-11784500D01*
X7046762Y-11794024D01*
X7056286Y-11813071D01*
X7056286Y-11822595D01*
X7046762Y-11841643D01*
X7037238Y-11851167D01*
X7018190Y-11860690D01*
X6980095Y-11860690D01*
X6961048Y-11870214D01*
X6951524Y-11879738D01*
X6942000Y-11898786D01*
X6942000Y-11936881D01*
X6951524Y-11955928D01*
X6961048Y-11965452D01*
X6980095Y-11974976D01*
X7018190Y-11974976D01*
X7037238Y-11965452D01*
X7046762Y-11955928D01*
X7056286Y-11936881D01*
X7056286Y-11898786D01*
X7046762Y-11879738D01*
X7037238Y-11870214D01*
X7018190Y-11860690D01*
X7132476Y-11774976D02*
X7132476Y-11813071D01*
X7208667Y-11774976D02*
X7208667Y-11813071D01*
X7503905Y-12051167D02*
X7494381Y-12041643D01*
X7475333Y-12013071D01*
X7465809Y-11994024D01*
X7456286Y-11965452D01*
X7446762Y-11917833D01*
X7446762Y-11879738D01*
X7456286Y-11832119D01*
X7465809Y-11803548D01*
X7475333Y-11784500D01*
X7494381Y-11755928D01*
X7503905Y-11746405D01*
X7684857Y-11974976D02*
X7570571Y-11974976D01*
X7627714Y-11974976D02*
X7627714Y-11774976D01*
X7608667Y-11803548D01*
X7589619Y-11822595D01*
X7570571Y-11832119D01*
X7922952Y-11974976D02*
X7922952Y-11774976D01*
X8008667Y-11974976D02*
X8008667Y-11870214D01*
X7999143Y-11851167D01*
X7980095Y-11841643D01*
X7951524Y-11841643D01*
X7932476Y-11851167D01*
X7922952Y-11860690D01*
X8132476Y-11974976D02*
X8113428Y-11965452D01*
X8103905Y-11955928D01*
X8094381Y-11936881D01*
X8094381Y-11879738D01*
X8103905Y-11860690D01*
X8113428Y-11851167D01*
X8132476Y-11841643D01*
X8161048Y-11841643D01*
X8180095Y-11851167D01*
X8189619Y-11860690D01*
X8199143Y-11879738D01*
X8199143Y-11936881D01*
X8189619Y-11955928D01*
X8180095Y-11965452D01*
X8161048Y-11974976D01*
X8132476Y-11974976D01*
X8313428Y-11974976D02*
X8294381Y-11965452D01*
X8284857Y-11946405D01*
X8284857Y-11774976D01*
X8465810Y-11965452D02*
X8446762Y-11974976D01*
X8408667Y-11974976D01*
X8389619Y-11965452D01*
X8380095Y-11946405D01*
X8380095Y-11870214D01*
X8389619Y-11851167D01*
X8408667Y-11841643D01*
X8446762Y-11841643D01*
X8465810Y-11851167D01*
X8475333Y-11870214D01*
X8475333Y-11889262D01*
X8380095Y-11908309D01*
X8542000Y-12051167D02*
X8551524Y-12041643D01*
X8570571Y-12013071D01*
X8580095Y-11994024D01*
X8589619Y-11965452D01*
X8599143Y-11917833D01*
X8599143Y-11879738D01*
X8589619Y-11832119D01*
X8580095Y-11803548D01*
X8570571Y-11784500D01*
X8551524Y-11755928D01*
X8542000Y-11746405D01*
X8903905Y-12051167D02*
X8894381Y-12041643D01*
X8875333Y-12013071D01*
X8865810Y-11994024D01*
X8856286Y-11965452D01*
X8846762Y-11917833D01*
X8846762Y-11879738D01*
X8856286Y-11832119D01*
X8865810Y-11803548D01*
X8875333Y-11784500D01*
X8894381Y-11755928D01*
X8903905Y-11746405D01*
X8980095Y-11841643D02*
X8980095Y-11974976D01*
X8980095Y-11860690D02*
X8989619Y-11851167D01*
X9008667Y-11841643D01*
X9037238Y-11841643D01*
X9056286Y-11851167D01*
X9065810Y-11870214D01*
X9065810Y-11974976D01*
X9189619Y-11974976D02*
X9170571Y-11965452D01*
X9161048Y-11955928D01*
X9151524Y-11936881D01*
X9151524Y-11879738D01*
X9161048Y-11860690D01*
X9170571Y-11851167D01*
X9189619Y-11841643D01*
X9218190Y-11841643D01*
X9237238Y-11851167D01*
X9246762Y-11860690D01*
X9256286Y-11879738D01*
X9256286Y-11936881D01*
X9246762Y-11955928D01*
X9237238Y-11965452D01*
X9218190Y-11974976D01*
X9189619Y-11974976D01*
X9313429Y-11841643D02*
X9389619Y-11841643D01*
X9342000Y-11774976D02*
X9342000Y-11946405D01*
X9351524Y-11965452D01*
X9370571Y-11974976D01*
X9389619Y-11974976D01*
X9608667Y-11841643D02*
X9608667Y-12041643D01*
X9608667Y-11851167D02*
X9627714Y-11841643D01*
X9665810Y-11841643D01*
X9684857Y-11851167D01*
X9694381Y-11860690D01*
X9703905Y-11879738D01*
X9703905Y-11936881D01*
X9694381Y-11955928D01*
X9684857Y-11965452D01*
X9665810Y-11974976D01*
X9627714Y-11974976D01*
X9608667Y-11965452D01*
X9818190Y-11974976D02*
X9799143Y-11965452D01*
X9789619Y-11946405D01*
X9789619Y-11774976D01*
X9980095Y-11974976D02*
X9980095Y-11870214D01*
X9970571Y-11851167D01*
X9951524Y-11841643D01*
X9913429Y-11841643D01*
X9894381Y-11851167D01*
X9980095Y-11965452D02*
X9961048Y-11974976D01*
X9913429Y-11974976D01*
X9894381Y-11965452D01*
X9884857Y-11946405D01*
X9884857Y-11927357D01*
X9894381Y-11908309D01*
X9913429Y-11898786D01*
X9961048Y-11898786D01*
X9980095Y-11889262D01*
X10046762Y-11841643D02*
X10122952Y-11841643D01*
X10075333Y-11774976D02*
X10075333Y-11946405D01*
X10084857Y-11965452D01*
X10103905Y-11974976D01*
X10122952Y-11974976D01*
X10265810Y-11965452D02*
X10246762Y-11974976D01*
X10208667Y-11974976D01*
X10189619Y-11965452D01*
X10180095Y-11946405D01*
X10180095Y-11870214D01*
X10189619Y-11851167D01*
X10208667Y-11841643D01*
X10246762Y-11841643D01*
X10265810Y-11851167D01*
X10275333Y-11870214D01*
X10275333Y-11889262D01*
X10180095Y-11908309D01*
X10446762Y-11974976D02*
X10446762Y-11774976D01*
X10446762Y-11965452D02*
X10427714Y-11974976D01*
X10389619Y-11974976D01*
X10370571Y-11965452D01*
X10361048Y-11955928D01*
X10351524Y-11936881D01*
X10351524Y-11879738D01*
X10361048Y-11860690D01*
X10370571Y-11851167D01*
X10389619Y-11841643D01*
X10427714Y-11841643D01*
X10446762Y-11851167D01*
X10522952Y-12051167D02*
X10532476Y-12041643D01*
X10551524Y-12013071D01*
X10561048Y-11994024D01*
X10570571Y-11965452D01*
X10580095Y-11917833D01*
X10580095Y-11879738D01*
X10570571Y-11832119D01*
X10561048Y-11803548D01*
X10551524Y-11784500D01*
X10532476Y-11755928D01*
X10522952Y-11746405D01*
X3932000Y-12204500D02*
G75*
G03*
X3932000Y-12204500I-100000J0D01*
G01*
X4170571Y-12094976D02*
X4294381Y-12094976D01*
X4227714Y-12171167D01*
X4256286Y-12171167D01*
X4275333Y-12180690D01*
X4284857Y-12190214D01*
X4294381Y-12209262D01*
X4294381Y-12256881D01*
X4284857Y-12275928D01*
X4275333Y-12285452D01*
X4256286Y-12294976D01*
X4199143Y-12294976D01*
X4180095Y-12285452D01*
X4170571Y-12275928D01*
X4380095Y-12275928D02*
X4389619Y-12285452D01*
X4380095Y-12294976D01*
X4370571Y-12285452D01*
X4380095Y-12275928D01*
X4380095Y-12294976D01*
X4561048Y-12094976D02*
X4522952Y-12094976D01*
X4503905Y-12104500D01*
X4494381Y-12114024D01*
X4475333Y-12142595D01*
X4465810Y-12180690D01*
X4465810Y-12256881D01*
X4475333Y-12275928D01*
X4484857Y-12285452D01*
X4503905Y-12294976D01*
X4542000Y-12294976D01*
X4561048Y-12285452D01*
X4570571Y-12275928D01*
X4580095Y-12256881D01*
X4580095Y-12209262D01*
X4570571Y-12190214D01*
X4561048Y-12180690D01*
X4542000Y-12171167D01*
X4503905Y-12171167D01*
X4484857Y-12180690D01*
X4475333Y-12190214D01*
X4465810Y-12209262D01*
X4703905Y-12094976D02*
X4722952Y-12094976D01*
X4742000Y-12104500D01*
X4751524Y-12114024D01*
X4761048Y-12133071D01*
X4770571Y-12171167D01*
X4770571Y-12218786D01*
X4761048Y-12256881D01*
X4751524Y-12275928D01*
X4742000Y-12285452D01*
X4722952Y-12294976D01*
X4703905Y-12294976D01*
X4684857Y-12285452D01*
X4675333Y-12275928D01*
X4665810Y-12256881D01*
X4656286Y-12218786D01*
X4656286Y-12171167D01*
X4665810Y-12133071D01*
X4675333Y-12114024D01*
X4684857Y-12104500D01*
X4703905Y-12094976D01*
X4894381Y-12094976D02*
X4913429Y-12094976D01*
X4932476Y-12104500D01*
X4942000Y-12114024D01*
X4951524Y-12133071D01*
X4961048Y-12171167D01*
X4961048Y-12218786D01*
X4951524Y-12256881D01*
X4942000Y-12275928D01*
X4932476Y-12285452D01*
X4913429Y-12294976D01*
X4894381Y-12294976D01*
X4875333Y-12285452D01*
X4865810Y-12275928D01*
X4856286Y-12256881D01*
X4846762Y-12218786D01*
X4846762Y-12171167D01*
X4856286Y-12133071D01*
X4865810Y-12114024D01*
X4875333Y-12104500D01*
X4894381Y-12094976D01*
X5046762Y-12294976D02*
X5046762Y-12161643D01*
X5046762Y-12180690D02*
X5056286Y-12171167D01*
X5075333Y-12161643D01*
X5103905Y-12161643D01*
X5122952Y-12171167D01*
X5132476Y-12190214D01*
X5132476Y-12294976D01*
X5132476Y-12190214D02*
X5142000Y-12171167D01*
X5161048Y-12161643D01*
X5189619Y-12161643D01*
X5208667Y-12171167D01*
X5218190Y-12190214D01*
X5218190Y-12294976D01*
X5313429Y-12294976D02*
X5313429Y-12161643D01*
X5313429Y-12180690D02*
X5322952Y-12171167D01*
X5342000Y-12161643D01*
X5370571Y-12161643D01*
X5389619Y-12171167D01*
X5399143Y-12190214D01*
X5399143Y-12294976D01*
X5399143Y-12190214D02*
X5408667Y-12171167D01*
X5427714Y-12161643D01*
X5456286Y-12161643D01*
X5475333Y-12171167D01*
X5484857Y-12190214D01*
X5484857Y-12294976D01*
X5875333Y-12085452D02*
X5703905Y-12342595D01*
X6132476Y-12094976D02*
X6151524Y-12094976D01*
X6170571Y-12104500D01*
X6180095Y-12114024D01*
X6189619Y-12133071D01*
X6199143Y-12171167D01*
X6199143Y-12218786D01*
X6189619Y-12256881D01*
X6180095Y-12275928D01*
X6170571Y-12285452D01*
X6151524Y-12294976D01*
X6132476Y-12294976D01*
X6113428Y-12285452D01*
X6103905Y-12275928D01*
X6094381Y-12256881D01*
X6084857Y-12218786D01*
X6084857Y-12171167D01*
X6094381Y-12133071D01*
X6103905Y-12114024D01*
X6113428Y-12104500D01*
X6132476Y-12094976D01*
X6284857Y-12275928D02*
X6294381Y-12285452D01*
X6284857Y-12294976D01*
X6275333Y-12285452D01*
X6284857Y-12275928D01*
X6284857Y-12294976D01*
X6484857Y-12294976D02*
X6370571Y-12294976D01*
X6427714Y-12294976D02*
X6427714Y-12094976D01*
X6408667Y-12123548D01*
X6389619Y-12142595D01*
X6370571Y-12152119D01*
X6656286Y-12161643D02*
X6656286Y-12294976D01*
X6608667Y-12085452D02*
X6561048Y-12228309D01*
X6684857Y-12228309D01*
X6865809Y-12294976D02*
X6751524Y-12294976D01*
X6808667Y-12294976D02*
X6808667Y-12094976D01*
X6789619Y-12123548D01*
X6770571Y-12142595D01*
X6751524Y-12152119D01*
X6932476Y-12094976D02*
X7065809Y-12094976D01*
X6980095Y-12294976D01*
X7132476Y-12094976D02*
X7132476Y-12133071D01*
X7208667Y-12094976D02*
X7208667Y-12133071D01*
X7503905Y-12371167D02*
X7494381Y-12361643D01*
X7475333Y-12333071D01*
X7465809Y-12314024D01*
X7456286Y-12285452D01*
X7446762Y-12237833D01*
X7446762Y-12199738D01*
X7456286Y-12152119D01*
X7465809Y-12123548D01*
X7475333Y-12104500D01*
X7494381Y-12075928D01*
X7503905Y-12066405D01*
X7570571Y-12114024D02*
X7580095Y-12104500D01*
X7599143Y-12094976D01*
X7646762Y-12094976D01*
X7665809Y-12104500D01*
X7675333Y-12114024D01*
X7684857Y-12133071D01*
X7684857Y-12152119D01*
X7675333Y-12180690D01*
X7561048Y-12294976D01*
X7684857Y-12294976D01*
X7922952Y-12294976D02*
X7922952Y-12094976D01*
X8008667Y-12294976D02*
X8008667Y-12190214D01*
X7999143Y-12171167D01*
X7980095Y-12161643D01*
X7951524Y-12161643D01*
X7932476Y-12171167D01*
X7922952Y-12180690D01*
X8132476Y-12294976D02*
X8113428Y-12285452D01*
X8103905Y-12275928D01*
X8094381Y-12256881D01*
X8094381Y-12199738D01*
X8103905Y-12180690D01*
X8113428Y-12171167D01*
X8132476Y-12161643D01*
X8161048Y-12161643D01*
X8180095Y-12171167D01*
X8189619Y-12180690D01*
X8199143Y-12199738D01*
X8199143Y-12256881D01*
X8189619Y-12275928D01*
X8180095Y-12285452D01*
X8161048Y-12294976D01*
X8132476Y-12294976D01*
X8313428Y-12294976D02*
X8294381Y-12285452D01*
X8284857Y-12266405D01*
X8284857Y-12094976D01*
X8465810Y-12285452D02*
X8446762Y-12294976D01*
X8408667Y-12294976D01*
X8389619Y-12285452D01*
X8380095Y-12266405D01*
X8380095Y-12190214D01*
X8389619Y-12171167D01*
X8408667Y-12161643D01*
X8446762Y-12161643D01*
X8465810Y-12171167D01*
X8475333Y-12190214D01*
X8475333Y-12209262D01*
X8380095Y-12228309D01*
X8551524Y-12285452D02*
X8570571Y-12294976D01*
X8608667Y-12294976D01*
X8627714Y-12285452D01*
X8637238Y-12266405D01*
X8637238Y-12256881D01*
X8627714Y-12237833D01*
X8608667Y-12228309D01*
X8580095Y-12228309D01*
X8561048Y-12218786D01*
X8551524Y-12199738D01*
X8551524Y-12190214D01*
X8561048Y-12171167D01*
X8580095Y-12161643D01*
X8608667Y-12161643D01*
X8627714Y-12171167D01*
X8703905Y-12371167D02*
X8713429Y-12361643D01*
X8732476Y-12333071D01*
X8742000Y-12314024D01*
X8751524Y-12285452D01*
X8761048Y-12237833D01*
X8761048Y-12199738D01*
X8751524Y-12152119D01*
X8742000Y-12123548D01*
X8732476Y-12104500D01*
X8713429Y-12075928D01*
X8703905Y-12066405D01*
X9065810Y-12371167D02*
X9056286Y-12361643D01*
X9037238Y-12333071D01*
X9027714Y-12314024D01*
X9018190Y-12285452D01*
X9008667Y-12237833D01*
X9008667Y-12199738D01*
X9018190Y-12152119D01*
X9027714Y-12123548D01*
X9037238Y-12104500D01*
X9056286Y-12075928D01*
X9065810Y-12066405D01*
X9142000Y-12161643D02*
X9142000Y-12294976D01*
X9142000Y-12180690D02*
X9151524Y-12171167D01*
X9170571Y-12161643D01*
X9199143Y-12161643D01*
X9218190Y-12171167D01*
X9227714Y-12190214D01*
X9227714Y-12294976D01*
X9351524Y-12294976D02*
X9332476Y-12285452D01*
X9322952Y-12275928D01*
X9313429Y-12256881D01*
X9313429Y-12199738D01*
X9322952Y-12180690D01*
X9332476Y-12171167D01*
X9351524Y-12161643D01*
X9380095Y-12161643D01*
X9399143Y-12171167D01*
X9408667Y-12180690D01*
X9418190Y-12199738D01*
X9418190Y-12256881D01*
X9408667Y-12275928D01*
X9399143Y-12285452D01*
X9380095Y-12294976D01*
X9351524Y-12294976D01*
X9475333Y-12161643D02*
X9551524Y-12161643D01*
X9503905Y-12094976D02*
X9503905Y-12266405D01*
X9513429Y-12285452D01*
X9532476Y-12294976D01*
X9551524Y-12294976D01*
X9770571Y-12161643D02*
X9770571Y-12361643D01*
X9770571Y-12171167D02*
X9789619Y-12161643D01*
X9827714Y-12161643D01*
X9846762Y-12171167D01*
X9856286Y-12180690D01*
X9865810Y-12199738D01*
X9865810Y-12256881D01*
X9856286Y-12275928D01*
X9846762Y-12285452D01*
X9827714Y-12294976D01*
X9789619Y-12294976D01*
X9770571Y-12285452D01*
X9980095Y-12294976D02*
X9961048Y-12285452D01*
X9951524Y-12266405D01*
X9951524Y-12094976D01*
X10142000Y-12294976D02*
X10142000Y-12190214D01*
X10132476Y-12171167D01*
X10113429Y-12161643D01*
X10075333Y-12161643D01*
X10056286Y-12171167D01*
X10142000Y-12285452D02*
X10122952Y-12294976D01*
X10075333Y-12294976D01*
X10056286Y-12285452D01*
X10046762Y-12266405D01*
X10046762Y-12247357D01*
X10056286Y-12228309D01*
X10075333Y-12218786D01*
X10122952Y-12218786D01*
X10142000Y-12209262D01*
X10208667Y-12161643D02*
X10284857Y-12161643D01*
X10237238Y-12094976D02*
X10237238Y-12266405D01*
X10246762Y-12285452D01*
X10265810Y-12294976D01*
X10284857Y-12294976D01*
X10427714Y-12285452D02*
X10408667Y-12294976D01*
X10370571Y-12294976D01*
X10351524Y-12285452D01*
X10342000Y-12266405D01*
X10342000Y-12190214D01*
X10351524Y-12171167D01*
X10370571Y-12161643D01*
X10408667Y-12161643D01*
X10427714Y-12171167D01*
X10437238Y-12190214D01*
X10437238Y-12209262D01*
X10342000Y-12228309D01*
X10608667Y-12294976D02*
X10608667Y-12094976D01*
X10608667Y-12285452D02*
X10589619Y-12294976D01*
X10551524Y-12294976D01*
X10532476Y-12285452D01*
X10522952Y-12275928D01*
X10513429Y-12256881D01*
X10513429Y-12199738D01*
X10522952Y-12180690D01*
X10532476Y-12171167D01*
X10551524Y-12161643D01*
X10589619Y-12161643D01*
X10608667Y-12171167D01*
X10684857Y-12371167D02*
X10694381Y-12361643D01*
X10713429Y-12333071D01*
X10722952Y-12314024D01*
X10732476Y-12285452D01*
X10742000Y-12237833D01*
X10742000Y-12199738D01*
X10732476Y-12152119D01*
X10722952Y-12123548D01*
X10713429Y-12104500D01*
X10694381Y-12075928D01*
X10684857Y-12066405D01*
M02*
