G04 #@! TF.GenerationSoftware,KiCad,Pcbnew,(6.0.1)*
G04 #@! TF.CreationDate,2022-03-02T00:16:26-05:00*
G04 #@! TF.ProjectId,klxecu,6b6c7865-6375-42e6-9b69-6361645f7063,rev?*
G04 #@! TF.SameCoordinates,Original*
G04 #@! TF.FileFunction,Legend,Bot*
G04 #@! TF.FilePolarity,Positive*
%FSLAX46Y46*%
G04 Gerber Fmt 4.6, Leading zero omitted, Abs format (unit mm)*
G04 Created by KiCad (PCBNEW (6.0.1)) date 2022-03-02 00:16:26*
%MOMM*%
%LPD*%
G01*
G04 APERTURE LIST*
%ADD10C,0.150000*%
%ADD11C,0.120000*%
%ADD12R,1.700000X1.700000*%
%ADD13C,1.524000*%
%ADD14R,1.600000X2.400000*%
%ADD15O,1.600000X2.400000*%
%ADD16C,1.400000*%
%ADD17O,1.400000X1.400000*%
%ADD18R,1.600000X1.600000*%
%ADD19O,1.600000X1.600000*%
%ADD20C,3.800000*%
%ADD21C,1.700000*%
%ADD22C,1.800000*%
%ADD23O,3.500000X3.500000*%
%ADD24R,1.905000X2.000000*%
%ADD25O,1.905000X2.000000*%
%ADD26O,1.700000X1.700000*%
%ADD27R,2.200000X2.200000*%
%ADD28O,2.200000X2.200000*%
%ADD29C,1.600000*%
G04 APERTURE END LIST*
D10*
X115061904Y-85812380D02*
X115061904Y-86621904D01*
X115014285Y-86717142D01*
X114966666Y-86764761D01*
X114871428Y-86812380D01*
X114680952Y-86812380D01*
X114585714Y-86764761D01*
X114538095Y-86717142D01*
X114490476Y-86621904D01*
X114490476Y-85812380D01*
X114109523Y-85812380D02*
X113490476Y-85812380D01*
X113823809Y-86193333D01*
X113680952Y-86193333D01*
X113585714Y-86240952D01*
X113538095Y-86288571D01*
X113490476Y-86383809D01*
X113490476Y-86621904D01*
X113538095Y-86717142D01*
X113585714Y-86764761D01*
X113680952Y-86812380D01*
X113966666Y-86812380D01*
X114061904Y-86764761D01*
X114109523Y-86717142D01*
X120204761Y-84907380D02*
X120204761Y-83907380D01*
X119871428Y-84621666D01*
X119538095Y-83907380D01*
X119538095Y-84907380D01*
X119061904Y-84383571D02*
X118728571Y-84383571D01*
X118585714Y-84907380D02*
X119061904Y-84907380D01*
X119061904Y-83907380D01*
X118585714Y-83907380D01*
X117633333Y-83955000D02*
X117728571Y-83907380D01*
X117871428Y-83907380D01*
X118014285Y-83955000D01*
X118109523Y-84050238D01*
X118157142Y-84145476D01*
X118204761Y-84335952D01*
X118204761Y-84478809D01*
X118157142Y-84669285D01*
X118109523Y-84764523D01*
X118014285Y-84859761D01*
X117871428Y-84907380D01*
X117776190Y-84907380D01*
X117633333Y-84859761D01*
X117585714Y-84812142D01*
X117585714Y-84478809D01*
X117776190Y-84478809D01*
X117204761Y-84621666D02*
X116728571Y-84621666D01*
X117300000Y-84907380D02*
X116966666Y-83907380D01*
X116633333Y-84907380D01*
X115585714Y-84002619D02*
X115538095Y-83955000D01*
X115442857Y-83907380D01*
X115204761Y-83907380D01*
X115109523Y-83955000D01*
X115061904Y-84002619D01*
X115014285Y-84097857D01*
X115014285Y-84193095D01*
X115061904Y-84335952D01*
X115633333Y-84907380D01*
X115014285Y-84907380D01*
X114109523Y-83907380D02*
X114585714Y-83907380D01*
X114633333Y-84383571D01*
X114585714Y-84335952D01*
X114490476Y-84288333D01*
X114252380Y-84288333D01*
X114157142Y-84335952D01*
X114109523Y-84383571D01*
X114061904Y-84478809D01*
X114061904Y-84716904D01*
X114109523Y-84812142D01*
X114157142Y-84859761D01*
X114252380Y-84907380D01*
X114490476Y-84907380D01*
X114585714Y-84859761D01*
X114633333Y-84812142D01*
X113204761Y-83907380D02*
X113395238Y-83907380D01*
X113490476Y-83955000D01*
X113538095Y-84002619D01*
X113633333Y-84145476D01*
X113680952Y-84335952D01*
X113680952Y-84716904D01*
X113633333Y-84812142D01*
X113585714Y-84859761D01*
X113490476Y-84907380D01*
X113300000Y-84907380D01*
X113204761Y-84859761D01*
X113157142Y-84812142D01*
X113109523Y-84716904D01*
X113109523Y-84478809D01*
X113157142Y-84383571D01*
X113204761Y-84335952D01*
X113300000Y-84288333D01*
X113490476Y-84288333D01*
X113585714Y-84335952D01*
X113633333Y-84383571D01*
X113680952Y-84478809D01*
X112490476Y-83907380D02*
X112395238Y-83907380D01*
X112299999Y-83955000D01*
X112252380Y-84002619D01*
X112204761Y-84097857D01*
X112157142Y-84288333D01*
X112157142Y-84526428D01*
X112204761Y-84716904D01*
X112252380Y-84812142D01*
X112299999Y-84859761D01*
X112395238Y-84907380D01*
X112490476Y-84907380D01*
X112585714Y-84859761D01*
X112633333Y-84812142D01*
X112680952Y-84716904D01*
X112728571Y-84526428D01*
X112728571Y-84288333D01*
X112680952Y-84097857D01*
X112633333Y-84002619D01*
X112585714Y-83955000D01*
X112490476Y-83907380D01*
X110966666Y-84907380D02*
X110966666Y-83907380D01*
X110585714Y-83907380D01*
X110490476Y-83955000D01*
X110442857Y-84002619D01*
X110395238Y-84097857D01*
X110395238Y-84240714D01*
X110442857Y-84335952D01*
X110490476Y-84383571D01*
X110585714Y-84431190D01*
X110966666Y-84431190D01*
X109395238Y-84907380D02*
X109728571Y-84431190D01*
X109966666Y-84907380D02*
X109966666Y-83907380D01*
X109585714Y-83907380D01*
X109490476Y-83955000D01*
X109442857Y-84002619D01*
X109395238Y-84097857D01*
X109395238Y-84240714D01*
X109442857Y-84335952D01*
X109490476Y-84383571D01*
X109585714Y-84431190D01*
X109966666Y-84431190D01*
X108776190Y-83907380D02*
X108585714Y-83907380D01*
X108490476Y-83955000D01*
X108395238Y-84050238D01*
X108347619Y-84240714D01*
X108347619Y-84574047D01*
X108395238Y-84764523D01*
X108490476Y-84859761D01*
X108585714Y-84907380D01*
X108776190Y-84907380D01*
X108871428Y-84859761D01*
X108966666Y-84764523D01*
X109014285Y-84574047D01*
X109014285Y-84240714D01*
X108966666Y-84050238D01*
X108871428Y-83955000D01*
X108776190Y-83907380D01*
D11*
X133300000Y-54715000D02*
X95300000Y-54715000D01*
X95300000Y-54715000D02*
X95300000Y-108715000D01*
X95300000Y-108715000D02*
X133300000Y-108715000D01*
X133300000Y-108715000D02*
X133300000Y-54715000D01*
%LPC*%
D12*
X125095000Y-40640000D03*
X128905000Y-40640000D03*
D13*
X132080000Y-64135000D03*
X129540000Y-64135000D03*
X132080000Y-61595000D03*
X129540000Y-61595000D03*
X96520000Y-69215000D03*
X99060000Y-69215000D03*
X96520000Y-71755000D03*
X99060000Y-71755000D03*
X96520000Y-74295000D03*
X99060000Y-74295000D03*
X96520000Y-76835000D03*
X99060000Y-76835000D03*
X96520000Y-79375000D03*
X99060000Y-79375000D03*
X96520000Y-81915000D03*
X99060000Y-81915000D03*
X96520000Y-84455000D03*
X99060000Y-84455000D03*
X96520000Y-86995000D03*
X99060000Y-86995000D03*
X129540000Y-66675000D03*
X129540000Y-71755000D03*
X132080000Y-71755000D03*
X129540000Y-74295000D03*
X132080000Y-74295000D03*
X129540000Y-76835000D03*
X132080000Y-76835000D03*
X129540000Y-79375000D03*
X132080000Y-79375000D03*
X129540000Y-81915000D03*
X132080000Y-81915000D03*
X129540000Y-84455000D03*
X132080000Y-84455000D03*
X129540000Y-86995000D03*
X132080000Y-86995000D03*
X129540000Y-89535000D03*
X132080000Y-89535000D03*
X129540000Y-92075000D03*
X132080000Y-92075000D03*
X129540000Y-94615000D03*
X132080000Y-94615000D03*
X129540000Y-97155000D03*
X132080000Y-97155000D03*
X129540000Y-99695000D03*
X132080000Y-99695000D03*
X129540000Y-102235000D03*
X132080000Y-102235000D03*
X129540000Y-104775000D03*
X132080000Y-104775000D03*
X129540000Y-107315000D03*
X132080000Y-107315000D03*
X96520000Y-89535000D03*
X99060000Y-89535000D03*
X96520000Y-92075000D03*
X99060000Y-92075000D03*
X96520000Y-94615000D03*
X99060000Y-94615000D03*
X96520000Y-97155000D03*
X99060000Y-97155000D03*
X96520000Y-99695000D03*
X99060000Y-99695000D03*
X96520000Y-102235000D03*
X99060000Y-102235000D03*
X96520000Y-104775000D03*
X99060000Y-104775000D03*
X96520000Y-107315000D03*
X99060000Y-107315000D03*
X101600000Y-107315000D03*
X101600000Y-104775000D03*
X104140000Y-107315000D03*
X104140000Y-104775000D03*
X106680000Y-107315000D03*
X106680000Y-104775000D03*
X129540000Y-59055000D03*
X132080000Y-59055000D03*
X132080000Y-66675000D03*
X129540000Y-69215000D03*
X132080000Y-69215000D03*
X132080000Y-56515000D03*
X129540000Y-56515000D03*
D14*
X111775000Y-52085000D03*
D15*
X114315000Y-52085000D03*
X116855000Y-52085000D03*
X119395000Y-52085000D03*
X121935000Y-52085000D03*
X124475000Y-52085000D03*
X127015000Y-52085000D03*
X129555000Y-52085000D03*
X129555000Y-44465000D03*
X127015000Y-44465000D03*
X124475000Y-44465000D03*
X121935000Y-44465000D03*
X119395000Y-44465000D03*
X116855000Y-44465000D03*
X114315000Y-44465000D03*
X111775000Y-44465000D03*
D16*
X104140000Y-102235000D03*
D17*
X104140000Y-97155000D03*
D18*
X66675000Y-102235000D03*
D19*
X64135000Y-102235000D03*
X61595000Y-102235000D03*
X59055000Y-102235000D03*
X59055000Y-109855000D03*
X61595000Y-109855000D03*
X64135000Y-109855000D03*
X66675000Y-109855000D03*
D20*
X44960000Y-55940000D03*
X44960000Y-106940000D03*
D21*
X48260000Y-62140000D03*
X48260000Y-64340000D03*
X48260000Y-66540000D03*
X48260000Y-68740000D03*
X48260000Y-70940000D03*
X48260000Y-73140000D03*
X48260000Y-75340000D03*
X48260000Y-77540000D03*
X48260000Y-79740000D03*
X48260000Y-81940000D03*
X48260000Y-84140000D03*
X48260000Y-86340000D03*
X48260000Y-88540000D03*
X48260000Y-90740000D03*
X48260000Y-92940000D03*
X48260000Y-95140000D03*
X48260000Y-97940000D03*
X48260000Y-100740000D03*
X45260000Y-62140000D03*
X45260000Y-64340000D03*
X45260000Y-66540000D03*
X45260000Y-68740000D03*
X45260000Y-70940000D03*
X45260000Y-73140000D03*
X45260000Y-75340000D03*
X45260000Y-77540000D03*
X45260000Y-79740000D03*
X45260000Y-81940000D03*
X45260000Y-84140000D03*
X45260000Y-86340000D03*
X45260000Y-88540000D03*
X45260000Y-90740000D03*
X45260000Y-92940000D03*
X45260000Y-95140000D03*
X45260000Y-97940000D03*
X45260000Y-100740000D03*
D22*
X55755000Y-50740000D03*
X57755000Y-43240000D03*
D16*
X109855000Y-107315000D03*
D17*
X114935000Y-107315000D03*
X55245000Y-109855000D03*
D16*
X55245000Y-104775000D03*
X74295000Y-105410000D03*
D17*
X74295000Y-100330000D03*
D16*
X76835000Y-100330000D03*
D17*
X76835000Y-105410000D03*
X121920000Y-81915000D03*
D16*
X127000000Y-81915000D03*
X127000000Y-79375000D03*
D17*
X121920000Y-79375000D03*
D16*
X123825000Y-99695000D03*
D17*
X123825000Y-94615000D03*
D16*
X88900000Y-76835000D03*
D17*
X93980000Y-76835000D03*
D16*
X88900000Y-66675000D03*
D17*
X93980000Y-66675000D03*
D16*
X88900000Y-71755000D03*
D17*
X93980000Y-71755000D03*
D16*
X93980000Y-57785000D03*
D17*
X88900000Y-57785000D03*
D16*
X109855000Y-69850000D03*
D17*
X109855000Y-74930000D03*
D16*
X88900000Y-74295000D03*
D17*
X93980000Y-74295000D03*
D16*
X88900000Y-69215000D03*
D17*
X93980000Y-69215000D03*
X112395000Y-69850000D03*
D16*
X112395000Y-74930000D03*
D17*
X114935000Y-69850000D03*
D16*
X114935000Y-74930000D03*
X93980000Y-55245000D03*
D17*
X88900000Y-55245000D03*
D16*
X122555000Y-68580000D03*
D17*
X122555000Y-63500000D03*
D16*
X122555000Y-60960000D03*
D17*
X122555000Y-55880000D03*
D23*
X77470000Y-75755000D03*
D24*
X74930000Y-92415000D03*
D25*
X77470000Y-92415000D03*
X80010000Y-92415000D03*
D12*
X123185000Y-73025000D03*
D26*
X125725000Y-73025000D03*
D12*
X73025000Y-53975000D03*
D26*
X70485000Y-53975000D03*
X67945000Y-53975000D03*
D12*
X119380000Y-67960000D03*
D26*
X119380000Y-70500000D03*
X119380000Y-73040000D03*
D12*
X80645000Y-108585000D03*
X55245000Y-101600000D03*
X80645000Y-102870000D03*
D18*
X65760000Y-79515000D03*
D19*
X63220000Y-79515000D03*
X60680000Y-79515000D03*
X58140000Y-79515000D03*
X58140000Y-87135000D03*
X60680000Y-87135000D03*
X63220000Y-87135000D03*
X65760000Y-87135000D03*
D18*
X119370000Y-56525000D03*
D19*
X116830000Y-56525000D03*
X114290000Y-56525000D03*
X111750000Y-56525000D03*
X111750000Y-64145000D03*
X114290000Y-64145000D03*
X116830000Y-64145000D03*
X119370000Y-64145000D03*
D12*
X125730000Y-56515000D03*
D26*
X125730000Y-59055000D03*
X125730000Y-61595000D03*
X125730000Y-64135000D03*
X125730000Y-66675000D03*
X125730000Y-69215000D03*
D12*
X43830000Y-48900000D03*
D26*
X43830000Y-46360000D03*
X46370000Y-48900000D03*
X46370000Y-46360000D03*
X48910000Y-48900000D03*
X48910000Y-46360000D03*
D18*
X97165000Y-64125000D03*
D19*
X99705000Y-64125000D03*
X102245000Y-64125000D03*
X104785000Y-64125000D03*
X104785000Y-56505000D03*
X102245000Y-56505000D03*
X99705000Y-56505000D03*
X97165000Y-56505000D03*
D27*
X107315000Y-101600000D03*
D28*
X114935000Y-101600000D03*
D27*
X114935000Y-97790000D03*
D28*
X107315000Y-97790000D03*
D18*
X76264888Y-69215000D03*
D29*
X78764888Y-69215000D03*
X61565000Y-98415000D03*
X59065000Y-98415000D03*
X67300000Y-98415000D03*
X64800000Y-98415000D03*
X127000000Y-94655000D03*
X127000000Y-97155000D03*
X104160000Y-80645000D03*
X106660000Y-80645000D03*
X104180000Y-67945000D03*
X106680000Y-67945000D03*
X104160000Y-74295000D03*
X106660000Y-74295000D03*
X89535000Y-80030000D03*
X89535000Y-82530000D03*
X89535000Y-61000000D03*
X89535000Y-63500000D03*
X110490000Y-79990000D03*
X110490000Y-77490000D03*
X104160000Y-77470000D03*
X106660000Y-77470000D03*
X104160000Y-71120000D03*
X106660000Y-71120000D03*
X113665000Y-77490000D03*
X113665000Y-79990000D03*
X92710000Y-80030000D03*
X92710000Y-82530000D03*
X93345000Y-63480000D03*
X93345000Y-60980000D03*
D18*
X93345000Y-44947651D03*
D29*
X93345000Y-39947651D03*
X86975000Y-40005000D03*
X84475000Y-40005000D03*
X61385000Y-48260000D03*
X63885000Y-48260000D03*
D18*
X61679888Y-52705000D03*
D29*
X63679888Y-52705000D03*
D18*
X55245000Y-70475000D03*
D19*
X57785000Y-70475000D03*
X60325000Y-70475000D03*
X62865000Y-70475000D03*
X65405000Y-70475000D03*
X67945000Y-70475000D03*
X70485000Y-70475000D03*
X73025000Y-70475000D03*
X73025000Y-57775000D03*
X70485000Y-57775000D03*
X67945000Y-57775000D03*
X65405000Y-57775000D03*
X62865000Y-57775000D03*
X60325000Y-57775000D03*
X57785000Y-57775000D03*
X55245000Y-57775000D03*
M02*
