%FSLAX45Y45*%
G04 Gerber Fmt 4.5, Leading zero omitted, Abs format (unit mm)*
G04 Created by KiCad (PCBNEW (6.0.1)) date 2022-02-28 18:52:45*
%MOMM*%
%LPD*%
G01*
G04 APERTURE LIST*
%TA.AperFunction,Profile*%
%ADD10C,0.100000*%
%TD*%
%ADD11C,0.200000*%
%ADD12C,0.350000*%
%ADD13C,0.360000*%
G04 APERTURE END LIST*
D10*
X3937000Y-3683000D02*
X13525500Y-3683000D01*
X13525500Y-3683000D02*
X13525500Y-11303000D01*
X13525500Y-11303000D02*
X3937000Y-11303000D01*
X3937000Y-11303000D02*
X3937000Y-3683000D01*
D11*
D12*
X7572000Y-7400500D02*
X7922000Y-7750500D01*
X7922000Y-7400500D02*
X7572000Y-7750500D01*
D13*
X4676000Y-5594000D02*
G75*
G03*
X4676000Y-5594000I-180000J0D01*
G01*
X4676000Y-10694000D02*
G75*
G03*
X4676000Y-10694000I-180000J0D01*
G01*
D11*
X4189619Y-11618476D02*
X4189619Y-11418476D01*
X4237238Y-11418476D01*
X4265810Y-11428000D01*
X4284857Y-11447048D01*
X4294381Y-11466095D01*
X4303905Y-11504190D01*
X4303905Y-11532762D01*
X4294381Y-11570857D01*
X4284857Y-11589905D01*
X4265810Y-11608952D01*
X4237238Y-11618476D01*
X4189619Y-11618476D01*
X4389619Y-11618476D02*
X4389619Y-11485143D01*
X4389619Y-11523238D02*
X4399143Y-11504190D01*
X4408667Y-11494667D01*
X4427714Y-11485143D01*
X4446762Y-11485143D01*
X4513429Y-11618476D02*
X4513429Y-11485143D01*
X4513429Y-11418476D02*
X4503905Y-11428000D01*
X4513429Y-11437524D01*
X4522952Y-11428000D01*
X4513429Y-11418476D01*
X4513429Y-11437524D01*
X4637238Y-11618476D02*
X4618190Y-11608952D01*
X4608667Y-11589905D01*
X4608667Y-11418476D01*
X4742000Y-11618476D02*
X4722952Y-11608952D01*
X4713429Y-11589905D01*
X4713429Y-11418476D01*
X4970571Y-11618476D02*
X4970571Y-11418476D01*
X5037238Y-11561333D01*
X5103905Y-11418476D01*
X5103905Y-11618476D01*
X5284857Y-11618476D02*
X5284857Y-11513714D01*
X5275333Y-11494667D01*
X5256286Y-11485143D01*
X5218190Y-11485143D01*
X5199143Y-11494667D01*
X5284857Y-11608952D02*
X5265810Y-11618476D01*
X5218190Y-11618476D01*
X5199143Y-11608952D01*
X5189619Y-11589905D01*
X5189619Y-11570857D01*
X5199143Y-11551809D01*
X5218190Y-11542286D01*
X5265810Y-11542286D01*
X5284857Y-11532762D01*
X5380095Y-11485143D02*
X5380095Y-11685143D01*
X5380095Y-11494667D02*
X5399143Y-11485143D01*
X5437238Y-11485143D01*
X5456286Y-11494667D01*
X5465810Y-11504190D01*
X5475333Y-11523238D01*
X5475333Y-11580381D01*
X5465810Y-11599428D01*
X5456286Y-11608952D01*
X5437238Y-11618476D01*
X5399143Y-11618476D01*
X5380095Y-11608952D01*
X5561048Y-11599428D02*
X5570571Y-11608952D01*
X5561048Y-11618476D01*
X5551524Y-11608952D01*
X5561048Y-11599428D01*
X5561048Y-11618476D01*
X5561048Y-11494667D02*
X5570571Y-11504190D01*
X5561048Y-11513714D01*
X5551524Y-11504190D01*
X5561048Y-11494667D01*
X5561048Y-11513714D01*
X3732000Y-11848000D02*
X3932000Y-12048000D01*
X3932000Y-11848000D02*
X3732000Y-12048000D01*
X4170571Y-11838476D02*
X4294381Y-11838476D01*
X4227714Y-11914667D01*
X4256286Y-11914667D01*
X4275333Y-11924190D01*
X4284857Y-11933714D01*
X4294381Y-11952762D01*
X4294381Y-12000381D01*
X4284857Y-12019428D01*
X4275333Y-12028952D01*
X4256286Y-12038476D01*
X4199143Y-12038476D01*
X4180095Y-12028952D01*
X4170571Y-12019428D01*
X4380095Y-12019428D02*
X4389619Y-12028952D01*
X4380095Y-12038476D01*
X4370571Y-12028952D01*
X4380095Y-12019428D01*
X4380095Y-12038476D01*
X4570571Y-11838476D02*
X4475333Y-11838476D01*
X4465810Y-11933714D01*
X4475333Y-11924190D01*
X4494381Y-11914667D01*
X4542000Y-11914667D01*
X4561048Y-11924190D01*
X4570571Y-11933714D01*
X4580095Y-11952762D01*
X4580095Y-12000381D01*
X4570571Y-12019428D01*
X4561048Y-12028952D01*
X4542000Y-12038476D01*
X4494381Y-12038476D01*
X4475333Y-12028952D01*
X4465810Y-12019428D01*
X4703905Y-11838476D02*
X4722952Y-11838476D01*
X4742000Y-11848000D01*
X4751524Y-11857524D01*
X4761048Y-11876571D01*
X4770571Y-11914667D01*
X4770571Y-11962286D01*
X4761048Y-12000381D01*
X4751524Y-12019428D01*
X4742000Y-12028952D01*
X4722952Y-12038476D01*
X4703905Y-12038476D01*
X4684857Y-12028952D01*
X4675333Y-12019428D01*
X4665810Y-12000381D01*
X4656286Y-11962286D01*
X4656286Y-11914667D01*
X4665810Y-11876571D01*
X4675333Y-11857524D01*
X4684857Y-11848000D01*
X4703905Y-11838476D01*
X4894381Y-11838476D02*
X4913429Y-11838476D01*
X4932476Y-11848000D01*
X4942000Y-11857524D01*
X4951524Y-11876571D01*
X4961048Y-11914667D01*
X4961048Y-11962286D01*
X4951524Y-12000381D01*
X4942000Y-12019428D01*
X4932476Y-12028952D01*
X4913429Y-12038476D01*
X4894381Y-12038476D01*
X4875333Y-12028952D01*
X4865810Y-12019428D01*
X4856286Y-12000381D01*
X4846762Y-11962286D01*
X4846762Y-11914667D01*
X4856286Y-11876571D01*
X4865810Y-11857524D01*
X4875333Y-11848000D01*
X4894381Y-11838476D01*
X5046762Y-12038476D02*
X5046762Y-11905143D01*
X5046762Y-11924190D02*
X5056286Y-11914667D01*
X5075333Y-11905143D01*
X5103905Y-11905143D01*
X5122952Y-11914667D01*
X5132476Y-11933714D01*
X5132476Y-12038476D01*
X5132476Y-11933714D02*
X5142000Y-11914667D01*
X5161048Y-11905143D01*
X5189619Y-11905143D01*
X5208667Y-11914667D01*
X5218190Y-11933714D01*
X5218190Y-12038476D01*
X5313429Y-12038476D02*
X5313429Y-11905143D01*
X5313429Y-11924190D02*
X5322952Y-11914667D01*
X5342000Y-11905143D01*
X5370571Y-11905143D01*
X5389619Y-11914667D01*
X5399143Y-11933714D01*
X5399143Y-12038476D01*
X5399143Y-11933714D02*
X5408667Y-11914667D01*
X5427714Y-11905143D01*
X5456286Y-11905143D01*
X5475333Y-11914667D01*
X5484857Y-11933714D01*
X5484857Y-12038476D01*
X5875333Y-11828952D02*
X5703905Y-12086095D01*
X6132476Y-11838476D02*
X6151524Y-11838476D01*
X6170571Y-11848000D01*
X6180095Y-11857524D01*
X6189619Y-11876571D01*
X6199143Y-11914667D01*
X6199143Y-11962286D01*
X6189619Y-12000381D01*
X6180095Y-12019428D01*
X6170571Y-12028952D01*
X6151524Y-12038476D01*
X6132476Y-12038476D01*
X6113428Y-12028952D01*
X6103905Y-12019428D01*
X6094381Y-12000381D01*
X6084857Y-11962286D01*
X6084857Y-11914667D01*
X6094381Y-11876571D01*
X6103905Y-11857524D01*
X6113428Y-11848000D01*
X6132476Y-11838476D01*
X6284857Y-12019428D02*
X6294381Y-12028952D01*
X6284857Y-12038476D01*
X6275333Y-12028952D01*
X6284857Y-12019428D01*
X6284857Y-12038476D01*
X6484857Y-12038476D02*
X6370571Y-12038476D01*
X6427714Y-12038476D02*
X6427714Y-11838476D01*
X6408667Y-11867048D01*
X6389619Y-11886095D01*
X6370571Y-11895619D01*
X6551524Y-11838476D02*
X6675333Y-11838476D01*
X6608667Y-11914667D01*
X6637238Y-11914667D01*
X6656286Y-11924190D01*
X6665809Y-11933714D01*
X6675333Y-11952762D01*
X6675333Y-12000381D01*
X6665809Y-12019428D01*
X6656286Y-12028952D01*
X6637238Y-12038476D01*
X6580095Y-12038476D01*
X6561048Y-12028952D01*
X6551524Y-12019428D01*
X6742000Y-11838476D02*
X6875333Y-11838476D01*
X6789619Y-12038476D01*
X6980095Y-11924190D02*
X6961048Y-11914667D01*
X6951524Y-11905143D01*
X6942000Y-11886095D01*
X6942000Y-11876571D01*
X6951524Y-11857524D01*
X6961048Y-11848000D01*
X6980095Y-11838476D01*
X7018190Y-11838476D01*
X7037238Y-11848000D01*
X7046762Y-11857524D01*
X7056286Y-11876571D01*
X7056286Y-11886095D01*
X7046762Y-11905143D01*
X7037238Y-11914667D01*
X7018190Y-11924190D01*
X6980095Y-11924190D01*
X6961048Y-11933714D01*
X6951524Y-11943238D01*
X6942000Y-11962286D01*
X6942000Y-12000381D01*
X6951524Y-12019428D01*
X6961048Y-12028952D01*
X6980095Y-12038476D01*
X7018190Y-12038476D01*
X7037238Y-12028952D01*
X7046762Y-12019428D01*
X7056286Y-12000381D01*
X7056286Y-11962286D01*
X7046762Y-11943238D01*
X7037238Y-11933714D01*
X7018190Y-11924190D01*
X7132476Y-11838476D02*
X7132476Y-11876571D01*
X7208667Y-11838476D02*
X7208667Y-11876571D01*
X7503905Y-12114667D02*
X7494381Y-12105143D01*
X7475333Y-12076571D01*
X7465809Y-12057524D01*
X7456286Y-12028952D01*
X7446762Y-11981333D01*
X7446762Y-11943238D01*
X7456286Y-11895619D01*
X7465809Y-11867048D01*
X7475333Y-11848000D01*
X7494381Y-11819428D01*
X7503905Y-11809905D01*
X7684857Y-12038476D02*
X7570571Y-12038476D01*
X7627714Y-12038476D02*
X7627714Y-11838476D01*
X7608667Y-11867048D01*
X7589619Y-11886095D01*
X7570571Y-11895619D01*
X7922952Y-12038476D02*
X7922952Y-11838476D01*
X8008667Y-12038476D02*
X8008667Y-11933714D01*
X7999143Y-11914667D01*
X7980095Y-11905143D01*
X7951524Y-11905143D01*
X7932476Y-11914667D01*
X7922952Y-11924190D01*
X8132476Y-12038476D02*
X8113428Y-12028952D01*
X8103905Y-12019428D01*
X8094381Y-12000381D01*
X8094381Y-11943238D01*
X8103905Y-11924190D01*
X8113428Y-11914667D01*
X8132476Y-11905143D01*
X8161048Y-11905143D01*
X8180095Y-11914667D01*
X8189619Y-11924190D01*
X8199143Y-11943238D01*
X8199143Y-12000381D01*
X8189619Y-12019428D01*
X8180095Y-12028952D01*
X8161048Y-12038476D01*
X8132476Y-12038476D01*
X8313428Y-12038476D02*
X8294381Y-12028952D01*
X8284857Y-12009905D01*
X8284857Y-11838476D01*
X8465810Y-12028952D02*
X8446762Y-12038476D01*
X8408667Y-12038476D01*
X8389619Y-12028952D01*
X8380095Y-12009905D01*
X8380095Y-11933714D01*
X8389619Y-11914667D01*
X8408667Y-11905143D01*
X8446762Y-11905143D01*
X8465810Y-11914667D01*
X8475333Y-11933714D01*
X8475333Y-11952762D01*
X8380095Y-11971809D01*
X8542000Y-12114667D02*
X8551524Y-12105143D01*
X8570571Y-12076571D01*
X8580095Y-12057524D01*
X8589619Y-12028952D01*
X8599143Y-11981333D01*
X8599143Y-11943238D01*
X8589619Y-11895619D01*
X8580095Y-11867048D01*
X8570571Y-11848000D01*
X8551524Y-11819428D01*
X8542000Y-11809905D01*
X8903905Y-12114667D02*
X8894381Y-12105143D01*
X8875333Y-12076571D01*
X8865810Y-12057524D01*
X8856286Y-12028952D01*
X8846762Y-11981333D01*
X8846762Y-11943238D01*
X8856286Y-11895619D01*
X8865810Y-11867048D01*
X8875333Y-11848000D01*
X8894381Y-11819428D01*
X8903905Y-11809905D01*
X8980095Y-11905143D02*
X8980095Y-12038476D01*
X8980095Y-11924190D02*
X8989619Y-11914667D01*
X9008667Y-11905143D01*
X9037238Y-11905143D01*
X9056286Y-11914667D01*
X9065810Y-11933714D01*
X9065810Y-12038476D01*
X9189619Y-12038476D02*
X9170571Y-12028952D01*
X9161048Y-12019428D01*
X9151524Y-12000381D01*
X9151524Y-11943238D01*
X9161048Y-11924190D01*
X9170571Y-11914667D01*
X9189619Y-11905143D01*
X9218190Y-11905143D01*
X9237238Y-11914667D01*
X9246762Y-11924190D01*
X9256286Y-11943238D01*
X9256286Y-12000381D01*
X9246762Y-12019428D01*
X9237238Y-12028952D01*
X9218190Y-12038476D01*
X9189619Y-12038476D01*
X9313429Y-11905143D02*
X9389619Y-11905143D01*
X9342000Y-11838476D02*
X9342000Y-12009905D01*
X9351524Y-12028952D01*
X9370571Y-12038476D01*
X9389619Y-12038476D01*
X9608667Y-11905143D02*
X9608667Y-12105143D01*
X9608667Y-11914667D02*
X9627714Y-11905143D01*
X9665810Y-11905143D01*
X9684857Y-11914667D01*
X9694381Y-11924190D01*
X9703905Y-11943238D01*
X9703905Y-12000381D01*
X9694381Y-12019428D01*
X9684857Y-12028952D01*
X9665810Y-12038476D01*
X9627714Y-12038476D01*
X9608667Y-12028952D01*
X9818190Y-12038476D02*
X9799143Y-12028952D01*
X9789619Y-12009905D01*
X9789619Y-11838476D01*
X9980095Y-12038476D02*
X9980095Y-11933714D01*
X9970571Y-11914667D01*
X9951524Y-11905143D01*
X9913429Y-11905143D01*
X9894381Y-11914667D01*
X9980095Y-12028952D02*
X9961048Y-12038476D01*
X9913429Y-12038476D01*
X9894381Y-12028952D01*
X9884857Y-12009905D01*
X9884857Y-11990857D01*
X9894381Y-11971809D01*
X9913429Y-11962286D01*
X9961048Y-11962286D01*
X9980095Y-11952762D01*
X10046762Y-11905143D02*
X10122952Y-11905143D01*
X10075333Y-11838476D02*
X10075333Y-12009905D01*
X10084857Y-12028952D01*
X10103905Y-12038476D01*
X10122952Y-12038476D01*
X10265810Y-12028952D02*
X10246762Y-12038476D01*
X10208667Y-12038476D01*
X10189619Y-12028952D01*
X10180095Y-12009905D01*
X10180095Y-11933714D01*
X10189619Y-11914667D01*
X10208667Y-11905143D01*
X10246762Y-11905143D01*
X10265810Y-11914667D01*
X10275333Y-11933714D01*
X10275333Y-11952762D01*
X10180095Y-11971809D01*
X10446762Y-12038476D02*
X10446762Y-11838476D01*
X10446762Y-12028952D02*
X10427714Y-12038476D01*
X10389619Y-12038476D01*
X10370571Y-12028952D01*
X10361048Y-12019428D01*
X10351524Y-12000381D01*
X10351524Y-11943238D01*
X10361048Y-11924190D01*
X10370571Y-11914667D01*
X10389619Y-11905143D01*
X10427714Y-11905143D01*
X10446762Y-11914667D01*
X10522952Y-12114667D02*
X10532476Y-12105143D01*
X10551524Y-12076571D01*
X10561048Y-12057524D01*
X10570571Y-12028952D01*
X10580095Y-11981333D01*
X10580095Y-11943238D01*
X10570571Y-11895619D01*
X10561048Y-11867048D01*
X10551524Y-11848000D01*
X10532476Y-11819428D01*
X10522952Y-11809905D01*
X3932000Y-12268000D02*
G75*
G03*
X3932000Y-12268000I-100000J0D01*
G01*
X4170571Y-12158476D02*
X4294381Y-12158476D01*
X4227714Y-12234667D01*
X4256286Y-12234667D01*
X4275333Y-12244190D01*
X4284857Y-12253714D01*
X4294381Y-12272762D01*
X4294381Y-12320381D01*
X4284857Y-12339428D01*
X4275333Y-12348952D01*
X4256286Y-12358476D01*
X4199143Y-12358476D01*
X4180095Y-12348952D01*
X4170571Y-12339428D01*
X4380095Y-12339428D02*
X4389619Y-12348952D01*
X4380095Y-12358476D01*
X4370571Y-12348952D01*
X4380095Y-12339428D01*
X4380095Y-12358476D01*
X4561048Y-12158476D02*
X4522952Y-12158476D01*
X4503905Y-12168000D01*
X4494381Y-12177524D01*
X4475333Y-12206095D01*
X4465810Y-12244190D01*
X4465810Y-12320381D01*
X4475333Y-12339428D01*
X4484857Y-12348952D01*
X4503905Y-12358476D01*
X4542000Y-12358476D01*
X4561048Y-12348952D01*
X4570571Y-12339428D01*
X4580095Y-12320381D01*
X4580095Y-12272762D01*
X4570571Y-12253714D01*
X4561048Y-12244190D01*
X4542000Y-12234667D01*
X4503905Y-12234667D01*
X4484857Y-12244190D01*
X4475333Y-12253714D01*
X4465810Y-12272762D01*
X4703905Y-12158476D02*
X4722952Y-12158476D01*
X4742000Y-12168000D01*
X4751524Y-12177524D01*
X4761048Y-12196571D01*
X4770571Y-12234667D01*
X4770571Y-12282286D01*
X4761048Y-12320381D01*
X4751524Y-12339428D01*
X4742000Y-12348952D01*
X4722952Y-12358476D01*
X4703905Y-12358476D01*
X4684857Y-12348952D01*
X4675333Y-12339428D01*
X4665810Y-12320381D01*
X4656286Y-12282286D01*
X4656286Y-12234667D01*
X4665810Y-12196571D01*
X4675333Y-12177524D01*
X4684857Y-12168000D01*
X4703905Y-12158476D01*
X4894381Y-12158476D02*
X4913429Y-12158476D01*
X4932476Y-12168000D01*
X4942000Y-12177524D01*
X4951524Y-12196571D01*
X4961048Y-12234667D01*
X4961048Y-12282286D01*
X4951524Y-12320381D01*
X4942000Y-12339428D01*
X4932476Y-12348952D01*
X4913429Y-12358476D01*
X4894381Y-12358476D01*
X4875333Y-12348952D01*
X4865810Y-12339428D01*
X4856286Y-12320381D01*
X4846762Y-12282286D01*
X4846762Y-12234667D01*
X4856286Y-12196571D01*
X4865810Y-12177524D01*
X4875333Y-12168000D01*
X4894381Y-12158476D01*
X5046762Y-12358476D02*
X5046762Y-12225143D01*
X5046762Y-12244190D02*
X5056286Y-12234667D01*
X5075333Y-12225143D01*
X5103905Y-12225143D01*
X5122952Y-12234667D01*
X5132476Y-12253714D01*
X5132476Y-12358476D01*
X5132476Y-12253714D02*
X5142000Y-12234667D01*
X5161048Y-12225143D01*
X5189619Y-12225143D01*
X5208667Y-12234667D01*
X5218190Y-12253714D01*
X5218190Y-12358476D01*
X5313429Y-12358476D02*
X5313429Y-12225143D01*
X5313429Y-12244190D02*
X5322952Y-12234667D01*
X5342000Y-12225143D01*
X5370571Y-12225143D01*
X5389619Y-12234667D01*
X5399143Y-12253714D01*
X5399143Y-12358476D01*
X5399143Y-12253714D02*
X5408667Y-12234667D01*
X5427714Y-12225143D01*
X5456286Y-12225143D01*
X5475333Y-12234667D01*
X5484857Y-12253714D01*
X5484857Y-12358476D01*
X5875333Y-12148952D02*
X5703905Y-12406095D01*
X6132476Y-12158476D02*
X6151524Y-12158476D01*
X6170571Y-12168000D01*
X6180095Y-12177524D01*
X6189619Y-12196571D01*
X6199143Y-12234667D01*
X6199143Y-12282286D01*
X6189619Y-12320381D01*
X6180095Y-12339428D01*
X6170571Y-12348952D01*
X6151524Y-12358476D01*
X6132476Y-12358476D01*
X6113428Y-12348952D01*
X6103905Y-12339428D01*
X6094381Y-12320381D01*
X6084857Y-12282286D01*
X6084857Y-12234667D01*
X6094381Y-12196571D01*
X6103905Y-12177524D01*
X6113428Y-12168000D01*
X6132476Y-12158476D01*
X6284857Y-12339428D02*
X6294381Y-12348952D01*
X6284857Y-12358476D01*
X6275333Y-12348952D01*
X6284857Y-12339428D01*
X6284857Y-12358476D01*
X6484857Y-12358476D02*
X6370571Y-12358476D01*
X6427714Y-12358476D02*
X6427714Y-12158476D01*
X6408667Y-12187048D01*
X6389619Y-12206095D01*
X6370571Y-12215619D01*
X6656286Y-12225143D02*
X6656286Y-12358476D01*
X6608667Y-12148952D02*
X6561048Y-12291809D01*
X6684857Y-12291809D01*
X6865809Y-12358476D02*
X6751524Y-12358476D01*
X6808667Y-12358476D02*
X6808667Y-12158476D01*
X6789619Y-12187048D01*
X6770571Y-12206095D01*
X6751524Y-12215619D01*
X6932476Y-12158476D02*
X7065809Y-12158476D01*
X6980095Y-12358476D01*
X7132476Y-12158476D02*
X7132476Y-12196571D01*
X7208667Y-12158476D02*
X7208667Y-12196571D01*
X7503905Y-12434667D02*
X7494381Y-12425143D01*
X7475333Y-12396571D01*
X7465809Y-12377524D01*
X7456286Y-12348952D01*
X7446762Y-12301333D01*
X7446762Y-12263238D01*
X7456286Y-12215619D01*
X7465809Y-12187048D01*
X7475333Y-12168000D01*
X7494381Y-12139428D01*
X7503905Y-12129905D01*
X7570571Y-12177524D02*
X7580095Y-12168000D01*
X7599143Y-12158476D01*
X7646762Y-12158476D01*
X7665809Y-12168000D01*
X7675333Y-12177524D01*
X7684857Y-12196571D01*
X7684857Y-12215619D01*
X7675333Y-12244190D01*
X7561048Y-12358476D01*
X7684857Y-12358476D01*
X7922952Y-12358476D02*
X7922952Y-12158476D01*
X8008667Y-12358476D02*
X8008667Y-12253714D01*
X7999143Y-12234667D01*
X7980095Y-12225143D01*
X7951524Y-12225143D01*
X7932476Y-12234667D01*
X7922952Y-12244190D01*
X8132476Y-12358476D02*
X8113428Y-12348952D01*
X8103905Y-12339428D01*
X8094381Y-12320381D01*
X8094381Y-12263238D01*
X8103905Y-12244190D01*
X8113428Y-12234667D01*
X8132476Y-12225143D01*
X8161048Y-12225143D01*
X8180095Y-12234667D01*
X8189619Y-12244190D01*
X8199143Y-12263238D01*
X8199143Y-12320381D01*
X8189619Y-12339428D01*
X8180095Y-12348952D01*
X8161048Y-12358476D01*
X8132476Y-12358476D01*
X8313428Y-12358476D02*
X8294381Y-12348952D01*
X8284857Y-12329905D01*
X8284857Y-12158476D01*
X8465810Y-12348952D02*
X8446762Y-12358476D01*
X8408667Y-12358476D01*
X8389619Y-12348952D01*
X8380095Y-12329905D01*
X8380095Y-12253714D01*
X8389619Y-12234667D01*
X8408667Y-12225143D01*
X8446762Y-12225143D01*
X8465810Y-12234667D01*
X8475333Y-12253714D01*
X8475333Y-12272762D01*
X8380095Y-12291809D01*
X8551524Y-12348952D02*
X8570571Y-12358476D01*
X8608667Y-12358476D01*
X8627714Y-12348952D01*
X8637238Y-12329905D01*
X8637238Y-12320381D01*
X8627714Y-12301333D01*
X8608667Y-12291809D01*
X8580095Y-12291809D01*
X8561048Y-12282286D01*
X8551524Y-12263238D01*
X8551524Y-12253714D01*
X8561048Y-12234667D01*
X8580095Y-12225143D01*
X8608667Y-12225143D01*
X8627714Y-12234667D01*
X8703905Y-12434667D02*
X8713429Y-12425143D01*
X8732476Y-12396571D01*
X8742000Y-12377524D01*
X8751524Y-12348952D01*
X8761048Y-12301333D01*
X8761048Y-12263238D01*
X8751524Y-12215619D01*
X8742000Y-12187048D01*
X8732476Y-12168000D01*
X8713429Y-12139428D01*
X8703905Y-12129905D01*
X9065810Y-12434667D02*
X9056286Y-12425143D01*
X9037238Y-12396571D01*
X9027714Y-12377524D01*
X9018190Y-12348952D01*
X9008667Y-12301333D01*
X9008667Y-12263238D01*
X9018190Y-12215619D01*
X9027714Y-12187048D01*
X9037238Y-12168000D01*
X9056286Y-12139428D01*
X9065810Y-12129905D01*
X9142000Y-12225143D02*
X9142000Y-12358476D01*
X9142000Y-12244190D02*
X9151524Y-12234667D01*
X9170571Y-12225143D01*
X9199143Y-12225143D01*
X9218190Y-12234667D01*
X9227714Y-12253714D01*
X9227714Y-12358476D01*
X9351524Y-12358476D02*
X9332476Y-12348952D01*
X9322952Y-12339428D01*
X9313429Y-12320381D01*
X9313429Y-12263238D01*
X9322952Y-12244190D01*
X9332476Y-12234667D01*
X9351524Y-12225143D01*
X9380095Y-12225143D01*
X9399143Y-12234667D01*
X9408667Y-12244190D01*
X9418190Y-12263238D01*
X9418190Y-12320381D01*
X9408667Y-12339428D01*
X9399143Y-12348952D01*
X9380095Y-12358476D01*
X9351524Y-12358476D01*
X9475333Y-12225143D02*
X9551524Y-12225143D01*
X9503905Y-12158476D02*
X9503905Y-12329905D01*
X9513429Y-12348952D01*
X9532476Y-12358476D01*
X9551524Y-12358476D01*
X9770571Y-12225143D02*
X9770571Y-12425143D01*
X9770571Y-12234667D02*
X9789619Y-12225143D01*
X9827714Y-12225143D01*
X9846762Y-12234667D01*
X9856286Y-12244190D01*
X9865810Y-12263238D01*
X9865810Y-12320381D01*
X9856286Y-12339428D01*
X9846762Y-12348952D01*
X9827714Y-12358476D01*
X9789619Y-12358476D01*
X9770571Y-12348952D01*
X9980095Y-12358476D02*
X9961048Y-12348952D01*
X9951524Y-12329905D01*
X9951524Y-12158476D01*
X10142000Y-12358476D02*
X10142000Y-12253714D01*
X10132476Y-12234667D01*
X10113429Y-12225143D01*
X10075333Y-12225143D01*
X10056286Y-12234667D01*
X10142000Y-12348952D02*
X10122952Y-12358476D01*
X10075333Y-12358476D01*
X10056286Y-12348952D01*
X10046762Y-12329905D01*
X10046762Y-12310857D01*
X10056286Y-12291809D01*
X10075333Y-12282286D01*
X10122952Y-12282286D01*
X10142000Y-12272762D01*
X10208667Y-12225143D02*
X10284857Y-12225143D01*
X10237238Y-12158476D02*
X10237238Y-12329905D01*
X10246762Y-12348952D01*
X10265810Y-12358476D01*
X10284857Y-12358476D01*
X10427714Y-12348952D02*
X10408667Y-12358476D01*
X10370571Y-12358476D01*
X10351524Y-12348952D01*
X10342000Y-12329905D01*
X10342000Y-12253714D01*
X10351524Y-12234667D01*
X10370571Y-12225143D01*
X10408667Y-12225143D01*
X10427714Y-12234667D01*
X10437238Y-12253714D01*
X10437238Y-12272762D01*
X10342000Y-12291809D01*
X10608667Y-12358476D02*
X10608667Y-12158476D01*
X10608667Y-12348952D02*
X10589619Y-12358476D01*
X10551524Y-12358476D01*
X10532476Y-12348952D01*
X10522952Y-12339428D01*
X10513429Y-12320381D01*
X10513429Y-12263238D01*
X10522952Y-12244190D01*
X10532476Y-12234667D01*
X10551524Y-12225143D01*
X10589619Y-12225143D01*
X10608667Y-12234667D01*
X10684857Y-12434667D02*
X10694381Y-12425143D01*
X10713429Y-12396571D01*
X10722952Y-12377524D01*
X10732476Y-12348952D01*
X10742000Y-12301333D01*
X10742000Y-12263238D01*
X10732476Y-12215619D01*
X10722952Y-12187048D01*
X10713429Y-12168000D01*
X10694381Y-12139428D01*
X10684857Y-12129905D01*
M02*
