G04 #@! TF.GenerationSoftware,KiCad,Pcbnew,(6.0.1)*
G04 #@! TF.CreationDate,2022-02-28T18:52:36-05:00*
G04 #@! TF.ProjectId,klxecu,6b6c7865-6375-42e6-9b69-6361645f7063,rev?*
G04 #@! TF.SameCoordinates,Original*
G04 #@! TF.FileFunction,Soldermask,Top*
G04 #@! TF.FilePolarity,Negative*
%FSLAX46Y46*%
G04 Gerber Fmt 4.6, Leading zero omitted, Abs format (unit mm)*
G04 Created by KiCad (PCBNEW (6.0.1)) date 2022-02-28 18:52:36*
%MOMM*%
%LPD*%
G01*
G04 APERTURE LIST*
G04 Aperture macros list*
%AMRoundRect*
0 Rectangle with rounded corners*
0 $1 Rounding radius*
0 $2 $3 $4 $5 $6 $7 $8 $9 X,Y pos of 4 corners*
0 Add a 4 corners polygon primitive as box body*
4,1,4,$2,$3,$4,$5,$6,$7,$8,$9,$2,$3,0*
0 Add four circle primitives for the rounded corners*
1,1,$1+$1,$2,$3*
1,1,$1+$1,$4,$5*
1,1,$1+$1,$6,$7*
1,1,$1+$1,$8,$9*
0 Add four rect primitives between the rounded corners*
20,1,$1+$1,$2,$3,$4,$5,0*
20,1,$1+$1,$4,$5,$6,$7,0*
20,1,$1+$1,$6,$7,$8,$9,0*
20,1,$1+$1,$8,$9,$2,$3,0*%
%AMFreePoly0*
4,1,22,0.500000,-0.750000,0.000000,-0.750000,0.000000,-0.745033,-0.079941,-0.743568,-0.215256,-0.701293,-0.333266,-0.622738,-0.424486,-0.514219,-0.481581,-0.384460,-0.499164,-0.250000,-0.500000,-0.250000,-0.500000,0.250000,-0.499164,0.250000,-0.499963,0.256109,-0.478152,0.396186,-0.417904,0.524511,-0.324060,0.630769,-0.204165,0.706417,-0.067858,0.745374,0.000000,0.744959,0.000000,0.750000,
0.500000,0.750000,0.500000,-0.750000,0.500000,-0.750000,$1*%
%AMFreePoly1*
4,1,20,0.000000,0.744959,0.073905,0.744508,0.209726,0.703889,0.328688,0.626782,0.421226,0.519385,0.479903,0.390333,0.500000,0.250000,0.500000,-0.250000,0.499851,-0.262216,0.476331,-0.402017,0.414519,-0.529596,0.319384,-0.634700,0.198574,-0.708877,0.061801,-0.746166,0.000000,-0.745033,0.000000,-0.750000,-0.500000,-0.750000,-0.500000,0.750000,0.000000,0.750000,0.000000,0.744959,
0.000000,0.744959,$1*%
G04 Aperture macros list end*
%ADD10FreePoly0,0.000000*%
%ADD11FreePoly1,0.000000*%
%ADD12R,1.700000X1.700000*%
%ADD13C,1.524000*%
%ADD14R,1.600000X2.400000*%
%ADD15O,1.600000X2.400000*%
%ADD16C,1.400000*%
%ADD17O,1.400000X1.400000*%
%ADD18R,1.600000X1.600000*%
%ADD19O,1.600000X1.600000*%
%ADD20R,4.600000X1.100000*%
%ADD21R,9.400000X10.800000*%
%ADD22C,3.800000*%
%ADD23C,1.700000*%
%ADD24C,1.800000*%
%ADD25RoundRect,0.150000X0.587500X0.150000X-0.587500X0.150000X-0.587500X-0.150000X0.587500X-0.150000X0*%
%ADD26O,3.500000X3.500000*%
%ADD27R,1.905000X2.000000*%
%ADD28O,1.905000X2.000000*%
%ADD29O,1.700000X1.700000*%
%ADD30FreePoly1,270.000000*%
%ADD31FreePoly0,270.000000*%
%ADD32FreePoly1,90.000000*%
%ADD33FreePoly0,90.000000*%
%ADD34R,2.200000X2.200000*%
%ADD35O,2.200000X2.200000*%
%ADD36R,2.300000X2.500000*%
%ADD37R,1.800000X2.500000*%
%ADD38C,1.600000*%
G04 APERTURE END LIST*
D10*
X120000000Y-41275000D03*
D11*
X121300000Y-41275000D03*
D12*
X125095000Y-40640000D03*
X128905000Y-40640000D03*
D13*
X132080000Y-64135000D03*
X129540000Y-64135000D03*
X132080000Y-61595000D03*
X129540000Y-61595000D03*
X96520000Y-69215000D03*
X99060000Y-69215000D03*
X96520000Y-71755000D03*
X99060000Y-71755000D03*
X96520000Y-74295000D03*
X99060000Y-74295000D03*
X96520000Y-76835000D03*
X99060000Y-76835000D03*
X96520000Y-79375000D03*
X99060000Y-79375000D03*
X96520000Y-81915000D03*
X99060000Y-81915000D03*
X96520000Y-84455000D03*
X99060000Y-84455000D03*
X96520000Y-86995000D03*
X99060000Y-86995000D03*
X129540000Y-66675000D03*
X129540000Y-71755000D03*
X132080000Y-71755000D03*
X129540000Y-74295000D03*
X132080000Y-74295000D03*
X129540000Y-76835000D03*
X132080000Y-76835000D03*
X129540000Y-79375000D03*
X132080000Y-79375000D03*
X129540000Y-81915000D03*
X132080000Y-81915000D03*
X129540000Y-84455000D03*
X132080000Y-84455000D03*
X129540000Y-86995000D03*
X132080000Y-86995000D03*
X129540000Y-89535000D03*
X132080000Y-89535000D03*
X129540000Y-92075000D03*
X132080000Y-92075000D03*
X129540000Y-94615000D03*
X132080000Y-94615000D03*
X129540000Y-97155000D03*
X132080000Y-97155000D03*
X129540000Y-99695000D03*
X132080000Y-99695000D03*
X129540000Y-102235000D03*
X132080000Y-102235000D03*
X129540000Y-104775000D03*
X132080000Y-104775000D03*
X129540000Y-107315000D03*
X132080000Y-107315000D03*
X96520000Y-89535000D03*
X99060000Y-89535000D03*
X96520000Y-92075000D03*
X99060000Y-92075000D03*
X96520000Y-94615000D03*
X99060000Y-94615000D03*
X96520000Y-97155000D03*
X99060000Y-97155000D03*
X96520000Y-99695000D03*
X99060000Y-99695000D03*
X96520000Y-102235000D03*
X99060000Y-102235000D03*
X96520000Y-104775000D03*
X99060000Y-104775000D03*
X96520000Y-107315000D03*
X99060000Y-107315000D03*
X101600000Y-107315000D03*
X101600000Y-104775000D03*
X104140000Y-107315000D03*
X104140000Y-104775000D03*
X106680000Y-107315000D03*
X106680000Y-104775000D03*
X129540000Y-59055000D03*
X132080000Y-59055000D03*
X132080000Y-66675000D03*
X129540000Y-69215000D03*
X132080000Y-69215000D03*
X132080000Y-56515000D03*
X129540000Y-56515000D03*
D14*
X111775000Y-52085000D03*
D15*
X114315000Y-52085000D03*
X116855000Y-52085000D03*
X119395000Y-52085000D03*
X121935000Y-52085000D03*
X124475000Y-52085000D03*
X127015000Y-52085000D03*
X129555000Y-52085000D03*
X129555000Y-44465000D03*
X127015000Y-44465000D03*
X124475000Y-44465000D03*
X121935000Y-44465000D03*
X119395000Y-44465000D03*
X116855000Y-44465000D03*
X114315000Y-44465000D03*
X111775000Y-44465000D03*
D16*
X104140000Y-102235000D03*
D17*
X104140000Y-97155000D03*
D10*
X106030000Y-44450000D03*
D11*
X107330000Y-44450000D03*
D10*
X106030000Y-48895000D03*
D11*
X107330000Y-48895000D03*
D10*
X100950000Y-48895000D03*
D11*
X102250000Y-48895000D03*
D10*
X100950000Y-44450000D03*
D11*
X102250000Y-44450000D03*
D18*
X66675000Y-102235000D03*
D19*
X64135000Y-102235000D03*
X61595000Y-102235000D03*
X59055000Y-102235000D03*
X59055000Y-109855000D03*
X61595000Y-109855000D03*
X64135000Y-109855000D03*
X66675000Y-109855000D03*
D20*
X68205000Y-41675000D03*
D21*
X77355000Y-44215000D03*
D20*
X68205000Y-44215000D03*
X68205000Y-46755000D03*
D22*
X44960000Y-55940000D03*
X44960000Y-106940000D03*
D23*
X48260000Y-62140000D03*
X48260000Y-64340000D03*
X48260000Y-66540000D03*
X48260000Y-68740000D03*
X48260000Y-70940000D03*
X48260000Y-73140000D03*
X48260000Y-75340000D03*
X48260000Y-77540000D03*
X48260000Y-79740000D03*
X48260000Y-81940000D03*
X48260000Y-84140000D03*
X48260000Y-86340000D03*
X48260000Y-88540000D03*
X48260000Y-90740000D03*
X48260000Y-92940000D03*
X48260000Y-95140000D03*
X48260000Y-97940000D03*
X48260000Y-100740000D03*
X45260000Y-62140000D03*
X45260000Y-64340000D03*
X45260000Y-66540000D03*
X45260000Y-68740000D03*
X45260000Y-70940000D03*
X45260000Y-73140000D03*
X45260000Y-75340000D03*
X45260000Y-77540000D03*
X45260000Y-79740000D03*
X45260000Y-81940000D03*
X45260000Y-84140000D03*
X45260000Y-86340000D03*
X45260000Y-88540000D03*
X45260000Y-90740000D03*
X45260000Y-92940000D03*
X45260000Y-95140000D03*
X45260000Y-97940000D03*
X45260000Y-100740000D03*
D24*
X55755000Y-50740000D03*
X57755000Y-43240000D03*
D16*
X109855000Y-107315000D03*
D17*
X114935000Y-107315000D03*
X55245000Y-109855000D03*
D16*
X55245000Y-104775000D03*
X74295000Y-105410000D03*
D17*
X74295000Y-100330000D03*
D16*
X76835000Y-100330000D03*
D17*
X76835000Y-105410000D03*
X121920000Y-81915000D03*
D16*
X127000000Y-81915000D03*
X127000000Y-79375000D03*
D17*
X121920000Y-79375000D03*
D16*
X123825000Y-99695000D03*
D17*
X123825000Y-94615000D03*
D16*
X88900000Y-76835000D03*
D17*
X93980000Y-76835000D03*
D16*
X88900000Y-66675000D03*
D17*
X93980000Y-66675000D03*
D16*
X88900000Y-71755000D03*
D17*
X93980000Y-71755000D03*
D16*
X93980000Y-57785000D03*
D17*
X88900000Y-57785000D03*
D16*
X109855000Y-69850000D03*
D17*
X109855000Y-74930000D03*
D16*
X88900000Y-74295000D03*
D17*
X93980000Y-74295000D03*
D16*
X88900000Y-69215000D03*
D17*
X93980000Y-69215000D03*
X112395000Y-69850000D03*
D16*
X112395000Y-74930000D03*
D17*
X114935000Y-69850000D03*
D16*
X114935000Y-74930000D03*
X93980000Y-55245000D03*
D17*
X88900000Y-55245000D03*
D16*
X122555000Y-68580000D03*
D17*
X122555000Y-63500000D03*
D16*
X122555000Y-60960000D03*
D17*
X122555000Y-55880000D03*
D25*
X87297500Y-106995000D03*
X87297500Y-105095000D03*
X85422500Y-106045000D03*
X92377500Y-93660000D03*
X92377500Y-91760000D03*
X90502500Y-92710000D03*
X92377500Y-98105000D03*
X92377500Y-96205000D03*
X90502500Y-97155000D03*
X92377500Y-102550000D03*
X92377500Y-100650000D03*
X90502500Y-101600000D03*
D26*
X77470000Y-75755000D03*
D27*
X74930000Y-92415000D03*
D28*
X77470000Y-92415000D03*
X80010000Y-92415000D03*
D25*
X87297500Y-102550000D03*
X87297500Y-100650000D03*
X85422500Y-101600000D03*
X87297500Y-93660000D03*
X87297500Y-91760000D03*
X85422500Y-92710000D03*
D12*
X123185000Y-73025000D03*
D29*
X125725000Y-73025000D03*
D12*
X73025000Y-53975000D03*
D29*
X70485000Y-53975000D03*
X67945000Y-53975000D03*
D30*
X69860000Y-110495000D03*
D31*
X69860000Y-109195000D03*
X69860000Y-105385000D03*
D30*
X69860000Y-106685000D03*
D32*
X69860000Y-101575000D03*
D33*
X69860000Y-102875000D03*
X86360000Y-97805000D03*
D32*
X86360000Y-96505000D03*
D12*
X119380000Y-67960000D03*
D29*
X119380000Y-70500000D03*
X119380000Y-73040000D03*
D12*
X80645000Y-108585000D03*
X55245000Y-101600000D03*
X80645000Y-102870000D03*
D18*
X65760000Y-79515000D03*
D19*
X63220000Y-79515000D03*
X60680000Y-79515000D03*
X58140000Y-79515000D03*
X58140000Y-87135000D03*
X60680000Y-87135000D03*
X63220000Y-87135000D03*
X65760000Y-87135000D03*
D18*
X119370000Y-56525000D03*
D19*
X116830000Y-56525000D03*
X114290000Y-56525000D03*
X111750000Y-56525000D03*
X111750000Y-64145000D03*
X114290000Y-64145000D03*
X116830000Y-64145000D03*
X119370000Y-64145000D03*
D12*
X125730000Y-56515000D03*
D29*
X125730000Y-59055000D03*
X125730000Y-61595000D03*
X125730000Y-64135000D03*
X125730000Y-66675000D03*
X125730000Y-69215000D03*
D12*
X43830000Y-48900000D03*
D29*
X43830000Y-46360000D03*
X46370000Y-48900000D03*
X46370000Y-46360000D03*
X48910000Y-48900000D03*
X48910000Y-46360000D03*
D18*
X97165000Y-64125000D03*
D19*
X99705000Y-64125000D03*
X102245000Y-64125000D03*
X104785000Y-64125000D03*
X104785000Y-56505000D03*
X102245000Y-56505000D03*
X99705000Y-56505000D03*
X97165000Y-56505000D03*
D34*
X107315000Y-101600000D03*
D35*
X114935000Y-101600000D03*
D34*
X114935000Y-97790000D03*
D35*
X107315000Y-97790000D03*
D36*
X85090000Y-47870000D03*
X85090000Y-43570000D03*
D37*
X62635000Y-40545000D03*
X62635000Y-44545000D03*
D18*
X76264888Y-69215000D03*
D38*
X78764888Y-69215000D03*
X61565000Y-98415000D03*
X59065000Y-98415000D03*
X67300000Y-98415000D03*
X64800000Y-98415000D03*
X127000000Y-94655000D03*
X127000000Y-97155000D03*
X104160000Y-80645000D03*
X106660000Y-80645000D03*
X104180000Y-67945000D03*
X106680000Y-67945000D03*
X104160000Y-74295000D03*
X106660000Y-74295000D03*
X89535000Y-80030000D03*
X89535000Y-82530000D03*
X89535000Y-61000000D03*
X89535000Y-63500000D03*
X110490000Y-79990000D03*
X110490000Y-77490000D03*
X104160000Y-77470000D03*
X106660000Y-77470000D03*
X104160000Y-71120000D03*
X106660000Y-71120000D03*
X113665000Y-77490000D03*
X113665000Y-79990000D03*
X92710000Y-80030000D03*
X92710000Y-82530000D03*
X93345000Y-63480000D03*
X93345000Y-60980000D03*
D18*
X93345000Y-44947651D03*
D38*
X93345000Y-39947651D03*
X86975000Y-40005000D03*
X84475000Y-40005000D03*
X61385000Y-48260000D03*
X63885000Y-48260000D03*
D18*
X61679888Y-52705000D03*
D38*
X63679888Y-52705000D03*
D18*
X55245000Y-70475000D03*
D19*
X57785000Y-70475000D03*
X60325000Y-70475000D03*
X62865000Y-70475000D03*
X65405000Y-70475000D03*
X67945000Y-70475000D03*
X70485000Y-70475000D03*
X73025000Y-70475000D03*
X73025000Y-57775000D03*
X70485000Y-57775000D03*
X67945000Y-57775000D03*
X65405000Y-57775000D03*
X62865000Y-57775000D03*
X60325000Y-57775000D03*
X57785000Y-57775000D03*
X55245000Y-57775000D03*
M02*
